<svg width="100" height="100" viewBox="0 0 100 100" fill="none" xmlns="http://www.w3.org/2000/svg">
<path d="M88.3123 64.6992L86.6877 67.3686C89.9094 69.3297 93.75 72.5167 93.75 76.5623C93.75 80.8342 89.2645 85.1405 81.4434 88.3768C73.07 91.8416 61.9032 93.7498 50 93.7498C38.0968 93.7498 26.93 91.8416 18.5566 88.3768C10.7355 85.1405 6.25 80.8342 6.25 76.5623C6.25 72.5167 10.0906 69.3297 13.3123 67.3686L11.6877 64.6992C6.08597 68.1089 3.125 72.2111 3.125 76.5623C3.125 82.2441 8.181 87.4654 17.3618 91.2643C26.1053 94.8822 37.6965 96.8748 50 96.8748C62.3035 96.8748 73.8947 94.8822 82.6382 91.2643C91.819 87.4654 96.875 82.2441 96.875 76.5623C96.875 72.2111 93.914 68.1089 88.3123 64.6992Z" fill="#4D1A2D"/>
<path d="M11.3461 71.9976C10.0382 73.4303 9.375 74.9661 9.375 76.5626C9.375 85.6965 30.3061 90.6251 50 90.6251C60.5913 90.6251 70.5698 89.2984 78.0975 86.8895C88.4516 83.5763 90.625 79.445 90.625 76.5626C90.625 74.9661 89.9618 73.4303 88.6539 71.9976L86.3461 74.1046C87.1119 74.9433 87.5 75.7703 87.5 76.5626C87.5 79.0905 83.629 81.8384 77.1452 83.9132C69.9171 86.2263 60.2766 87.5001 50 87.5001C39.7234 87.5001 30.0829 86.2263 22.8548 83.9132C16.371 81.8384 12.5 79.0905 12.5 76.5626C12.5 75.7703 12.8881 74.9433 13.6539 74.1046L11.3461 71.9976Z" fill="#4D1A2D"/>
<path d="M31.25 43.75C31.25 44.0443 31.3332 44.3326 31.4899 44.5818C31.6466 44.8309 31.8704 45.0307 32.1357 45.1582C32.401 45.2857 32.6969 45.3357 32.9893 45.3024C33.2818 45.2691 33.5588 45.1539 33.7887 44.9701L41.1732 39.0625H44.0515C42.592 41.8049 41.9679 44.9147 42.2561 48.0079C42.5443 51.1011 43.7322 54.0421 45.6732 56.4677L48.7799 60.351C48.9263 60.534 49.1119 60.6817 49.3231 60.7832C49.5343 60.8847 49.7657 60.9375 50 60.9375C50.2343 60.9375 50.4657 60.8847 50.6769 60.7832C50.8881 60.6817 51.0737 60.534 51.2201 60.351L54.3268 56.4677C56.2678 54.0421 57.4557 51.1011 57.7439 48.0079C58.0321 44.9147 57.408 41.8049 55.9485 39.0625H58.8268L66.2113 44.9701C66.4412 45.154 66.7183 45.2692 67.0107 45.3025C67.3031 45.3358 67.599 45.2858 67.8643 45.1583C68.1296 45.0308 68.3535 44.8309 68.5102 44.5818C68.6669 44.3326 68.75 44.0443 68.75 43.75V28.125C68.75 27.8906 68.6973 27.6593 68.5958 27.4481C68.4943 27.2369 68.3466 27.0512 68.1637 26.9048L60.9367 21.1233C60.9359 18.6699 60.4505 16.2409 59.5082 13.9756C58.5659 11.7104 57.1853 9.65368 55.4458 7.92356L51.1049 3.58262C50.8119 3.28961 50.4144 3.125 50 3.125C49.5856 3.125 49.1881 3.28961 48.8951 3.58262L44.5541 7.92356C42.8146 9.65368 41.4341 11.7104 40.4918 13.9756C39.5495 16.2409 39.064 18.6699 39.0632 21.1233L31.8363 26.9048C31.6534 27.0512 31.5057 27.2369 31.4042 27.4481C31.3027 27.6593 31.25 27.8906 31.25 28.125V43.75ZM60.9375 25.126L65.625 28.876V40.499L60.9375 36.7489V25.126ZM51.8866 54.5155L50 56.8737L48.1134 54.5155C46.4189 52.3973 45.4421 49.7949 45.3245 47.0848C45.2069 44.3747 45.9545 41.6975 47.4592 39.4404L47.7112 39.0625H52.2888L52.5408 39.4404C54.0455 41.6975 54.7931 44.3747 54.6755 47.0848C54.5579 49.7949 53.5811 52.3973 51.8866 54.5155ZM42.1875 21.1817C42.1819 19.129 42.5835 17.0955 43.369 15.1991C44.1546 13.3026 45.3085 11.5807 46.764 10.1332L50 6.89722L53.236 10.1332C54.6915 11.5807 55.8454 13.3026 56.631 15.1991C57.4165 17.0955 57.8181 19.129 57.8125 21.1817V35.9375H51.5625V31.25H48.4375V35.9375H42.1875V21.1817ZM34.375 28.876L39.0625 25.126V36.7489L34.375 40.499V28.876Z" fill="#4D1A2D"/>
<path d="M54.6875 21.875C54.6875 20.9479 54.4126 20.0416 53.8975 19.2708C53.3824 18.4999 52.6504 17.8991 51.7938 17.5443C50.9373 17.1895 49.9948 17.0967 49.0855 17.2776C48.1762 17.4584 47.341 17.9049 46.6854 18.5604C46.0299 19.216 45.5834 20.0512 45.4026 20.9605C45.2217 21.8698 45.3145 22.8123 45.6693 23.6688C46.0241 24.5254 46.6249 25.2574 47.3958 25.7725C48.1666 26.2876 49.0729 26.5625 50 26.5625C51.2428 26.5611 52.4342 26.0668 53.313 25.188C54.1918 24.3092 54.6861 23.1178 54.6875 21.875ZM48.4375 21.875C48.4375 21.566 48.5291 21.2639 48.7008 21.0069C48.8725 20.75 49.1166 20.5497 49.4021 20.4314C49.6876 20.3132 50.0017 20.2822 50.3048 20.3425C50.6079 20.4028 50.8863 20.5516 51.1049 20.7701C51.3234 20.9887 51.4722 21.2671 51.5325 21.5702C51.5928 21.8733 51.5618 22.1874 51.4436 22.4729C51.3253 22.7585 51.125 23.0025 50.8681 23.1742C50.6111 23.3459 50.309 23.4375 50 23.4375C49.5857 23.437 49.1886 23.2723 48.8957 22.9793C48.6027 22.6864 48.438 22.2893 48.4375 21.875Z" fill="#4D1A2D"/>
<path d="M31.25 3.125H28.125V15.625H31.25V3.125Z" fill="#4D1A2D"/>
<path d="M31.25 18.75H28.125V21.875H31.25V18.75Z" fill="#4D1A2D"/>
<path d="M20.3125 7.8125H17.1875V39.0625H20.3125V7.8125Z" fill="#4D1A2D"/>
<path d="M20.3125 42.1875H17.1875V45.3125H20.3125V42.1875Z" fill="#4D1A2D"/>
<path d="M9.375 12.5H6.25V53.125H9.375V12.5Z" fill="#4D1A2D"/>
<path d="M9.375 56.25H6.25V62.5H9.375V56.25Z" fill="#4D1A2D"/>
<path d="M73.4375 6.25H70.3125V18.75H73.4375V6.25Z" fill="#4D1A2D"/>
<path d="M73.4375 21.875H70.3125V25H73.4375V21.875Z" fill="#4D1A2D"/>
<path d="M82.8125 15.625H79.6875V46.875H82.8125V15.625Z" fill="#4D1A2D"/>
<path d="M82.8125 50H79.6875V53.125H82.8125V50Z" fill="#4D1A2D"/>
<path d="M93.75 12.5H90.625V53.125H93.75V12.5Z" fill="#4D1A2D"/>
<path d="M93.75 56.25H90.625V62.5H93.75V56.25Z" fill="#4D1A2D"/>
<path d="M26.2117 78.8083C32.5911 81.3904 41.0393 82.8124 50 82.8124C58.9607 82.8124 67.4089 81.3904 73.7883 78.8083C80.6152 76.0449 84.375 72.1953 84.375 67.9687C84.375 64.1261 81.3652 60.6635 75.6712 57.9551L74.3288 60.7772C78.792 62.9001 81.25 65.454 81.25 67.9687C81.25 70.7954 78.1029 73.6905 72.6158 75.9115C66.6 78.3464 58.5684 79.6874 50 79.6874C41.4316 79.6874 33.4 78.3464 27.3842 75.9115C21.8971 73.6905 18.75 70.7954 18.75 67.9687C18.75 65.454 21.208 62.9001 25.6712 60.7772L24.3288 57.9551C18.6348 60.6635 15.625 64.1261 15.625 67.9687C15.625 72.1953 19.3848 76.0449 26.2117 78.8083Z" fill="#4D1A2D"/>
<path d="M21.875 67.9687C21.875 73.8732 36.4542 76.5625 50 76.5625C57.2262 76.5625 64.0387 75.8126 69.1824 74.4511C75.1162 72.8804 78.125 70.6994 78.125 67.9687C78.125 65.8011 76.2104 63.9679 72.4344 62.52L71.3156 65.4379C74.23 66.5554 75 67.582 75 67.9687C75 68.6297 73.2035 70.154 68.3826 71.4301C63.4924 72.7246 56.9639 73.4375 50 73.4375C43.0361 73.4375 36.5076 72.7246 31.6174 71.4301C26.7965 70.154 25 68.6297 25 67.9687C25 67.582 25.77 66.5554 28.6844 65.4379L27.5656 62.52C23.7896 63.9679 21.875 65.8011 21.875 67.9687Z" fill="#4D1A2D"/>
<path d="M34.9821 64.2981C39.0196 66.1614 44.3531 67.1877 50 67.1877C55.6469 67.1877 60.9804 66.1614 65.0179 64.2981C69.4397 62.2572 71.875 59.399 71.875 56.2502C71.875 52.3063 67.9518 48.7924 61.3802 46.8506L60.4948 49.8474C65.5096 51.3293 68.75 53.8426 68.75 56.2502C68.75 58.0827 66.9125 59.9818 63.7083 61.4607C60.0727 63.1386 55.2044 64.0627 50 64.0627C38.9503 64.0627 31.25 59.9454 31.25 56.2502C31.25 53.8426 34.4904 51.3293 39.5052 49.8474L38.6198 46.8506C32.0482 48.7924 28.125 52.3063 28.125 56.2502C28.125 59.399 30.5603 62.2572 34.9821 64.2981Z" fill="#4D1A2D"/>
<path d="M40.3202 52.3882C37.768 52.8957 34.375 53.8484 34.375 56.2499C34.375 56.7479 34.375 58.2634 37.5896 59.3925C39.0814 59.9166 41.1524 60.3352 43.5785 60.6031L43.9215 57.497C40.8266 57.1552 39.0347 56.635 38.1231 56.249C39.0291 55.8888 39.9696 55.6221 40.9298 55.4531L40.3202 52.3882Z" fill="#4D1A2D"/>
<path d="M56.423 60.6031C58.8492 60.3352 60.9202 59.9166 62.4119 59.3925C63.2071 59.1133 65.6265 58.2634 65.6265 56.2499C65.6265 53.8484 62.2336 52.8957 59.6813 52.3882L59.0718 55.4531C60.032 55.6221 60.9724 55.8888 61.8784 56.249C60.9669 56.635 59.1749 57.1552 56.0801 57.497L56.423 60.6031Z" fill="#4D1A2D"/>
</svg>
