<svg width="100" height="100" viewBox="0 0 100 100" fill="none" xmlns="http://www.w3.org/2000/svg">
<path d="M84.3488 34.5984L69.1177 27.3789C70.2706 26.1938 71.1105 24.7405 71.5618 23.1499C72.0131 21.5593 72.0615 19.8814 71.7027 18.2674C70.5003 12.7921 65.3631 9.42527 60.0085 10.6003C59.8091 10.6445 59.6186 10.7221 59.445 10.8298C59.2222 10.7427 58.9958 10.6616 58.7655 10.5954C55.9051 9.76434 52.9265 10.5696 50.5947 12.8054L26.9112 35.5121C24.3514 37.9668 22.8271 40.2159 21.8146 43.0318C21.5494 43.7693 21.3068 44.5232 21.0724 45.2525C20.299 47.6604 19.563 49.9432 18.0737 51.613L16.6674 50.1458C15.8374 49.2826 14.699 48.7837 13.5018 48.7585C12.3046 48.7333 11.1462 49.1838 10.2806 50.0112L1.38804 58.5391C0.524967 59.3688 0.0261537 60.5068 0.000999401 61.7037C-0.0241549 62.9006 0.426403 64.0586 1.25386 64.9238L32.6955 97.7174C33.1052 98.1464 33.5959 98.4898 34.1392 98.7278C34.6826 98.9659 35.2677 99.0938 35.8608 99.1042C35.8936 99.1042 35.926 99.1051 35.9584 99.1051C37.1226 99.1087 38.2426 98.6593 39.0814 97.852L44.2414 92.9044C44.416 92.7396 44.5563 92.5418 44.6541 92.3225C44.7519 92.1032 44.8053 91.8667 44.8113 91.6267C44.8173 91.3866 44.7757 91.1477 44.689 90.9238C44.6022 90.6999 44.472 90.4954 44.3058 90.3221C44.1396 90.1488 43.9407 90.01 43.7207 89.9139C43.5006 89.8178 43.2637 89.7662 43.0236 89.762C42.7836 89.7579 42.545 89.8013 42.3218 89.8898C42.0986 89.9783 41.8951 90.1101 41.723 90.2776L36.5628 95.2254C36.394 95.3845 36.1696 95.4709 35.9377 95.466C35.8227 95.4642 35.7091 95.4397 35.6035 95.3939C35.498 95.3481 35.4025 95.2819 35.3225 95.1992L27.7944 87.3475L37.9552 77.6055L45.4832 85.4572C45.8172 85.8055 46.2758 86.0069 46.7582 86.0171C47.2406 86.0272 47.7073 85.8454 48.0557 85.5114C48.404 85.1775 48.6054 84.7189 48.6155 84.2364C48.6257 83.754 48.4438 83.2873 48.1099 82.939L46.1043 80.8479L58.7296 68.9973C58.9054 68.8342 59.0472 68.6379 59.1469 68.4198C59.2465 68.2017 59.3021 67.966 59.3104 67.7263C59.3186 67.4866 59.2794 67.2477 59.1951 67.0232C59.1107 66.7987 58.9827 66.5932 58.8186 66.4183C58.6545 66.2434 58.4574 66.1028 58.2387 66.0043C58.02 65.9059 57.784 65.8517 57.5443 65.8448C57.3046 65.8378 57.0659 65.8784 56.8419 65.9641C56.6179 66.0497 56.413 66.1788 56.2391 66.344L43.5857 78.2209L20.5994 54.247C22.734 51.9773 23.6504 49.1276 24.5375 46.3662C24.7729 45.6338 24.9948 44.9422 25.2389 44.2634C26.0592 41.9804 27.2737 40.2059 29.4296 38.1387L53.1131 15.4307C54.5012 14.0996 56.1481 13.6228 57.7499 14.0882C58.5359 14.3192 59.2488 14.7493 59.8196 15.337C60.3903 15.9247 60.7994 16.65 61.0072 17.4424C61.425 19.1434 60.7494 20.9487 59.0905 22.5402L42.3832 38.5608C42.0349 38.8947 41.8335 39.3534 41.8233 39.8358C41.8131 40.3182 41.995 40.785 42.3289 41.1333L43.6051 42.4644C44.625 43.5282 45.1806 44.9536 45.1496 46.427C45.1186 47.9004 44.5036 49.3012 43.4398 50.3212L38.1155 55.426C37.9409 55.5908 37.8007 55.7886 37.7028 56.0079C37.605 56.2272 37.5516 56.4637 37.5456 56.7037C37.5396 56.9438 37.5812 57.1827 37.668 57.4066C37.7548 57.6305 37.885 57.835 38.0512 58.0083C38.2173 58.1816 38.4162 58.3204 38.6362 58.4165C38.8563 58.5126 39.0932 58.5642 39.3333 58.5684C39.5734 58.5725 39.8119 58.5291 40.0351 58.4406C40.2584 58.3521 40.4619 58.2203 40.6339 58.0528L45.9582 52.948C47.7186 51.2601 48.7364 48.942 48.7877 46.5037C48.8389 44.0654 47.9195 41.7066 46.2317 39.9462L46.2145 39.9284L59.7398 26.9594L82.7904 37.8862C83.0063 37.9885 83.2402 38.0473 83.4788 38.0592C83.7174 38.0712 83.956 38.036 84.181 37.9557C84.406 37.8754 84.613 37.7516 84.7902 37.5913C84.9673 37.431 85.1112 37.2374 85.2135 37.0215C85.3158 36.8056 85.3746 36.5717 85.3866 36.3331C85.3985 36.0945 85.3633 35.8559 85.283 35.6309C85.2027 35.4059 85.0789 35.1989 84.9186 35.0217C84.7583 34.8446 84.5647 34.7007 84.3488 34.5984ZM35.4362 74.9791L25.2754 84.7211L3.88086 62.407C3.72236 62.2377 3.63627 62.0132 3.64094 61.7814C3.64561 61.5495 3.74067 61.3287 3.90586 61.1659L12.8002 52.6384C12.9697 52.4806 13.1936 52.3944 13.4252 52.3978C13.5402 52.3996 13.6538 52.4241 13.7594 52.4699C13.865 52.5157 13.9605 52.5818 14.0404 52.6646L35.4362 74.9791ZM65.9477 25.3644C65.8222 25.4675 65.7111 25.587 65.6172 25.7195L62.4853 24.2351C64.4356 21.9273 65.1834 19.1926 64.541 16.576C64.3286 15.7239 63.9781 14.9124 63.5033 14.1736C65.7532 14.7101 67.5956 16.5303 68.1487 19.0483C68.4052 20.2016 68.3351 21.4036 67.9463 22.5193C67.5575 23.635 66.8654 24.6203 65.9477 25.3644Z" fill="#4D1A2D"/>
<path d="M81.0317 2.95788C81.0104 2.7198 80.9423 2.48826 80.8314 2.27655C80.7204 2.06483 80.5688 1.87709 80.3851 1.72409C80.2015 1.57109 79.9894 1.45584 79.7612 1.38495C79.5329 1.31406 79.2929 1.28892 79.0549 1.31097L27.2267 6.03079C26.1639 6.1293 25.1836 6.64514 24.5005 7.46524C23.8174 8.28534 23.4873 9.3428 23.5825 10.4059L23.8925 13.8122C23.9335 14.264 24.1419 14.6841 24.4767 14.9902C24.8115 15.2963 25.2486 15.4662 25.7023 15.4667C25.7575 15.4667 25.8134 15.4644 25.8695 15.4591C26.1074 15.4375 26.3387 15.3692 26.5503 15.2581C26.7618 15.1471 26.9494 14.9954 27.1023 14.8119C27.2552 14.6284 27.3705 14.4165 27.4416 14.1884C27.5126 13.9603 27.538 13.7204 27.5164 13.4825L27.2072 10.076C27.1996 9.97406 27.2319 9.87317 27.2973 9.79465C27.3627 9.71613 27.4561 9.66615 27.5578 9.65527L79.3848 4.93487C79.6227 4.9132 79.8541 4.84488 80.0656 4.7338C80.2772 4.62272 80.4648 4.47106 80.6177 4.28748C80.7706 4.1039 80.8859 3.89199 80.9569 3.66385C81.028 3.43572 81.0534 3.19583 81.0317 2.95788Z" fill="#4D1A2D"/>
<path d="M99.9849 29.3986L97.6411 3.66064C97.5436 2.59746 97.028 1.61647 96.2077 0.933165C95.3873 0.249863 94.3293 -0.07986 93.266 0.0164287L88.8788 0.416046C88.3983 0.459818 87.9549 0.692678 87.6461 1.0634C87.3372 1.43412 87.1883 1.91234 87.2321 2.39284C87.2759 2.87335 87.5087 3.31679 87.8795 3.62561C88.2502 3.93442 88.7284 4.08333 89.2089 4.03955L93.5955 3.63994C93.6976 3.63237 93.7987 3.66483 93.8773 3.73044C93.9559 3.79606 94.0058 3.88969 94.0166 3.99151L96.3604 29.7297C96.3679 29.8318 96.3354 29.9327 96.2698 30.0113C96.2042 30.0898 96.1106 30.1397 96.0089 30.1504L90.374 30.6635C89.9077 30.7058 89.4757 30.9261 89.1678 31.2788C88.8599 31.6314 88.6998 32.0892 88.7208 32.5569C88.7418 33.0246 88.9423 33.4662 89.2806 33.7898C89.6189 34.1134 90.0689 34.2942 90.5371 34.2944C90.5923 34.2944 90.6482 34.2921 90.7039 34.2868L96.3389 33.7737C97.4017 33.6753 98.3821 33.1594 99.0652 32.3393C99.7483 31.5192 100.078 30.4617 99.9831 29.3986H99.9849Z" fill="#4D1A2D"/>
<path d="M91.3488 22.9827C89.9298 22.9133 88.5855 22.3262 87.5704 21.3324C86.5552 20.3386 85.9396 19.0071 85.8401 17.5899C85.7406 16.1728 86.1641 14.7683 87.0304 13.6424C87.8968 12.5165 89.1458 11.7473 90.5411 11.4803C90.7784 11.4385 91.0049 11.3499 91.2076 11.2198C91.4103 11.0898 91.5852 10.9207 91.7221 10.7225C91.8589 10.5243 91.9551 10.3009 92.0049 10.0652C92.0547 9.82957 92.0573 9.58636 92.0124 9.34971C91.9675 9.11306 91.876 8.88768 91.7434 8.68666C91.6107 8.48563 91.4394 8.31296 91.2394 8.17865C91.0395 8.04435 90.8148 7.9511 90.5786 7.9043C90.3423 7.8575 90.0991 7.85809 89.863 7.90603C87.5927 8.33981 85.5602 9.59105 84.1505 11.4228C82.7407 13.2546 82.0517 15.5397 82.2137 17.8454C82.3757 20.1511 83.3776 22.3174 85.0296 23.934C86.6817 25.5506 88.8692 26.5053 91.1779 26.6173C91.207 26.6185 91.2365 26.6193 91.2648 26.6193C91.7393 26.6182 92.1946 26.4317 92.5336 26.0997C92.8726 25.7676 93.0684 25.3163 93.0794 24.8419C93.0903 24.3675 92.9155 23.9077 92.5922 23.5603C92.2689 23.213 91.8227 23.0057 91.3488 22.9827Z" fill="#4D1A2D"/>
<path d="M42.1324 14.4002L37.4072 12.1394C36.4437 11.6797 35.3373 11.621 34.3306 11.9762C33.3239 12.3314 32.4993 13.0715 32.0377 14.034L24.394 30.0109C24.2909 30.2264 24.2312 30.4601 24.2184 30.6987C24.2056 30.9373 24.24 31.1761 24.3194 31.4014C24.3989 31.6267 24.522 31.8342 24.6817 32.012C24.8413 32.1897 25.0345 32.3343 25.25 32.4374C25.4655 32.5405 25.6992 32.6002 25.9378 32.613C26.1764 32.6258 26.4152 32.5914 26.6405 32.512C26.8658 32.4325 27.0733 32.3094 27.2511 32.1497C27.4288 31.9901 27.5734 31.797 27.6765 31.5814L35.3202 15.6045C35.3656 15.5129 35.4449 15.4425 35.5414 15.4085C35.6378 15.3744 35.7437 15.3793 35.8366 15.4221L40.5615 17.6829C40.7773 17.7882 41.0118 17.8497 41.2515 17.864C41.4912 17.8782 41.7313 17.8449 41.9581 17.7659C42.1848 17.6869 42.3937 17.5638 42.5726 17.4037C42.7516 17.2436 42.8971 17.0497 43.0007 16.8331C43.1044 16.6165 43.1641 16.3816 43.1765 16.1418C43.189 15.902 43.1538 15.6621 43.0731 15.436C42.9924 15.2098 42.8677 15.0019 42.7063 14.8242C42.5448 14.6464 42.3498 14.5022 42.1324 14.4002Z" fill="#4D1A2D"/>
<path d="M99.2835 43.053C99.1093 42.5538 98.8378 42.0941 98.4848 41.7004C98.1318 41.3068 97.7042 40.9871 97.2268 40.7598L93.2521 38.8582C93.0362 38.7522 92.8015 38.69 92.5614 38.6753C92.3214 38.6606 92.0808 38.6936 91.8535 38.7724C91.6263 38.8513 91.417 38.9744 91.2377 39.1346C91.0583 39.2949 90.9125 39.4891 90.8087 39.706C90.7049 39.923 90.6451 40.1584 90.6328 40.3986C90.6206 40.6387 90.656 40.879 90.7372 41.1054C90.8183 41.3318 90.9436 41.5399 91.1056 41.7176C91.2677 41.8953 91.4634 42.0391 91.6814 42.1407L95.6561 44.0423C95.7475 44.0879 95.8176 44.1672 95.8516 44.2635C95.8856 44.3599 95.8808 44.4656 95.8383 44.5585L84.6842 67.8726C84.6371 67.9655 84.5554 68.036 84.4566 68.0689C84.3579 68.1019 84.2502 68.0945 84.1568 68.0484L53.4531 53.6198C53.0165 53.4155 52.5166 53.3928 52.0632 53.5567C51.6099 53.7206 51.2401 54.0577 51.0351 54.494C50.83 54.9303 50.8065 55.4302 50.9697 55.8838C51.1329 56.3374 51.4694 56.7077 51.9054 56.9134L82.598 71.3366C83.5613 71.7971 84.6681 71.8563 85.6751 71.501C86.682 71.1457 87.5066 70.4051 87.9676 69.442L99.1218 46.1288C99.3507 45.6523 99.4829 45.1351 99.5106 44.6071C99.5384 44.0792 99.4612 43.5509 99.2835 43.053Z" fill="#4D1A2D"/>
<path d="M69.4518 38.4058C68.6807 36.2193 67.1752 34.3678 65.192 33.1669C63.2088 31.9659 60.8705 31.4899 58.5756 31.8197C56.2807 32.1496 54.1711 33.2651 52.6065 34.976C51.0418 36.6869 50.1189 38.8875 49.9948 41.2026C49.8708 43.5178 50.5534 45.8044 51.9263 47.6726C53.2992 49.5409 55.2775 50.8754 57.524 51.4485C59.7706 52.0217 62.1463 51.7982 64.2465 50.816C66.3467 49.8338 68.0413 48.1538 69.0416 46.0622C70.1874 43.6652 70.3349 40.9114 69.4518 38.4058ZM65.7587 44.4922C65.2355 45.5765 64.4178 46.4918 63.3991 47.1334C62.3804 47.775 61.2018 48.1171 59.9979 48.1206C59.0464 48.1213 58.1071 47.907 57.25 47.4938C56.1116 46.9493 55.1604 46.0793 54.5164 44.9941C53.8725 43.9088 53.5649 42.657 53.6324 41.3969C53.6999 40.1368 54.1396 38.9251 54.8958 37.9149C55.6521 36.9047 56.6909 36.1414 57.8809 35.7216C59.0709 35.3018 60.3587 35.2443 61.5814 35.5564C62.8041 35.8685 63.9068 36.5362 64.7501 37.475C65.5933 38.4138 66.1392 39.5815 66.3187 40.8306C66.4983 42.0797 66.3034 43.3539 65.7587 44.4922Z" fill="#4D1A2D"/>
<path d="M90.2679 45.7964C88.095 45.0065 85.7079 45.041 83.5587 45.8933C81.4095 46.7457 79.6476 48.3568 78.6069 50.4213C77.5661 52.4858 77.3187 54.8604 77.9115 57.0951C78.5044 59.3298 79.8963 61.2695 81.8236 62.5466C82.0229 62.68 82.2466 62.7728 82.4819 62.8195C82.7171 62.8662 82.9593 62.8659 83.1945 62.8187C83.4296 62.7715 83.6531 62.6782 83.8521 62.5443C84.0511 62.4104 84.2216 62.2385 84.3539 62.0384C84.4862 61.8384 84.5777 61.6141 84.623 61.3786C84.6683 61.1431 84.6666 60.9009 84.618 60.666C84.5694 60.4311 84.4748 60.2082 84.3398 60.01C84.2047 59.8118 84.0317 59.6423 83.8309 59.5112C82.6472 58.7256 81.7925 57.5334 81.4287 56.1601C81.0648 54.7869 81.2171 53.3279 81.8566 52.0593C82.4961 50.7907 83.5786 49.8006 84.899 49.2764C86.2194 48.7523 87.6861 48.7304 89.0216 49.2149C89.2467 49.2995 89.4863 49.3387 89.7266 49.3302C89.9668 49.3216 90.2031 49.2655 90.4215 49.1652C90.64 49.0648 90.8364 48.9221 90.9994 48.7453C91.1624 48.5685 91.2887 48.3612 91.3711 48.1353C91.4535 47.9094 91.4902 47.6694 91.4793 47.4293C91.4683 47.1891 91.4099 46.9534 91.3073 46.736C91.2047 46.5185 91.06 46.3235 90.8816 46.1623C90.7032 46.0011 90.4946 45.8769 90.2679 45.7968V45.7964Z" fill="#4D1A2D"/>
</svg>
