<svg width="27" height="26" viewBox="0 0 27 26" fill="none" xmlns="http://www.w3.org/2000/svg">
<path d="M1.72081 17.8481L1.82832 17.9843C2.5531 18.7682 3.55089 19.1994 4.55713 19.8451C5.31211 20.3057 6.14924 20.6466 7.03227 20.8502C5.16836 20.1108 3.18608 19.2495 2.02159 17.7491C2.14942 17.7024 2.28659 17.6802 2.42444 17.6838C2.56229 17.6873 2.69782 17.7166 2.82248 17.7697C3.29117 18.1465 3.79731 18.4851 4.33245 18.7824L4.14279 19.1014C4.96784 19.3965 5.76148 19.7548 6.52009 20.1707C7.29198 20.5812 8.16656 20.8055 9.06167 20.824C9.00127 20.7696 9.06771 20.6988 9.0967 20.6444C9.13414 20.6106 9.1281 20.5595 9.02059 20.5301C9.1281 20.5595 9.10878 20.6095 9.0967 20.6444C7.40947 20.3366 5.80917 19.7232 4.39284 18.8412C5.53921 19.4651 6.77618 19.9442 8.0675 20.2655C9.36366 20.5845 10.6876 20.8023 12.0248 20.9166L12.4935 20.9623C12.8946 21.2389 13.385 21.3892 13.8899 21.387C13.7571 21.8378 14.2535 22.771 13.2316 22.551L13.2123 22.9169C14.2064 23.3971 14.6812 24.6743 13.5263 25.014C12.2193 25.3429 10.539 24.8257 8.97711 24.7026C7.82811 24.6231 6.70804 24.3388 5.68175 23.8664C4.3107 23.1444 2.70531 22.588 1.57223 21.5667C1.13977 21.2444 0.151648 20.9874 0.0876255 20.6226C0.00548349 20.4114 0.122657 20.2491 0.284526 20.0858C1.00085 20.5616 1.74497 21.0037 2.51203 21.4099C3.41439 21.9597 4.34211 22.4889 5.3097 23.0018C4.40198 22.4365 3.46862 21.9054 2.51203 21.4099C1.77879 20.9667 1.07816 20.4811 0.41257 19.9573C0.56696 19.8296 0.689992 19.6742 0.773755 19.5011L0.451225 19.2953C0.314724 18.6539 0.852274 18.2195 1.34392 17.9766L1.72081 17.8481ZM10.0812 5.54711L10.1005 5.72351C10.2841 6.79061 10.9014 7.68893 11.3918 8.7887C11.7642 9.59063 12.2737 10.335 12.9018 10.9948C11.7591 9.34184 10.5596 7.55935 10.3892 5.62442C10.5313 5.65129 10.6658 5.70408 10.7844 5.77954C10.9031 5.85501 11.0033 5.95155 11.079 6.06324C11.2774 6.64244 11.5221 7.20796 11.811 7.75535L11.4595 7.92848C12.0057 8.61836 12.4846 9.34954 12.8909 10.1139C13.3065 10.8842 13.9173 11.5556 14.6739 12.0738C14.6679 11.9943 14.7718 11.9856 14.8165 11.9453C14.8539 11.9116 14.8865 11.8822 14.8237 11.8082C14.9058 11.8822 14.8684 11.9225 14.8165 11.9453C13.5618 10.7385 12.5563 9.33953 11.8473 7.81415C12.474 8.97358 13.2544 10.0602 14.1714 11.0503C15.0908 12.0554 16.0883 13.0004 17.1563 13.8781L17.5139 14.2004C17.6758 14.66 17.9893 15.0641 18.4126 15.359C17.9946 15.6377 17.7832 16.6515 17.0766 15.9012L16.8169 16.1811C17.3266 17.1371 16.835 18.4122 15.6717 18.03C14.3828 17.5585 13.3512 16.2127 12.1287 15.2653C11.2242 14.5765 10.4676 13.7438 9.89638 12.8088C9.19092 11.4826 8.17139 10.1868 7.80416 8.73643C7.6278 8.2399 6.92113 7.52887 7.083 7.17825C7.1134 7.08172 7.17482 6.99547 7.25952 6.93036C7.34422 6.86525 7.4484 6.8242 7.55894 6.81238C7.90639 7.58355 8.2876 8.34201 8.70169 9.08596C9.15674 10.0274 9.62953 10.9618 10.1199 11.8887C9.69585 10.936 9.20904 10.0115 8.70169 9.08596C8.33809 8.32701 8.01918 7.55173 7.74618 6.76338C7.9517 6.72974 8.1469 6.65699 8.31876 6.54997L8.15448 6.20806C8.40453 5.5776 9.12086 5.46327 9.68377 5.49811L10.086 5.54711L10.0812 5.54711ZM25.8513 0.781097L25.8042 0.954229C25.5916 2.00173 25.7559 3.02309 25.5735 4.16968C25.459 5.00023 25.421 5.8379 25.4599 6.6741C25.7124 4.7849 25.5928 2.79987 26.1195 0.944429C26.2472 1.01223 26.3567 1.10472 26.4401 1.21524C26.5234 1.32576 26.5785 1.45157 26.6014 1.5836C26.5471 2.20317 26.5253 2.83254 26.5036 3.44667L26.105 3.45756C26.4649 5.18669 25.6302 6.77972 26.0168 8.51321C26.0772 8.45877 26.1569 8.49579 26.2197 8.51321C26.2197 6.8015 26.3683 5.22372 26.5012 3.51636C26.3961 6.16124 26.4819 8.71465 26.1279 11.4205L26.0675 11.88C25.7377 12.2622 25.5251 12.7174 25.4527 13.1986C24.9755 13.019 23.9016 13.325 24.2495 12.4626L23.8509 12.4103C23.2058 13.2378 21.7623 13.3348 21.505 12.4364C21.2803 11.4303 21.8215 10.2042 21.743 8.99232C21.6657 8.13864 21.7152 7.27951 21.8916 6.4389C22.2274 5.26945 22.0981 3.97042 22.4496 2.78681C22.5318 2.3469 22.173 1.61409 22.4593 1.37998C22.5297 1.30686 22.6203 1.25176 22.7219 1.22021C22.8235 1.18867 22.9325 1.18181 23.0379 1.20031C23.0669 1.9168 23.1044 2.63654 23.0862 3.34322C23.0198 4.21541 22.8845 5.08216 22.6779 5.93693C22.9487 5.09397 23.0861 4.2208 23.0862 3.34322C23.1527 2.63219 23.1865 1.92224 23.2445 1.20358C23.4462 1.22851 23.6513 1.22003 23.8497 1.17854L23.8183 0.847519C24.0355 0.649982 24.3169 0.519952 24.6216 0.476291C24.9264 0.432631 25.2386 0.477611 25.5131 0.604699C25.6266 0.667856 25.7341 0.712498 25.8585 0.778919L25.8513 0.781097Z" fill="#FC746C"/>
</svg>
