<svg width="501" height="500" viewBox="0 0 501 500" fill="none" xmlns="http://www.w3.org/2000/svg">
<mask id="mask0_1937_30199" style="mask-type:luminance" maskUnits="userSpaceOnUse" x="0" y="0" width="501" height="500">
<path d="M500.584 0H0.583984V500H500.584V0Z" fill="white"/>
</mask>
<g mask="url(#mask0_1937_30199)">
<path d="M500.584 0H0.583984V500H500.584V0Z" fill="white"/>
<path d="M448.422 167.167C449.117 162.118 441.991 157.967 436.637 157.533C434.083 157.327 431.431 157.717 429.012 156.874C423.771 155.047 421.677 148.274 416.563 146.119C412.74 144.507 408.338 145.942 404.632 147.808C400.926 149.674 397.263 152.021 393.122 152.286C389.522 152.516 385.608 151.186 382.457 152.94C380.109 154.251 378.878 156.957 376.714 158.554C374.596 160.116 371.834 160.446 369.207 160.589C366.58 160.732 363.859 160.759 361.467 161.854C359.075 162.949 357.096 165.479 357.592 168.063L448.422 167.167Z" fill="#EBEBEB"/>
<path d="M228.669 120.818C229.364 115.769 222.238 111.618 216.884 111.184C214.33 110.978 211.678 111.368 209.259 110.525C204.018 108.698 201.924 101.925 196.81 99.7702C192.987 98.1582 188.586 99.5932 184.879 101.459C181.172 103.325 177.51 105.672 173.369 105.937C169.769 106.167 165.855 104.837 162.704 106.591C160.356 107.902 159.125 110.608 156.961 112.205C154.843 113.767 152.081 114.097 149.454 114.24C146.827 114.383 144.107 114.41 141.714 115.505C139.321 116.6 137.343 119.13 137.839 121.714L228.669 120.818Z" fill="#EBEBEB"/>
<path d="M130.784 278.945C131.484 273.896 124.353 269.745 118.999 269.311C116.445 269.105 113.793 269.496 111.374 268.653C106.133 266.826 104.039 260.053 98.925 257.898C95.102 256.285 90.7 257.721 86.994 259.586C83.288 261.451 79.625 263.8 75.484 264.065C71.884 264.295 67.97 262.959 64.819 264.719C62.471 266.03 61.24 268.736 59.076 270.332C56.958 271.894 54.196 272.225 51.569 272.368C48.942 272.511 46.221 272.537 43.829 273.633C41.437 274.729 39.458 277.258 39.954 279.842L130.784 278.945Z" fill="#EBEBEB"/>
<path d="M312.745 210.7C313.17 207.615 308.816 205.077 305.545 204.813C303.985 204.687 302.364 204.926 300.886 204.413C297.686 203.297 296.404 199.159 293.279 197.841C290.943 196.856 288.253 197.733 285.988 198.873C283.723 200.013 281.488 201.447 278.955 201.609C276.755 201.75 274.364 200.934 272.438 202.009C271.003 202.809 270.251 204.464 268.929 205.439C267.552 206.289 265.958 206.721 264.341 206.683C262.73 206.644 261.126 206.906 259.612 207.456C258.861 207.749 258.225 208.276 257.798 208.96C257.371 209.644 257.177 210.447 257.244 211.25L312.745 210.7Z" fill="#EBEBEB"/>
<path d="M491.369 488.189C491.369 488.333 383.599 488.449 250.689 488.449C117.733 488.449 9.98877 488.333 9.98877 488.189C9.98877 488.045 117.736 487.929 250.689 487.929C383.599 487.929 491.369 488.045 491.369 488.189Z" fill="#263238"/>
<path d="M319.639 412.946L395.239 487.946L410.001 487.906L415.251 412.942L319.639 412.946Z" fill="#E0E0E0"/>
<path d="M381.114 420.049L304.934 487.949L358.146 487.869L402.991 450.149L381.114 420.049Z" fill="#E0E0E0"/>
<path d="M373.949 226.014L467.849 313.055L469.504 222.77L373.949 226.014Z" fill="#E0E0E0"/>
<path d="M437.217 229.77L183.239 487.91H233.284L460.1 259.11L437.217 229.77Z" fill="#E0E0E0"/>
<path d="M107.654 325.36L198.554 415.537L203.272 325.36H107.654Z" fill="#E0E0E0"/>
<path d="M170.758 331.261L7.55688 487.91H60.1429L192.636 361.362L170.758 331.261Z" fill="#E0E0E0"/>
<path d="M186.9 294.4L316.666 423.14V294.4H186.9Z" fill="#FC746C"/>
<path d="M272.523 297.3C269.584 299.654 82.7839 487.91 82.7839 487.91H163.263L310.119 340.187L272.523 297.3Z" fill="#FC746C"/>
<path d="M99.4504 87.4632C106.007 84.7697 109.138 77.2712 106.445 70.7148C103.751 64.1584 96.2529 61.0268 89.6965 63.7202C83.1401 66.4137 80.0085 73.9122 82.702 80.4686C85.3954 87.025 92.8939 90.1566 99.4504 87.4632Z" fill="#FC746C"/>
<path d="M92.743 104.293C92.6079 102.532 92.5629 100.766 92.608 99.0001C92.5628 97.2342 92.6079 95.4673 92.743 93.7061C92.8782 95.4673 92.9233 97.2342 92.878 99.0001C92.9232 100.766 92.8782 102.532 92.743 104.293Z" fill="#FC746C"/>
<path d="M85.348 90.7222C85.412 90.7592 84.205 92.9702 82.648 95.6602C81.091 98.3502 79.782 100.501 79.718 100.46C79.654 100.419 80.86 98.2122 82.418 95.5212C83.976 92.8302 85.284 90.6842 85.348 90.7222Z" fill="#FC746C"/>
<path d="M77.757 86C76.8166 86.9192 75.8143 87.7729 74.757 88.555C73.7569 89.4076 72.6995 90.1904 71.592 90.898C72.5325 89.9788 73.5348 89.1251 74.592 88.343C75.5924 87.4908 76.6499 86.708 77.757 86Z" fill="#FC746C"/>
<path d="M105.546 99.078C105.394 98.6556 105.281 98.2205 105.207 97.778C105.023 96.97 104.761 95.857 104.434 94.637C104.107 93.417 103.773 92.322 103.527 91.531C103.368 91.1093 103.248 90.6742 103.167 90.231C103.393 90.6212 103.574 91.0354 103.708 91.466C104.001 92.245 104.364 93.337 104.695 94.566C105.026 95.795 105.258 96.92 105.395 97.74C105.495 98.1789 105.546 98.6277 105.546 99.078Z" fill="#FC746C"/>
<path d="M118.563 89.8408C117.242 88.866 115.976 87.819 114.77 86.7047C113.505 85.6583 112.297 84.5433 111.154 83.3647C112.475 84.3404 113.741 85.3876 114.947 86.5017C116.212 87.548 117.419 88.6627 118.563 89.8408Z" fill="#FC746C"/>
<path d="M123.549 77.1481C123.028 77.1121 122.511 77.0379 122.001 76.9261C121.05 76.7671 119.735 76.5641 118.276 76.3961C116.817 76.2281 115.489 76.1291 114.528 76.0681C114.006 76.0618 113.485 76.0173 112.97 75.9351C113.488 75.8633 114.013 75.8438 114.535 75.8771C115.502 75.8901 116.835 75.9591 118.307 76.1271C119.779 76.2951 121.092 76.5271 122.037 76.7381C122.553 76.824 123.06 76.9614 123.549 77.1481Z" fill="#FC746C"/>
<path d="M123.565 64.666C123.582 64.738 120.804 65.477 117.36 66.316C113.916 67.155 111.108 67.777 111.09 67.704C111.072 67.631 113.85 66.893 117.296 66.054C120.742 65.215 123.547 64.593 123.565 64.666Z" fill="#FC746C"/>
<path d="M109.063 50.1232C109.125 50.1642 107.796 52.2842 106.094 54.8582C104.392 57.4322 102.962 59.4872 102.9 59.4462C102.838 59.4052 104.167 57.2842 105.869 54.7092C107.571 52.1342 109.001 50.0822 109.063 50.1232Z" fill="#FC746C"/>
<path d="M94.6711 47.085C94.7185 47.6711 94.7249 48.2599 94.6901 48.847C94.6741 49.933 94.6531 51.434 94.6541 53.091C94.6551 54.748 94.6811 56.249 94.6991 57.336C94.7363 57.9236 94.7312 58.5131 94.6841 59.1C94.5763 58.5209 94.5174 57.9339 94.5081 57.345C94.4411 56.259 94.3861 54.755 94.3841 53.093C94.3821 51.431 94.4341 49.928 94.4991 48.842C94.5066 48.2525 94.5642 47.6647 94.6711 47.085Z" fill="#FC746C"/>
<path d="M83.7721 60.6589C83.7091 60.6969 82.3571 58.6009 80.7531 55.9769C79.1491 53.3529 77.9011 51.1929 77.9641 51.1539C78.0271 51.1149 79.3801 53.2109 80.9841 55.8359C82.5881 58.4609 83.8361 60.6199 83.7721 60.6589Z" fill="#FC746C"/>
<path d="M77.2621 66.1922C76.8006 66.1693 76.3429 66.0966 75.8971 65.9752C75.0631 65.8002 73.9181 65.5202 72.6691 65.1522C71.4201 64.7842 70.3071 64.3972 69.5111 64.0922C69.0709 63.9517 68.6472 63.7643 68.2471 63.5332C68.6998 63.6196 69.1439 63.7465 69.5741 63.9122C70.3841 64.1702 71.5031 64.5262 72.7461 64.8932C73.9891 65.2602 75.1211 65.5672 75.9461 65.7932C76.3958 65.8867 76.8362 66.0202 77.2621 66.1922Z" fill="#FC746C"/>
<path d="M74.417 76.0519C73.0634 76.3173 71.6938 76.494 70.317 76.5809C68.9505 76.7571 67.5739 76.8443 66.196 76.8419C67.5496 76.5752 68.9192 76.3981 70.296 76.3119C71.6625 76.135 73.0392 76.0482 74.417 76.0519Z" fill="#FC746C"/>
<path d="M456.726 358.1C457.25 354.3 451.885 351.171 447.853 350.846C445.931 350.691 443.934 350.985 442.112 350.346C438.166 348.971 436.59 343.873 432.74 342.246C429.861 341.032 426.547 342.113 423.756 343.517C420.965 344.921 418.208 346.689 415.09 346.889C412.378 347.062 409.433 346.056 407.061 347.381C405.292 348.368 404.361 350.406 402.737 351.608C401.041 352.654 399.077 353.187 397.084 353.14C395.1 353.092 393.123 353.415 391.257 354.093C389.457 354.917 387.966 356.822 388.34 358.768L456.726 358.1Z" fill="white"/>
<path d="M456.727 358.1C456.618 358.116 456.508 358.123 456.398 358.122L455.398 358.151L451.498 358.227L437.012 358.448L388.342 359.034H388.127L388.085 358.821C387.996 358.248 388.03 357.662 388.184 357.103C388.338 356.544 388.61 356.023 388.98 355.577C389.713 354.651 390.702 353.96 391.824 353.591C394.386 352.72 397.029 353.091 399.455 352.636C400.657 352.466 401.797 351.993 402.767 351.261C403.658 350.429 404.484 349.532 405.241 348.577C405.657 348.104 406.133 347.687 406.656 347.336C407.191 346.997 407.781 346.754 408.4 346.617C409.596 346.413 410.815 346.383 412.02 346.53C413.159 346.664 414.309 346.692 415.454 346.613C416.561 346.483 417.645 346.198 418.674 345.768C420.734 344.945 422.595 343.78 424.55 342.889C426.433 341.94 428.523 341.475 430.631 341.534C431.643 341.608 432.627 341.904 433.513 342.4C434.343 342.893 435.098 343.503 435.755 344.212C437.055 345.567 438.071 347.034 439.26 348.217C440.327 349.397 441.755 350.191 443.322 350.475C444.807 350.711 446.258 350.583 447.615 350.682C449.949 350.881 452.184 351.718 454.076 353.1C455.312 353.928 456.229 355.154 456.676 356.574C456.8 357.073 456.818 357.592 456.729 358.098C456.742 357.593 456.69 357.089 456.574 356.598C456.097 355.226 455.177 354.051 453.959 353.261C452.085 351.936 449.887 351.145 447.6 350.97C446.269 350.885 444.818 351.029 443.272 350.799C441.631 350.516 440.131 349.699 439.004 348.475C437.776 347.269 436.744 345.803 435.469 344.489C434.836 343.813 434.11 343.231 433.312 342.761C432.477 342.299 431.552 342.026 430.601 341.961C428.567 341.917 426.555 342.378 424.743 343.302C422.831 344.18 420.965 345.358 418.855 346.21C417.786 346.66 416.66 346.958 415.509 347.096C414.334 347.181 413.154 347.156 411.984 347.022C410.829 346.883 409.66 346.911 408.513 347.105C407.376 347.376 406.359 348.013 405.62 348.918C404.849 349.895 404.004 350.811 403.093 351.658C402.057 352.445 400.837 352.955 399.55 353.142C397.018 353.603 394.396 353.252 391.998 354.079C390.972 354.415 390.068 355.045 389.398 355.891C389.072 356.279 388.833 356.732 388.695 357.219C388.557 357.707 388.524 358.218 388.598 358.719L388.341 358.509L436.841 358.136L451.382 358.07H455.334L456.367 358.079C456.487 358.077 456.607 358.084 456.727 358.1Z" fill="#263238"/>
<path d="M241.884 441.8C242.579 436.75 235.453 432.6 230.099 432.165C227.546 431.96 224.893 432.35 222.474 431.507C217.233 429.68 215.14 422.907 210.026 420.752C206.203 419.14 201.801 420.575 198.094 422.441C194.387 424.307 190.725 426.654 186.584 426.919C182.984 427.149 179.071 425.813 175.919 427.573C173.571 428.884 172.341 431.59 170.176 433.187C168.059 434.748 165.297 435.079 162.669 435.222C160.041 435.365 157.322 435.391 154.93 436.487C152.538 437.583 150.558 440.112 151.055 442.696L241.884 441.8Z" fill="white"/>
<path d="M241.884 441.8C241.884 441.8 241.74 441.815 241.441 441.824L240.104 441.856L234.92 441.945L215.672 442.213L151.057 442.956H150.842L150.8 442.743C150.684 441.993 150.729 441.227 150.931 440.496C151.133 439.765 151.488 439.085 151.972 438.501C152.937 437.285 154.237 436.378 155.711 435.892C159.087 434.743 162.594 435.229 165.833 434.627C167.445 434.399 168.971 433.764 170.27 432.783C171.457 431.677 172.558 430.482 173.564 429.21C174.112 428.586 174.739 428.036 175.428 427.574C176.131 427.129 176.905 426.81 177.716 426.63C179.297 426.361 180.908 426.322 182.5 426.515C184.019 426.693 185.551 426.73 187.076 426.624C188.555 426.45 190.003 426.07 191.376 425.495C194.121 424.395 196.593 422.848 199.182 421.667C201.672 420.409 204.435 419.791 207.223 419.867C208.558 419.963 209.855 420.352 211.023 421.005C212.12 421.657 213.117 422.464 213.984 423.4C215.703 425.193 217.058 427.141 218.644 428.716C220.072 430.291 221.981 431.35 224.073 431.726C226.055 432.038 227.982 431.866 229.78 431.995C231.457 432.12 233.102 432.511 234.656 433.153C235.966 433.675 237.205 434.358 238.346 435.186C239.255 435.853 240.059 436.652 240.731 437.557C241.222 438.224 241.584 438.977 241.797 439.777C241.925 440.271 241.971 440.783 241.933 441.292C241.906 441.637 241.885 441.792 241.885 441.792C241.885 441.792 241.88 441.604 241.885 441.27C241.895 440.773 241.832 440.278 241.698 439.8C241.07 437.97 239.849 436.402 238.228 435.345C237.093 434.542 235.863 433.883 234.567 433.38C233.035 432.762 231.415 432.391 229.767 432.28C227.995 432.165 226.067 432.354 224.025 432.047C221.859 431.671 219.878 430.59 218.39 428.972C216.766 427.372 215.397 425.426 213.7 423.672C212.856 422.768 211.886 421.991 210.821 421.363C209.701 420.746 208.46 420.383 207.184 420.3C204.471 420.239 201.785 420.851 199.366 422.083C196.82 423.252 194.342 424.814 191.548 425.941C190.135 426.535 188.646 426.929 187.124 427.111C185.569 427.223 184.007 427.19 182.458 427.011C180.916 426.825 179.355 426.863 177.823 427.122C177.07 427.29 176.352 427.587 175.7 428C175.049 428.44 174.456 428.962 173.938 429.554C172.916 430.848 171.797 432.061 170.589 433.184C169.224 434.221 167.618 434.893 165.921 435.137C162.576 435.748 159.091 435.279 155.879 436.384C154.499 436.836 153.283 437.683 152.379 438.82C151.94 439.346 151.618 439.958 151.433 440.617C151.247 441.277 151.204 441.968 151.305 442.645L151.048 442.435L215.492 441.904L234.792 441.791L240.032 441.778L241.399 441.783C241.713 441.784 241.884 441.8 241.884 441.8Z" fill="#263238"/>
<path d="M149.402 203.311C149.985 199.073 144.002 195.587 139.51 195.224C137.367 195.052 135.141 195.379 133.11 194.672C128.71 193.138 126.954 187.455 122.662 185.645C119.453 184.291 115.762 185.496 112.647 187.062C109.532 188.628 106.462 190.598 102.986 190.821C99.9631 191.014 96.6791 189.893 94.0341 191.37C92.0631 192.47 91.0341 194.742 89.2141 196.081C87.4371 197.392 85.1141 197.67 82.9141 197.79C80.7141 197.91 78.4261 197.932 76.4141 198.852C74.4021 199.772 72.7451 201.894 73.1611 204.063L149.402 203.311Z" fill="white"/>
<path d="M149.402 203.311C149.279 203.327 149.156 203.335 149.032 203.334L147.913 203.363L143.566 203.444L127.414 203.681L73.1671 204.322H72.952L72.91 204.109C72.8119 203.474 72.8495 202.825 73.0203 202.206C73.1911 201.586 73.4913 201.01 73.9011 200.515C74.7159 199.489 75.8139 198.724 77.0591 198.315C79.9051 197.347 82.8511 197.756 85.5591 197.252C86.905 197.061 88.1803 196.531 89.2651 195.712C90.2596 194.783 91.1822 193.78 92.0251 192.712C92.4879 192.187 93.0166 191.723 93.5981 191.333C94.1918 190.957 94.8461 190.686 95.5321 190.533C96.8625 190.306 98.2189 190.272 99.5591 190.433C100.831 190.582 102.114 190.613 103.392 190.525C104.63 190.38 105.842 190.062 106.992 189.581C109.292 188.661 111.367 187.362 113.543 186.369C115.639 185.313 117.964 184.794 120.31 184.86C121.434 184.942 122.527 185.27 123.51 185.821C124.434 186.37 125.273 187.048 126.004 187.836C127.449 189.345 128.585 190.98 129.913 192.3C131.107 193.618 132.703 194.505 134.453 194.821C136.112 195.084 137.73 194.94 139.241 195.05C141.842 195.27 144.332 196.2 146.441 197.738C147.819 198.659 148.842 200.022 149.341 201.603C149.449 202.019 149.486 202.45 149.451 202.878C149.426 203.168 149.407 203.3 149.407 203.3C149.407 203.3 149.4 203.139 149.401 202.859C149.407 202.443 149.353 202.029 149.24 201.629C148.71 200.097 147.684 198.786 146.326 197.901C144.235 196.421 141.781 195.536 139.226 195.34C137.741 195.24 136.126 195.405 134.404 195.148C132.58 194.833 130.911 193.923 129.657 192.561C128.291 191.218 127.141 189.583 125.719 188.116C125.012 187.361 124.201 186.71 123.309 186.185C122.376 185.668 121.341 185.363 120.277 185.291C118.006 185.241 115.757 185.754 113.733 186.786C111.599 187.766 109.519 189.078 107.17 190.026C105.981 190.527 104.728 190.858 103.447 191.011C102.139 191.106 100.826 191.079 99.5231 190.928C98.2326 190.774 96.9266 190.805 95.6451 191.021C94.3718 191.324 93.2334 192.038 92.4051 193.051C91.5445 194.143 90.6014 195.167 89.5841 196.114C88.4332 196.988 87.0786 197.555 85.6481 197.761C82.8311 198.275 79.9071 197.882 77.2251 198.807C76.0749 199.183 75.0606 199.889 74.3081 200.837C73.9431 201.273 73.6747 201.782 73.5206 202.33C73.3665 202.877 73.3302 203.451 73.4141 204.014L73.1571 203.804L127.234 203.376L143.441 203.294L147.841 203.288L148.992 203.296C149.129 203.292 149.266 203.297 149.402 203.311Z" fill="#263238"/>
<path d="M422.019 92.9181C422.478 89.5871 417.776 86.8471 414.244 86.5621C412.559 86.4261 410.809 86.6841 409.213 86.1271C405.755 84.9221 404.374 80.4551 401 79.0271C398.477 77.9641 395.573 78.9111 393.127 80.1421C390.681 81.3731 388.265 82.9211 385.533 83.0961C383.156 83.2481 380.576 82.3671 378.496 83.5281C376.947 84.3931 376.135 86.1781 374.707 87.2281C373.22 88.1445 371.5 88.6109 369.754 88.5711C368.015 88.5281 366.283 88.8109 364.647 89.4051C363.069 90.1281 361.763 91.7971 362.091 93.5051L422.019 92.9181Z" fill="white"/>
<path d="M422.019 92.9178C421.924 92.9351 421.828 92.9425 421.732 92.9398L420.856 92.9678L417.445 93.0388L404.754 93.2388L362.093 93.7658H361.878L361.836 93.5528C361.758 93.0458 361.787 92.5279 361.924 92.0332C362.06 91.5385 362.299 91.0783 362.626 90.6828C363.273 89.8672 364.145 89.2589 365.134 88.9328C367.389 88.1668 369.706 88.4908 371.826 88.0948C372.875 87.9464 373.869 87.5334 374.714 86.8948C375.494 86.1678 376.217 85.3829 376.878 84.5468C377.594 83.6838 378.572 83.0776 379.663 82.8198C380.714 82.6409 381.786 82.6153 382.845 82.7438C383.841 82.8612 384.845 82.8856 385.845 82.8168C386.812 82.7037 387.759 82.4556 388.658 82.0798C390.458 81.3588 392.091 80.3398 393.807 79.5578C395.462 78.7249 397.298 78.3166 399.15 78.3698C400.041 78.4354 400.907 78.6959 401.686 79.1328C402.416 79.5663 403.079 80.1028 403.655 80.7258C404.793 81.9158 405.685 83.2018 406.725 84.2368C407.657 85.2687 408.904 85.9628 410.272 86.2108C411.572 86.4178 412.841 86.3108 414.032 86.3948C416.081 86.5708 418.041 87.3066 419.7 88.5218C420.784 89.2505 421.586 90.3272 421.975 91.5738C422.084 92.0115 422.098 92.4675 422.015 92.9108C422.022 92.47 421.974 92.0299 421.873 91.6008C421.452 90.4049 420.648 89.3819 419.584 88.6918C417.943 87.5351 416.019 86.8441 414.017 86.6918C412.852 86.6178 411.581 86.7458 410.222 86.5438C408.78 86.2963 407.461 85.5791 406.469 84.5038C405.391 83.4458 404.485 82.1608 403.369 81.0118C402.816 80.4204 402.181 79.9112 401.484 79.4998C400.757 79.0958 399.949 78.8568 399.119 78.7998C397.341 78.7624 395.582 79.1657 393.998 79.9738C392.326 80.7428 390.69 81.7738 388.838 82.5238C387.899 82.9195 386.91 83.1818 385.898 83.3028C384.867 83.3777 383.831 83.3562 382.804 83.2388C381.795 83.1173 380.773 83.1415 379.771 83.3108C378.781 83.5472 377.896 84.1023 377.253 84.8908C376.576 85.7465 375.834 86.5489 375.034 87.2908C374.122 87.9839 373.049 88.4336 371.915 88.5978C369.69 88.9978 367.394 88.6978 365.303 89.4168C364.409 89.7099 363.621 90.2585 363.035 90.9948C362.753 91.3317 362.546 91.7245 362.426 92.1473C362.307 92.57 362.279 93.0133 362.343 93.4478L362.086 93.2368L404.577 92.9238L417.323 92.8758H420.789L421.697 92.8858C421.805 92.8893 421.913 92.9 422.019 92.9178Z" fill="#263238"/>
<path d="M247.673 268.688L246.954 285.133C246.954 285.133 263.429 291.387 263.592 294.439L231.655 294.19L231.724 268.52L247.673 268.688Z" fill="#455A64"/>
<path d="M237.089 283.672C236.781 283.764 236.518 283.965 236.35 284.239C236.181 284.512 236.119 284.838 236.176 285.154C236.256 285.465 236.452 285.733 236.723 285.904C236.995 286.075 237.321 286.135 237.636 286.072C237.962 285.975 238.241 285.76 238.418 285.469C238.595 285.179 238.658 284.833 238.595 284.498C238.479 284.182 238.245 283.923 237.941 283.776C237.638 283.63 237.29 283.606 236.97 283.711" fill="#E0E0E0"/>
<g opacity="0.6">
<path d="M231.655 294.191L231.763 291.603L262.343 292.809C262.343 292.809 263.76 293.439 263.592 294.439L231.655 294.191Z" fill="white"/>
</g>
<path d="M247.473 284.975C247.467 285.131 246.686 285.195 245.915 285.691C245.131 286.166 244.73 286.839 244.587 286.775C244.444 286.744 244.687 285.814 245.628 285.23C246.569 284.646 247.508 284.832 247.473 284.975Z" fill="#263238"/>
<path d="M250.812 286.386C250.846 286.538 250.169 286.798 249.634 287.453C249.08 288.093 248.941 288.805 248.786 288.797C248.639 288.82 248.538 287.906 249.219 287.104C249.9 286.302 250.81 286.238 250.812 286.386Z" fill="#263238"/>
<path d="M252.684 290.41C252.542 290.442 252.331 289.661 252.738 288.81C253.145 287.959 253.877 287.625 253.943 287.756C254.03 287.885 253.553 288.339 253.229 289.043C252.884 289.739 252.838 290.4 252.684 290.41Z" fill="#263238"/>
<path d="M247.221 281.209C247.155 281.35 246.441 281.13 245.559 281.183C244.676 281.218 243.988 281.508 243.907 281.374C243.818 281.26 244.492 280.688 245.532 280.64C246.572 280.592 247.299 281.087 247.221 281.209Z" fill="#263238"/>
<path d="M297.295 268.688L296.576 285.133C296.576 285.133 313.051 291.387 313.214 294.439L281.277 294.19L281.346 268.52L297.295 268.688Z" fill="#455A64"/>
<path d="M286.712 283.672C286.404 283.763 286.14 283.965 285.972 284.238C285.803 284.512 285.741 284.838 285.798 285.154C285.878 285.465 286.074 285.733 286.346 285.904C286.617 286.075 286.944 286.135 287.259 286.072C287.585 285.975 287.864 285.76 288.041 285.469C288.218 285.179 288.281 284.833 288.218 284.498C288.102 284.182 287.867 283.923 287.564 283.776C287.261 283.63 286.913 283.606 286.593 283.711" fill="#E0E0E0"/>
<g opacity="0.6">
<path d="M281.277 294.191L281.385 291.603L311.966 292.809C311.966 292.809 313.383 293.439 313.214 294.439L281.277 294.191Z" fill="white"/>
</g>
<path d="M297.095 284.975C297.089 285.131 296.309 285.195 295.538 285.691C294.753 286.166 294.352 286.839 294.209 286.775C294.066 286.744 294.309 285.814 295.25 285.23C296.191 284.646 297.13 284.832 297.095 284.975Z" fill="#263238"/>
<path d="M300.434 286.386C300.469 286.538 299.791 286.798 299.256 287.453C298.702 288.093 298.563 288.805 298.408 288.797C298.261 288.82 298.161 287.906 298.841 287.104C299.521 286.302 300.432 286.238 300.434 286.386Z" fill="#263238"/>
<path d="M302.306 290.41C302.164 290.442 301.953 289.661 302.36 288.81C302.767 287.959 303.499 287.625 303.56 287.756C303.647 287.885 303.17 288.339 302.846 289.043C302.51 289.739 302.461 290.4 302.306 290.41Z" fill="#263238"/>
<path d="M296.843 281.209C296.777 281.35 296.063 281.13 295.181 281.183C294.298 281.218 293.61 281.508 293.53 281.374C293.44 281.26 294.115 280.688 295.154 280.64C296.193 280.592 296.921 281.087 296.843 281.209Z" fill="#263238"/>
<path d="M231.807 52.7403C230.6 49.6939 229.658 46.5489 228.993 43.3403C228.329 40.1182 228.475 36.7816 229.42 33.6303C229.576 33.1593 230.937 29.9873 231.432 30.0173C231.786 30.0403 230.984 32.9823 231.173 33.2823C232.892 36.2275 233.675 39.6249 233.421 43.0253C233.245 46.3121 232.704 49.5692 231.807 52.7363" fill="#263238"/>
<path d="M232.859 70.1739L231.659 40.4639C231.097 32.2729 234.764 24.9229 242.968 24.5869L243.86 24.6029C247.513 24.665 251.009 26.1007 253.651 28.6241C256.294 31.1475 257.889 34.5735 258.119 38.2199C258.571 45.3559 258.981 53.2809 258.867 57.1089C258.632 64.9839 250.732 66.0719 250.732 66.0719C250.715 66.0719 251.07 71.7799 251.132 74.0919C251.132 74.0919 250.298 74.6979 242.961 74.9579C235.624 75.2179 232.859 70.1739 232.859 70.1739Z" fill="#FFBF9D"/>
<path d="M250.732 66.0718C247.095 65.998 243.555 64.8837 240.532 62.8608C240.532 62.8608 242.932 68.6328 250.805 68.0608L250.732 66.0718Z" fill="#FF9A6C"/>
<path d="M255.415 45.3719C255.413 45.6645 255.297 45.9448 255.091 46.1533C254.886 46.3618 254.608 46.4822 254.315 46.4889C254.172 46.4978 254.028 46.4779 253.892 46.4304C253.757 46.3829 253.632 46.3087 253.526 46.2123C253.419 46.1158 253.333 45.999 253.273 45.8688C253.212 45.7385 253.178 45.5975 253.173 45.4539C253.175 45.1612 253.291 44.8808 253.496 44.6723C253.702 44.4637 253.98 44.3434 254.273 44.3369C254.416 44.3283 254.56 44.3484 254.695 44.396C254.831 44.4436 254.955 44.5178 255.062 44.6142C255.168 44.7106 255.254 44.8273 255.315 44.9574C255.375 45.0875 255.409 45.2284 255.415 45.3719Z" fill="#263238"/>
<path d="M256.132 42.5622C255.99 42.7062 255.149 42.0622 253.938 42.0432C252.729 42.0072 251.83 42.6152 251.701 42.4642C251.638 42.3972 251.785 42.1352 252.176 41.8642C252.706 41.5103 253.333 41.329 253.97 41.3452C254.6 41.3549 255.21 41.5651 255.713 41.9452C256.084 42.2302 256.202 42.5002 256.132 42.5622Z" fill="#263238"/>
<path d="M245.068 45.5578C244.926 45.7018 244.083 45.0578 242.874 45.0388C241.665 45.0038 240.766 45.6108 240.637 45.4598C240.574 45.3928 240.719 45.1308 241.112 44.8598C241.642 44.5059 242.269 44.3246 242.906 44.3408C243.536 44.3507 244.146 44.5609 244.649 44.9408C245.015 45.2258 245.137 45.4928 245.068 45.5578Z" fill="#263238"/>
<path d="M248.753 52.1C249.395 51.9125 250.058 51.805 250.726 51.78C251.035 51.754 251.326 51.697 251.385 51.487C251.416 51.1681 251.35 50.8472 251.194 50.567C250.916 49.8137 250.625 49.024 250.321 48.198C249.507 46.1874 248.857 44.1148 248.375 42C249.349 43.9382 250.165 45.9518 250.815 48.021C251.106 48.853 251.384 49.6477 251.649 50.405C251.837 50.781 251.886 51.2113 251.788 51.62C251.741 51.7282 251.671 51.8245 251.582 51.9014C251.492 51.9783 251.387 52.0339 251.273 52.064C251.101 52.1074 250.924 52.1286 250.746 52.127C250.083 52.2027 249.413 52.1936 248.753 52.1Z" fill="#263238"/>
<path d="M245.124 42.3341C244.976 42.6511 243.786 42.3871 242.356 42.4341C240.925 42.4481 239.747 42.7591 239.585 42.4491C239.514 42.3001 239.741 42.0101 240.231 41.7341C240.882 41.4005 241.6 41.2196 242.331 41.2051C243.062 41.1905 243.787 41.3427 244.451 41.6501C244.951 41.9001 245.184 42.1831 245.124 42.3341Z" fill="#263238"/>
<path d="M256.608 38.0322C256.424 38.3542 255.416 38.2812 254.274 38.5152C253.125 38.7152 252.209 39.1532 251.926 38.9152C251.799 38.8002 251.892 38.4982 252.258 38.1522C252.769 37.7094 253.391 37.4151 254.058 37.3012C254.716 37.1637 255.4 37.2108 256.033 37.4372C256.494 37.6302 256.684 37.8782 256.608 38.0322Z" fill="#263238"/>
<path d="M232.202 46.251C232.069 46.19 226.818 44.551 226.896 49.944C226.974 55.337 232.368 54.144 232.375 53.987C232.382 53.83 232.202 46.251 232.202 46.251Z" fill="#FFBF9D"/>
<path d="M230.609 51.9911C230.585 51.9741 230.516 52.0581 230.359 52.1331C230.138 52.2313 229.887 52.2403 229.659 52.1581C229.309 51.9415 229.023 51.636 228.83 51.2727C228.636 50.9094 228.543 50.5013 228.559 50.0901C228.539 49.6283 228.623 49.1678 228.803 48.7421C228.851 48.573 228.939 48.4181 229.06 48.2908C229.181 48.1634 229.332 48.0674 229.498 48.0111C229.606 47.9812 229.72 47.9896 229.822 48.0351C229.924 48.0806 230.007 48.1601 230.056 48.2601C230.13 48.4101 230.098 48.5181 230.127 48.5271C230.156 48.5361 230.241 48.4351 230.194 48.2131C230.162 48.0803 230.085 47.9625 229.977 47.8791C229.827 47.769 229.64 47.7223 229.456 47.7491C229.235 47.796 229.031 47.8989 228.861 48.0477C228.692 48.1965 228.563 48.3864 228.488 48.5991C228.267 49.0692 228.164 49.5862 228.188 50.1051C228.168 50.5848 228.291 51.0597 228.54 51.4701C228.789 51.8805 229.153 52.2082 229.588 52.4121C229.733 52.4526 229.886 52.4597 230.034 52.4328C230.183 52.406 230.323 52.3459 230.445 52.2571C230.601 52.1221 230.628 52.0001 230.609 51.9911Z" fill="#FF9A6C"/>
<path d="M254.434 29.5001C255.294 29.0001 252.612 26.2361 250.447 25.3141C247.174 23.9211 242.208 23.1311 239.242 24.0481C235.671 25.1481 232.726 27.0091 230.998 30.3231C229.337 33.6958 228.603 37.45 228.872 41.2001C228.854 42.346 229.142 43.476 229.707 44.4731C230.488 45.6471 231.949 46.3641 231.924 48.0081C231.911 48.3061 231.958 48.6037 232.061 48.8837C232.164 49.1637 232.321 49.4204 232.524 49.6391C233.534 50.6651 234.717 49.6521 235.248 48.6511C236.383 46.5131 236.456 43.9911 236.504 41.5711C236.632 39.8524 236.476 38.1244 236.044 36.4561C235.759 35.5641 235.316 34.7251 235.081 33.8191C234.936 33.3728 234.889 32.9002 234.944 32.434C234.999 31.9678 235.155 31.5192 235.4 31.1191C235.529 30.9556 235.672 30.8043 235.828 30.6671C236.564 29.9937 237.466 29.5285 238.441 29.319C239.416 29.1095 240.43 29.1634 241.377 29.4751C244.436 30.4751 249.654 31.9601 250.983 30.8991C251.934 30.2388 252.736 29.3873 253.338 28.3991L254.434 29.5001Z" fill="#263238"/>
<path d="M249.537 55.3741C249.558 55.4611 249.262 55.6361 248.721 55.7031C248.011 55.7676 247.297 55.6402 246.653 55.3341C246.01 55.028 245.46 54.5544 245.062 53.9631C244.774 53.5011 244.723 53.1631 244.803 53.1221C244.984 53.0281 245.637 54.0901 246.958 54.6951C248.26 55.3381 249.496 55.1751 249.537 55.3741Z" fill="#263238"/>
<path d="M324.544 42.2629C324.544 42.2629 324.336 41.0029 323.714 41.0029C323.3 41.0073 322.896 41.1277 322.548 41.3505C322.199 41.5732 321.921 41.8894 321.743 42.2629C321.328 43.1819 324.544 42.2629 324.544 42.2629Z" fill="#FFBF9D"/>
<path d="M308.684 62.3071L309.307 52.3751L311.277 42.1491C311.277 42.1491 312.833 40.4861 313.663 40.8721C314.493 41.2581 314.182 42.6261 314.182 42.6261C314.182 42.6261 316.36 40.2731 317.19 40.8141C318.02 41.3551 317.708 42.6261 317.708 42.6261C317.708 42.6261 319.679 40.0141 320.613 40.7331C321.547 41.4521 320.613 42.6261 320.613 42.6261C320.613 42.6261 321.849 54.0831 321.227 58.1761C321.039 59.3717 320.568 60.5051 319.853 61.4817C319.138 62.4582 318.2 63.2497 317.117 63.7901L315.462 70.2341L307.336 65.8111L308.684 62.3071Z" fill="#FFBF9D"/>
<path d="M313.658 49.3127L269.517 48.8227V45.2907L313.658 44.0527V49.3127Z" fill="#FC746C"/>
<path d="M360.268 52.8127L297.897 50.1787C297.108 47.9515 297.092 45.5233 297.851 43.2857L359.829 40.5527C362.684 43.5167 362.714 49.7627 360.268 52.8127Z" fill="#FC746C"/>
<path d="M359.659 41.1235C359.659 41.1235 357.779 42.8825 357.852 46.7135C357.925 50.5445 359.813 52.1545 359.813 52.1545C360.484 51.3183 360.984 50.358 361.284 49.3285C361.584 48.299 361.678 47.2204 361.561 46.1545C361.27 42.3995 359.659 41.1235 359.659 41.1235Z" fill="#E0E0E0"/>
<path d="M357.166 52.8127C356.655 52.4048 356.24 51.8879 355.954 51.2997C355.137 49.9317 354.712 48.3658 354.724 46.7727C354.721 45.1884 355.096 43.6263 355.818 42.2157C356.084 41.613 356.502 41.09 357.032 40.6987C357.099 40.7537 356.623 41.3197 356.148 42.3787C355.557 43.7706 355.251 45.2667 355.248 46.7787C355.246 48.2872 355.6 49.7748 356.281 51.1207C356.792 52.1717 357.232 52.7627 357.166 52.8127Z" fill="#263238"/>
<path d="M359.945 40.6938C360.013 40.7458 359.555 41.3308 359.059 42.3938C358.41 43.7686 358.085 45.2738 358.108 46.7938C358.146 48.3141 358.527 49.8061 359.224 51.1578C359.493 51.7248 359.869 52.2342 360.332 52.6578C360.321 52.6858 360.122 52.6578 359.832 52.4468C359.452 52.1392 359.136 51.7613 358.899 51.3338C358.067 49.9655 357.613 48.4011 357.583 46.8001C357.553 45.199 357.947 43.6186 358.727 42.2198C359.006 41.6216 359.423 41.0985 359.945 40.6938Z" fill="#263238"/>
<path d="M360.759 43.8939C360.687 43.6905 360.574 43.5042 360.426 43.3469C360.352 43.2688 360.26 43.2098 360.157 43.175C360.055 43.1402 359.947 43.1305 359.84 43.1469C359.736 43.1741 359.642 43.228 359.566 43.3033C359.49 43.3786 359.435 43.4727 359.407 43.5759C359.354 43.7846 359.378 44.0052 359.474 44.1979C359.699 44.6499 360.074 45.0679 360.058 45.5189C360.003 45.9656 359.974 46.4149 359.969 46.8649C359.975 47.0307 360.025 47.192 360.114 47.3319C360.159 47.4012 360.222 47.457 360.297 47.4936C360.371 47.5302 360.453 47.5462 360.536 47.5399C360.803 47.5039 360.936 47.2009 360.997 46.9399C361.233 45.9242 361.15 44.8606 360.759 43.8939Z" fill="white"/>
<path d="M297.884 50.3996C297.222 49.3287 296.923 48.0729 297.031 46.8186C296.966 45.561 297.307 44.3158 298.005 43.2676C298.151 43.3236 297.573 44.8546 297.552 46.8266C297.509 48.7996 298.035 50.3496 297.884 50.3996Z" fill="#263238"/>
<path d="M269.426 49.6606C269.247 49.6606 269.076 49.5896 268.949 49.4632C268.823 49.3368 268.752 49.1654 268.752 48.9866V45.2516C268.752 45.0729 268.823 44.9014 268.949 44.775C269.076 44.6486 269.247 44.5776 269.426 44.5776C269.605 44.5776 269.776 44.6486 269.903 44.775C270.029 44.9014 270.1 45.0729 270.1 45.2516V48.9866C270.1 49.1654 270.029 49.3368 269.903 49.4632C269.776 49.5896 269.605 49.6606 269.426 49.6606Z" fill="#FC746C"/>
<path d="M269.426 49.6607C269.421 49.6177 269.604 49.6137 269.787 49.4307C269.891 49.3234 269.95 49.1803 269.952 49.0307C269.94 48.7987 269.928 48.5657 269.916 48.3307C269.898 47.7307 269.879 47.1087 269.86 46.4707C269.855 46.1107 269.85 45.7457 269.845 45.3707C269.861 45.307 269.862 45.2405 269.849 45.1762C269.835 45.112 269.807 45.0516 269.767 44.9998C269.726 44.948 269.675 44.9061 269.616 44.8773C269.557 44.8485 269.492 44.8335 269.426 44.8335C269.36 44.8335 269.295 44.8485 269.236 44.8773C269.177 44.9061 269.126 44.948 269.085 44.9998C269.045 45.0516 269.017 45.112 269.003 45.1762C268.99 45.2405 268.991 45.307 269.007 45.3707C269.002 45.7437 268.997 46.1087 268.992 46.4707C268.973 47.1087 268.954 47.7267 268.936 48.3307C268.924 48.5677 268.912 48.8007 268.9 49.0307C268.902 49.1803 268.961 49.3234 269.065 49.4307C269.249 49.6137 269.431 49.6177 269.426 49.6607C269.436 49.6837 269.236 49.7727 268.937 49.5877C268.849 49.5273 268.774 49.449 268.717 49.3578C268.661 49.2667 268.625 49.1648 268.61 49.0587C268.596 48.8177 268.582 48.5767 268.568 48.3307C268.55 47.7307 268.531 47.1087 268.512 46.4707C268.507 46.1107 268.502 45.7457 268.497 45.3707C268.474 45.1166 268.548 44.8632 268.703 44.6607C268.79 44.5526 268.9 44.4654 269.025 44.4055C269.151 44.3456 269.288 44.3145 269.427 44.3145C269.565 44.3145 269.702 44.3456 269.828 44.4055C269.953 44.4654 270.063 44.5526 270.15 44.6607C270.303 44.8641 270.374 45.1174 270.35 45.3707C270.345 45.7437 270.34 46.1087 270.335 46.4707C270.316 47.1087 270.297 47.7267 270.279 48.3307C270.265 48.5754 270.251 48.8177 270.237 49.0577C270.223 49.164 270.186 49.2661 270.13 49.3574C270.073 49.4487 269.999 49.5272 269.91 49.5877C269.616 49.7727 269.417 49.6837 269.426 49.6607Z" fill="#263238"/>
<path d="M277.09 57.0559C277.09 57.0559 276.152 45.4659 276.43 44.4499C276.749 43.2859 279.908 39.8499 281.03 39.7299C282.152 39.6099 282.272 40.8469 282.272 40.8469C283.201 40.2249 284.267 39.8384 285.378 39.7209C285.803 39.6783 286.229 39.7972 286.57 40.054C286.911 40.3108 287.143 40.6867 287.22 41.1069C287.963 40.6623 288.849 40.5226 289.692 40.7169C290.35 40.8359 291.105 42.0039 291.105 42.0039C291.105 42.0039 292.743 41.2979 293.522 42.0289C294.144 42.7375 294.488 43.6479 294.49 44.5909C293.45 44.583 292.434 44.9062 291.59 45.5139C291.41 48.0339 291.076 50.5405 290.59 53.0199C289.969 55.5039 287.513 57.5559 286.69 58.8419L286.038 67.4139L275.484 61.8259L277.09 57.0559Z" fill="#FFBF9D"/>
<path d="M279.465 45.3218C279.396 44.7877 279.438 44.2451 279.588 43.7279C279.739 43.2107 279.994 42.73 280.338 42.3158C280.609 41.8505 280.974 41.4461 281.408 41.128C281.843 40.8098 282.338 40.5848 282.864 40.4668C282.936 40.6048 281.701 41.2508 280.764 42.6148C280.259 43.4808 279.825 44.3861 279.465 45.3218Z" fill="#FF9A6C"/>
<path d="M284.626 45.1221C284.474 44.6621 284.435 44.1726 284.511 43.6943C284.586 43.2159 284.776 42.7626 285.062 42.3721C285.417 41.7727 285.961 41.3091 286.61 41.0551C287.11 40.8781 287.442 40.9191 287.449 40.9791C287.488 41.1231 286.236 41.3791 285.504 42.6461C285.128 43.4394 284.834 44.269 284.626 45.1221Z" fill="#FF9A6C"/>
<path d="M288.402 44.7349C288.267 44.7109 288.493 43.609 289.48 42.72C290.467 41.831 291.58 41.701 291.588 41.837C291.627 41.984 290.688 42.3069 289.83 43.1049C288.972 43.9029 288.545 44.7879 288.402 44.7349Z" fill="#FF9A6C"/>
<path d="M315.384 59.9108C317.147 57.8368 315.803 52.2748 315.803 52.2748C316.544 52.0017 317.211 51.5595 317.752 50.9833C318.292 50.4072 318.69 49.7129 318.915 48.9558C319.537 46.4658 318.292 46.0508 318.292 46.0508C317.877 46.2588 314.039 48.7508 312.069 49.7848C310.099 50.8188 309.476 61.3848 309.476 61.3848" fill="#FFBF9D"/>
<path d="M309.474 61.3857C309.423 60.9254 309.423 60.4609 309.474 60.0007C309.519 59.1107 309.61 57.8247 309.806 56.2417C309.985 54.3657 310.4 52.5198 311.041 50.7477C311.153 50.4859 311.295 50.238 311.464 50.0087C311.652 49.7655 311.896 49.5714 312.175 49.4427C312.652 49.1807 313.135 48.8987 313.624 48.6067L316.635 46.7567C317.154 46.4377 317.63 46.1277 318.172 45.8197L318.272 45.7627L318.372 45.8057C318.572 45.8987 318.75 46.0337 318.894 46.2016C319.038 46.3695 319.143 46.5663 319.204 46.7787C319.319 47.1484 319.362 47.5367 319.331 47.9227C319.292 48.6418 319.105 49.3452 318.782 49.9887C318.149 51.1475 317.113 52.034 315.87 52.4807L316.012 52.2237C316.463 54.1003 316.559 56.0447 316.296 57.9567C316.204 58.4911 316.02 59.0055 315.752 59.4767C315.533 59.7827 315.396 59.9237 315.382 59.9107C315.446 59.7339 315.531 59.5659 315.637 59.4107C315.847 58.9335 315.986 58.4281 316.049 57.9107C316.215 56.0345 316.06 54.1437 315.59 52.3197L315.548 52.1357L315.732 52.0627C316.85 51.6334 317.778 50.8174 318.346 49.7627C318.631 49.178 318.793 48.5414 318.824 47.8917C318.879 47.5941 318.851 47.2871 318.742 47.0046C318.633 46.7221 318.449 46.4754 318.208 46.2917L318.408 46.2777C317.94 46.5467 317.419 46.8777 316.914 47.1937C315.885 47.8347 314.876 48.4577 313.888 49.0407C313.394 49.3317 312.905 49.6127 312.415 49.8757C312.194 49.9665 312.001 50.1142 311.855 50.3037C311.707 50.5016 311.581 50.7157 311.481 50.9417C310.84 52.6671 310.401 54.4611 310.174 56.2877C309.933 57.8537 309.787 59.1307 309.68 60.0127C309.651 60.4754 309.582 60.9348 309.474 61.3857Z" fill="#FF9A6C"/>
<path d="M232.884 152.592C232.884 152.592 234.111 202.923 232.884 209.061C231.657 215.199 229.61 240.569 229.61 259.392C229.61 278.215 230.4 282.504 230.4 282.504H248.684C248.684 282.504 249.945 246.716 255.584 226.016C260.823 206.788 266.855 177.553 266.855 164.868V147.682H234.526L232.884 152.592Z" fill="#263238"/>
<path d="M277.084 147.682C277.084 147.682 296.254 200.877 297.484 216.426C298.714 231.975 298.774 282.504 298.774 282.504H279.854L277.326 221.474L262.765 181.932V147.682H277.084Z" fill="#263238"/>
<path d="M266.852 176.325C266.819 176.814 266.74 177.299 266.617 177.774C266.417 178.795 266.164 180.112 265.858 181.694C265.205 185.1 264.338 189.628 263.379 194.634C262.401 199.688 261.479 204.258 260.749 207.552C260.384 209.199 260.065 210.528 259.827 211.442C259.727 211.921 259.582 212.39 259.395 212.842C259.428 212.353 259.506 211.869 259.629 211.394C259.829 210.373 260.082 209.056 260.389 207.474C261.041 204.068 261.909 199.539 262.868 194.532C263.846 189.48 264.768 184.91 265.497 181.616C265.863 179.969 266.182 178.64 266.42 177.726C266.52 177.247 266.665 176.778 266.852 176.325Z" fill="#455A64"/>
<path d="M284.341 171.172H288.394C288.394 171.172 289.323 157.139 286.98 147.682C284.637 138.225 272.684 97.0402 272.684 97.0402L259.441 75.1562L252.341 71.9692L275.664 150.156L284.341 171.172Z" fill="#455A64"/>
<path opacity="0.3" d="M269.593 103.239C269.593 103.239 281.855 139.567 283.885 149.091C285.296 156.392 286.326 163.763 286.968 171.172H284.341L274.715 145.812C274.715 145.812 264.68 105.485 265.148 105.585C265.616 105.685 269.593 103.239 269.593 103.239Z" fill="black"/>
<path d="M230.084 71.1221L231.184 64.1611L250.738 72.9391V68.6741L259.384 83.0881L278.393 137.131C279.009 138.796 279.744 144.345 278.638 145.731L277.084 147.68L256.484 150.344L236.943 79.8111L230.084 71.1221Z" fill="#E0E0E0"/>
<path opacity="0.3" d="M233.322 176.325C233.322 176.325 259.484 179.262 264.845 177.125C266.39 176.498 267.731 175.456 268.722 174.115C269.713 172.774 270.314 171.186 270.46 169.525C270.46 169.525 273.084 150.948 272.901 146.854C272.6 143.06 272.032 139.292 271.201 135.578L233.276 173.046L233.322 176.325Z" fill="black"/>
<path d="M253.027 79.189C253.027 79.189 261.968 109.626 261.892 109.853C261.816 110.08 271.809 141.026 271.809 141.026L273.773 131.726L259.873 85.326L254.284 78.479L253.027 79.189Z" fill="#FC746C"/>
<path d="M224.278 73.962C215.105 79.548 214.629 88.225 218.71 98.162C219.387 99.81 220.687 102.647 221.591 104.567C225.538 112.955 233.728 126.645 233.727 129.848C233.727 137.381 226.978 172.354 226.978 172.354C226.978 172.354 263.552 176.795 266.852 173.341C270.152 169.887 272.693 148.341 271.632 138.699C270.46 128.06 264.98 110.067 262.76 103.406C261.424 99.399 257.01 89.419 251.747 82.878C247.808 77.9885 243.126 73.7475 237.872 70.31L230.087 65.21L228.482 70.61C227.191 71.8587 225.783 72.9812 224.278 73.962Z" fill="#455A64"/>
<path d="M259.877 76.3891C260.63 76.3481 294.06 87.3141 292.129 86.5061L293.021 85.5741L305.068 67.4141L316.042 73.9211C316.042 73.9211 305.154 94.7261 303.356 97.9851C302.495 99.5844 301.214 100.919 299.651 101.844C298.088 102.77 296.303 103.252 294.486 103.239C292.034 103.239 271.098 99.7391 271.098 99.7391L259.877 76.3891Z" fill="#455A64"/>
<path d="M273.324 63.893L275.912 59.313L287.556 65.936L285.741 70.979L273.324 63.893Z" fill="#E0E0E0"/>
<path opacity="0.3" d="M222.11 98.513C222.11 98.513 244.61 111.044 251.734 112.694C258.858 114.344 266.852 116.631 266.852 116.631L263.644 106.413L244.117 94.54L222.11 98.513Z" fill="black"/>
<path d="M222.11 98.5131C221.833 98.3011 255.827 110.392 262.752 108.213C269.677 106.034 271.927 99.1651 274.403 94.9401C278.936 87.2071 286.968 71.8351 286.968 71.8351L272.548 63.6001L258.224 87.5721C258.224 87.5721 232.917 77.1391 230.584 76.4581C228.251 75.7771 221.045 74.8431 217.52 83.2651C213.614 92.6001 222.11 98.5131 222.11 98.5131Z" fill="#455A64"/>
<path d="M222.11 98.5132C222.021 98.4644 221.936 98.4086 221.856 98.3462C221.693 98.2272 221.456 98.0462 221.156 97.7832C220.278 97.0187 219.49 96.1565 218.808 95.2132C217.696 93.6991 216.932 91.9574 216.573 90.1132C216.464 89.5509 216.401 88.9807 216.385 88.4082C216.35 87.8172 216.438 87.2082 216.464 86.5752C216.603 85.9602 216.68 85.3072 216.883 84.6752C217.082 84.017 217.322 83.3723 217.604 82.7452C218.194 81.3771 219.012 80.1197 220.025 79.0272C221.145 77.8259 222.546 76.923 224.103 76.4002C225.79 75.8517 227.583 75.7146 229.333 76.0002C230.251 76.1451 231.147 76.4013 232.003 76.7632L234.65 77.7822C241.789 80.5932 249.739 83.8412 258.315 87.3572L258.015 87.4572L272.326 63.4822L272.457 63.2632L272.678 63.3892L277.863 66.3472L287.097 71.6202L287.314 71.7432L287.198 71.9642C284.365 77.3642 281.576 82.5862 278.833 87.5852C277.459 90.0852 276.099 92.5242 274.72 94.8852C273.358 97.2262 272.278 99.6922 270.831 101.885C269.491 104.085 267.644 105.931 265.444 107.269C264.379 107.898 263.218 108.348 262.007 108.603C260.827 108.73 259.636 108.723 258.457 108.581C254.232 108.032 250.052 107.177 245.951 106.02C238.437 104.005 232.499 102.047 228.411 100.696C224.323 99.3452 222.111 98.5232 222.111 98.5232C222.256 98.5339 222.399 98.5677 222.533 98.6232L223.758 99.0052L228.47 100.515C232.57 101.809 238.527 103.715 246.039 105.683C250.126 106.81 254.289 107.641 258.496 108.171C259.642 108.304 260.799 108.308 261.945 108.182C263.1 107.93 264.208 107.493 265.224 106.889C267.358 105.579 269.148 103.777 270.443 101.633C271.86 99.4752 272.925 97.0262 274.303 94.6432C275.674 92.2852 277.028 89.8432 278.396 87.3432C281.128 82.3432 283.912 77.1182 286.74 71.7232L286.84 72.0672L277.603 66.7982L272.42 63.8392L272.771 63.7462C267.719 72.1892 262.871 80.2902 258.433 87.7052L258.325 87.8862L258.131 87.8062C249.564 84.2742 241.622 81.0062 234.5 78.1632L231.864 77.1352C231.035 76.7792 230.166 76.526 229.275 76.3812C227.584 76.0976 225.849 76.222 224.216 76.7442C222.711 77.2411 221.354 78.1051 220.266 79.2582C219.271 80.3185 218.463 81.5406 217.878 82.8722C217.597 83.4846 217.356 84.1146 217.156 84.7582C216.951 85.3812 216.873 86.0172 216.73 86.6182C216.7 87.2342 216.608 87.8322 216.636 88.4102C216.647 88.9704 216.703 89.5289 216.803 90.0802C217.139 91.8983 217.868 93.6211 218.939 95.1282C219.602 96.073 220.364 96.9445 221.212 97.7282C221.498 97.9982 221.727 98.1912 221.881 98.3192L222.11 98.5132Z" fill="#263238"/>
<path d="M238.457 149.739L241.607 143.362L263.644 143.749L261.195 150.349L238.457 149.739Z" fill="#455A64"/>
<path d="M238.456 149.739C238.616 149.726 238.777 149.722 238.937 149.727L240.247 149.735L245.047 149.794C249.114 149.849 254.747 149.932 261.202 150.094L260.958 150.259L263.291 143.959L263.401 143.659L263.64 144.01C254.77 143.853 246.845 143.678 241.605 143.531L241.759 143.437L239.377 148.028L238.713 149.285C238.636 149.441 238.551 149.593 238.457 149.739C238.503 149.598 238.561 149.461 238.629 149.329L239.202 148.082L241.457 143.288L241.501 143.188H241.611C246.853 143.224 254.779 143.328 263.649 143.483L264.017 143.49L263.889 143.834L263.779 144.134L261.433 150.434L261.37 150.605H261.189C254.603 150.418 248.864 150.197 244.823 150.036L240.104 149.836L238.861 149.775C238.725 149.776 238.59 149.764 238.456 149.739Z" fill="#263238"/>
<path d="M253.169 84.7609C253.097 84.8859 247.512 81.8179 240.696 77.9099C233.88 74.0019 228.41 70.7309 228.482 70.6099C228.554 70.4889 234.137 73.5529 240.955 77.4619C247.773 81.3709 253.24 84.6359 253.169 84.7609Z" fill="#263238"/>
<path d="M260.784 132.881C260.775 133.025 255.466 132.802 248.927 132.381C242.388 131.96 237.093 131.506 237.103 131.363C237.113 131.22 242.42 131.442 248.96 131.863C255.5 132.284 260.798 132.738 260.784 132.881Z" fill="#263238"/>
<path d="M305.757 67.9001L307.97 64.1631L316.77 69.3031L315.058 73.3591L305.757 67.9001Z" fill="#E0E0E0"/>
<path d="M294.423 94.1929C293.455 93.2181 292.721 92.0372 292.273 90.7385C291.826 89.4397 291.678 88.0568 291.841 86.6929C291.998 86.6929 292.041 88.4999 292.767 90.5679C293.469 92.6449 294.549 94.0999 294.423 94.1929Z" fill="#263238"/>
<path d="M272.892 97.7588C273.746 99.7815 274.439 101.868 274.965 104C275.657 106.085 276.183 108.221 276.538 110.389C275.683 108.365 274.99 106.278 274.465 104.145C273.774 102.061 273.248 99.9255 272.892 97.7588Z" fill="#263238"/>
<path d="M259.395 95.1529C258.505 94.1111 257.915 92.8471 257.688 91.496C257.461 90.1449 257.605 88.7575 258.105 87.4819C258.038 88.7919 258.071 90.1051 258.205 91.4099C258.506 92.6861 258.904 93.9374 259.395 95.1529Z" fill="#263238"/>
<path opacity="0.3" d="M240.223 149.777L239.834 151.708L262.654 152.352L263.644 143.752L261.195 150.352L240.223 149.777Z" fill="black"/>
<path d="M250.26 77.1499L250.5 77.4089L253.026 79.1889L254.286 78.4779L253.463 75.6879L250.802 73.6929L250.26 77.1499Z" fill="#FC746C"/>
<path d="M253.666 73.6942C253.936 74.4758 254.125 75.283 254.23 76.1032L254.311 76.5292L253.947 76.2742C253.065 75.6552 251.928 74.8332 250.647 73.8942L251.047 73.7332C250.928 74.5172 250.801 75.3502 250.669 76.2142C250.586 76.7302 250.506 77.2362 250.428 77.7232L250.373 78.0672L250.063 77.9152C248.146 76.9742 246.469 76.1272 245.279 75.4992C244.619 75.2047 243.993 74.8389 243.412 74.4082C244.11 74.5968 244.785 74.861 245.426 75.1962C246.656 75.7412 248.36 76.5312 250.286 77.4532L249.921 77.6442L250.154 76.1332C250.293 75.2702 250.427 74.4392 250.554 73.6552L250.621 73.2422L250.951 73.4942C252.211 74.4542 253.318 75.3162 254.16 75.9892L253.877 76.1592C253.722 75.3469 253.652 74.5209 253.666 73.6942Z" fill="#263238"/>
</g>
</svg>
