<svg width="101" height="100" viewBox="0 0 101 100" fill="none" xmlns="http://www.w3.org/2000/svg">
<path d="M80.2988 56.25C81.2259 56.25 82.1323 55.9752 82.9031 55.46C83.674 54.945 84.2748 54.2128 84.6295 53.3563C84.9843 52.4999 85.0771 51.5574 84.8963 50.648C84.7154 49.7388 84.269 48.9035 83.6134 48.248C82.9579 47.5924 82.1226 47.1459 81.2134 46.965C80.304 46.7842 79.3615 46.877 78.5051 47.2319C77.6485 47.5866 76.9163 48.1874 76.4013 48.9583C75.8862 49.7291 75.6113 50.6355 75.6113 51.5625C75.6113 52.8058 76.1052 53.998 76.9843 54.877C77.8634 55.7561 79.0555 56.25 80.2988 56.25ZM80.2988 50C80.6079 50 80.9099 50.0916 81.167 50.2633C81.4238 50.435 81.6241 50.6791 81.7424 50.9645C81.8607 51.25 81.8916 51.5642 81.8313 51.8674C81.771 52.1705 81.6223 52.4489 81.4037 52.6674C81.1852 52.886 80.9068 53.0347 80.6037 53.095C80.3006 53.1553 79.9863 53.1244 79.7009 53.0061C79.4154 52.8878 79.1713 52.6875 78.9996 52.4306C78.8281 52.1736 78.7363 51.8716 78.7363 51.5625C78.7363 51.1481 78.901 50.7506 79.194 50.4577C79.487 50.1647 79.8845 50 80.2988 50Z" fill="#4D1A2D"/>
<path d="M93.4688 53.7499L91.2 52.4406C91.225 52.1452 91.2375 51.8531 91.2375 51.5609C91.2375 51.2687 91.225 50.9765 91.2 50.6812L93.4688 49.3749C93.6467 49.2723 93.8025 49.1357 93.9277 48.9727C94.0527 48.8099 94.1444 48.6238 94.1975 48.4256C94.2506 48.2271 94.2641 48.0202 94.2372 47.8167C94.2103 47.6131 94.1434 47.4168 94.0406 47.239L90.9156 41.8265C90.8135 41.6484 90.6772 41.4923 90.5145 41.3668C90.3519 41.2415 90.1661 41.1495 89.968 41.0959C89.7697 41.0423 89.5628 41.0284 89.3592 41.0548C89.1556 41.0812 88.9592 41.1476 88.7813 41.2499L86.5078 42.5624C86.0255 42.2302 85.517 41.9376 84.9875 41.6874V39.0624C84.9875 38.6481 84.8228 38.2506 84.5299 37.9576C84.2369 37.6646 83.8394 37.4999 83.425 37.4999H77.175C76.7606 37.4999 76.3631 37.6646 76.0702 37.9576C75.7772 38.2506 75.6125 38.6481 75.6125 39.0624V41.689C75.0825 41.9382 74.5739 42.2309 74.0922 42.564L71.8188 41.2515C71.641 41.1487 71.4445 41.082 71.241 41.0552C71.0372 41.0284 70.8303 41.0421 70.6319 41.0952C70.4334 41.1485 70.2475 41.2404 70.0847 41.3656C69.9219 41.4909 69.7853 41.647 69.6828 41.8249L66.5578 47.2374C66.455 47.4152 66.3883 47.6117 66.3616 47.8153C66.3347 48.019 66.3484 48.2259 66.4016 48.4243C66.4549 48.6227 66.5467 48.8087 66.6719 48.9715C66.7972 49.1343 66.9533 49.2709 67.1313 49.3734L69.4016 50.6828C69.375 50.9796 69.3625 51.2734 69.3625 51.5624C69.3625 51.8515 69.375 52.1452 69.4016 52.4421L67.1313 53.7515C66.7722 53.9587 66.5102 54.3001 66.4027 54.7006C66.2953 55.1009 66.3514 55.5276 66.5586 55.8867C66.7658 56.2457 67.1072 56.5077 67.5075 56.6152C67.908 56.7226 68.3347 56.6665 68.6938 56.4593L71.8688 54.6265C72.148 54.4651 72.3705 54.2212 72.5056 53.9282C72.6408 53.6354 72.6819 53.3078 72.6235 52.9906C72.4422 52.0471 72.4422 51.0777 72.6235 50.1343C72.6819 49.8171 72.6408 49.4895 72.5056 49.1967C72.3705 48.9037 72.148 48.6598 71.8688 48.4984L70.0469 47.4468L71.6094 44.7406L73.4328 45.7937C73.7128 45.9551 74.0359 46.0257 74.3578 45.9957C74.6797 45.9657 74.9842 45.8368 75.2297 45.6265C75.958 45.0054 76.7944 44.5234 77.6969 44.2046C78.0011 44.0968 78.2645 43.8974 78.4508 43.6338C78.6372 43.3702 78.7374 43.0556 78.7375 42.7327V40.6249H81.8625V42.7327C81.8627 43.0556 81.9628 43.3702 82.1492 43.6338C82.3355 43.8974 82.5989 44.0968 82.9031 44.2046C83.8056 44.5226 84.6416 45.0046 85.3688 45.6265C85.6144 45.8371 85.9192 45.9663 86.2414 45.9963C86.5634 46.0262 86.887 45.9554 87.1672 45.7937L88.9906 44.7406L90.5531 47.4468L88.7313 48.4984C88.4517 48.6596 88.2289 48.9034 88.0934 49.1963C87.9581 49.4893 87.9167 49.817 87.975 50.1343C88.1583 51.0776 88.1583 52.0473 87.975 52.9906C87.9167 53.3079 87.9581 53.6356 88.0934 53.9285C88.2289 54.2215 88.4517 54.4652 88.7313 54.6265L90.5531 55.6781L88.9906 58.3843L87.1672 57.3312C86.887 57.1695 86.5634 57.0987 86.2414 57.1285C85.9192 57.1585 85.6144 57.2877 85.3688 57.4984C84.6416 58.1202 83.8056 58.6023 82.9031 58.9202C82.5989 59.0281 82.3355 59.2274 82.1492 59.491C81.9628 59.7546 81.8627 60.0693 81.8625 60.3921V62.4999H78.7375V60.3921C78.7375 59.9777 78.5728 59.5802 78.2799 59.2873C77.9869 58.9943 77.5894 58.8296 77.175 58.8296C76.7606 58.8296 76.3631 58.9943 76.0702 59.2873C75.7772 59.5802 75.6125 59.9777 75.6125 60.3921V61.914L73.9813 63.5437C73.8375 63.4796 73.6922 63.4187 73.5469 63.3609V60.9374C73.5469 60.5231 73.3822 60.1256 73.0892 59.8326C72.7963 59.5396 72.3988 59.3749 71.9844 59.3749H63.3906C62.9763 59.3749 62.5788 59.5396 62.2858 59.8326C61.9928 60.1256 61.8281 60.5231 61.8281 60.9374V63.3609C61.6828 63.4187 61.5375 63.4796 61.3938 63.5437L59.675 61.8249C59.382 61.532 58.9847 61.3674 58.5703 61.3674C58.156 61.3674 57.7586 61.532 57.4656 61.8249L53.4547 65.8359C53.0039 65.696 52.5345 65.6249 52.0625 65.6249V62.8531C55.4561 60.2238 58.2052 56.8551 60.1005 53.0032C61.9958 49.1513 62.9875 44.9179 63 40.6249C63 40.2106 62.8353 39.8131 62.5424 39.5201C62.2494 39.2271 61.8519 39.0624 61.4375 39.0624H52.7719C53.2616 38.229 53.5494 37.2926 53.612 36.3279C53.6747 35.3634 53.5106 34.3974 53.1328 33.5077L56.0188 34.2796C56.4189 34.3871 56.8453 34.3312 57.2042 34.1243C57.5631 33.9174 57.8252 33.5765 57.9328 33.1765L58.2453 32.0015C58.3013 31.7909 58.3125 31.5707 58.2783 31.3556C58.2442 31.1402 58.1653 30.9345 58.0469 30.7515C57.8124 30.3982 57.653 30.0006 57.5784 29.5832C57.5039 29.1659 57.5159 28.7376 57.6139 28.3249C57.7117 27.9124 57.8933 27.5243 58.1474 27.1849C58.4014 26.8454 58.7225 26.5618 59.0906 26.3515C59.6258 26.0426 60.2406 25.8992 60.8572 25.9396C61.4739 25.9799 62.0647 26.2023 62.555 26.5784C63.0453 26.9545 63.4131 27.4674 63.6119 28.0526C63.8108 28.6377 63.8316 29.2685 63.6719 29.8656C63.5583 30.2882 63.3559 30.6818 63.0786 31.0201C62.8011 31.3585 62.4547 31.6338 62.0625 31.8281C61.8677 31.9276 61.6959 32.067 61.5584 32.237C61.4209 32.4071 61.3206 32.6043 61.2641 32.8156L60.9516 33.9906C60.8984 34.1888 60.8849 34.3956 60.9116 34.599C60.9383 34.8024 61.0049 34.9987 61.1075 35.1765C61.21 35.3542 61.3466 35.5099 61.5094 35.6349C61.6722 35.7598 61.858 35.8515 62.0563 35.9046L72.6203 38.7343C72.7527 38.7703 72.8894 38.7882 73.0266 38.7874C73.3703 38.7871 73.7042 38.6735 73.9769 38.4642C74.2494 38.2549 74.4453 37.9615 74.5344 37.6296C76.3064 30.9934 75.5838 23.9376 72.5031 17.7984C72.4124 17.6132 72.2859 17.4478 72.131 17.3118C71.976 17.1757 71.7956 17.0717 71.6003 17.0057C71.4049 16.9396 71.1984 16.9129 70.9927 16.9271C70.7869 16.9413 70.5861 16.996 70.4016 17.0882C70.217 17.1804 70.0527 17.3082 69.9178 17.4642C69.783 17.6202 69.6805 17.8013 69.6159 17.9973C69.5514 18.1931 69.5264 18.3998 69.542 18.6054C69.5578 18.811 69.6142 19.0115 69.7078 19.1952C72.2031 24.1726 72.9642 29.8407 71.8703 35.2999L65.0578 33.4734C65.8405 32.7026 66.4036 31.7373 66.6891 30.6765C67.1159 29.0754 66.8906 27.3703 66.0622 25.9349C65.2339 24.4998 63.8703 23.4517 62.2703 23.0202C61.2108 22.7329 60.0941 22.7309 59.0333 23.014C57.9727 23.2971 57.0056 23.8556 56.2302 24.6327C55.4549 25.4099 54.8984 26.3782 54.6177 27.4396C54.3369 28.5009 54.3416 29.6176 54.6313 30.6765L49.2797 29.2437L51.3016 21.6968C51.3547 21.4985 51.3683 21.2918 51.3416 21.0884C51.3149 20.8849 51.2483 20.6887 51.1456 20.511C51.0431 20.3332 50.9066 20.1774 50.7438 20.0524C50.5809 19.9276 50.3952 19.8359 50.1969 19.7827L49.0219 19.4703C48.8113 19.4135 48.5911 19.4018 48.3756 19.436C48.1603 19.4702 47.9545 19.5495 47.7719 19.6687C47.4228 19.8967 47.0317 20.0523 46.6216 20.1263C46.2114 20.2004 45.7905 20.1915 45.3839 20.1001C44.9772 20.0087 44.593 19.8367 44.2539 19.5942C43.9149 19.3517 43.628 19.0437 43.41 18.6884C43.1922 18.3331 43.0478 17.9376 42.9853 17.5256C42.923 17.1134 42.9438 16.6929 43.0467 16.289C43.1497 15.8851 43.3325 15.5059 43.5845 15.174C43.8366 14.842 44.1527 14.5639 44.5141 14.3562C45.2328 13.9426 46.0861 13.8302 46.8875 14.0437C47.3097 14.1575 47.7027 14.3599 48.0405 14.6374C48.3783 14.9149 48.6533 15.2611 48.8469 15.6531C48.9464 15.8474 49.0856 16.0187 49.2555 16.156C49.4252 16.2932 49.6219 16.3934 49.8328 16.4499L51.0078 16.7624C51.2061 16.8159 51.413 16.8296 51.6167 16.8031C51.8203 16.7763 52.0167 16.7098 52.1947 16.6073C52.3725 16.5046 52.5286 16.3679 52.6536 16.2051C52.7786 16.0421 52.8703 15.8562 52.9234 15.6577L55.3438 6.64837C59.6913 8.10672 63.55 10.7405 66.4922 14.2577C66.7589 14.5752 67.1406 14.7737 67.5538 14.8096C67.9667 14.8455 68.377 14.7158 68.6945 14.4492C69.012 14.1825 69.2105 13.8007 69.2464 13.3876C69.2822 12.9746 69.1527 12.5642 68.8859 12.2468C65.1897 7.83137 60.2191 4.66614 54.6547 3.18431C54.2545 3.07741 53.8284 3.1337 53.4699 3.34084C53.1113 3.54798 52.8495 3.88901 52.7422 4.289L50.4906 12.6562C49.7169 11.8747 48.7506 11.3113 47.6894 11.0227C46.6283 10.7342 45.5097 10.7308 44.4467 11.0128C43.3838 11.2948 42.4141 11.8523 41.6355 12.6289C40.8569 13.4056 40.297 14.3739 40.0125 15.4362C39.7278 16.4984 39.7285 17.617 40.0144 18.6788C40.3003 19.7407 40.8614 20.7084 41.6409 21.4842C42.4205 22.2598 43.3909 22.816 44.4542 23.0968C45.5175 23.3774 46.6361 23.3726 47.6969 23.0827L45.8734 29.8906C44.932 30.1177 44.0567 30.5623 43.318 31.1885C42.5791 31.8146 41.997 32.6051 41.6185 33.4965C41.2399 34.3881 41.0752 35.3557 41.1377 36.3221C41.2 37.2887 41.488 38.2271 41.9781 39.0624H36.4375V31.2499C36.4375 30.8356 36.2728 30.4381 35.9799 30.1451C35.6869 29.8521 35.2894 29.6874 34.875 29.6874H33.6594C33.4406 29.6873 33.2241 29.7331 33.0242 29.822C32.8242 29.9107 32.645 30.0406 32.4984 30.2031C32.2095 30.5315 31.8541 30.7946 31.4556 30.9751C31.0572 31.1556 30.6249 31.2493 30.1875 31.2499C29.3588 31.2499 28.5639 30.9207 27.9778 30.3346C27.3917 29.7485 27.0625 28.9537 27.0625 28.1249C27.0625 27.2962 27.3917 26.5013 27.9778 25.9153C28.5639 25.3292 29.3588 24.9999 30.1875 24.9999C30.6249 25.0006 31.0572 25.0943 31.4556 25.2748C31.8541 25.4552 32.2095 25.7184 32.4984 26.0468C32.645 26.2093 32.8242 26.3392 33.0242 26.4279C33.2241 26.5168 33.4406 26.5626 33.6594 26.5624H34.875C35.2894 26.5624 35.6869 26.3977 35.9799 26.1048C36.2728 25.8118 36.4375 25.4143 36.4375 24.9999V14.0624C36.4375 13.648 36.2728 13.2506 35.9799 12.9576C35.6869 12.6646 35.2894 12.4999 34.875 12.4999C28.1578 12.5059 21.6649 14.9171 16.5719 19.2968C16.2794 19.5723 16.1041 19.9498 16.0826 20.3509C16.0611 20.7521 16.195 21.1462 16.4564 21.4512C16.7178 21.7563 17.0867 21.949 17.4866 21.9892C17.8863 22.0293 18.2863 21.914 18.6031 21.6671C22.7247 18.1238 27.8883 16.0198 33.3125 15.6734V22.7281C32.3652 22.171 31.2864 21.8767 30.1875 21.8749C28.5299 21.8749 26.9402 22.5334 25.7681 23.7056C24.5959 24.8776 23.9375 26.4673 23.9375 28.1249C23.9375 29.7826 24.5959 31.3723 25.7681 32.5443C26.9402 33.7165 28.5299 34.3749 30.1875 34.3749C31.2864 34.3732 32.3652 34.0788 33.3125 33.5218V39.0624H25.5C25.0856 39.0624 24.6881 39.2271 24.3952 39.5201C24.1022 39.8131 23.9375 40.2106 23.9375 40.6249V41.8406C23.9374 42.0595 23.9831 42.2759 24.072 42.4759C24.1608 42.6757 24.2906 42.8549 24.4531 43.0015C24.7816 43.2904 25.0447 43.6459 25.2252 44.0443C25.4056 44.4427 25.4994 44.8751 25.5 45.3124C25.5 46.1412 25.1708 46.936 24.5847 47.5221C23.9986 48.1082 23.2038 48.4374 22.375 48.4374C21.5463 48.4374 20.7514 48.1082 20.1653 47.5221C19.5792 46.936 19.25 46.1412 19.25 45.3124C19.2506 44.8751 19.3444 44.4427 19.5249 44.0443C19.7053 43.6459 19.9684 43.2904 20.2969 43.0015C20.4594 42.8549 20.5892 42.6757 20.678 42.4759C20.7669 42.2759 20.8127 42.0595 20.8125 41.8406V40.6249C20.8125 40.2106 20.6478 39.8131 20.3549 39.5201C20.0619 39.2271 19.6644 39.0624 19.25 39.0624H9.92345C10.2167 34.3523 11.8478 29.8234 14.625 26.0077C14.8679 25.6718 14.9673 25.2534 14.9015 24.8442C14.8357 24.4349 14.6101 24.0685 14.2742 23.8257C13.9384 23.5829 13.5198 23.4834 13.1106 23.5492C12.7014 23.6149 12.335 23.8406 12.0922 24.1765C8.61511 28.9556 6.74457 34.7148 6.75001 40.6249C6.76256 44.9179 7.75423 49.1513 9.64957 53.0032C11.5449 56.8551 14.294 60.2238 17.6875 62.8531V65.6249C16.7809 65.6209 15.8928 65.881 15.1316 66.3735C14.3704 66.866 13.7691 67.5695 13.4012 68.3982C13.0333 69.2268 12.9147 70.1446 13.0599 71.0395C13.2051 71.9345 13.6078 72.7676 14.2188 73.4374C13.6078 74.1073 13.2051 74.9406 13.0599 75.8354C12.9147 76.7302 13.0333 77.6481 13.4012 78.4768C13.7691 79.3054 14.3704 80.0088 15.1316 80.5013C15.8928 80.9938 16.7809 81.254 17.6875 81.2499H44.25C44.6644 81.2499 45.0619 81.0852 45.3549 80.7923C45.6478 80.4993 45.8125 80.1018 45.8125 79.6874C45.8125 79.2731 45.6478 78.8756 45.3549 78.5826C45.0619 78.2896 44.6644 78.1249 44.25 78.1249H17.6875C17.2731 78.1249 16.8756 77.9602 16.5827 77.6673C16.2897 77.3743 16.125 76.9768 16.125 76.5624C16.125 76.1481 16.2897 75.7506 16.5827 75.4576C16.8756 75.1646 17.2731 74.9999 17.6875 74.9999H44.25C44.6644 74.9999 45.0619 74.8352 45.3549 74.5423C45.6478 74.2493 45.8125 73.8518 45.8125 73.4374C45.8125 73.0231 45.6478 72.6256 45.3549 72.3326C45.0619 72.0396 44.6644 71.8749 44.25 71.8749H17.6875C17.2731 71.8749 16.8756 71.7102 16.5827 71.4173C16.2897 71.1243 16.125 70.7268 16.125 70.3124C16.125 69.8981 16.2897 69.5006 16.5827 69.2076C16.8756 68.9146 17.2731 68.7499 17.6875 68.7499H50.9844C50.9366 68.9932 50.9486 69.2445 51.0194 69.482C51.0902 69.7196 51.2175 69.9365 51.3906 70.114L53.1094 71.8327C53.0453 71.9765 52.9844 72.1218 52.9266 72.2671H50.5C50.0856 72.2671 49.6881 72.4318 49.3952 72.7248C49.1022 73.0177 48.9375 73.4152 48.9375 73.8296V79.6874C48.9353 82.9165 47.822 86.0463 45.7845 88.5515C43.747 91.0565 40.9094 92.784 37.7486 93.4438C34.5877 94.1037 31.2959 93.6556 28.4264 92.1748C25.5569 90.6942 23.2844 88.2709 21.9906 85.3124C21.9128 85.1182 21.7969 84.9417 21.6495 84.7931C21.502 84.6445 21.3264 84.5271 21.1328 84.4477C20.9392 84.3684 20.7317 84.3287 20.5225 84.331C20.3133 84.3334 20.1066 84.3777 19.9149 84.4615C19.7231 84.5452 19.5502 84.6667 19.4063 84.8185C19.2622 84.9704 19.1503 85.1496 19.0769 85.3456C19.0036 85.5415 18.9703 85.7501 18.9791 85.9592C18.9878 86.1682 19.0386 86.3734 19.1281 86.5624C20.5556 89.8404 22.971 92.5909 26.037 94.4301C29.103 96.2691 32.6667 97.1051 36.2308 96.8212C39.7949 96.5373 43.1813 95.1477 45.9175 92.8465C48.6538 90.5451 50.6031 87.447 51.4938 83.9843H52.9234C52.9813 84.1296 53.0422 84.2749 53.1063 84.4187L51.3875 86.1374C51.0945 86.4304 50.93 86.8277 50.93 87.2421C50.93 87.6565 51.0945 88.0538 51.3875 88.3468L57.4641 94.4234C57.757 94.7163 58.1544 94.8809 58.5688 94.8809C58.9831 94.8809 59.3805 94.7163 59.6734 94.4234L61.3922 92.7046C61.5359 92.7687 61.6813 92.8296 61.8266 92.8874V95.3124C61.8266 95.7268 61.9913 96.1243 62.2842 96.4173C62.5772 96.7102 62.9747 96.8749 63.3891 96.8749H66.125C66.5394 96.8749 66.9369 96.7102 67.2299 96.4173C67.5228 96.1243 67.6875 95.7268 67.6875 95.3124C67.6875 94.8981 67.5228 94.5006 67.2299 94.2076C66.9369 93.9146 66.5394 93.7499 66.125 93.7499H64.9531V91.7906C64.9531 91.4581 64.847 91.1342 64.6503 90.8662C64.4538 90.5981 64.1766 90.3996 63.8594 90.2999C63.1461 90.0735 62.4544 89.7843 61.7922 89.4359C61.4978 89.2804 61.1611 89.2235 60.832 89.274C60.5028 89.3243 60.1986 89.4791 59.9641 89.7156L58.5703 91.1077L54.7031 87.2406L56.0953 85.8468C56.3305 85.6115 56.4844 85.3074 56.5347 84.9785C56.585 84.6498 56.5291 84.3135 56.375 84.0187C56.0266 83.3565 55.7374 82.6648 55.511 81.9515C55.4113 81.6343 55.2128 81.3573 54.9447 81.1606C54.6767 80.9638 54.3528 80.8577 54.0203 80.8577H52.0625V75.389H54.0219C54.3544 75.389 54.6783 75.2829 54.9463 75.0862C55.2144 74.8896 55.4128 74.6124 55.5125 74.2952C55.7389 73.5821 56.0281 72.8903 56.3766 72.2281C56.5306 71.9332 56.5866 71.597 56.5363 71.2682C56.486 70.9393 56.332 70.6352 56.0969 70.3999L54.7047 69.0062L58.5719 65.139L59.9656 66.5312C60.2009 66.7663 60.505 66.9202 60.8339 66.9706C61.1627 67.0209 61.4989 66.9649 61.7938 66.8109C62.456 66.4624 63.1477 66.1732 63.8609 65.9468C64.1781 65.8471 64.4553 65.6487 64.6519 65.3806C64.8486 65.1126 64.9547 64.7887 64.9547 64.4562V62.4999H70.4234V64.4593C70.4234 64.7918 70.5295 65.1157 70.7263 65.3837C70.9228 65.6518 71.2 65.8502 71.5172 65.9499C72.2305 66.1763 72.9222 66.4656 73.5844 66.814C73.8792 66.9681 74.2155 67.024 74.5442 66.9737C74.8731 66.9234 75.1772 66.7695 75.4125 66.5343L76.8063 65.1421L80.6735 69.0093L79.2813 70.4031C79.0461 70.6384 78.8922 70.9424 78.8419 71.2713C78.7916 71.6001 78.8475 71.9363 79.0016 72.2312C79.35 72.8934 79.6392 73.5852 79.8656 74.2984C79.9653 74.6156 80.1638 74.8927 80.4319 75.0893C80.6999 75.286 81.0238 75.3921 81.3563 75.3921H83.3125V80.8609H81.3531C81.0206 80.8609 80.6967 80.967 80.4288 81.1637C80.1606 81.3604 79.9622 81.6374 79.8625 81.9546C79.6361 82.6679 79.3469 83.3596 78.9984 84.0218C78.8444 84.3167 78.7884 84.6529 78.8388 84.9817C78.8891 85.3106 79.043 85.6146 79.2781 85.8499L80.6703 87.2437L76.8031 91.1109L75.4094 89.7187C75.1741 89.4835 74.87 89.3296 74.5411 89.2793C74.2124 89.229 73.8761 89.2849 73.5813 89.439C72.9191 89.7874 72.2274 90.0767 71.5141 90.3031C71.1969 90.4027 70.9197 90.6012 70.7231 90.8693C70.5264 91.1373 70.4203 91.4612 70.4203 91.7937V95.3124C70.4203 95.7268 70.585 96.1243 70.878 96.4173C71.171 96.7102 71.5685 96.8749 71.9828 96.8749C72.3972 96.8749 72.7947 96.7102 73.0877 96.4173C73.3806 96.1243 73.5453 95.7268 73.5453 95.3124V92.889C73.6906 92.8312 73.836 92.7702 73.9797 92.7062L75.6984 94.4249C75.9914 94.7179 76.3888 94.8824 76.8031 94.8824C77.2175 94.8824 77.6149 94.7179 77.9078 94.4249L83.9844 88.3484C84.2774 88.0554 84.4419 87.6581 84.4419 87.2437C84.4419 86.8293 84.2774 86.432 83.9844 86.139L82.2656 84.4202C82.3297 84.2765 82.3906 84.1312 82.4484 83.9859H84.875C85.2894 83.9859 85.6869 83.8212 85.9799 83.5282C86.2728 83.2352 86.4375 82.8377 86.4375 82.4234V73.8296C86.4375 73.4152 86.2728 73.0177 85.9799 72.7248C85.6869 72.4318 85.2894 72.2671 84.875 72.2671H82.4516C82.3938 72.1218 82.3328 71.9765 82.2688 71.8327L83.9875 70.114C84.2805 69.821 84.445 69.4237 84.445 69.0093C84.445 68.5949 84.2805 68.1976 83.9875 67.9046L81.7047 65.6249H83.4234C83.8378 65.6249 84.2353 65.4602 84.5283 65.1673C84.8213 64.8743 84.9859 64.4768 84.9859 64.0624V61.4359C85.5155 61.1857 86.0239 60.8931 86.5063 60.5609L88.7797 61.8734C89.1392 62.0788 89.5652 62.1351 89.9656 62.0296C90.3658 61.9223 90.707 61.6604 90.9141 61.3015L94.0391 55.889C94.1425 55.7112 94.2097 55.5148 94.237 55.3109C94.2642 55.107 94.2511 54.8998 94.1981 54.701C94.1452 54.5023 94.0535 54.316 93.9283 54.1527C93.8031 53.9896 93.6469 53.8527 93.4688 53.7499ZM36.4375 65.6249V58.5218C37.3849 59.0788 38.4636 59.3732 39.5625 59.3749C41.2202 59.3749 42.8099 58.7165 43.9819 57.5443C45.1541 56.3723 45.8125 54.7826 45.8125 53.1249C45.8125 51.4673 45.1541 49.8776 43.9819 48.7056C42.8099 47.5334 41.2202 46.8749 39.5625 46.8749C38.4636 46.8767 37.3849 47.171 36.4375 47.7281V46.8749C36.4375 46.4606 36.2728 46.0631 35.9799 45.7701C35.6869 45.4771 35.2894 45.3124 34.875 45.3124C34.4606 45.3124 34.0631 45.4771 33.7702 45.7701C33.4772 46.0631 33.3125 46.4606 33.3125 46.8749V49.9999C33.3125 50.4143 33.4772 50.8118 33.7702 51.1048C34.0631 51.3978 34.4606 51.5624 34.875 51.5624H36.0906C36.3094 51.5626 36.5259 51.5168 36.7258 51.4279C36.9258 51.3392 37.105 51.2093 37.2516 51.0468C37.5405 50.7184 37.896 50.4552 38.2944 50.2748C38.6928 50.0943 39.1252 50.0006 39.5625 49.9999C40.3913 49.9999 41.1861 50.3292 41.7722 50.9152C42.3583 51.5013 42.6875 52.2962 42.6875 53.1249C42.6875 53.9537 42.3583 54.7485 41.7722 55.3346C41.1861 55.9207 40.3913 56.2499 39.5625 56.2499C39.1252 56.2493 38.6928 56.1556 38.2944 55.9751C37.896 55.7946 37.5405 55.5315 37.2516 55.2031C37.105 55.0406 36.9258 54.9107 36.7258 54.822C36.5259 54.7331 36.3094 54.6873 36.0906 54.6874H34.875C34.4606 54.6874 34.0631 54.8521 33.7702 55.1451C33.4772 55.4381 33.3125 55.8356 33.3125 56.2499V65.6249H20.8125V62.0734C20.8127 61.8274 20.7547 61.5848 20.6434 61.3654C20.532 61.146 20.3705 60.956 20.1719 60.8109C17.2063 58.6446 14.7519 55.8543 12.9817 52.6365C11.2115 49.4188 10.1686 45.852 9.92657 42.1874H16.9781C16.4211 43.1348 16.1267 44.2135 16.125 45.3124C16.125 46.9701 16.7835 48.5598 17.9556 49.7318C19.1277 50.904 20.7174 51.5624 22.375 51.5624C24.0327 51.5624 25.6224 50.904 26.7944 49.7318C27.9666 48.5598 28.625 46.9701 28.625 45.3124C28.6233 44.2135 28.3289 43.1348 27.7719 42.1874H44.25C44.6644 42.1874 45.0619 42.0228 45.3549 41.7298C45.6478 41.4368 45.8125 41.0393 45.8125 40.6249V39.4093C45.8127 39.1906 45.7669 38.974 45.678 38.7742C45.5892 38.5742 45.4594 38.3949 45.2969 38.2484C44.9684 37.9595 44.7053 37.604 44.5249 37.2056C44.3444 36.8071 44.2506 36.3748 44.25 35.9374C44.25 35.1087 44.5792 34.3138 45.1653 33.7278C45.7514 33.1417 46.5463 32.8124 47.375 32.8124C48.2038 32.8124 48.9986 33.1417 49.5847 33.7278C50.1708 34.3138 50.5 35.1087 50.5 35.9374C50.4994 36.3748 50.4056 36.8071 50.2252 37.2056C50.0447 37.604 49.7816 37.9595 49.4531 38.2484C49.2906 38.3949 49.1608 38.5742 49.072 38.7742C48.9831 38.974 48.9374 39.1906 48.9375 39.4093V40.6249C48.9375 41.0393 49.1022 41.4368 49.3952 41.7298C49.6881 42.0228 50.0856 42.1874 50.5 42.1874H59.825C59.5827 45.8521 58.5395 49.419 56.7691 52.6367C54.9986 55.8545 52.5439 58.6448 49.5781 60.8109C49.3795 60.956 49.218 61.146 49.1066 61.3654C48.9953 61.5848 48.9374 61.8274 48.9375 62.0734V65.6249H36.4375Z" fill="#4D1A2D"/>
<path d="M67.6887 71.875C68.4665 71.8797 69.2366 72.0302 69.959 72.3188C70.151 72.3996 70.3573 72.4411 70.5657 72.4411C70.774 72.441 70.9802 72.3993 71.1723 72.3183C71.3641 72.2374 71.538 72.1188 71.6835 71.9697C71.829 71.8205 71.9432 71.6438 72.0194 71.4499C72.0955 71.256 72.1323 71.0488 72.1271 70.8405C72.1219 70.6322 72.0754 70.4269 71.9898 70.2371C71.9041 70.0471 71.7815 69.8761 71.629 69.7343C71.4763 69.5924 71.2969 69.4824 71.1012 69.411C69.0843 68.6133 66.854 68.5352 64.7862 69.1897C62.7183 69.8443 60.9393 71.1916 59.7488 73.0047C58.5584 74.8177 58.0291 76.9857 58.2504 79.1433C58.4718 81.301 59.4299 83.3165 60.9637 84.85C62.4973 86.3838 64.5127 87.3419 66.6704 87.5633C68.828 87.7846 70.996 87.2554 72.809 86.0649C74.6221 84.8744 75.9694 83.0954 76.624 81.0275C77.2785 78.9597 77.2004 76.7294 76.4027 74.7125C76.3312 74.5168 76.2213 74.3374 76.0794 74.1847C75.9376 74.0322 75.7666 73.9094 75.5766 73.8239C75.3866 73.7383 75.1815 73.6916 74.9732 73.6866C74.7649 73.6815 74.5577 73.7182 74.3638 73.7943C74.1699 73.8705 73.9932 73.9847 73.844 74.1302C73.6949 74.2757 73.5763 74.4496 73.4954 74.6414C73.4144 74.8335 73.3726 75.0397 73.3726 75.248C73.3726 75.4564 73.4141 75.6627 73.4949 75.8547C73.978 77.0975 74.0502 78.4624 73.7012 79.7494C73.3521 81.0363 72.6001 82.1775 71.5552 83.006C70.5102 83.8343 69.2276 84.3063 67.8949 84.3525C66.5623 84.3988 65.2499 84.0171 64.1501 83.2632C63.0502 82.5093 62.2207 81.423 61.7832 80.1635C61.3457 78.9038 61.323 77.5372 61.7187 76.2638C62.1143 74.9905 62.9074 73.8774 63.9818 73.0875C65.0562 72.2977 66.3552 71.8729 67.6887 71.875Z" fill="#4D1A2D"/>
</svg>
