<svg width="100" height="100" viewBox="0 0 100 100" fill="none" xmlns="http://www.w3.org/2000/svg">
<path d="M99.9797 22.4101C99.6834 23.5357 99.4741 24.6925 99.0742 25.7792C97.81 29.2701 95.2357 32.1315 91.8971 33.7567C92.1341 35.8616 92.4878 37.9409 92.5822 40.0329C93.0663 46.9886 91.8045 53.955 88.9116 60.2993C86.0187 66.6436 81.5863 72.1644 76.017 76.3609C72.7017 78.9949 68.9784 81.07 64.994 82.5038C64.8637 82.5286 64.74 82.58 64.6307 82.6552C64.5214 82.7304 64.429 82.8276 64.3593 82.9404C64.2897 83.0533 64.2443 83.1792 64.226 83.3106C64.2078 83.4419 64.2171 83.5758 64.2533 83.7034C64.4942 85.7118 64.308 87.7484 63.707 89.6799C63.106 91.6114 62.1038 93.3946 60.7659 94.912C59.4281 96.4295 57.7847 97.6469 55.9435 98.4854C54.1022 99.3239 52.1047 99.7641 50.0815 99.7772C48.0583 99.7903 46.0552 99.3763 44.2032 98.5618C42.3513 97.7473 40.6922 96.5508 39.3348 95.0508C37.9773 93.5508 36.952 91.7811 36.3261 89.8575C35.7001 87.934 35.4875 85.9001 35.7023 83.8887C35.806 83.0667 35.5745 82.7423 34.7986 82.4184C19.1686 75.8814 9.96578 64.32 7.57896 47.5082C7.00664 42.9404 7.20948 38.309 8.17891 33.8087C6.0689 32.769 4.23364 31.2465 2.82199 29.3652C1.46063 27.5338 0.556579 25.4037 0.185179 23.1523C0.142591 22.8987 0.0574021 22.6545 0 22.412V19.2942C0.0666605 19.0146 0.148181 18.7391 0.198176 18.454C0.535711 16.431 1.30905 14.5055 2.46463 12.811C2.55758 12.6298 2.68651 12.4696 2.84358 12.34C3.00065 12.2104 3.18255 12.1144 3.3781 12.0575C3.57364 12.0007 3.77874 11.984 3.98082 12.0091C4.1829 12.0343 4.37769 12.1009 4.55331 12.204C4.73302 12.3161 4.88657 12.4654 5.00363 12.6419C5.12068 12.8184 5.19852 13.0176 5.23187 13.2268C5.26521 13.4359 5.25331 13.65 5.19694 13.8541C5.14058 14.0583 5.04106 14.2481 4.90513 14.4105C4.85699 14.4938 4.80146 14.5735 4.74776 14.6569C3.44073 16.6568 2.81107 19.0237 2.95162 21.4086C3.04926 23.7256 3.88048 25.9515 5.32545 27.7657C6.09741 25.8124 7.58171 24.2247 9.47879 23.3227C7.47897 19.4571 7.76411 16.5599 10.3305 14.4123C11.4326 13.4799 12.8214 12.9537 14.2648 12.9217C15.7082 12.8897 17.1189 13.3538 18.2613 14.2365C19.4334 15.1336 20.249 16.4175 20.5629 17.8596C20.7654 18.8025 20.7559 19.7783 20.5349 20.717C20.3139 21.6558 19.8871 22.5338 19.2853 23.2874C21.2063 24.2071 22.7118 25.8149 23.5034 27.7919C23.7756 27.4013 23.9885 27.1236 24.1719 26.8256C25.4395 24.7621 26.0201 22.3497 25.8303 19.9355C25.6406 17.5214 24.6901 15.2297 23.1157 13.3895C21.5412 11.5493 19.4237 10.2554 17.0676 9.6941C14.7115 9.13276 12.2381 9.33292 10.0028 10.2654C8.89178 10.7023 8.05115 10.4506 7.70859 9.58607C7.38084 8.75483 7.78817 8.00512 8.8677 7.57747C11.0607 6.63823 13.4564 6.27117 15.8301 6.51079C18.2038 6.75041 20.4777 7.58885 22.4387 8.94742C22.6434 9.13931 22.9153 9.24282 23.1958 9.23624C23.4763 9.22966 23.7431 9.11344 23.9385 8.91217C29.0271 4.93291 34.9756 2.19802 41.3092 0.925658C43.2757 0.527625 45.2791 0.305467 47.266 0H52.734C52.9491 0.0666162 53.1688 0.117413 53.3914 0.151866C61.6826 0.782165 69.6016 3.85203 76.1504 8.975C76.2372 9.06383 76.3408 9.13469 76.4551 9.18336C76.5694 9.23203 76.6923 9.25736 76.8165 9.25839C76.9408 9.25942 77.064 9.236 77.1791 9.18924C77.2942 9.14247 77.399 9.07368 77.4873 8.9863C79.3932 7.68317 81.5847 6.85715 83.8769 6.57859C86.169 6.30003 88.4945 6.57716 90.6572 7.38583C92.8199 8.1945 94.7563 9.51096 96.3031 11.225C97.8499 12.939 98.9616 14.9998 99.5445 17.2336C99.7074 17.8519 99.85 18.4778 100 19.0998L99.9797 22.4101ZM16.5189 42.3489C16.7503 44.5038 16.804 46.4698 17.1929 48.3674C18.2043 54.3347 20.8406 59.908 24.8123 64.4756C28.7841 69.0432 33.9376 72.4283 39.7074 74.2597C39.9695 74.3725 40.2587 74.4068 40.5398 74.3582C40.8209 74.3095 41.0818 74.1801 41.2906 73.9857C43.76 72.0895 46.7823 71.0535 49.8959 71.0361C53.0094 71.0187 56.0431 72.021 58.5335 73.8895C58.7936 74.119 59.1133 74.2703 59.4558 74.3256C59.7982 74.381 60.1493 74.3381 60.4685 74.2022C68.2306 71.6236 74.7733 66.2814 78.8512 59.1924C82.929 52.1034 84.2573 43.7627 82.5831 35.7581C82.5585 35.4763 82.4424 35.2106 82.2525 35.001C82.0626 34.7914 81.8093 34.6496 81.5313 34.5974C78.1054 33.614 75.1708 31.3859 73.3034 28.3505C71.436 25.3152 70.7706 21.6915 71.4379 18.1909C71.5152 17.934 71.5084 17.659 71.4184 17.4063C71.3285 17.1535 71.1601 16.9361 70.9379 16.7857C65.0103 12.0081 57.6276 9.39958 50.0137 9.39217C42.3998 9.38477 35.0121 11.9789 29.0751 16.745C28.8367 16.9004 28.6542 17.1281 28.5543 17.3945C28.4544 17.6609 28.4422 17.9523 28.5196 18.2262C29.1787 21.7278 28.506 25.3493 26.6334 28.3808C24.7607 31.4123 21.8232 33.6354 18.3965 34.6141C18.1294 34.6507 17.8832 34.7783 17.6996 34.9757C17.516 35.1731 17.4063 35.428 17.3892 35.697C17.0985 37.9742 16.7948 40.255 16.5189 42.3489ZM38.1835 77.0796C19.8408 68.9801 11.8489 55.1394 14.258 35.2618L11.0212 34.8916C9.11581 44.2188 10.6561 53.9202 15.3569 62.199C20.0576 70.4777 27.6002 76.7728 36.5874 79.9176L38.1835 77.0796ZM63.42 80.0138C72.3936 76.8107 79.9154 70.4871 84.6116 62.1981C89.3079 53.9091 90.8652 44.2078 88.9992 34.8659L85.7236 35.2731C88.0567 55.2136 80.0741 69.0578 61.7795 77.0796L63.42 80.0138ZM27.3438 14.3807C33.776 9.25562 41.7575 6.46514 49.9824 6.46514C58.2074 6.46514 66.1889 9.25562 72.6211 14.3807L74.5505 11.4763C67.5615 5.93847 58.903 2.92972 49.9854 2.94014C41.0677 2.95056 32.4163 5.97955 25.4403 11.5337L27.3438 14.3807ZM59.039 92.3213C60.8107 90.0582 61.6529 87.2051 61.3938 84.3429C61.1348 81.4807 59.794 78.8247 57.6447 76.9164C55.458 74.9458 52.5964 73.8926 49.6537 73.9754C46.7109 74.0581 43.9131 75.2703 41.8406 77.3607C39.8769 79.3015 38.6982 81.8983 38.5301 84.6539C38.362 87.4094 39.2163 90.1305 40.9295 92.2955C41.7109 90.3439 43.1983 88.7575 45.0958 87.8521C44.1041 86.6479 43.5925 85.1199 43.659 83.5614C43.7256 82.003 44.3657 80.5239 45.4565 79.4086C46.5472 78.2933 48.0116 77.6204 49.5685 77.5189C51.1254 77.4173 52.6649 77.8944 53.8913 78.8586C55.0937 79.7779 55.9082 81.1139 56.1744 82.6037C56.3543 83.5231 56.3266 84.471 56.0934 85.3784C55.8602 86.2858 55.4273 87.1297 54.8264 87.8485C56.7486 88.7493 58.255 90.3488 59.039 92.3213ZM94.5913 27.6549C96.2812 25.5682 97.1527 22.937 97.0426 20.2542C96.9325 17.5714 95.8484 15.0208 93.9932 13.0794C92.948 11.9481 91.6854 11.0387 90.281 10.406C88.8766 9.77324 87.359 9.43004 85.8189 9.3967C84.2788 9.36335 82.7478 9.64073 81.3173 10.2121C79.8868 10.7834 78.5861 11.6369 77.4928 12.7219C75.5081 14.6409 74.3068 17.2287 74.1221 19.983C73.9373 22.7373 74.7823 25.4619 76.493 27.6287C77.3588 25.7646 78.8039 24.2306 80.6129 23.2544C78.639 19.6833 78.8927 16.758 81.374 14.5271C82.4378 13.5755 83.7935 13.0135 85.2187 12.9334C86.6439 12.8534 88.0539 13.26 89.2177 14.0865C90.4033 14.9109 91.2603 16.1269 91.6378 17.5206C91.9111 18.5086 91.946 19.5475 91.7397 20.5516C91.5333 21.5557 91.0916 22.4967 90.4509 23.2969C92.3323 24.1735 93.814 25.7267 94.6005 27.6473L94.5913 27.6549ZM50.038 90.0442V90.0998C49.4528 90.0998 48.8659 90.0794 48.2807 90.0998C47.1504 90.1123 46.059 90.5136 45.1902 91.2365C44.3214 91.9595 43.7283 92.9601 43.5108 94.0691C43.4927 94.255 43.5176 94.4422 43.5838 94.6169C43.6499 94.7916 43.7555 94.9489 43.8922 95.0761C45.7111 96.2293 47.8204 96.8416 49.9741 96.8416C52.1278 96.8416 54.2371 96.2293 56.0559 95.0761C56.1948 94.951 56.3029 94.7956 56.372 94.6219C56.441 94.4482 56.4691 94.2608 56.454 94.0745C56.2831 93.1091 55.8176 92.2203 55.1214 91.5299C54.4253 90.8394 53.5324 90.3812 52.5655 90.2182C51.7341 90.0831 50.8805 90.0995 50.0398 90.0347L50.038 90.0442ZM14.3802 25.4574V25.5388C13.8247 25.5388 13.2691 25.5295 12.7229 25.5388C11.593 25.5536 10.5009 25.9477 9.62209 26.6579C8.74324 27.368 8.12866 28.3529 7.8771 29.4543C7.80275 29.6641 7.8091 29.8939 7.89501 30.0993C7.98093 30.3046 8.14021 30.4709 8.34183 30.5652C10.1618 31.6855 12.2584 32.2753 14.3956 32.2688C16.5328 32.2622 18.6258 31.6595 20.4389 30.5282C20.5833 30.4079 20.6975 30.2553 20.7724 30.083C20.8473 29.9107 20.8809 29.7232 20.8703 29.5356C20.7312 28.6291 20.3242 27.7848 19.7016 27.1112C19.079 26.4376 18.2691 25.9654 17.3762 25.7553C16.3885 25.5689 15.387 25.4661 14.3821 25.4479L14.3802 25.4574ZM85.5606 25.4574V25.5424C84.944 25.5424 84.3255 25.522 83.7089 25.5424C82.6153 25.6028 81.5712 26.0179 80.7343 26.7243C79.8974 27.4307 79.3134 28.3901 79.0705 29.4579C79.0029 29.6683 79.0127 29.896 79.0983 30.0997C79.1839 30.3034 79.3395 30.4699 79.5371 30.5689C81.3607 31.6823 83.4581 32.2671 85.5948 32.2579C87.7316 32.2488 89.8238 31.6459 91.6378 30.5169C91.7828 30.396 91.8972 30.2428 91.9719 30.0694C92.0465 29.8961 92.0792 29.7073 92.0674 29.5189C91.9188 28.6129 91.5054 27.7711 90.8794 27.0995C90.2534 26.4278 89.4427 25.9565 88.5492 25.7444C87.5633 25.5652 86.5644 25.4658 85.5625 25.4479L85.5606 25.4574ZM82.1961 19.2368C82.1991 20.1333 82.5581 20.9923 83.1943 21.6241C83.8305 22.256 84.6917 22.6093 85.5884 22.6063C86.4851 22.6034 87.344 22.2444 87.976 21.6083C88.608 20.9723 88.9614 20.1112 88.9585 19.2146C88.957 18.7707 88.8681 18.3316 88.6968 17.922C88.5256 17.5124 88.2753 17.1406 87.9603 16.8277C87.6453 16.5148 87.2717 16.2668 86.8609 16.0982C86.4501 15.9297 86.0102 15.8437 85.5662 15.8451C85.1222 15.8466 84.6828 15.9356 84.2731 16.1068C83.8634 16.278 83.4915 16.5281 83.1786 16.8431C82.8656 17.158 82.6178 17.5316 82.4492 17.9423C82.2806 18.353 82.1947 18.7928 82.1961 19.2368ZM17.7577 19.1907C17.7507 18.5239 17.5467 17.8742 17.1713 17.3231C16.7959 16.772 16.2659 16.3439 15.6479 16.0933C15.0299 15.8426 14.3516 15.78 13.6982 15.9138C13.0449 16.0476 12.4457 16.3719 11.9761 16.8454C11.5064 17.3188 11.1873 17.9203 11.0588 18.5746C10.9304 19.2289 10.9983 19.9064 11.2541 20.5222C11.5098 21.138 11.942 21.6646 12.4963 22.0355C13.0506 22.4063 13.7021 22.6048 14.3691 22.6063C14.8165 22.6041 15.2591 22.5139 15.6715 22.3405C16.084 22.1672 16.4582 21.9142 16.7727 21.5961C17.0873 21.278 17.336 20.9008 17.5047 20.4865C17.6734 20.0722 17.7587 19.6285 17.7558 19.1812L17.7577 19.1907ZM53.3414 83.8014C53.3428 83.1333 53.1452 82.4799 52.7738 81.9244C52.4025 81.3688 51.8742 80.9366 51.2561 80.6823C50.6381 80.428 49.9584 80.3633 49.3035 80.4965C48.6487 80.6298 48.0483 80.9547 47.5789 81.4303C47.1095 81.9059 46.7923 82.5108 46.6677 83.1673C46.5431 83.8238 46.6168 84.5022 46.8793 85.1167C47.1418 85.7312 47.5814 86.2534 48.1419 86.6173C48.7025 86.9811 49.3587 87.1699 50.0269 87.1597C50.4665 87.1577 50.9013 87.0691 51.3064 86.8984C51.7115 86.7278 52.0789 86.4785 52.3873 86.1653C52.6957 85.8521 52.9391 85.4814 53.1035 85.0738C53.2678 84.6661 53.35 84.2301 53.3451 83.7906L53.3414 83.8014Z" fill="#4D1A2D"/>
<path d="M56.9652 45.113C59.0989 45.3172 61.0708 46.3395 62.4672 47.9654C63.8635 49.5914 64.576 51.6947 64.4552 53.8344C64.6189 53.6752 64.7722 53.5059 64.9144 53.3273C66.5843 50.7979 67.5857 47.8865 67.8249 44.8653C68.0642 41.844 67.5336 38.8114 66.2826 36.0507C65.0317 33.2901 63.1013 30.8918 60.6717 29.0794C58.2421 27.267 55.3927 26.1 52.3897 25.6873C49.1819 25.2713 45.9211 25.7065 42.935 26.9496C41.8092 27.4125 40.9611 27.1717 40.6297 26.3182C40.2982 25.4648 40.7074 24.7338 41.8462 24.2432L42.0314 24.1691C46.1964 22.4617 50.8027 22.1497 55.1599 23.28C59.5172 24.4103 63.3907 26.9219 66.2001 30.4385C69.0094 33.9551 70.6032 38.2877 70.7427 42.7862C70.8822 47.2847 69.5597 51.7068 66.9736 55.3906C64.3875 59.0744 60.677 61.8214 56.3981 63.2194C52.1192 64.6173 47.5024 64.591 43.2396 63.1448C38.9768 61.6986 35.2977 58.9104 32.7534 55.1976C30.2091 51.4848 28.9367 47.0473 29.127 42.5507C29.2953 37.3923 31.4258 32.4927 35.0839 28.8511C35.2058 28.6864 35.3614 28.5493 35.5403 28.4493C35.7192 28.3493 35.9174 28.2888 36.1216 28.2712C36.3259 28.2537 36.5315 28.2795 36.7248 28.3476C36.9181 28.4157 37.0947 28.5242 37.2429 28.6658C37.3966 28.8114 37.5175 28.9879 37.5977 29.1838C37.6778 29.3797 37.7154 29.5906 37.7078 29.8021C37.7003 30.0136 37.6479 30.2212 37.554 30.4109C37.4601 30.6006 37.3269 30.7679 37.1633 30.9022C37.0355 31.0485 36.8948 31.1854 36.7633 31.3298C34.6692 33.5743 33.2051 36.3321 32.5193 39.324C31.9262 41.8412 31.8838 44.4568 32.3952 46.9919C32.9065 49.5269 33.9594 51.9214 35.482 54.012C35.645 48.9598 38.0743 46.037 42.9813 45.1428C41.9102 43.9825 41.1414 42.5762 40.7429 41.0483C40.3443 39.5204 40.3284 37.9176 40.6964 36.382C41.1996 34.206 42.4687 32.2833 44.2719 30.9651C46.0426 29.6309 48.2249 28.9597 50.4394 29.0676C52.6539 29.1755 54.7605 30.0558 56.393 31.5558C57.3469 32.3971 58.1169 33.4261 58.6547 34.5786C59.1926 35.7312 59.4867 36.9823 59.5186 38.2537C59.6069 40.7875 58.6889 43.2535 56.9652 45.113ZM57.9299 59.5086C58.7206 59.0383 59.3354 58.6315 59.9872 58.2946C60.5283 58.078 60.9759 57.6777 61.2515 57.1642C61.5271 56.6506 61.6131 56.0565 61.4944 55.486C61.4413 54.7083 61.4326 53.9283 61.4685 53.1497C61.4712 52.4808 61.3396 51.8183 61.0815 51.2012C60.8234 50.5841 60.444 50.0247 59.9659 49.5569C59.4878 49.089 58.9206 48.7222 58.298 48.4775C57.6754 48.2328 57.0099 48.1156 56.3412 48.1327C52.0786 48.1141 47.8154 48.1141 43.5516 48.1327C42.8989 48.1219 42.2506 48.2395 41.6434 48.4793C41.0363 48.7191 40.4824 49.0763 40.0133 49.5302C39.5442 49.9841 39.1692 50.5255 38.9095 51.1243C38.6499 51.7231 38.5109 52.3674 38.5003 53.0199C38.4503 54.2196 38.4725 55.4267 38.5003 56.6245C38.4932 56.9047 38.5963 57.1764 38.7873 57.3816C39.7705 58.1036 40.7945 58.7685 41.8036 59.4534C41.9388 59.2572 42.0018 59.2087 42.0018 59.1587C42.0166 58.3479 42.0147 57.5371 42.0314 56.7244C42.0554 55.5488 42.5591 54.9285 43.4831 54.9156C44.4071 54.9026 44.9404 55.5026 44.9645 56.6801C44.9793 57.7909 44.9274 58.8903 44.9978 59.9899C45.0283 60.1574 45.0987 60.3152 45.2032 60.4496C45.3076 60.584 45.4429 60.691 45.5977 60.7619C48.4737 61.516 51.494 61.5298 54.3766 60.8013C54.9061 60.6735 55.0302 60.3992 55.0191 59.9086C54.9931 58.7978 54.9969 57.6999 55.0191 56.5965C55.0413 55.4931 55.5524 54.9081 56.4745 54.9156C57.3966 54.923 57.9077 55.5172 57.9373 56.6132C57.9484 57.5166 57.9373 58.4167 57.9373 59.5127L57.9299 59.5086ZM56.6078 38.5891C56.6104 37.2786 56.2243 35.9966 55.4984 34.9054C54.7726 33.8143 53.7395 32.9631 52.5297 32.4588C51.3199 31.9546 49.9878 31.8199 48.7017 32.0724C47.4155 32.3249 46.2331 32.953 45.3039 33.8772C44.3746 34.8013 43.7402 35.9802 43.4809 37.2648C43.2215 38.5493 43.3489 39.8818 43.8468 41.094C44.3448 42.3061 45.1909 43.3437 46.2784 44.0752C47.3659 44.8067 48.6459 45.1994 49.9566 45.2038C51.7133 45.2 53.3976 44.5026 54.6431 43.2639C55.8886 42.0252 56.5946 40.3454 56.6078 38.5891Z" fill="#4D1A2D"/>
</svg>
