<svg width="181" height="201" viewBox="0 0 181 201" fill="none" xmlns="http://www.w3.org/2000/svg">
<g clip-path="url(#clip0_2669_355)">
<path opacity="0.27" d="M35.2732 198.885C6.32375 168.012 3.60994 151.176 7.67803 141.363C13.3437 127.696 32.1776 127.618 36.0492 111.825C39.4303 98.0452 26.955 90.5288 29.0537 74.9025C30.6928 62.7121 39.603 47.788 50.819 46.143C67.0116 43.7694 74.0658 71.1377 95.1262 71.0164C108.868 70.9373 112.812 59.24 126.996 61.3004C135.445 62.5248 145.871 68.3883 149.149 77.6243C154.249 91.9879 137.723 102.304 142.543 116.101C146.508 127.454 159.41 125.355 165.862 135.923C175.868 152.308 161.415 184.489 142.154 200.439L35.2732 198.885Z" fill="#FEAE5E"/>
<mask id="mask0_2669_355" style="mask-type:luminance" maskUnits="userSpaceOnUse" x="115" y="153" width="53" height="45">
<path d="M159.915 160.891C158.173 160.712 156.052 162.031 154.478 161.831C150.778 161.365 150.594 158.585 148.722 156.335C148.011 155.452 147.11 154.742 146.086 154.258C145.062 153.773 143.941 153.526 142.808 153.536C141.515 153.607 140.259 153.992 139.149 154.658C138.039 155.325 137.108 156.252 136.438 157.361C135.751 158.666 135.145 160.012 134.623 161.391C133.353 163.79 134.534 162.739 131.59 165.534C128.426 168.54 129.096 167.669 125.898 166.211C121.349 164.141 115.673 165.035 115.971 170.983C115.671 172.258 115.83 173.598 116.419 174.768C118.234 178.522 122.375 181.811 125.106 184.895C128.13 188.31 131.197 193.106 135.356 195.253C141.376 198.362 150.955 197.323 156.313 193.344C163.383 188.086 176.344 162.584 159.915 160.891Z" fill="white"/>
</mask>
<g mask="url(#mask0_2669_355)">
<path d="M159.915 160.891C158.173 160.712 156.052 162.031 154.478 161.831C150.778 161.365 150.594 158.585 148.722 156.335C148.011 155.452 147.11 154.742 146.086 154.258C145.062 153.773 143.941 153.526 142.808 153.536C141.515 153.607 140.259 153.992 139.149 154.658C138.039 155.325 137.108 156.252 136.438 157.361C135.751 158.666 135.145 160.012 134.623 161.391C133.353 163.79 134.534 162.739 131.59 165.534C128.426 168.54 129.096 167.669 125.898 166.211C121.349 164.141 115.673 165.035 115.971 170.983C115.671 172.258 115.83 173.598 116.419 174.768C118.234 178.522 122.375 181.811 125.106 184.895C128.13 188.31 131.197 193.106 135.356 195.253C141.376 198.362 150.955 197.323 156.313 193.344C163.383 188.086 176.344 162.584 159.915 160.891Z" fill="#B3D3DD"/>
<path d="M141.113 197.4C137.869 192.301 134.646 187.188 131.382 182.103C129.032 178.441 126.583 175.023 122.978 172.497C122.186 171.944 121.439 173.239 122.222 173.788C126.372 176.695 128.92 181.017 131.589 185.214L139.822 198.156C140.343 198.963 141.637 198.215 141.113 197.4Z" fill="#D2F7FF"/>
<path d="M142.162 163.669C142.156 163.474 142.075 163.29 141.935 163.155C141.796 163.019 141.609 162.943 141.414 162.943C141.22 162.943 141.033 163.019 140.894 163.155C140.754 163.29 140.673 163.474 140.667 163.669C140.475 175.302 140.687 186.928 141.304 198.548C141.354 199.505 142.85 199.511 142.799 198.548C142.182 186.931 141.97 175.304 142.162 163.669Z" fill="#D2F7FF"/>
<path d="M157.417 172.127C151.969 180.368 148.232 189.559 143.204 198.046C143.107 198.217 143.082 198.419 143.133 198.608C143.185 198.797 143.308 198.959 143.478 199.058C143.647 199.157 143.849 199.185 144.039 199.137C144.229 199.089 144.393 198.968 144.495 198.8C149.522 190.313 153.26 181.125 158.708 172.881C159.239 172.076 157.945 171.325 157.417 172.127Z" fill="#D2F7FF"/>
<path opacity="0.2" d="M117.162 178.119C117.162 178.119 128.006 187.182 141.829 187.182C155.653 187.182 169.018 175.035 169.018 175.035V197.179H116.783L117.162 178.119Z" fill="black"/>
</g>
<mask id="mask1_2669_355" style="mask-type:luminance" maskUnits="userSpaceOnUse" x="111" y="163" width="35" height="35">
<path d="M145.047 167.815C143.354 163.011 138.194 165.6 136.476 168.707C135.68 170.477 135.122 172.344 134.816 174.261C134.314 176.397 135.041 178.391 133.273 176.181C130.997 173.333 131.601 168.952 129.366 165.951C126.732 162.414 123.131 163.007 122.659 167.467C122.193 171.868 124.822 175.439 125.371 179.525C125.675 180.263 126.017 180.984 126.396 181.687C126.154 181.839 125.881 181.932 125.598 181.961C125.315 181.989 125.029 181.952 124.762 181.851C124.496 181.751 124.256 181.59 124.062 181.381C123.868 181.173 123.725 180.922 123.644 180.65C122.128 179.695 121.099 178.038 119.486 177.121C115.956 175.115 110.858 175.407 112.141 180.762C113.948 188.273 126.503 194.364 132.662 197.327C132.67 197.327 132.678 197.329 132.684 197.333C135.21 198.681 137.815 197.993 139.68 194.274C141.933 189.771 142.308 183.962 143.25 179.077C143.779 176.343 146.065 170.703 145.047 167.815Z" fill="white"/>
</mask>
<g mask="url(#mask1_2669_355)">
<path d="M145.047 167.815C143.354 163.011 138.194 165.6 136.476 168.707C135.68 170.477 135.122 172.344 134.816 174.261C134.314 176.397 135.041 178.391 133.273 176.181C130.997 173.333 131.601 168.952 129.366 165.951C126.732 162.414 123.131 163.007 122.659 167.467C122.193 171.868 124.822 175.439 125.371 179.525C125.675 180.263 126.017 180.984 126.396 181.687C126.154 181.839 125.881 181.932 125.598 181.961C125.315 181.989 125.029 181.952 124.762 181.851C124.496 181.751 124.256 181.59 124.062 181.381C123.868 181.173 123.725 180.922 123.644 180.65C122.128 179.695 121.099 178.038 119.486 177.121C115.956 175.115 110.858 175.407 112.141 180.762C113.948 188.273 126.503 194.364 132.662 197.327C132.67 197.327 132.678 197.329 132.684 197.333C135.21 198.681 137.815 197.993 139.68 194.274C141.933 189.771 142.308 183.962 143.25 179.077C143.779 176.343 146.065 170.703 145.047 167.815Z" fill="#4F9BA3"/>
<path d="M141.592 170.398C141.906 169.487 140.463 169.095 140.15 170.002C137.48 177.758 136.788 185.833 136.509 193.953C135.561 191.604 134.485 189.303 133.535 186.946C131.714 182.39 130.157 177.734 128.871 172.999C128.813 172.814 128.686 172.658 128.515 172.565C128.345 172.471 128.145 172.448 127.958 172.499C127.771 172.55 127.611 172.673 127.512 172.84C127.413 173.007 127.383 173.206 127.428 173.395C128.716 178.128 130.273 182.784 132.092 187.34C133.165 190.006 134.408 192.607 135.436 195.285C130.337 190.003 124.633 185.34 118.442 181.393C117.626 180.873 116.877 182.167 117.688 182.684C124.595 187.094 130.881 192.408 136.38 198.483C136.38 198.656 136.371 198.833 136.368 199C136.357 199.15 136.399 199.3 136.486 199.424C136.573 199.548 136.699 199.638 136.845 199.679C136.863 199.756 136.887 199.832 136.905 199.913C137.125 200.846 138.568 200.453 138.348 199.517C138.295 199.293 138.231 199.077 138.169 198.858C138.225 198.73 138.242 198.588 138.219 198.45C138.195 198.313 138.132 198.185 138.037 198.082C138.004 198.044 137.967 198.008 137.932 197.966C137.919 197.918 137.908 197.869 137.894 197.821C138.107 188.537 138.541 179.257 141.592 170.398Z" fill="#6CD3D3"/>
<path opacity="0.2" d="M113.424 184.191C113.424 184.191 123.05 190.455 128.465 190.455C133.879 190.455 142.947 185.69 145.564 181.672V200.456H113.705L113.424 184.191Z" fill="black"/>
</g>
<mask id="mask2_2669_355" style="mask-type:luminance" maskUnits="userSpaceOnUse" x="131" y="163" width="50" height="36">
<path d="M179.207 179.029C172.71 177.064 166.117 179.197 160.452 182.954C163.704 178.11 167.174 173.393 169.271 167.85C170.045 165.806 167.569 164.656 165.997 165.311C159.982 167.817 156.903 172.54 154.615 177.885C154.453 173.281 153.23 168.777 151.041 164.724C150 162.844 146.683 163.559 146.85 165.841C147.257 171.375 147.571 176.918 147.839 182.457C143.595 179.298 137.148 177.87 132.923 178.948C132.505 179.073 132.132 179.315 131.848 179.646C131.564 179.976 131.382 180.382 131.322 180.814C131.263 181.246 131.329 181.686 131.512 182.081C131.696 182.477 131.99 182.811 132.359 183.043C137.515 186.355 142.235 190.3 146.411 194.786C146.497 194.875 146.591 194.956 146.69 195.031C147.339 196.069 148.272 196.9 149.379 197.425C150.486 197.949 151.72 198.145 152.935 197.99C156.627 197.697 160.39 194.663 163.4 192.87L179.727 183.142C180.102 182.914 180.403 182.583 180.593 182.189C180.784 181.794 180.856 181.352 180.801 180.918C180.746 180.483 180.566 180.073 180.283 179.738C180 179.404 179.627 179.158 179.207 179.031V179.029Z" fill="white"/>
</mask>
<g mask="url(#mask2_2669_355)">
<path d="M179.207 179.029C172.71 177.064 166.117 179.197 160.452 182.954C163.704 178.11 167.174 173.393 169.271 167.85C170.045 165.806 167.569 164.656 165.997 165.311C159.982 167.817 156.903 172.54 154.615 177.885C154.453 173.281 153.23 168.777 151.041 164.724C150 162.844 146.683 163.559 146.85 165.841C147.257 171.375 147.571 176.918 147.839 182.457C143.595 179.298 137.148 177.87 132.923 178.948C132.505 179.073 132.132 179.315 131.848 179.646C131.564 179.976 131.382 180.382 131.322 180.814C131.263 181.246 131.329 181.686 131.512 182.081C131.696 182.477 131.99 182.811 132.359 183.043C137.515 186.355 142.235 190.3 146.411 194.786C146.497 194.875 146.591 194.956 146.69 195.031C147.339 196.069 148.272 196.9 149.379 197.425C150.486 197.949 151.72 198.145 152.935 197.99C156.627 197.697 160.39 194.663 163.4 192.87L179.727 183.142C180.102 182.914 180.403 182.583 180.593 182.189C180.784 181.794 180.856 181.352 180.801 180.918C180.746 180.483 180.566 180.073 180.283 179.738C180 179.404 179.627 179.158 179.207 179.031V179.029Z" fill="#5DB3C1"/>
<path d="M166.972 184.362C161.764 187.05 157.081 190.65 153.145 194.991C155.852 188.486 158.559 181.981 161.266 175.475C161.634 174.589 160.19 174.203 159.824 175.08L151.992 193.909C152.03 187.905 151.826 181.905 151.38 175.91C151.309 174.956 149.813 174.949 149.884 175.91C150.35 182.169 150.549 188.432 150.481 194.701C148.658 189.661 145.635 185.177 140.447 182.951C139.574 182.577 138.799 183.859 139.684 184.234C145.691 186.81 148.545 192.483 150.084 198.487V198.497C150.059 198.578 150.052 198.662 150.063 198.746C149.684 199.255 149.297 199.758 148.934 200.283C148.388 201.074 149.677 201.835 150.217 201.046C150.366 200.831 150.528 200.63 150.683 200.416C150.795 200.493 150.926 200.538 151.062 200.547C151.197 200.557 151.333 200.53 151.454 200.469C151.576 200.409 151.68 200.317 151.754 200.204C151.829 200.09 151.872 199.959 151.879 199.823C151.891 199.474 151.895 199.113 151.9 198.758C156.155 193.288 161.555 188.815 167.72 185.651C168.569 185.213 167.825 183.916 166.972 184.362Z" fill="#71D7E2"/>
<path opacity="0.2" d="M136.222 185.779C136.222 185.779 143.885 191.758 151.729 191.758C159.574 191.758 171.443 188.862 171.443 188.862V198.112H136.037L136.222 185.779Z" fill="black"/>
</g>
<mask id="mask3_2669_355" style="mask-type:luminance" maskUnits="userSpaceOnUse" x="3" y="153" width="53" height="45">
<path d="M47.9828 160.891C46.2408 160.712 44.1198 162.031 42.5459 161.831C38.8451 161.365 38.6618 158.585 36.7893 156.335C36.0786 155.452 35.1774 154.742 34.1533 154.258C33.1291 153.773 32.0086 153.526 30.8757 153.536C29.5827 153.607 28.3265 153.992 27.2163 154.658C26.1062 155.325 25.1757 156.252 24.5059 157.361C23.8189 158.666 23.2127 160.012 22.6907 161.391C21.4208 163.79 22.601 162.739 19.6578 165.534C16.493 168.54 17.1635 167.669 13.9657 166.211C9.41633 164.141 3.74012 165.035 4.03879 170.983C3.73885 172.258 3.89735 173.598 4.48648 174.768C6.30097 178.522 10.4423 181.811 13.1732 184.895C16.1976 188.31 19.2642 193.106 23.4232 195.253C29.443 198.362 39.0224 197.323 44.3802 193.344C51.4502 188.086 64.4114 162.584 47.9828 160.891Z" fill="white"/>
</mask>
<g mask="url(#mask3_2669_355)">
<path d="M47.9828 160.891C46.2408 160.712 44.1198 162.031 42.5459 161.831C38.8451 161.365 38.6618 158.585 36.7893 156.335C36.0786 155.452 35.1774 154.742 34.1533 154.258C33.1291 153.773 32.0086 153.526 30.8757 153.536C29.5827 153.607 28.3265 153.992 27.2163 154.658C26.1062 155.325 25.1757 156.252 24.5059 157.361C23.8189 158.666 23.2127 160.012 22.6907 161.391C21.4208 163.79 22.601 162.739 19.6578 165.534C16.493 168.54 17.1635 167.669 13.9657 166.211C9.41633 164.141 3.74012 165.035 4.03879 170.983C3.73885 172.258 3.89735 173.598 4.48648 174.768C6.30097 178.522 10.4423 181.811 13.1732 184.895C16.1976 188.31 19.2642 193.106 23.4232 195.253C29.443 198.362 39.0224 197.323 44.3802 193.344C51.4502 188.086 64.4114 162.584 47.9828 160.891Z" fill="#B3D3DD"/>
<path d="M29.1807 197.4C25.9368 192.301 22.7133 187.188 19.4496 182.103C17.0991 178.441 14.6503 175.023 11.0451 172.497C10.2539 171.944 9.50685 173.239 10.2895 173.788C14.4393 176.695 16.987 181.017 19.656 185.214L27.8898 198.156C28.4106 198.963 29.7042 198.215 29.1807 197.4Z" fill="#D2F7FF"/>
<path d="M30.2296 163.669C30.2239 163.475 30.1426 163.29 30.0031 163.155C29.8635 163.019 29.6767 162.944 29.4823 162.944C29.2878 162.944 29.101 163.019 28.9615 163.155C28.822 163.29 28.7407 163.475 28.7349 163.669C28.542 175.302 28.7543 186.929 29.3718 198.548C29.4219 199.505 30.918 199.511 30.8665 198.548C30.2529 186.931 30.0406 175.305 30.2296 163.669Z" fill="#D2F7FF"/>
<path d="M45.4833 172.127C40.0358 180.368 36.2981 189.559 31.27 198.046C31.1737 198.217 31.1485 198.419 31.1999 198.608C31.2512 198.797 31.3749 198.959 31.5443 199.058C31.7137 199.157 31.9153 199.185 32.1055 199.137C32.2957 199.089 32.4593 198.968 32.561 198.8C37.5884 190.313 41.3268 181.125 46.7742 172.881C47.3057 172.076 46.0114 171.325 45.4833 172.127Z" fill="#D2F7FF"/>
<path opacity="0.2" d="M5.22971 178.119C5.22971 178.119 16.0731 187.182 29.8967 187.182C43.7203 187.182 57.0857 175.035 57.0857 175.035V197.179H4.85059L5.22971 178.119Z" fill="black"/>
</g>
<mask id="mask4_2669_355" style="mask-type:luminance" maskUnits="userSpaceOnUse" x="0" y="163" width="34" height="35">
<path d="M33.1158 167.815C31.4227 163.011 26.2621 165.6 24.5445 168.707C23.7486 170.477 23.1903 172.344 22.8843 174.261C22.3819 176.398 23.1091 178.391 21.3414 176.181C19.0654 173.333 19.6694 168.952 17.4342 165.951C14.8002 162.414 11.1989 163.007 10.7275 167.467C10.2613 171.868 12.8901 175.439 13.4393 179.525C13.7436 180.263 14.0856 180.984 14.4639 181.687C14.2228 181.839 13.9499 181.932 13.6665 181.961C13.3832 181.989 13.0971 181.952 12.8307 181.851C12.5643 181.751 12.3247 181.59 12.1307 181.381C11.9367 181.173 11.7936 180.922 11.7125 180.65C10.196 179.695 9.16749 178.038 7.55475 177.121C4.02402 175.115 -1.0733 175.407 0.209107 180.762C2.01634 188.273 14.5714 194.364 20.7302 197.327C20.7382 197.327 20.7461 197.329 20.7527 197.333C23.2779 198.681 25.8829 197.993 27.7482 194.274C30.0011 189.771 30.3763 183.962 31.3185 179.077C31.8473 176.343 34.1339 170.703 33.1158 167.815Z" fill="white"/>
</mask>
<g mask="url(#mask4_2669_355)">
<path d="M33.1158 167.815C31.4227 163.011 26.2621 165.6 24.5445 168.707C23.7486 170.477 23.1903 172.344 22.8843 174.261C22.3819 176.398 23.1091 178.391 21.3414 176.181C19.0654 173.333 19.6694 168.952 17.4342 165.951C14.8002 162.414 11.1989 163.007 10.7275 167.467C10.2613 171.868 12.8901 175.439 13.4393 179.525C13.7436 180.263 14.0856 180.984 14.4639 181.687C14.2228 181.839 13.9499 181.932 13.6665 181.961C13.3832 181.989 13.0971 181.952 12.8307 181.851C12.5643 181.751 12.3247 181.59 12.1307 181.381C11.9367 181.173 11.7936 180.922 11.7125 180.65C10.196 179.695 9.16749 178.038 7.55475 177.121C4.02402 175.115 -1.0733 175.407 0.209107 180.762C2.01634 188.273 14.5714 194.364 20.7302 197.327C20.7382 197.327 20.7461 197.329 20.7527 197.333C23.2779 198.681 25.8829 197.993 27.7482 194.274C30.0011 189.771 30.3763 183.962 31.3185 179.077C31.8473 176.343 34.1339 170.703 33.1158 167.815Z" fill="#4F9BA3"/>
<path d="M29.6592 170.398C29.9737 169.487 28.5304 169.095 28.2179 170.002C25.5469 177.758 24.8553 185.833 24.5764 193.953C23.6283 191.604 22.5522 189.303 21.6021 186.946C19.7816 182.39 18.2244 177.734 16.938 172.999C16.8805 172.814 16.7531 172.658 16.5828 172.565C16.4125 172.471 16.2126 172.448 16.0253 172.499C15.838 172.55 15.678 172.673 15.5791 172.84C15.4802 173.007 15.4502 173.206 15.4954 173.395C16.783 178.128 18.3403 182.784 20.1595 187.34C21.2322 190.006 22.4751 192.607 23.5036 195.285C18.4044 190.003 12.7003 185.34 6.50929 181.393C5.69303 180.873 4.94469 182.167 5.75501 182.684C12.6621 187.094 18.9487 192.408 24.4478 198.483C24.4478 198.656 24.4386 198.833 24.4353 199C24.4248 199.15 24.4664 199.3 24.5532 199.424C24.64 199.548 24.7666 199.638 24.912 199.679C24.9304 199.756 24.9548 199.832 24.9726 199.913C25.1929 200.846 26.6355 200.453 26.4153 199.517C26.3625 199.293 26.2986 199.077 26.2366 198.858C26.2922 198.73 26.3094 198.588 26.286 198.45C26.2626 198.313 26.1996 198.185 26.1047 198.082C26.0711 198.044 26.0348 198.008 25.9999 197.966C25.986 197.918 25.9755 197.869 25.9616 197.821C26.1746 188.537 26.6084 179.257 29.6592 170.398Z" fill="#6CD3D3"/>
<path opacity="0.2" d="M1.49219 184.191C1.49219 184.191 11.1152 190.455 16.5329 190.455C21.9507 190.455 31.0152 185.69 33.6321 181.672V200.456H1.77175L1.49219 184.191Z" fill="black"/>
</g>
<mask id="mask5_2669_355" style="mask-type:luminance" maskUnits="userSpaceOnUse" x="19" y="163" width="50" height="36">
<path d="M67.2745 179.029C60.7781 177.064 54.1841 179.197 48.5191 182.954C51.7709 178.11 55.241 173.393 57.3383 167.85C58.1124 165.806 55.6359 164.656 54.0641 165.311C48.049 167.817 44.9699 172.54 42.682 177.885C42.5206 173.281 41.2975 168.777 39.1084 164.724C38.0673 162.844 34.7502 163.559 34.9177 165.841C35.3245 171.375 35.6383 176.918 35.9067 182.457C31.6625 179.298 25.2149 177.87 20.9905 178.948C20.5727 179.073 20.1995 179.315 19.9155 179.646C19.6316 179.976 19.4489 180.382 19.3894 180.814C19.3299 181.246 19.396 181.686 19.5799 182.081C19.7637 182.477 20.0575 182.811 20.4262 183.043C25.5822 186.355 30.3029 190.3 34.4779 194.786C34.5648 194.875 34.6582 194.956 34.7575 195.031C35.4064 196.07 36.3397 196.901 37.4466 197.425C38.5535 197.95 39.7877 198.146 41.0027 197.99C44.6949 197.697 48.4578 194.663 51.4683 192.87L67.7888 183.142C68.1639 182.915 68.4652 182.584 68.6564 182.19C68.8475 181.796 68.9203 181.354 68.8659 180.92C68.8115 180.485 68.6322 180.075 68.3498 179.74C68.0674 179.405 67.6939 179.159 67.2745 179.031V179.029Z" fill="white"/>
</mask>
<g mask="url(#mask5_2669_355)">
<path d="M67.2745 179.029C60.7781 177.064 54.1841 179.197 48.5191 182.954C51.7709 178.11 55.241 173.393 57.3383 167.85C58.1124 165.806 55.6359 164.656 54.0641 165.311C48.049 167.817 44.9699 172.54 42.682 177.885C42.5206 173.281 41.2975 168.777 39.1084 164.724C38.0673 162.844 34.7502 163.559 34.9177 165.841C35.3245 171.375 35.6383 176.918 35.9067 182.457C31.6625 179.298 25.2149 177.87 20.9905 178.948C20.5727 179.073 20.1995 179.315 19.9155 179.646C19.6316 179.976 19.4489 180.382 19.3894 180.814C19.3299 181.246 19.396 181.686 19.5799 182.081C19.7637 182.477 20.0575 182.811 20.4262 183.043C25.5822 186.355 30.3029 190.3 34.4779 194.786C34.5648 194.875 34.6582 194.956 34.7575 195.031C35.4064 196.07 36.3397 196.901 37.4466 197.425C38.5535 197.95 39.7877 198.146 41.0027 197.99C44.6949 197.697 48.4578 194.663 51.4683 192.87L67.7888 183.142C68.1639 182.915 68.4652 182.584 68.6564 182.19C68.8475 181.796 68.9203 181.354 68.8659 180.92C68.8115 180.485 68.6322 180.075 68.3498 179.74C68.0674 179.405 67.6939 179.159 67.2745 179.031V179.029Z" fill="#5DB3C1"/>
<path d="M55.0391 184.362C49.8318 187.05 45.1487 190.65 41.2122 194.991C43.9195 188.486 46.6265 181.981 49.3333 175.475C49.7032 174.589 48.2572 174.203 47.8913 175.08L40.0571 193.91C40.0958 187.905 39.8918 181.905 39.4452 175.91C39.374 174.956 37.878 174.95 37.9492 175.91C38.4156 182.169 38.6145 188.433 38.5459 194.701C36.7235 189.662 33.7004 185.178 28.5187 182.952C27.6451 182.578 26.8704 183.859 27.7552 184.234C33.7624 186.811 36.6167 192.483 38.1556 198.487V198.498C38.1307 198.578 38.1235 198.663 38.1345 198.746C37.7553 199.256 37.3683 199.758 37.0057 200.283C36.4591 201.074 37.7481 201.835 38.2881 201.047C38.4371 200.831 38.5993 200.631 38.7542 200.417C38.8666 200.494 38.9972 200.539 39.1328 200.548C39.2684 200.557 39.404 200.53 39.5257 200.47C39.6474 200.41 39.7509 200.318 39.8255 200.204C39.9001 200.091 39.9432 199.959 39.9503 199.824C39.9621 199.474 39.9668 199.114 39.9714 198.758C44.2267 193.289 49.6261 188.815 55.7914 185.651C56.6367 185.213 55.8923 183.916 55.0391 184.362Z" fill="#71D7E2"/>
<path opacity="0.2" d="M24.2905 185.779C24.2905 185.779 31.9519 191.758 39.798 191.758C47.6441 191.758 59.5121 188.862 59.5121 188.862V198.112H24.1025L24.2905 185.779Z" fill="black"/>
</g>
<path d="M156.338 200.441H21.4746C20.8561 200.441 20.263 200.195 19.8256 199.757C19.3883 199.32 19.1426 198.727 19.1426 198.108C19.1426 197.49 19.3883 196.897 19.8256 196.459C20.263 196.022 20.8561 195.776 21.4746 195.776H156.338C156.957 195.776 157.55 196.022 157.987 196.459C158.425 196.897 158.67 197.49 158.67 198.108C158.67 198.727 158.425 199.32 157.987 199.757C157.55 200.195 156.957 200.441 156.338 200.441Z" fill="#5DB3C1"/>
<path d="M159.162 0.458008H94.4386C90.1298 0.458008 86.6367 3.95104 86.6367 8.25992V111.234C86.6367 115.543 90.1298 119.036 94.4386 119.036H159.162C163.47 119.036 166.963 115.543 166.963 111.234V8.25992C166.963 3.95104 163.47 0.458008 159.162 0.458008Z" fill="#60A8E2" fill-opacity="0.35"/>
<path d="M157.626 5.375H95.9756C93.7605 5.375 91.9648 7.17067 91.9648 9.38573V110.106C91.9648 112.321 93.7605 114.117 95.9756 114.117H157.626C159.841 114.117 161.637 112.321 161.637 110.106V9.38573C161.637 7.17067 159.841 5.375 157.626 5.375Z" fill="#F5F5F5"/>
<path d="M112.528 19.4854H102.001C100.909 19.4854 100.023 20.3709 100.023 21.4634V31.9903C100.023 33.0827 100.909 33.9683 102.001 33.9683H112.528C113.621 33.9683 114.506 33.0827 114.506 31.9903V21.4634C114.506 20.3709 113.621 19.4854 112.528 19.4854Z" fill="#4F9BA3"/>
<path d="M112.528 37.3408H102.001C100.909 37.3408 100.023 38.2264 100.023 39.3188V49.8458C100.023 50.9382 100.909 51.8238 102.001 51.8238H112.528C113.621 51.8238 114.506 50.9382 114.506 49.8458V39.3188C114.506 38.2264 113.621 37.3408 112.528 37.3408Z" fill="#4F9BA3"/>
<path d="M112.528 55.1973H102.001C100.909 55.1973 100.023 56.0828 100.023 57.1753V67.7022C100.023 68.7946 100.909 69.6802 102.001 69.6802H112.528C113.621 69.6802 114.506 68.7946 114.506 67.7022V57.1753C114.506 56.0828 113.621 55.1973 112.528 55.1973Z" fill="#4F9BA3"/>
<path d="M144.088 24.2691H119.771C118.866 24.2691 118.132 23.772 118.132 23.1588C118.132 22.5456 118.865 22.0479 119.771 22.0479H144.088C144.994 22.0479 145.728 22.545 145.727 23.1588C145.727 23.772 144.993 24.2691 144.088 24.2691Z" fill="#FCC084"/>
<path d="M144.088 42.985H119.771C118.866 42.985 118.132 42.4878 118.132 41.8746C118.132 41.2615 118.865 40.7637 119.771 40.7637H144.088C144.994 40.7637 145.728 41.2608 145.727 41.8746C145.727 42.4878 144.993 42.985 144.088 42.985Z" fill="#FCC084"/>
<path d="M144.088 59.4684H119.771C118.866 59.4684 118.132 58.9712 118.132 58.358C118.132 57.7449 118.865 57.2471 119.771 57.2471H144.088C144.994 57.2471 145.728 57.7442 145.727 58.358C145.727 58.9712 144.993 59.4684 144.088 59.4684Z" fill="#FCC084"/>
<path d="M152.68 75.9992H101.581C100.72 75.9992 100.021 75.7177 100.021 75.3702C100.021 75.0227 100.72 74.7412 101.581 74.7412H152.68C153.542 74.7412 154.24 75.0227 154.24 75.3702C154.24 75.7177 153.542 75.9992 152.68 75.9992Z" fill="#4F9BA3"/>
<path d="M119.8 28.1711C119.558 28.1667 119.323 28.1469 119.094 28.1117C118.866 28.0722 118.681 28.0194 118.541 27.9535V27.3931C118.69 27.4634 118.881 27.5249 119.114 27.5777C119.347 27.6304 119.576 27.659 119.8 27.6634V26.3315C119.585 26.27 119.396 26.2041 119.233 26.1337C119.075 26.059 118.945 25.9755 118.844 25.8832C118.743 25.7909 118.666 25.6854 118.613 25.5667C118.565 25.4436 118.541 25.303 118.541 25.1447C118.541 24.9293 118.591 24.7447 118.692 24.5909C118.798 24.437 118.945 24.3162 119.134 24.2282C119.323 24.1359 119.545 24.0832 119.8 24.07V23.4898H120.222V24.0634C120.455 24.0678 120.666 24.0942 120.855 24.1425C121.048 24.1865 121.224 24.2414 121.382 24.3074L121.204 24.7953C121.064 24.7381 120.908 24.6898 120.736 24.6502C120.569 24.6063 120.398 24.5777 120.222 24.5645V25.8898C120.512 25.9733 120.754 26.0634 120.947 26.1601C121.141 26.2524 121.286 26.3689 121.382 26.5095C121.483 26.6458 121.534 26.8238 121.534 27.0436C121.534 27.3513 121.42 27.6018 121.191 27.7952C120.963 27.9843 120.64 28.1007 120.222 28.1447V28.8766H119.8V28.1711ZM120.222 27.6304C120.481 27.604 120.67 27.5447 120.789 27.4524C120.908 27.3557 120.967 27.2326 120.967 27.0832C120.967 26.9733 120.945 26.8832 120.901 26.8128C120.857 26.7381 120.78 26.6744 120.67 26.6216C120.565 26.5689 120.415 26.5183 120.222 26.47V27.6304ZM119.8 24.5777C119.642 24.5865 119.512 24.6151 119.411 24.6634C119.31 24.7074 119.233 24.7667 119.18 24.8414C119.132 24.9162 119.108 25.0019 119.108 25.0986C119.108 25.2129 119.127 25.3118 119.167 25.3953C119.211 25.4744 119.283 25.5425 119.385 25.5997C119.486 25.6524 119.624 25.7008 119.8 25.7447V24.5777Z" fill="#8BD8EA"/>
<path d="M119.8 46.8869C119.558 46.8825 119.323 46.8627 119.094 46.8275C118.866 46.788 118.681 46.7352 118.541 46.6693V46.1089C118.69 46.1792 118.881 46.2407 119.114 46.2935C119.347 46.3462 119.576 46.3748 119.8 46.3792V45.0473C119.585 44.9858 119.396 44.9199 119.233 44.8495C119.075 44.7748 118.945 44.6913 118.844 44.599C118.743 44.5067 118.666 44.4012 118.613 44.2825C118.565 44.1594 118.541 44.0188 118.541 43.8605C118.541 43.6452 118.591 43.4605 118.692 43.3067C118.798 43.1529 118.945 43.032 119.134 42.9441C119.323 42.8518 119.545 42.799 119.8 42.7858V42.2056H120.222V42.7792C120.455 42.7836 120.666 42.81 120.855 42.8584C121.048 42.9023 121.224 42.9573 121.382 43.0232L121.204 43.5111C121.064 43.454 120.908 43.4056 120.736 43.366C120.569 43.3221 120.398 43.2935 120.222 43.2803V44.6056C120.512 44.6891 120.754 44.7792 120.947 44.8759C121.141 44.9682 121.286 45.0847 121.382 45.2254C121.483 45.3616 121.534 45.5396 121.534 45.7594C121.534 46.0671 121.42 46.3177 121.191 46.5111C120.963 46.7001 120.64 46.8166 120.222 46.8605V47.5924H119.8V46.8869ZM120.222 46.3462C120.481 46.3199 120.67 46.2605 120.789 46.1682C120.908 46.0715 120.967 45.9484 120.967 45.799C120.967 45.6891 120.945 45.599 120.901 45.5287C120.857 45.4539 120.78 45.3902 120.67 45.3375C120.565 45.2847 120.415 45.2342 120.222 45.1858V46.3462ZM119.8 43.2935C119.642 43.3023 119.512 43.3309 119.411 43.3792C119.31 43.4232 119.233 43.4825 119.18 43.5572C119.132 43.632 119.108 43.7177 119.108 43.8144C119.108 43.9287 119.127 44.0276 119.167 44.1111C119.211 44.1902 119.283 44.2583 119.385 44.3155C119.486 44.3682 119.624 44.4166 119.8 44.4605V43.2935Z" fill="#8BD8EA"/>
<path d="M119.8 63.3703C119.558 63.3659 119.323 63.3461 119.094 63.3109C118.866 63.2714 118.681 63.2186 118.541 63.1527V62.5923C118.69 62.6626 118.881 62.7241 119.114 62.7769C119.347 62.8296 119.576 62.8582 119.8 62.8626V61.5307C119.585 61.4692 119.396 61.4033 119.233 61.3329C119.075 61.2582 118.945 61.1747 118.844 61.0824C118.743 60.9901 118.666 60.8846 118.613 60.7659C118.565 60.6428 118.541 60.5022 118.541 60.3439C118.541 60.1286 118.591 59.9439 118.692 59.7901C118.798 59.6363 118.945 59.5154 119.134 59.4275C119.323 59.3352 119.545 59.2824 119.8 59.2692V58.689H120.222V59.2626C120.455 59.267 120.666 59.2934 120.855 59.3418C121.048 59.3857 121.224 59.4407 121.382 59.5066L121.204 59.9945C121.064 59.9373 120.908 59.889 120.736 59.8494C120.569 59.8055 120.398 59.7769 120.222 59.7637V61.089C120.512 61.1725 120.754 61.2626 120.947 61.3593C121.141 61.4516 121.286 61.5681 121.382 61.7088C121.483 61.845 121.534 62.023 121.534 62.2428C121.534 62.5505 121.42 62.8011 121.191 62.9945C120.963 63.1835 120.64 63.3 120.222 63.3439V64.0758H119.8V63.3703ZM120.222 62.8296C120.481 62.8033 120.67 62.7439 120.789 62.6516C120.908 62.5549 120.967 62.4318 120.967 62.2824C120.967 62.1725 120.945 62.0824 120.901 62.0121C120.857 61.9373 120.78 61.8736 120.67 61.8208C120.565 61.7681 120.415 61.7176 120.222 61.6692V62.8296ZM119.8 59.7769C119.642 59.7857 119.512 59.8143 119.411 59.8626C119.31 59.9066 119.233 59.9659 119.18 60.0406C119.132 60.1154 119.108 60.2011 119.108 60.2978C119.108 60.4121 119.127 60.511 119.167 60.5945C119.211 60.6736 119.283 60.7417 119.385 60.7989C119.486 60.8516 119.624 60.9 119.8 60.9439V59.7769Z" fill="#8BD8EA"/>
<path d="M126.358 28.1711C126.116 28.1667 125.881 28.1469 125.652 28.1117C125.424 28.0722 125.239 28.0194 125.098 27.9535V27.3931C125.248 27.4634 125.439 27.5249 125.672 27.5777C125.905 27.6304 126.133 27.659 126.358 27.6634V26.3315C126.142 26.27 125.953 26.2041 125.791 26.1337C125.632 26.059 125.503 25.9755 125.402 25.8832C125.3 25.7909 125.224 25.6854 125.171 25.5667C125.122 25.4436 125.098 25.303 125.098 25.1447C125.098 24.9293 125.149 24.7447 125.25 24.5909C125.355 24.437 125.503 24.3162 125.692 24.2282C125.881 24.1359 126.103 24.0832 126.358 24.07V23.4898H126.78V24.0634C127.013 24.0678 127.223 24.0942 127.413 24.1425C127.606 24.1865 127.782 24.2414 127.94 24.3074L127.762 24.7953C127.621 24.7381 127.465 24.6898 127.294 24.6502C127.127 24.6063 126.955 24.5777 126.78 24.5645V25.8898C127.07 25.9733 127.311 26.0634 127.505 26.1601C127.698 26.2524 127.843 26.3689 127.94 26.5095C128.041 26.6458 128.092 26.8238 128.092 27.0436C128.092 27.3513 127.977 27.6018 127.749 27.7952C127.52 27.9843 127.197 28.1007 126.78 28.1447V28.8766H126.358V28.1711ZM126.78 27.6304C127.039 27.604 127.228 27.5447 127.347 27.4524C127.465 27.3557 127.525 27.2326 127.525 27.0832C127.525 26.9733 127.503 26.8832 127.459 26.8128C127.415 26.7381 127.338 26.6744 127.228 26.6216C127.122 26.5689 126.973 26.5183 126.78 26.47V27.6304ZM126.358 24.5777C126.199 24.5865 126.07 24.6151 125.969 24.6634C125.867 24.7074 125.791 24.7667 125.738 24.8414C125.689 24.9162 125.665 25.0019 125.665 25.0986C125.665 25.2129 125.685 25.3118 125.725 25.3953C125.769 25.4744 125.841 25.5425 125.942 25.5997C126.043 25.6524 126.182 25.7008 126.358 25.7447V24.5777Z" fill="#F6CA7F"/>
<path d="M126.358 46.8869C126.116 46.8825 125.881 46.8627 125.652 46.8275C125.424 46.788 125.239 46.7352 125.098 46.6693V46.1089C125.248 46.1792 125.439 46.2407 125.672 46.2935C125.905 46.3462 126.133 46.3748 126.358 46.3792V45.0473C126.142 44.9858 125.953 44.9199 125.791 44.8495C125.632 44.7748 125.503 44.6913 125.402 44.599C125.3 44.5067 125.224 44.4012 125.171 44.2825C125.122 44.1594 125.098 44.0188 125.098 43.8605C125.098 43.6452 125.149 43.4605 125.25 43.3067C125.355 43.1529 125.503 43.032 125.692 42.9441C125.881 42.8518 126.103 42.799 126.358 42.7858V42.2056H126.78V42.7792C127.013 42.7836 127.223 42.81 127.413 42.8584C127.606 42.9023 127.782 42.9573 127.94 43.0232L127.762 43.5111C127.621 43.454 127.465 43.4056 127.294 43.366C127.127 43.3221 126.955 43.2935 126.78 43.2803V44.6056C127.07 44.6891 127.311 44.7792 127.505 44.8759C127.698 44.9682 127.843 45.0847 127.94 45.2254C128.041 45.3616 128.092 45.5396 128.092 45.7594C128.092 46.0671 127.977 46.3177 127.749 46.5111C127.52 46.7001 127.197 46.8166 126.78 46.8605V47.5924H126.358V46.8869ZM126.78 46.3462C127.039 46.3199 127.228 46.2605 127.347 46.1682C127.465 46.0715 127.525 45.9484 127.525 45.799C127.525 45.6891 127.503 45.599 127.459 45.5287C127.415 45.4539 127.338 45.3902 127.228 45.3375C127.122 45.2847 126.973 45.2342 126.78 45.1858V46.3462ZM126.358 43.2935C126.199 43.3023 126.07 43.3309 125.969 43.3792C125.867 43.4232 125.791 43.4825 125.738 43.5572C125.689 43.632 125.665 43.7177 125.665 43.8144C125.665 43.9287 125.685 44.0276 125.725 44.1111C125.769 44.1902 125.841 44.2583 125.942 44.3155C126.043 44.3682 126.182 44.4166 126.358 44.4605V43.2935Z" fill="#F6CA7F"/>
<path d="M126.358 63.3703C126.116 63.3659 125.881 63.3461 125.652 63.3109C125.424 63.2714 125.239 63.2186 125.098 63.1527V62.5923C125.248 62.6626 125.439 62.7241 125.672 62.7769C125.905 62.8296 126.133 62.8582 126.358 62.8626V61.5307C126.142 61.4692 125.953 61.4033 125.791 61.3329C125.632 61.2582 125.503 61.1747 125.402 61.0824C125.3 60.9901 125.224 60.8846 125.171 60.7659C125.122 60.6428 125.098 60.5022 125.098 60.3439C125.098 60.1286 125.149 59.9439 125.25 59.7901C125.355 59.6363 125.503 59.5154 125.692 59.4275C125.881 59.3352 126.103 59.2824 126.358 59.2692V58.689H126.78V59.2626C127.013 59.267 127.223 59.2934 127.413 59.3418C127.606 59.3857 127.782 59.4407 127.94 59.5066L127.762 59.9945C127.621 59.9373 127.465 59.889 127.294 59.8494C127.127 59.8055 126.955 59.7769 126.78 59.7637V61.089C127.07 61.1725 127.311 61.2626 127.505 61.3593C127.698 61.4516 127.843 61.5681 127.94 61.7088C128.041 61.845 128.092 62.023 128.092 62.2428C128.092 62.5505 127.977 62.8011 127.749 62.9945C127.52 63.1835 127.197 63.3 126.78 63.3439V64.0758H126.358V63.3703ZM126.78 62.8296C127.039 62.8033 127.228 62.7439 127.347 62.6516C127.465 62.5549 127.525 62.4318 127.525 62.2824C127.525 62.1725 127.503 62.0824 127.459 62.0121C127.415 61.9373 127.338 61.8736 127.228 61.8208C127.122 61.7681 126.973 61.7176 126.78 61.6692V62.8296ZM126.358 59.7769C126.199 59.7857 126.07 59.8143 125.969 59.8626C125.867 59.9066 125.791 59.9659 125.738 60.0406C125.689 60.1154 125.665 60.2011 125.665 60.2978C125.665 60.4121 125.685 60.511 125.725 60.5945C125.769 60.6736 125.841 60.7417 125.942 60.7989C126.043 60.8516 126.182 60.9 126.358 60.9439V59.7769Z" fill="#F6CA7F"/>
<path d="M132.915 28.1711C132.673 28.1667 132.438 28.1469 132.21 28.1117C131.981 28.0722 131.797 28.0194 131.656 27.9535V27.3931C131.805 27.4634 131.997 27.5249 132.229 27.5777C132.462 27.6304 132.691 27.659 132.915 27.6634V26.3315C132.7 26.27 132.511 26.2041 132.348 26.1337C132.19 26.059 132.06 25.9755 131.959 25.8832C131.858 25.7909 131.781 25.6854 131.728 25.5667C131.68 25.4436 131.656 25.303 131.656 25.1447C131.656 24.9293 131.706 24.7447 131.808 24.5909C131.913 24.437 132.06 24.3162 132.249 24.2282C132.438 24.1359 132.66 24.0832 132.915 24.07V23.4898H133.337V24.0634C133.57 24.0678 133.781 24.0942 133.97 24.1425C134.164 24.1865 134.339 24.2414 134.498 24.3074L134.32 24.7953C134.179 24.7381 134.023 24.6898 133.851 24.6502C133.684 24.6063 133.513 24.5777 133.337 24.5645V25.8898C133.627 25.9733 133.869 26.0634 134.062 26.1601C134.256 26.2524 134.401 26.3689 134.498 26.5095C134.599 26.6458 134.649 26.8238 134.649 27.0436C134.649 27.3513 134.535 27.6018 134.306 27.7952C134.078 27.9843 133.755 28.1007 133.337 28.1447V28.8766H132.915V28.1711ZM133.337 27.6304C133.596 27.604 133.786 27.5447 133.904 27.4524C134.023 27.3557 134.082 27.2326 134.082 27.0832C134.082 26.9733 134.06 26.8832 134.016 26.8128C133.972 26.7381 133.895 26.6744 133.786 26.6216C133.68 26.5689 133.531 26.5183 133.337 26.47V27.6304ZM132.915 24.5777C132.757 24.5865 132.627 24.6151 132.526 24.6634C132.425 24.7074 132.348 24.7667 132.295 24.8414C132.247 24.9162 132.223 25.0019 132.223 25.0986C132.223 25.2129 132.243 25.3118 132.282 25.3953C132.326 25.4744 132.399 25.5425 132.5 25.5997C132.601 25.6524 132.739 25.7008 132.915 25.7447V24.5777Z" fill="#F6CA7F"/>
<path d="M132.915 46.8869C132.673 46.8825 132.438 46.8627 132.21 46.8275C131.981 46.788 131.797 46.7352 131.656 46.6693V46.1089C131.805 46.1792 131.997 46.2407 132.229 46.2935C132.462 46.3462 132.691 46.3748 132.915 46.3792V45.0473C132.7 44.9858 132.511 44.9199 132.348 44.8495C132.19 44.7748 132.06 44.6913 131.959 44.599C131.858 44.5067 131.781 44.4012 131.728 44.2825C131.68 44.1594 131.656 44.0188 131.656 43.8605C131.656 43.6452 131.706 43.4605 131.808 43.3067C131.913 43.1529 132.06 43.032 132.249 42.9441C132.438 42.8518 132.66 42.799 132.915 42.7858V42.2056H133.337V42.7792C133.57 42.7836 133.781 42.81 133.97 42.8584C134.164 42.9023 134.339 42.9573 134.498 43.0232L134.32 43.5111C134.179 43.454 134.023 43.4056 133.851 43.366C133.684 43.3221 133.513 43.2935 133.337 43.2803V44.6056C133.627 44.6891 133.869 44.7792 134.062 44.8759C134.256 44.9682 134.401 45.0847 134.498 45.2254C134.599 45.3616 134.649 45.5396 134.649 45.7594C134.649 46.0671 134.535 46.3177 134.306 46.5111C134.078 46.7001 133.755 46.8166 133.337 46.8605V47.5924H132.915V46.8869ZM133.337 46.3462C133.596 46.3199 133.786 46.2605 133.904 46.1682C134.023 46.0715 134.082 45.9484 134.082 45.799C134.082 45.6891 134.06 45.599 134.016 45.5287C133.972 45.4539 133.895 45.3902 133.786 45.3375C133.68 45.2847 133.531 45.2342 133.337 45.1858V46.3462ZM132.915 43.2935C132.757 43.3023 132.627 43.3309 132.526 43.3792C132.425 43.4232 132.348 43.4825 132.295 43.5572C132.247 43.632 132.223 43.7177 132.223 43.8144C132.223 43.9287 132.243 44.0276 132.282 44.1111C132.326 44.1902 132.399 44.2583 132.5 44.3155C132.601 44.3682 132.739 44.4166 132.915 44.4605V43.2935Z" fill="#F6CA7F"/>
<path d="M132.915 63.3703C132.673 63.3659 132.438 63.3461 132.21 63.3109C131.981 63.2714 131.797 63.2186 131.656 63.1527V62.5923C131.805 62.6626 131.997 62.7241 132.229 62.7769C132.462 62.8296 132.691 62.8582 132.915 62.8626V61.5307C132.7 61.4692 132.511 61.4033 132.348 61.3329C132.19 61.2582 132.06 61.1747 131.959 61.0824C131.858 60.9901 131.781 60.8846 131.728 60.7659C131.68 60.6428 131.656 60.5022 131.656 60.3439C131.656 60.1286 131.706 59.9439 131.808 59.7901C131.913 59.6363 132.06 59.5154 132.249 59.4275C132.438 59.3352 132.66 59.2824 132.915 59.2692V58.689H133.337V59.2626C133.57 59.267 133.781 59.2934 133.97 59.3418C134.164 59.3857 134.339 59.4407 134.498 59.5066L134.32 59.9945C134.179 59.9373 134.023 59.889 133.851 59.8494C133.684 59.8055 133.513 59.7769 133.337 59.7637V61.089C133.627 61.1725 133.869 61.2626 134.062 61.3593C134.256 61.4516 134.401 61.5681 134.498 61.7088C134.599 61.845 134.649 62.023 134.649 62.2428C134.649 62.5505 134.535 62.8011 134.306 62.9945C134.078 63.1835 133.755 63.3 133.337 63.3439V64.0758H132.915V63.3703ZM133.337 62.8296C133.596 62.8033 133.786 62.7439 133.904 62.6516C134.023 62.5549 134.082 62.4318 134.082 62.2824C134.082 62.1725 134.06 62.0824 134.016 62.0121C133.972 61.9373 133.895 61.8736 133.786 61.8208C133.68 61.7681 133.531 61.7176 133.337 61.6692V62.8296ZM132.915 59.7769C132.757 59.7857 132.627 59.8143 132.526 59.8626C132.425 59.9066 132.348 59.9659 132.295 60.0406C132.247 60.1154 132.223 60.2011 132.223 60.2978C132.223 60.4121 132.243 60.511 132.282 60.5945C132.326 60.6736 132.399 60.7417 132.5 60.7989C132.601 60.8516 132.739 60.9 132.915 60.9439V59.7769Z" fill="#F6CA7F"/>
<path d="M130.353 99.0023V99.8406H129.952V99.0332C129.403 99.0332 128.957 98.9225 128.615 98.701V98.0287C128.764 98.1601 128.968 98.2708 129.225 98.361C129.485 98.4486 129.728 98.4923 129.952 98.4923V96.5143C129.385 96.2413 129.018 95.9902 128.851 95.761C128.683 95.5292 128.599 95.2562 128.599 94.942C128.599 94.5685 128.727 94.2466 128.982 93.9762C129.237 93.7032 129.56 93.5396 129.952 93.4855V92.7901H130.353V93.4701C130.858 93.4855 131.207 93.5576 131.4 93.6864V94.3432C131.138 94.1371 130.789 94.0264 130.353 94.0109V96.0507C130.889 96.3057 131.255 96.553 131.451 96.7925C131.649 97.0294 131.748 97.2999 131.748 97.6038C131.748 97.9695 131.624 98.2773 131.377 98.5271C131.133 98.7744 130.791 98.9328 130.353 99.0023ZM129.952 95.8344V94.0341C129.735 94.0779 129.564 94.1745 129.438 94.3239C129.312 94.4707 129.249 94.6497 129.249 94.8609C129.249 95.0823 129.3 95.2639 129.403 95.4056C129.506 95.5472 129.689 95.6902 129.952 95.8344ZM130.353 96.7152V98.4614C130.85 98.3533 131.099 98.0854 131.099 97.6579C131.099 97.3024 130.85 96.9882 130.353 96.7152Z" fill="#8BD8EA"/>
<path d="M136.199 96.0285C135.958 96.0241 135.722 96.0043 135.494 95.9691C135.265 95.9296 135.081 95.8768 134.94 95.8109V95.2505C135.089 95.3208 135.281 95.3823 135.514 95.4351C135.747 95.4878 135.975 95.5164 136.199 95.5208V94.1889C135.984 94.1274 135.795 94.0615 135.632 93.9911C135.474 93.9164 135.344 93.8329 135.243 93.7406C135.142 93.6483 135.065 93.5428 135.013 93.4241C134.964 93.301 134.94 93.1604 134.94 93.0021C134.94 92.7868 134.991 92.6021 135.092 92.4483C135.197 92.2945 135.344 92.1736 135.533 92.0857C135.722 91.9934 135.944 91.9406 136.199 91.9274V91.3472H136.621V91.9208C136.854 91.9252 137.065 91.9516 137.254 92C137.448 92.0439 137.624 92.0989 137.782 92.1648L137.604 92.6527C137.463 92.5956 137.307 92.5472 137.136 92.5076C136.969 92.4637 136.797 92.4351 136.621 92.4219V93.7472C136.911 93.8307 137.153 93.9208 137.347 94.0175C137.54 94.1098 137.685 94.2263 137.782 94.367C137.883 94.5032 137.933 94.6812 137.933 94.901C137.933 95.2087 137.819 95.4593 137.591 95.6527C137.362 95.8417 137.039 95.9582 136.621 96.0021V96.734H136.199V96.0285ZM136.621 95.4878C136.881 95.4615 137.07 95.4021 137.188 95.3098C137.307 95.2131 137.366 95.09 137.366 94.9406C137.366 94.8307 137.344 94.7406 137.3 94.6703C137.257 94.5955 137.18 94.5318 137.07 94.4791C136.964 94.4263 136.815 94.3758 136.621 94.3274V95.4878ZM136.199 92.4351C136.041 92.4439 135.911 92.4725 135.81 92.5208C135.709 92.5648 135.632 92.6241 135.58 92.6988C135.531 92.7736 135.507 92.8593 135.507 92.956C135.507 93.0703 135.527 93.1692 135.566 93.2527C135.61 93.3318 135.683 93.3999 135.784 93.4571C135.885 93.5098 136.024 93.5582 136.199 93.6021V92.4351Z" fill="#F6CA7F"/>
<path d="M142.756 96.0285C142.514 96.0241 142.279 96.0043 142.051 95.9691C141.822 95.9296 141.637 95.8768 141.497 95.8109V95.2505C141.646 95.3208 141.837 95.3823 142.07 95.4351C142.303 95.4878 142.532 95.5164 142.756 95.5208V94.1889C142.541 94.1274 142.352 94.0615 142.189 93.9911C142.031 93.9164 141.901 93.8329 141.8 93.7406C141.699 93.6483 141.622 93.5428 141.569 93.4241C141.521 93.301 141.497 93.1604 141.497 93.0021C141.497 92.7868 141.547 92.6021 141.648 92.4483C141.754 92.2945 141.901 92.1736 142.09 92.0857C142.279 91.9934 142.501 91.9406 142.756 91.9274V91.3472H143.178V91.9208C143.411 91.9252 143.622 91.9516 143.811 92C144.004 92.0439 144.18 92.0989 144.338 92.1648L144.16 92.6527C144.02 92.5956 143.864 92.5472 143.692 92.5076C143.525 92.4637 143.354 92.4351 143.178 92.4219V93.7472C143.468 93.8307 143.71 93.9208 143.903 94.0175C144.097 94.1098 144.242 94.2263 144.338 94.367C144.44 94.5032 144.49 94.6812 144.49 94.901C144.49 95.2087 144.376 95.4593 144.147 95.6527C143.919 95.8417 143.596 95.9582 143.178 96.0021V96.734H142.756V96.0285ZM143.178 95.4878C143.437 95.4615 143.626 95.4021 143.745 95.3098C143.864 95.2131 143.923 95.09 143.923 94.9406C143.923 94.8307 143.901 94.7406 143.857 94.6703C143.813 94.5955 143.736 94.5318 143.626 94.4791C143.521 94.4263 143.371 94.3758 143.178 94.3274V95.4878ZM142.756 92.4351C142.598 92.4439 142.468 92.4725 142.367 92.5208C142.266 92.5648 142.189 92.6241 142.136 92.6988C142.088 92.7736 142.064 92.8593 142.064 92.956C142.064 93.0703 142.083 93.1692 142.123 93.2527C142.167 93.3318 142.24 93.3999 142.341 93.4571C142.442 93.5098 142.58 93.5582 142.756 93.6021V92.4351Z" fill="#F6CA7F"/>
<path d="M149.314 96.0285C149.072 96.0241 148.837 96.0043 148.608 95.9691C148.38 95.9296 148.195 95.8768 148.054 95.8109V95.2505C148.204 95.3208 148.395 95.3823 148.628 95.4351C148.861 95.4878 149.089 95.5164 149.314 95.5208V94.1889C149.098 94.1274 148.909 94.0615 148.747 93.9911C148.588 93.9164 148.459 93.8329 148.358 93.7406C148.256 93.6483 148.18 93.5428 148.127 93.4241C148.078 93.301 148.054 93.1604 148.054 93.0021C148.054 92.7868 148.105 92.6021 148.206 92.4483C148.311 92.2945 148.459 92.1736 148.648 92.0857C148.837 91.9934 149.059 91.9406 149.314 91.9274V91.3472H149.736V91.9208C149.969 91.9252 150.18 91.9516 150.369 92C150.562 92.0439 150.738 92.0989 150.896 92.1648L150.718 92.6527C150.577 92.5956 150.421 92.5472 150.25 92.5076C150.083 92.4637 149.911 92.4351 149.736 92.4219V93.7472C150.026 93.8307 150.267 93.9208 150.461 94.0175C150.654 94.1098 150.799 94.2263 150.896 94.367C150.997 94.5032 151.048 94.6812 151.048 94.901C151.048 95.2087 150.933 95.4593 150.705 95.6527C150.476 95.8417 150.153 95.9582 149.736 96.0021V96.734H149.314V96.0285ZM149.736 95.4878C149.995 95.4615 150.184 95.4021 150.303 95.3098C150.421 95.2131 150.481 95.09 150.481 94.9406C150.481 94.8307 150.459 94.7406 150.415 94.6703C150.371 94.5955 150.294 94.5318 150.184 94.4791C150.078 94.4263 149.929 94.3758 149.736 94.3274V95.4878ZM149.314 92.4351C149.155 92.4439 149.026 92.4725 148.925 92.5208C148.824 92.5648 148.747 92.6241 148.694 92.6988C148.645 92.7736 148.621 92.8593 148.621 92.956C148.621 93.0703 148.641 93.1692 148.681 93.2527C148.725 93.3318 148.797 93.3999 148.898 93.4571C148.999 93.5098 149.138 93.5582 149.314 93.6021V92.4351Z" fill="#F6CA7F"/>
<path d="M103.176 95.3879V93.4824H100.023V94.1912H102.466V99.7956H110.14L111.769 95.3932L103.176 95.3879Z" fill="#8BD8EA"/>
<path d="M104.556 100.716C104.556 100.829 104.522 100.939 104.459 101.033C104.397 101.127 104.307 101.2 104.203 101.243C104.099 101.286 103.984 101.298 103.873 101.275C103.763 101.253 103.661 101.199 103.581 101.119C103.501 101.039 103.447 100.937 103.425 100.827C103.403 100.716 103.414 100.601 103.458 100.497C103.501 100.393 103.574 100.303 103.668 100.241C103.762 100.178 103.872 100.145 103.985 100.145C104.06 100.145 104.134 100.159 104.204 100.188C104.273 100.217 104.336 100.259 104.389 100.312C104.442 100.365 104.484 100.428 104.513 100.497C104.541 100.567 104.556 100.641 104.556 100.716Z" fill="#8BD8EA"/>
<path d="M109.129 100.716C109.129 100.829 109.095 100.94 109.032 101.034C108.969 101.128 108.88 101.201 108.776 101.244C108.671 101.288 108.556 101.299 108.445 101.277C108.335 101.255 108.233 101.2 108.153 101.12C108.073 101.04 108.018 100.939 107.996 100.828C107.974 100.717 107.986 100.602 108.029 100.497C108.072 100.393 108.145 100.304 108.239 100.241C108.333 100.178 108.444 100.145 108.557 100.145C108.709 100.145 108.854 100.205 108.961 100.312C109.068 100.419 109.129 100.565 109.129 100.716Z" fill="#8BD8EA"/>
<path d="M106.351 27.2376L104.802 25.3777L103.747 26.2565L105.296 28.1165L106.175 29.1715L107.23 28.2926L110.783 25.3355L109.904 24.2805L106.351 27.2376Z" fill="#F5F5F5"/>
<path d="M106.351 45.0938L104.802 43.2338L103.747 44.1127L105.296 45.9727L106.175 47.0276L107.23 46.148L110.783 43.1909L109.904 42.136L106.351 45.0938Z" fill="#F5F5F5"/>
<path d="M106.351 62.9493L104.802 61.0893L103.747 61.9682L105.296 63.8282L106.175 64.8831L107.23 64.0042L110.783 61.0471L109.904 59.9922L106.351 62.9493Z" fill="#F5F5F5"/>
<path d="M102.14 157.542C100.921 156.246 99.7814 154.887 98.5544 153.598C90.8066 145.427 82.8141 137.491 74.6766 129.719C74.0437 129.117 73.3718 128.579 72.7316 127.994C72.216 127.528 72.2081 127.306 72.6373 126.807C72.7784 126.643 72.9498 126.511 73.1034 126.363C74.3931 125.143 75.6966 123.941 76.9698 122.706C77.4003 122.3 77.761 121.823 78.15 121.387C78.1032 121.294 78.0636 121.189 78.0181 121.098C77.5111 121.066 76.9955 121.028 76.4872 120.988C74.6753 120.872 72.847 120.817 71.043 120.629C67.3402 120.239 63.6459 119.755 59.9431 119.356C56.2403 118.957 52.6093 118.154 48.9375 117.536C47.0162 117.216 46.6054 116.919 47.0861 119.411C47.4681 120.834 47.3755 122.343 46.8224 123.708C46.0579 125.477 45.4541 127.311 45.0184 129.188C44.6191 129.079 44.1984 129.075 43.7973 129.177L43.9411 128.617C43.7195 128.863 43.5191 129.119 43.3187 129.374C42.8709 129.633 42.5169 130.027 42.3079 130.5C42.1971 130.734 42.1048 130.967 42 131.2C39.6086 134.698 37.1598 138.162 34.8877 141.734C32.0454 146.179 29.3658 150.733 26.6316 155.251C25.4916 157.132 25.4995 157.289 27.0272 158.943C29.4561 161.591 31.9161 164.207 34.3728 166.832C34.4196 166.887 34.5212 166.902 34.8251 167.05C34.8343 167.007 34.8436 166.964 34.8521 166.918C35.2021 167.107 35.5868 167.222 35.9829 167.258C35.6822 168.756 35.3827 170.254 35.0842 171.751C34.4664 174.806 33.8493 177.853 33.2796 180.916C32.4634 185.289 31.6939 189.671 30.8975 194.046C30.7095 195.076 30.6997 195.116 31.8304 195.148C34.6893 195.241 37.5435 195.351 40.407 195.357C51.8181 195.382 63.2306 195.365 74.6351 195.365C76.4548 195.365 78.2825 195.365 80.1023 195.373C83.7029 195.396 87.2963 195.435 90.8969 195.443C91.9288 195.451 91.9756 195.365 91.7132 194.412C90.6635 190.625 89.6356 186.833 88.5734 183.047C88.0816 181.304 87.5343 179.579 86.9726 177.712C86.577 178.062 86.331 178.295 86.0666 178.503C85.3552 179.065 85.017 179.002 84.5126 178.206C84.4512 178.093 84.3963 177.976 84.3484 177.856C81.9164 173.473 79.7182 168.965 77.763 164.349C76.6461 161.82 75.5476 159.281 74.4366 156.75C74.2724 156.383 74.0924 155.992 74.5612 155.75C75.03 155.508 75.2792 155.835 75.4592 156.226C75.7487 156.851 76.0612 157.469 76.3269 158.109C78.5924 163.576 81.0214 168.981 83.6726 174.277C84.1796 175.309 84.7816 176.3 85.4218 177.442C85.7963 177.021 86.0468 176.742 86.2961 176.466C88.0453 174.554 89.6857 172.53 91.5602 170.753C94.7315 167.737 97.7226 164.536 100.518 161.169C101.128 160.444 101.684 159.669 102.252 158.895C102.334 158.8 102.396 158.689 102.434 158.569C102.473 158.45 102.487 158.324 102.477 158.198C102.467 158.073 102.431 157.951 102.374 157.839C102.316 157.728 102.236 157.628 102.14 157.548V157.542Z" fill="#FC746C"/>
<path d="M134.409 88.1883C134.893 91.1408 134.292 94.0623 134.198 96.9984C134.128 99.1623 133.955 101.318 133.815 103.482C133.729 104.817 133.627 106.145 133.526 107.543C133.274 107.449 133.015 107.371 132.753 107.31C132.135 107.217 132.019 106.826 132.065 106.279C132.292 103.475 132.508 100.671 132.713 97.8667C132.76 97.2186 132.745 96.5619 132.783 95.9138C132.932 93.6252 133.089 91.3373 133.237 89.0488C133.273 88.6586 133.265 88.2656 133.214 87.8771C133.189 87.6157 133.08 87.3694 132.902 87.1761C132.724 86.9828 132.488 86.8532 132.23 86.807C131.932 86.7411 131.636 86.6659 131.339 86.6277C130.173 86.4866 129.019 86.3534 127.855 86.2374C126.87 86.1358 126.785 86.2057 126.442 87.1116C126.375 87.3184 126.291 87.5195 126.191 87.7129C126.087 87.9283 125.924 88.1098 125.721 88.2368C125.518 88.3638 125.283 88.4311 125.044 88.431C124.489 88.4237 124.216 88.0103 123.994 87.5798C123.946 87.4588 123.909 87.3334 123.885 87.2053C123.542 85.9703 123.448 85.8774 122.237 85.8609C120.807 85.8378 119.37 85.8378 117.94 85.8609C117.712 85.8344 117.481 85.8551 117.262 85.9215C117.042 85.988 116.839 86.0988 116.664 86.2472C116.489 86.3956 116.346 86.5783 116.245 86.784C116.144 86.9898 116.086 87.2142 116.075 87.4433C115.895 88.3762 115.762 89.3263 115.669 90.2705C115.247 94.5753 114.812 98.8867 114.434 103.199C114.208 105.83 114.091 108.473 113.927 111.111C113.849 112.407 113.739 113.704 113.716 115.001C113.693 116.188 113.88 116.5 115.035 116.696C116.394 116.922 117.784 116.985 119.159 117.086C120.62 117.188 122.081 117.25 123.69 117.336C123.456 118.07 123.294 118.476 122.581 118.469C119.893 118.502 117.209 118.271 114.566 117.781C114.441 117.75 114.308 117.743 114.184 117.703C112.733 117.289 112.332 116.829 112.403 115.336C112.52 112.822 112.724 110.325 112.904 107.815C113.02 106.136 113.13 104.449 113.294 102.768C113.482 100.87 113.725 98.9882 113.936 97.09C113.982 96.6595 114.006 96.2329 114.029 95.8004C114.216 92.5584 114.724 89.343 115.545 86.2011C115.888 84.8897 116.232 84.5607 117.623 84.5369C119.57 84.4617 121.521 84.4956 123.465 84.6385C126.394 84.8963 129.315 85.2866 132.22 85.7237C133.737 85.9618 134.159 86.6429 134.409 88.1883Z" fill="#4F9BA3"/>
<path d="M131.237 87.7659C131.853 87.8041 132.088 88.0389 132.053 88.6402C131.975 90.1566 131.936 91.6731 131.855 93.1896C131.815 94.0058 131.714 94.83 131.657 95.6496C131.459 98.8058 131.283 101.961 131.087 105.117C131.08 105.242 131.087 105.375 131.072 105.507C130.947 106.78 130.947 106.734 129.697 106.812C128.925 106.834 128.159 106.966 127.424 107.202C127.136 107.302 126.873 107.463 126.652 107.673C126.431 107.883 126.258 108.138 126.144 108.421C126.03 108.703 125.978 109.007 125.992 109.312C126.005 109.616 126.083 109.914 126.222 110.186C126.739 111.187 127.496 112.046 128.425 112.685C128.643 112.873 128.878 113.035 129.292 113.357C127.636 113.723 126.133 114.591 124.987 115.841C124.731 116.053 124.407 116.164 124.074 116.154C123.167 116.177 122.254 116.146 121.347 116.107C119.871 116.041 118.403 115.958 116.934 115.888C116.849 115.88 116.763 115.88 116.677 115.873C114.888 115.763 114.74 115.645 114.849 113.895C115.053 110.746 115.295 107.599 115.537 104.443C115.709 102.111 115.866 99.779 116.092 97.4601C116.412 94.2722 116.791 91.0942 117.141 87.9142C117.236 87.1178 117.329 87.0314 118.118 87.0162C119.375 86.9846 120.633 87.0083 121.891 86.9997C122.305 86.9925 122.642 87.0314 122.727 87.5549C122.798 87.8524 122.925 88.1335 123.102 88.383C123.286 88.7563 123.574 89.0683 123.932 89.2818C124.289 89.4952 124.701 89.601 125.117 89.5863C125.576 89.5977 126.028 89.4654 126.409 89.2077C126.79 88.95 127.081 88.5799 127.241 88.149C127.452 87.4494 127.824 87.3914 128.39 87.4619C129.346 87.578 130.291 87.7105 131.237 87.7659Z" fill="#FFEDD2"/>
<path d="M98.8917 49.2495C99.5787 49.8047 99.4851 50.7001 99.344 51.5467C98.9032 53.4511 98.025 55.2267 96.7792 56.733C95.3665 58.5972 93.7524 60.2999 91.966 61.8099C87.6217 65.6684 82.6879 68.8069 77.3519 71.1065C73.972 72.6781 70.3568 73.6838 66.6509 74.0834C65.3144 74.208 63.9799 74.3643 62.6434 74.4974C62.4597 74.4941 62.2774 74.5292 62.1081 74.6006C61.9388 74.6721 61.7864 74.7781 61.6606 74.9121C61.5348 75.046 61.4385 75.2048 61.3778 75.3782C61.3171 75.5516 61.2934 75.7358 61.3083 75.919C61.152 77.9009 61.0261 79.8947 60.8778 81.8793C60.823 82.5512 60.7367 83.2224 60.6443 84.0505C60.1057 83.6681 59.7305 83.3912 59.3481 83.1275C57.859 82.1625 56.0552 81.8091 54.3121 82.1407C52.569 82.4723 51.0209 83.4634 49.9902 84.9077C49.3933 85.6746 48.9675 86.5604 48.7413 87.5056C48.5151 88.4507 48.4938 89.4333 48.6787 90.3874C49.342 94.1186 51.7255 96.0656 55.1066 97.0895C55.9903 97.3026 56.8857 97.4642 57.7881 97.5735C58.5305 97.6981 58.6044 97.7845 58.398 98.5065C57.9318 100.124 57.465 101.749 56.9521 103.358C56.3514 105.248 55.6954 107.123 55.0618 109.004C54.984 109.254 54.8508 109.481 54.7888 109.73C54.6477 110.268 54.3516 110.378 53.8196 110.261C51.075 109.628 48.4414 108.585 46.0078 107.167C42.4753 105.106 39.497 102.216 37.3296 98.7471C35.8096 96.3215 34.7849 93.6191 34.3145 90.7955C33.8335 88.37 33.7493 85.8826 34.0652 83.4301C34.373 80.3553 35.4858 77.416 37.2914 74.9082C38.4252 73.3428 39.8754 72.0332 41.548 71.0644C43.2205 70.0957 45.0781 69.4893 47.0001 69.2847C48.5842 69.0508 50.1932 69.0402 51.7802 69.2531C52.2483 69.2481 52.7007 69.0837 53.0627 68.7869C61.1672 63.2628 68.2528 56.3754 74.0044 48.4306C75.7385 46.0485 77.4653 43.6663 79.2224 41.3184C80.3652 39.6583 82.0725 38.4702 84.0263 37.9756C84.8708 37.8115 85.7318 37.7484 86.5911 37.7877C86.9408 37.8096 87.2791 37.9201 87.5743 38.1088C87.8694 38.2975 88.1117 38.5582 88.2784 38.8663C88.6445 39.3802 88.89 39.9701 88.9968 40.592C89.1035 41.2139 89.0687 41.8518 88.8949 42.4584C88.7854 42.8256 88.6456 43.2008 89.0267 43.3571C89.3427 43.4265 89.673 43.3824 89.9597 43.2325C90.5616 42.9898 91.1161 42.639 91.7181 42.4162C92.2246 42.2631 92.7619 42.243 93.2784 42.3578C93.7949 42.4726 94.2731 42.7184 94.667 43.0716C95.061 43.4248 95.3574 43.8734 95.5276 44.3744C95.6979 44.8753 95.7363 45.4117 95.6392 45.9318C95.4986 47.1457 94.9758 48.2835 94.1465 49.181C93.8886 49.4071 93.5999 49.7196 93.8656 50.079C94.155 50.4462 94.5651 50.3295 94.9357 50.1489C95.4744 49.8759 96.013 49.595 96.5517 49.3326C96.8906 49.0909 97.2932 48.9541 97.7092 48.9393C98.1253 48.9246 98.5365 49.0324 98.8917 49.2495Z" fill="#4F9BA3"/>
<path d="M84.355 79.291C84.4369 81.238 84.4213 83.1879 84.3082 85.1334C84.0665 87.8351 82.8765 90.3642 80.9489 92.2726C80.6088 92.5584 80.2488 92.8195 79.8716 93.0539C79.8247 92.1968 79.77 91.5625 79.7621 90.9296C79.6039 87.0391 79.1314 83.1679 78.3491 79.3536C78.208 78.5572 78.2001 78.5374 78.9663 78.4965C80.3957 78.4187 81.8252 78.3402 83.252 78.3086C84.2614 78.2914 84.3478 78.3534 84.355 79.291Z" fill="#F5F5F5"/>
<path d="M134.573 109.606C133.704 108.917 132.696 108.424 131.619 108.16C130.542 107.895 129.421 107.867 128.331 108.075C128.144 108.075 127.96 108.121 127.795 108.211C127.631 108.301 127.492 108.43 127.39 108.588C127.289 108.746 127.229 108.926 127.216 109.113C127.203 109.3 127.238 109.487 127.316 109.657C127.431 110.026 127.631 110.363 127.899 110.642C128.754 111.568 129.785 112.314 130.932 112.836C131.25 112.97 131.547 113.149 131.815 113.367C131.886 113.468 131.936 113.582 131.963 113.702C131.99 113.822 131.992 113.946 131.971 114.067C131.939 114.199 131.658 114.325 131.471 114.364C131.221 114.426 130.947 114.364 130.698 114.411C129.883 114.499 129.08 114.669 128.299 114.918C127.203 115.393 126.23 116.113 125.455 117.022C124.681 117.932 124.125 119.007 123.832 120.165C123.715 120.54 123.634 120.923 123.519 121.29C123.426 121.62 123.183 121.892 122.871 121.727C122.763 121.641 122.677 121.532 122.619 121.407C122.561 121.283 122.532 121.147 122.535 121.009C122.582 119.618 122.601 119.618 121.279 119.54C120.928 119.517 120.579 119.54 120.239 119.51C118.294 119.33 116.342 119.236 114.421 118.939C111.944 118.564 111.031 117.331 111.203 114.814C111.296 113.479 111.46 112.143 111.569 110.808C111.623 110.225 111.64 109.659 111.671 109.089C111.577 109.057 111.483 109.034 111.397 109.003C110.882 109.784 110.327 110.549 109.858 111.354C109.159 112.566 108.887 113.976 109.085 115.361C109.325 117.12 109.839 118.83 110.608 120.43C111.702 122.781 112.749 125.156 113.851 127.5C114.005 127.809 114.075 128.153 114.056 128.498C114.037 128.843 113.928 129.177 113.741 129.468C113.042 130.709 112.382 131.982 111.687 133.226C109.093 137.874 106.508 142.523 103.875 147.145C102.656 149.286 101.335 151.372 100.062 153.488C100.93 154.488 101.781 155.47 102.64 156.441C104.163 158.167 104.171 158.213 102.813 160.056C102.735 160.164 102.656 160.265 102.579 160.375C99.4345 164.464 95.9415 168.273 92.1393 171.759C91.6118 172.243 91.1318 172.798 90.6162 173.329C90.7168 173.456 90.8292 173.573 90.9518 173.679C93.0379 174.997 95.1155 176.316 97.2247 177.608C97.8561 177.981 98.5193 178.297 99.2067 178.552C99.4827 178.71 99.7882 178.81 100.104 178.846C100.421 178.881 100.741 178.852 101.045 178.759C101.349 178.667 101.631 178.513 101.874 178.307C102.117 178.101 102.315 177.848 102.456 177.563C102.678 177.244 102.884 176.914 103.073 176.574C104.034 174.738 105.003 172.902 105.94 171.059C107.361 168.278 108.83 165.52 110.137 162.701C112.715 157.17 115.16 151.578 117.745 146.055C120.077 141.087 122.713 136.252 124.525 131.051C124.703 130.566 124.981 130.124 125.341 129.755C126.965 128.075 128.638 126.434 130.277 124.77C132.051 123.048 133.573 121.086 134.8 118.94C135.829 117.27 136.357 115.34 136.324 113.379C136.33 112.659 136.177 111.947 135.874 111.295C135.571 110.642 135.126 110.065 134.573 109.606Z" fill="#EAD6C1"/>
<path d="M79.8633 94.9453C79.504 96.8106 79.204 98.3501 78.8789 100.1C80.0901 99.6628 81.1365 99.3088 82.1598 98.9198C82.5817 98.7635 82.6121 98.4358 82.3477 98.1035C81.5664 97.1 80.7752 96.109 79.8633 94.9453Z" fill="#EAD6C1"/>
<path d="M77.871 83.4858C77.449 80.8379 76.9723 78.19 76.5042 75.5494C76.3552 74.7061 76.1541 73.87 75.9576 72.9641C75.3945 73.152 74.908 73.3234 74.4187 73.4711C73.2623 73.8212 72.115 74.1964 70.9348 74.4865C68.4128 75.106 65.8347 75.4696 63.2397 75.5718C62.701 75.5883 62.4901 75.8052 62.4432 76.3458C62.2327 79.0663 61.9995 81.7818 61.7437 84.4926C61.689 85.02 61.985 85.7506 61.3369 86.0236C60.6116 86.3282 60.3142 85.5864 59.9239 85.1559C57.3143 82.2739 53.9167 82.6023 51.4567 84.9765C49.519 86.8418 49.3469 89.1086 50.1671 91.5699C50.9649 93.96 52.8394 95.1164 55.0336 95.8516C56.1166 96.1329 57.2143 96.3544 58.3217 96.5149C59.5019 96.7727 59.8455 97.3061 59.5402 98.4758C59.1195 100.058 58.6573 101.641 58.1655 103.201C57.4323 105.505 56.6697 107.799 55.8776 110.081C55.8127 110.319 55.6995 110.542 55.545 110.735C55.3905 110.929 55.1979 111.088 54.9793 111.204C54.7606 111.319 54.5205 111.389 54.2739 111.408C54.0272 111.427 53.7793 111.395 53.5455 111.314C53.3042 111.268 53.0451 111.268 52.811 111.244C52.7411 111.369 52.6627 111.448 52.6712 111.517C52.8031 113.244 52.9383 114.971 53.0767 116.696C53.1163 117.134 53.4723 117.235 53.8191 117.298C54.6235 117.455 55.4279 117.618 56.2409 117.728C58.7312 118.087 61.2162 118.439 63.7032 118.767C65.2025 118.965 66.7104 119.149 68.2177 119.282C69.0854 119.36 69.1236 119.299 69.1506 118.466C69.1777 117.633 69.1737 116.818 69.1506 115.998C69.1038 114.794 69.026 113.591 68.9627 112.311C68.0298 112.544 67.2485 112.802 66.448 112.919C65.5908 113.029 64.7271 113.082 63.8628 113.075C63.665 113.075 63.4804 112.818 63.2799 112.68C63.4527 112.462 63.5694 112.134 63.7883 112.048C64.1252 111.965 64.4738 111.942 64.8188 111.978C66.2515 111.94 67.6588 111.591 68.943 110.954C71.4314 109.7 73.5402 107.804 75.0517 105.463C77.0376 102.348 78.2455 98.8012 78.5739 95.1217C78.7678 92.8745 78.7393 90.6137 78.4888 88.3721C78.3833 86.7356 78.1374 85.1018 77.871 83.4858Z" fill="#EAD6C1"/>
<path d="M33.7152 167.947C33.4422 167.853 33.2932 167.416 33.0835 167.143C31.3332 165.042 29.4493 163.055 27.4436 161.196C26.6155 163.702 25.85 166.047 25.07 168.383C24.7301 169.23 24.6484 170.159 24.8352 171.053C25.022 171.947 25.4689 172.765 26.1196 173.406C27.9783 175.397 29.7519 177.475 31.5717 179.506C31.7586 179.689 31.9624 179.853 32.1803 179.998C32.2487 179.865 32.3065 179.726 32.353 179.584C33.0163 176.271 33.6882 172.96 34.331 169.648C34.4418 169.009 34.6679 168.283 33.7152 167.947Z" fill="#EAD6C1"/>
<g opacity="0.2">
<path d="M40.9018 103.966L44.5162 107.187L50.3724 109.725L52.4236 110.507L54.9621 110.994L59.0625 97.7164L58.0867 97.0333L52.0326 95.0803L49.4942 91.3703V86.9784L51.8368 83.7569L55.0596 82.5853L59.4528 83.7569L61.3082 85.7099L61.891 76.824C64.8007 77.0309 67.725 76.8348 70.581 76.2412C72.7232 75.7536 74.8152 75.0669 76.8296 74.19L76.4392 72.4328L85.6178 67.2584L91.7681 63.0611L97.5294 57.2022L100.167 51.9308L99.1896 48.708C99.1896 48.708 86.8871 62.1802 81.0315 65.012C75.176 67.8439 62.4798 72.9241 59.3552 73.2135C56.2306 73.503 56.9157 77.3139 55.4506 79.2675C53.9856 81.2211 45.6866 90.3008 40.1218 92.5465L34.5557 94.7922L37.5886 100.358L40.9018 103.966Z" fill="black"/>
<path d="M78.7869 99.1817L77.7129 101.135L83.1801 98.4004L78.7869 99.1817Z" fill="black"/>
<path d="M84.8401 82.8762L84.4498 77.6016L83.8669 77.7994C84.0603 80.1969 83.8291 82.6097 83.1839 84.9268C82.5929 87.1927 81.414 89.2625 79.7665 90.9267L79.6689 93.9069L82.2087 91.954L84.3562 88.1456L84.8401 82.8762Z" fill="black"/>
<path d="M67.5608 112.073C66.4156 112.535 65.1729 112.702 63.9463 112.56C64.0167 113.105 64.2119 113.627 64.5166 114.084C64.8214 114.542 65.2275 114.923 65.7034 115.198C67.266 115.979 69.9007 117.053 69.9007 117.053L69.608 111.976L71.5609 109.633C70.4313 110.741 69.0629 111.575 67.5608 112.072V112.073Z" fill="black"/>
<path d="M77.8093 121.541C77.8093 121.541 65.4092 122.518 61.2119 122.908C57.887 123.086 54.5527 122.955 51.252 122.518C51.252 122.518 63.4562 130.912 67.8507 131.496C70.6997 131.815 73.5835 131.583 76.3449 130.813L73.0219 127.01L78.9776 121.347L77.8093 121.541Z" fill="black"/>
<path d="M32.3099 181.097L32.9929 180.316L40.905 142.141L43.835 131.889L30.1618 162.939L27.3306 159.815L26.2559 162.548C26.2559 162.548 28.8932 166.356 28.8932 169.285C28.8932 172.214 28.6954 176.901 28.6954 176.901L32.3099 181.097Z" fill="black"/>
<path d="M136.489 111.092L135.318 109.434C135.318 109.434 135.025 115.78 133.17 118.412C131.315 121.044 123.214 128.859 123.214 128.859L101.44 171.039L96.5606 166.742L100.319 162.201L87.7684 172.31L74.7795 156.4C74.7795 156.4 77.1228 167.725 76.7325 172.314C76.3421 176.904 68.4334 189.011 54.1779 189.011C39.9225 189.011 32.2102 183.348 32.2102 183.348L30.0938 195.682L92.7127 196.333L87.2442 176.936L89.7662 173.682L99.6766 179.539L101.532 179.441L103.485 177.489L125.254 130.72L131.698 124.666L135.798 118.125L136.964 114.121L136.489 111.092Z" fill="black"/>
<path d="M120.445 122.517C121.942 122.319 123.048 120.433 123.048 120.433L124.214 117.83L126.557 114.966L130.522 113.729L131.369 113.795C131.632 113.625 131.831 113.373 131.937 113.078C132.042 112.783 132.047 112.461 131.951 112.163C131.692 110.991 126.611 109.43 126.611 109.43L128.629 112.228L129.735 113.205V113.595L126.285 114.636L124.724 116.459L117.237 116.393L111.844 114.637L111.646 116.198C111.646 116.198 111.844 119.323 113.279 120.629C114.714 121.935 118.95 122.712 120.445 122.517Z" fill="black"/>
<path d="M116.279 127.269C116.411 126.423 115.824 126.359 114.522 126.033C113.221 125.706 111.266 123.033 111.266 123.033H111.006L113.804 128.436C113.804 128.436 116.149 128.115 116.279 127.269Z" fill="black"/>
</g>
<path d="M79.2009 51.6566C77.0778 50.2575 74.4635 52.5203 72.9049 53.839C70.435 56.1089 68.2488 58.6692 66.3939 61.4642C65.8355 62.2323 66.6036 63.1699 67.4001 63.2134C68.0332 63.2417 68.6659 63.1507 69.2653 62.9451C69.5157 63.0047 69.7788 62.9791 70.013 62.8725C72.9886 61.5038 76.4086 59.7512 78.5758 57.2023C79.8081 55.7563 81.2843 53.0313 79.2009 51.6566Z" fill="#F5F5F5"/>
<path d="M62.1487 66.0703C62.0163 65.8505 61.8162 65.6795 61.5785 65.583C61.3408 65.4865 61.0781 65.4696 60.83 65.5349C60.4715 65.6127 60.1241 65.7345 59.7955 65.8976C59.388 65.911 59.001 66.0794 58.7134 66.3685C58.4259 66.6575 58.2594 67.0454 58.248 67.4529C58.2569 67.8468 58.3996 68.2259 58.6525 68.5278C58.9055 68.8298 59.2537 69.0367 59.6399 69.1145C60.0353 69.1862 60.4427 69.1512 60.82 69.0129C61.1973 68.8746 61.5309 68.6381 61.7862 68.3278C62.0416 68.0176 62.2095 67.6447 62.2726 67.2479C62.3358 66.851 62.2918 66.4445 62.1454 66.0703H62.1487Z" fill="#F5F5F5"/>
<path d="M43.3494 73.1943C42.7062 73.2359 42.0857 73.4482 41.5518 73.8093C41.0179 74.1704 40.5899 74.6673 40.3118 75.2488C39.8739 75.7482 39.5333 76.3252 39.3077 76.9499C38.9266 78.0048 38.6965 79.696 40.0132 80.1853C41.1789 80.6191 42.6169 79.6934 43.447 78.9391C44.429 78.0969 45.1485 76.9905 45.5199 75.7512C45.5708 75.4365 45.5529 75.1144 45.4673 74.8072C45.3817 74.5 45.2304 74.2151 45.024 73.972C44.8176 73.729 44.561 73.5336 44.2718 73.3993C43.9825 73.265 43.6683 73.1951 43.3494 73.1943Z" fill="#F5F5F5"/>
<path d="M56.6286 84.4858C56.6108 84.4733 56.6029 84.4555 56.5844 84.4436C55.5097 83.7671 53.6286 84.5365 52.782 85.3159C52.4266 85.6455 51.9506 86.231 52.1444 86.748C52.3482 87.2985 52.9607 87.284 53.4104 87.0776C54.1813 86.6018 55.0692 86.3491 55.9752 86.3477C56.2457 86.3986 56.5254 86.3573 56.7697 86.2305C57.014 86.1037 57.2088 85.8987 57.3229 85.6482C57.6011 84.9058 57.2055 84.5827 56.6286 84.4858Z" fill="#F5F5F5"/>
<path d="M51.9084 88.3492C51.9151 88.2714 51.9125 88.193 51.9005 88.1158C51.7653 87.4617 50.866 87.6391 50.7757 88.2022C50.7283 88.3017 50.7035 88.4104 50.7031 88.5206C50.7032 88.6482 50.745 88.7722 50.8223 88.8737C50.8996 88.9751 51.0081 89.0485 51.131 89.0824L51.1871 89.0903C51.336 89.1279 51.4937 89.1065 51.6273 89.0308C51.761 88.955 51.8602 88.8306 51.9044 88.6835L51.915 88.6426C51.9392 88.5458 51.9371 88.4443 51.909 88.3485L51.9084 88.3492Z" fill="#F5F5F5"/>
<path d="M34.4202 145.255C33.3706 144.996 32.555 146.502 32.0348 147.227C31.6218 147.79 31.2378 148.374 30.8842 148.976C29.5471 150.856 28.5429 152.874 30.2249 153.05C31.4842 153.182 32.5893 151.694 33.1398 150.768C34.1276 149.294 34.718 147.589 34.8541 145.82C34.8518 145.692 34.8084 145.568 34.7303 145.466C34.6522 145.364 34.5435 145.291 34.4202 145.255Z" fill="#F5F5F5"/>
<path d="M36.8247 141.984C36.7121 141.924 36.5834 141.9 36.4567 141.916C36.33 141.932 36.2115 141.988 36.1179 142.075L36.052 142.141C36.0322 142.159 36.0276 142.178 36.0111 142.196C35.9196 142.243 35.8433 142.316 35.7909 142.405C35.6936 142.556 35.6265 142.724 35.5931 142.901C35.5714 142.987 35.5694 143.078 35.5873 143.165C35.6052 143.252 35.6425 143.334 35.6965 143.405C35.7504 143.476 35.8196 143.534 35.899 143.574C35.9783 143.615 36.0658 143.637 36.1548 143.639C36.9506 143.692 37.7412 142.387 36.8247 141.984Z" fill="#F5F5F5"/>
<path d="M83.5605 139.632C82.5557 138.568 80.6595 136.283 78.9762 137.146C77.2619 138.025 78.8351 139.812 79.4423 140.838C80.0689 142.219 80.952 143.467 82.0447 144.518C83.2572 145.779 84.5001 146.248 85.2999 144.363C86.0568 142.576 84.721 140.859 83.5605 139.632Z" fill="#F5F5F5"/>
<path d="M88.7516 147.897C88.5664 147.694 88.3224 147.554 88.0539 147.497C87.7853 147.44 87.5056 147.467 87.2536 147.577C87.1291 147.584 87.0106 147.633 86.9167 147.715C85.598 148.881 87.7329 151.413 88.7516 150.172C89.0025 149.846 89.1385 149.446 89.1385 149.034C89.1385 148.623 89.0025 148.223 88.7516 147.897Z" fill="#F5F5F5"/>
<path d="M110.173 143.204C109.193 142.374 107.997 143.779 107.587 144.506C107.263 145.076 106.963 145.672 106.669 146.255C105.796 147.206 105.183 148.365 104.889 149.622C104.747 150.762 105.471 151.774 106.716 151.29C108.115 150.745 109.137 148.469 109.683 147.214C110.046 146.369 111.136 144.016 110.173 143.204Z" fill="#F5F5F5"/>
<path d="M113.554 138.237C113.552 138.148 113.53 138.06 113.489 137.981C113.449 137.902 113.391 137.832 113.32 137.778C113.249 137.725 113.167 137.687 113.08 137.669C112.993 137.651 112.903 137.653 112.816 137.675L112.461 137.746C112.401 137.704 112.332 137.676 112.259 137.665C112.187 137.653 112.113 137.658 112.043 137.679C111.972 137.7 111.908 137.737 111.854 137.786C111.8 137.836 111.758 137.897 111.731 137.965C111.426 138.637 111.163 140.09 112.258 140.207C113.232 140.305 113.638 138.992 113.554 138.237Z" fill="#F5F5F5"/>
<path d="M129.44 116.538C129.105 116.465 128.758 116.474 128.427 116.565C128.097 116.657 127.794 116.827 127.544 117.061C127.073 117.232 126.657 117.526 126.339 117.913C126.021 118.3 125.814 118.765 125.738 119.26C125.692 119.599 125.88 120.036 126.3 119.998C126.622 119.947 126.93 119.827 127.201 119.646C127.472 119.465 127.701 119.227 127.871 118.949C128.034 118.721 128.253 118.539 128.506 118.421C128.822 118.335 129.124 118.209 129.408 118.047C129.907 117.684 130.12 116.841 129.44 116.538Z" fill="#F5F5F5"/>
<path d="M132.223 108.965L132.095 108.921C132.073 108.828 132.028 108.742 131.962 108.671C131.897 108.601 131.815 108.549 131.724 108.52C131.364 108.396 130.973 108.396 130.613 108.52C130.491 108.555 130.384 108.628 130.308 108.729C130.232 108.831 130.19 108.954 130.19 109.08C130.19 109.207 130.232 109.33 130.308 109.431C130.384 109.533 130.491 109.606 130.613 109.641L131.913 110.089C132.624 110.335 132.929 109.209 132.223 108.965Z" fill="#F5F5F5"/>
<path d="M115.768 123.499C115.288 123.366 114.848 123.117 114.486 122.774C114.356 122.64 114.199 122.535 114.024 122.468C113.85 122.4 113.663 122.372 113.477 122.383C113.35 122.387 113.227 122.43 113.127 122.507C113.026 122.583 112.952 122.69 112.915 122.811C112.745 123.651 113.498 124.057 114.276 124.309C114.468 124.5 114.712 124.631 114.977 124.687C115.242 124.743 115.517 124.722 115.77 124.625C115.892 124.59 115.999 124.517 116.076 124.416C116.152 124.315 116.193 124.191 116.193 124.065C116.193 123.938 116.152 123.815 116.076 123.714C115.999 123.613 115.892 123.539 115.77 123.504L115.768 123.499Z" fill="#F5F5F5"/>
<path d="M117.398 124.41V124.483C117.398 124.637 117.46 124.785 117.569 124.895C117.678 125.004 117.827 125.065 117.981 125.065C118.136 125.065 118.284 125.004 118.393 124.895C118.503 124.785 118.564 124.637 118.564 124.483V124.41C118.564 124.255 118.503 124.107 118.393 123.998C118.284 123.889 118.136 123.827 117.981 123.827C117.827 123.827 117.678 123.889 117.569 123.998C117.46 124.107 117.398 124.255 117.398 124.41Z" fill="#F5F5F5"/>
<path d="M123.156 84.5501C121.011 84.5501 118.87 84.3681 116.733 84.2204C115.985 84.169 115.988 85.3353 116.733 85.3861C118.872 85.5344 121.011 85.7158 123.156 85.7158C123.311 85.7158 123.459 85.6544 123.568 85.5451C123.678 85.4358 123.739 85.2875 123.739 85.1329C123.739 84.9783 123.678 84.8301 123.568 84.7208C123.459 84.6115 123.311 84.5501 123.156 84.5501Z" fill="#F5F5F5"/>
<path d="M125.56 84.5479H125.489C125.335 84.5479 125.186 84.6093 125.077 84.7186C124.968 84.8279 124.906 84.9761 124.906 85.1307C124.906 85.2853 124.968 85.4335 125.077 85.5428C125.186 85.6521 125.335 85.7136 125.489 85.7136H125.562C125.716 85.7136 125.864 85.6521 125.974 85.5428C126.083 85.4335 126.144 85.2853 126.144 85.1307C126.144 84.9761 126.083 84.8279 125.974 84.7186C125.864 84.6093 125.716 84.5479 125.562 84.5479H125.56Z" fill="#F5F5F5"/>
<path d="M131.84 85.1389C131.089 84.9833 130.334 84.8493 129.576 84.7367C128.841 84.6293 128.526 85.7521 129.266 85.8576C130.006 85.9631 130.782 86.1035 131.53 86.2598C132.262 86.4213 132.575 85.2906 131.84 85.1389Z" fill="#F5F5F5"/>
<path d="M137.47 113.48C137.476 115.745 136.828 117.964 135.605 119.87C134.484 121.779 133.125 123.537 131.559 125.103C129.849 126.877 128.076 128.601 126.357 130.368C126.018 130.699 125.752 131.096 125.575 131.534C123.694 136.898 120.967 141.886 118.58 147.022C116.015 152.552 113.55 158.131 110.965 163.653C109.646 166.472 108.167 169.214 106.745 171.988C105.812 173.792 104.864 175.602 103.91 177.394C103.696 177.769 103.456 178.129 103.192 178.471C102.767 179.168 102.096 179.678 101.311 179.901C100.526 180.124 99.6863 180.043 98.9587 179.675C96.9644 178.835 95.0571 177.801 93.264 176.59C92.3033 176.007 91.3888 175.348 90.4447 174.724C89.7649 174.287 89.6871 174.31 89.1398 174.889C87.6893 176.451 87.7183 176.443 88.2959 178.333C89.0772 180.898 89.8196 183.476 90.5462 186.043C91.2728 188.611 91.9756 191.214 92.6857 193.799C92.8664 194.462 93.0695 195.118 93.2257 195.799C93.3893 196.517 93.2409 196.69 92.4279 196.69C91.2095 196.682 89.999 196.612 88.7805 196.603C83.1006 196.58 77.4164 196.558 71.7281 196.537C68.6899 196.522 65.6622 196.444 62.6207 196.452C57.9335 196.467 53.2476 196.584 48.5683 196.577C42.6627 196.56 36.7662 196.467 30.8692 196.405C30.6528 196.41 30.4364 196.401 30.221 196.381C29.5881 196.303 29.3382 196.031 29.4298 195.448C29.6329 194.261 29.8755 193.081 30.1017 191.893C30.4689 189.893 30.8441 187.893 31.2107 185.893C31.4296 184.746 31.6261 183.589 31.8753 182.449C31.9658 182.156 31.9625 181.843 31.8659 181.553C31.7692 181.263 31.5842 181.011 31.3366 180.831C28.7266 178.416 26.3686 175.741 24.2989 172.849C23.9358 172.385 23.6889 171.841 23.5788 171.262C23.4687 170.683 23.4985 170.087 23.6659 169.522C24.1973 167.834 24.6549 166.124 25.1653 164.429C25.5325 163.187 25.8997 161.937 26.331 160.719C26.4083 160.544 26.4308 160.351 26.3954 160.163C26.3601 159.976 26.2686 159.803 26.1332 159.669C25.709 159.18 25.3276 158.655 24.9932 158.1C24.7956 157.811 24.6823 157.472 24.6659 157.122C24.6494 156.772 24.7306 156.425 24.9002 156.118C25.1811 155.591 25.4461 155.041 25.7573 154.525C29.8043 147.768 33.7643 140.957 38.255 134.481C40.299 131.529 42.3172 128.553 44.3486 125.593C44.6842 125.102 45.0271 124.616 45.3481 124.116C46.2019 122.545 46.3984 120.701 45.8947 118.986C45.6728 118.233 45.7194 117.427 46.0266 116.705C46.0832 116.522 46.2034 116.366 46.3653 116.264C46.5272 116.162 46.7203 116.122 46.9095 116.15C47.3862 116.181 47.8622 116.216 48.331 116.291C49.44 116.479 50.5463 116.687 51.8149 116.916C51.8149 116.45 51.838 116.112 51.8149 115.767C51.7219 114.346 51.5888 112.916 51.5175 111.496C51.5314 111.302 51.4762 111.111 51.3617 110.954C51.2472 110.798 51.0809 110.688 50.8925 110.643C50.276 110.44 49.6905 110.167 49.0806 109.943C44.465 108.106 40.4517 105.02 37.4895 101.032C35.3401 98.1392 33.8787 94.7945 33.2164 91.252C32.6984 88.8722 32.5719 86.4238 32.8419 84.0033C33.0699 80.0323 34.5894 76.2447 37.1691 73.2172C38.4853 71.6818 40.1037 70.4338 41.9233 69.5512C43.7429 68.6685 45.7248 68.1701 47.7455 68.0869C48.7835 68.0231 49.8245 68.0258 50.8622 68.0949C51.6332 68.1611 52.4007 67.9323 53.0096 67.4546C60.5733 62.214 67.21 55.7487 72.6466 48.3247C74.498 45.8192 76.3171 43.2946 78.1764 40.7865C79.59 38.7295 81.7365 37.2906 84.1764 36.7646C84.9802 36.5893 85.8071 36.5448 86.6251 36.6327C87.3669 36.7148 88.0665 37.019 88.6324 37.5055C89.1983 37.992 89.6041 38.6381 89.7965 39.3591C90.0299 40.0784 90.1321 40.8518 90.297 41.6094C94.4211 39.8674 98.2637 43.1951 96.3629 48.0049C96.9332 47.9581 97.4798 47.8652 98.0349 47.8652C98.3508 47.8262 98.6713 47.8567 98.9742 47.9545C99.277 48.0524 99.5548 48.2153 99.788 48.4318C100.021 48.6483 100.204 48.9132 100.325 49.2079C100.445 49.5026 100.499 49.82 100.484 50.1379C100.6 51.6136 100.288 53.0914 99.5857 54.3945C98.0025 57.2904 95.9181 59.8823 93.4295 62.0501C88.8145 66.2568 83.5397 69.6766 77.8158 72.1728C77.2692 72.4142 77.0345 72.639 77.2329 73.3214C77.4942 74.4152 77.6889 75.5238 77.8158 76.6412C77.8148 76.7621 77.8405 76.8817 77.8911 76.9916C77.9417 77.1015 78.0158 77.1988 78.1083 77.2768C78.2008 77.3547 78.3093 77.4113 78.4262 77.4425C78.543 77.4737 78.6653 77.4788 78.7843 77.4574C79.3863 77.4027 79.9863 77.3315 80.5883 77.2932C81.6735 77.2273 82.7522 77.1521 83.8381 77.1449C84.8456 77.137 85.1746 77.3941 85.377 78.3633C85.5148 79.087 85.5905 79.8211 85.6032 80.5576C85.7338 82.7245 85.5771 84.8992 85.137 87.025C84.5673 89.4912 83.2598 91.7253 81.3887 93.4298C80.6463 94.1175 80.6311 94.1096 81.2324 94.8671C81.8496 95.6484 82.4891 96.4146 83.0977 97.1992C83.3115 97.4712 83.4876 97.7709 83.6212 98.09C83.9509 98.926 83.8006 99.4179 82.9797 99.7937C81.9623 100.269 80.9132 100.674 79.8399 101.004C79.3817 101.099 78.9553 101.31 78.6013 101.616C78.2472 101.922 77.9773 102.314 77.8171 102.753C76.4216 106.235 73.9926 109.206 70.8572 111.265C70.6307 111.385 70.4427 111.567 70.3145 111.789C70.1863 112.011 70.123 112.265 70.1319 112.521C70.1978 114.428 70.2413 116.341 70.2881 118.248C70.3112 119.489 70.3198 119.513 71.6161 119.632C72.6466 119.717 73.6936 119.741 74.7327 119.812C76.1074 119.905 77.4973 119.975 78.872 120.116C79.7397 120.203 80.0285 120.858 79.5597 121.593C79.4112 121.806 79.2382 122.002 79.0441 122.175C77.5751 123.643 76.1153 125.119 74.6312 126.573C73.9316 127.252 73.6541 127.244 74.6147 128.135C82.5828 135.598 90.2409 143.366 97.8602 151.178C98.1899 151.528 98.5248 151.865 98.8492 152.209C98.8861 152.263 98.937 152.307 98.9965 152.335C99.0561 152.363 99.1222 152.375 99.1878 152.368C99.2533 152.362 99.3159 152.338 99.369 152.299C99.4221 152.26 99.4637 152.207 99.4894 152.147C99.92 151.499 100.365 150.857 100.747 150.185C104.606 143.367 108.464 136.551 112.323 129.737C112.582 129.373 112.735 128.944 112.764 128.498C112.793 128.053 112.697 127.608 112.488 127.213C111.582 125.4 110.847 123.495 109.923 121.684C108.87 119.642 108.177 117.434 107.876 115.156C107.722 113.632 108.069 112.099 108.865 110.789C109.471 109.541 110.294 108.409 111.294 107.447C111.504 107.226 111.667 106.966 111.774 106.682C111.882 106.398 111.931 106.095 111.919 105.791C112.279 102.033 112.591 98.2746 112.958 94.5269C113.218 91.6803 113.682 88.8561 114.348 86.0762C114.391 85.6736 114.513 85.2835 114.708 84.9287C114.903 84.5738 115.166 84.2614 115.483 84.0097C115.801 83.758 116.165 83.5721 116.554 83.4627C116.944 83.3534 117.352 83.3229 117.754 83.373C120.661 83.2971 123.569 83.4329 126.457 83.7791C128.385 84.0534 130.323 84.2795 132.245 84.5835C132.707 84.5999 133.161 84.7089 133.58 84.9038C134 85.0988 134.376 85.3759 134.686 85.7187C134.997 86.0615 135.236 86.463 135.388 86.8996C135.541 87.3362 135.605 87.799 135.575 88.2606C135.672 90.1212 135.667 91.9857 135.56 93.8458C135.459 96.3994 135.248 98.9537 135.094 101.5C134.986 103.453 134.923 105.398 134.79 107.342C134.748 107.614 134.78 107.892 134.882 108.147C134.985 108.403 135.154 108.626 135.372 108.793C136.046 109.371 136.583 110.09 136.945 110.9C137.308 111.71 137.487 112.59 137.469 113.478L137.47 113.48ZM134.815 118.932C135.843 117.262 136.372 115.332 136.338 113.371C136.342 112.652 136.185 111.941 135.88 111.289C135.575 110.638 135.128 110.063 134.573 109.606C133.704 108.917 132.697 108.424 131.62 108.16C130.543 107.895 129.421 107.867 128.332 108.075C128.145 108.075 127.96 108.121 127.796 108.211C127.631 108.301 127.492 108.43 127.391 108.588C127.29 108.746 127.23 108.926 127.217 109.113C127.204 109.3 127.238 109.487 127.317 109.657C127.432 110.026 127.631 110.363 127.899 110.642C128.754 111.568 129.786 112.314 130.932 112.836C131.251 112.97 131.548 113.149 131.815 113.367C131.886 113.468 131.936 113.582 131.963 113.702C131.99 113.822 131.993 113.946 131.972 114.067C131.94 114.199 131.659 114.325 131.471 114.364C131.222 114.426 130.948 114.364 130.698 114.411C129.884 114.499 129.08 114.669 128.3 114.918C127.203 115.393 126.231 116.113 125.456 117.022C124.682 117.932 124.126 119.007 123.832 120.165C123.715 120.54 123.634 120.923 123.52 121.29C123.427 121.62 123.184 121.892 122.871 121.727C122.764 121.641 122.678 121.532 122.62 121.407C122.561 121.283 122.533 121.147 122.536 121.009C122.583 119.618 122.602 119.618 121.278 119.54C120.928 119.517 120.578 119.54 120.239 119.51C118.294 119.33 116.342 119.235 114.421 118.939C111.944 118.564 111.03 117.331 111.202 114.814C111.295 113.479 111.46 112.143 111.568 110.808C111.623 110.225 111.64 109.659 111.671 109.089C111.577 109.057 111.483 109.034 111.397 109.003C110.881 109.784 110.327 110.55 109.858 111.354C109.159 112.566 108.887 113.976 109.085 115.361C109.325 117.12 109.839 118.83 110.608 120.43C111.702 122.781 112.749 125.156 113.85 127.5C114.004 127.809 114.075 128.153 114.056 128.498C114.037 128.843 113.928 129.177 113.741 129.468C113.041 130.709 112.381 131.982 111.686 133.226C109.093 137.874 106.507 142.523 103.875 147.145C102.656 149.286 101.335 151.371 100.062 153.488C100.929 154.488 101.781 155.47 102.64 156.441C104.163 158.167 104.171 158.213 102.812 160.056C102.735 160.164 102.656 160.265 102.579 160.375C99.4353 164.463 95.9434 168.271 92.1425 171.756C91.615 172.24 91.135 172.795 90.6194 173.327C90.72 173.453 90.8324 173.57 90.955 173.676C93.0411 174.995 95.1187 176.313 97.2279 177.605C97.8594 177.978 98.5226 178.294 99.2099 178.549C99.4859 178.707 99.7915 178.808 100.108 178.843C100.424 178.879 100.744 178.85 101.049 178.757C101.353 178.664 101.635 178.51 101.878 178.305C102.121 178.099 102.319 177.845 102.46 177.56C102.682 177.241 102.887 176.911 103.076 176.571C104.037 174.735 105.006 172.899 105.943 171.056C107.365 168.275 108.834 165.518 110.14 162.698C112.718 157.168 115.163 151.575 117.748 146.053C120.08 141.085 122.716 136.249 124.528 131.048C124.706 130.563 124.984 130.121 125.345 129.752C126.969 128.072 128.641 126.431 130.28 124.767C132.06 123.046 133.588 121.082 134.819 118.934L134.815 118.932ZM134.198 96.9981C134.291 94.0621 134.898 91.1406 134.409 88.1881C134.16 86.6406 133.737 85.9608 132.214 85.7268C129.308 85.2896 126.384 84.8987 123.458 84.6415C121.514 84.4987 119.564 84.4648 117.616 84.54C116.225 84.5631 115.881 84.8901 115.538 86.2041C114.717 89.3461 114.209 92.5615 114.022 95.8034C113.999 96.2339 113.975 96.6605 113.928 97.0931C113.717 98.9913 113.475 100.873 113.287 102.771C113.122 104.451 113.014 106.138 112.896 107.818C112.717 110.323 112.514 112.824 112.396 115.339C112.326 116.832 112.726 117.292 114.176 117.706C114.301 117.746 114.434 117.753 114.559 117.784C117.201 118.275 119.886 118.505 122.573 118.472C123.283 118.479 123.448 118.076 123.682 117.339C122.074 117.254 120.613 117.19 119.151 117.089C117.777 116.988 116.387 116.925 115.027 116.699C113.872 116.501 113.684 116.191 113.709 115.004C113.732 113.708 113.84 112.411 113.92 111.114C114.084 108.476 114.2 105.833 114.427 103.202C114.802 98.8878 115.243 94.5737 115.662 90.2736C115.755 89.3294 115.888 88.3753 116.067 87.4463C116.078 87.2172 116.136 86.9929 116.237 86.7871C116.339 86.5813 116.481 86.3986 116.656 86.2502C116.831 86.1019 117.035 85.991 117.254 85.9246C117.474 85.8581 117.704 85.8375 117.932 85.8639C119.362 85.8408 120.799 85.8408 122.229 85.8639C123.44 85.8804 123.534 85.9734 123.878 87.2083C123.902 87.3364 123.938 87.4619 123.987 87.5828C124.214 88.0134 124.487 88.4268 125.037 88.434C125.276 88.4341 125.511 88.3668 125.713 88.2399C125.916 88.1129 126.079 87.9313 126.184 87.716C126.283 87.5224 126.367 87.3211 126.434 87.114C126.777 86.2081 126.864 86.1382 127.847 86.2397C129.013 86.3564 130.168 86.489 131.331 86.6301C131.629 86.6683 131.925 86.7468 132.222 86.8094C132.481 86.8556 132.717 86.9852 132.895 87.1785C133.072 87.3718 133.182 87.618 133.206 87.8795C133.257 88.268 133.265 88.6609 133.23 89.0511C133.081 91.3397 132.925 93.6276 132.776 95.9161C132.738 96.5643 132.753 97.221 132.706 97.8691C132.495 100.673 132.279 103.478 132.058 106.282C132.011 106.828 132.128 107.215 132.746 107.312C133.008 107.373 133.266 107.451 133.518 107.545C133.62 106.146 133.721 104.819 133.808 103.485C133.955 101.322 134.128 99.166 134.197 97.0021L134.198 96.9981ZM132.057 88.6404C132.089 88.0384 131.854 87.8044 131.241 87.7661C130.296 87.7114 129.351 87.5782 128.406 87.4615C127.836 87.3903 127.473 87.4536 127.257 88.1485C127.097 88.5795 126.806 88.9496 126.425 89.2073C126.044 89.4649 125.593 89.5973 125.133 89.5859C124.717 89.6004 124.306 89.4946 123.948 89.2812C123.591 89.0678 123.302 88.7558 123.118 88.3826C122.941 88.1331 122.814 87.8519 122.743 87.5545C122.658 87.031 122.321 86.9927 121.907 86.9993C120.65 87.0072 119.392 86.9841 118.135 87.0158C117.344 87.0309 117.252 87.1173 117.158 87.9138C116.798 91.0931 116.424 94.2718 116.108 97.4596C115.882 99.7785 115.726 102.114 115.553 104.443C115.311 107.598 115.069 110.746 114.866 113.894C114.756 115.643 114.904 115.759 116.693 115.872C116.779 115.879 116.866 115.879 116.951 115.887C118.42 115.957 119.888 116.044 121.364 116.106C122.271 116.145 123.183 116.176 124.091 116.153C124.423 116.164 124.748 116.053 125.004 115.841C126.149 114.59 127.653 113.723 129.308 113.357C128.894 113.036 128.66 112.872 128.441 112.684C127.512 112.045 126.756 111.187 126.239 110.185C126.1 109.914 126.022 109.616 126.009 109.311C125.995 109.007 126.047 108.703 126.161 108.42C126.275 108.138 126.448 107.883 126.669 107.673C126.89 107.462 127.153 107.302 127.441 107.202C128.176 106.965 128.942 106.834 129.714 106.812C130.967 106.733 130.967 106.78 131.089 105.507C131.104 105.375 131.097 105.243 131.104 105.117C131.302 101.96 131.479 98.8053 131.674 95.6491C131.729 94.8329 131.83 94.01 131.872 93.1891C131.942 91.6727 131.98 90.1562 132.059 88.6397L132.057 88.6404ZM102.242 158.91C102.326 158.814 102.39 158.703 102.431 158.583C102.471 158.462 102.487 158.335 102.478 158.208C102.468 158.082 102.434 157.958 102.376 157.845C102.318 157.732 102.238 157.632 102.141 157.55C100.922 156.254 99.7822 154.894 98.5551 153.606C90.8073 145.435 82.8148 137.499 74.6773 129.727C74.0444 129.125 73.3725 128.587 72.7323 128.001C72.2167 127.535 72.2088 127.314 72.638 126.815C72.7791 126.651 72.9505 126.519 73.1042 126.37C74.3938 125.15 75.6987 123.948 76.9705 122.713C77.4011 122.308 77.7617 121.831 78.1507 121.395C78.1039 121.302 78.0643 121.197 78.0188 121.105C77.5118 121.074 76.9962 121.035 76.4879 120.996C74.676 120.879 72.8477 120.824 71.0437 120.637C67.3409 120.246 63.6467 119.762 59.9438 119.363C56.241 118.965 52.6101 118.161 48.9382 117.544C47.0169 117.224 46.6062 116.927 47.0868 119.419C47.4689 120.842 47.3763 122.35 46.8231 123.716C45.3317 126.995 44.7699 130.581 43.8093 134.026C42.5895 138.393 41.551 142.813 40.4816 147.219C39.4319 151.533 38.4106 155.874 37.4487 160.216C36.6054 164.052 35.8557 167.918 35.083 171.768C34.4652 174.823 33.848 177.869 33.2784 180.933C32.4621 185.306 31.6927 189.688 30.8962 194.063C30.7083 195.093 30.6984 195.133 31.8291 195.164C34.688 195.257 37.5423 195.368 40.4058 195.375C51.8167 195.399 63.226 195.401 74.6338 195.383C76.4536 195.383 78.2813 195.383 80.101 195.391C83.703 195.414 87.295 195.457 90.8957 195.46C91.9275 195.468 91.9743 195.383 91.7119 194.43C90.6623 190.641 89.6343 186.851 88.5722 183.065C88.0803 181.323 87.5331 179.596 86.9713 177.73C86.5757 178.08 86.3298 178.313 86.0654 178.521C85.3539 179.083 85.0157 179.02 84.5113 178.224C84.4499 178.11 84.3951 177.993 84.3471 177.873C81.9152 173.491 79.717 168.982 77.7617 164.367C76.6448 161.837 75.5463 159.299 74.4354 156.767C74.2712 156.4 74.0912 156.01 74.56 155.768C75.0288 155.526 75.278 155.853 75.458 156.243C75.7474 156.868 76.0593 157.486 76.3257 158.126C78.5911 163.594 81.0201 168.999 83.6713 174.295C84.1783 175.326 84.7803 176.317 85.4205 177.459C85.795 177.039 86.0456 176.76 86.2948 176.484C88.044 174.571 89.6845 172.547 91.5589 170.77C94.7307 167.754 97.7222 164.554 100.518 161.186C101.121 160.46 101.68 159.682 102.242 158.91ZM99.345 51.5462C99.4861 50.7023 99.5784 49.8043 98.8927 49.2491C98.5389 49.0329 98.1295 48.9251 97.715 48.9389C97.3006 48.9527 96.8993 49.0876 96.5607 49.3269C96.022 49.5906 95.4833 49.8735 94.9446 50.1432C94.5774 50.3238 94.1633 50.4405 93.8745 50.0733C93.6108 49.7139 93.8976 49.4014 94.1554 49.1753C94.9849 48.2776 95.5077 47.1395 95.6481 45.9254C95.7452 45.4053 95.7068 44.869 95.5366 44.368C95.3663 43.8671 95.0699 43.4184 94.676 43.0652C94.2821 42.712 93.8038 42.4662 93.2874 42.3514C92.7709 42.2366 92.2335 42.2567 91.7271 42.4098C91.1251 42.6432 90.5706 42.9927 89.9686 43.2261C89.682 43.376 89.3516 43.4201 89.0357 43.3507C88.6533 43.1944 88.793 42.8193 88.9038 42.452C89.0777 41.8454 89.1125 41.2075 89.0058 40.5856C88.899 39.9637 88.6535 39.3738 88.2873 38.86C88.1207 38.5518 87.8784 38.2911 87.5832 38.1024C87.288 37.9137 86.9497 37.8032 86.6001 37.7813C85.7407 37.7421 84.8797 37.8051 84.0353 37.9692C82.0815 38.4639 80.3742 39.6519 79.2314 41.312C77.4742 43.6639 75.7474 46.046 74.0134 48.4243C68.2617 56.369 61.1762 63.2564 53.0716 68.7806C52.7096 69.0774 52.2573 69.2418 51.7892 69.2467C50.2022 69.0338 48.5931 69.0444 47.009 69.2784C45.087 69.4829 43.2295 70.0893 41.5569 71.0581C39.8843 72.0269 38.4341 73.3364 37.3003 74.9018C35.4947 77.4096 34.382 80.3489 34.0742 83.4237C33.7582 85.8762 33.8424 88.3637 34.3234 90.7892C34.7925 93.6129 35.8159 96.3158 37.3346 98.7421C39.5021 102.212 42.4808 105.102 46.0141 107.164C48.4477 108.582 51.0813 109.625 53.8259 110.258C54.3573 110.375 54.654 110.265 54.7951 109.727C54.8571 109.477 54.9929 109.25 55.0681 109.001C55.701 107.12 56.3577 105.243 56.9584 103.355C57.4746 101.746 57.9355 100.12 58.4043 98.5034C58.6153 97.7854 58.5362 97.699 57.7944 97.5704C56.892 97.4611 55.9966 97.2995 55.1129 97.0865C51.7318 96.0625 49.3483 94.1195 48.685 90.3843C48.5001 89.4303 48.5214 88.4477 48.7476 87.5025C48.9738 86.5574 49.3996 85.6716 49.9965 84.9046C51.0272 83.4603 52.5753 82.4692 54.3184 82.1376C56.0615 81.806 57.8653 82.1594 59.3544 83.1244C59.7368 83.3881 60.112 83.6631 60.6507 84.0475C60.7436 83.2193 60.83 82.5481 60.884 81.8763C61.0324 79.8943 61.1583 77.9005 61.3146 75.9159C61.2997 75.7327 61.3234 75.5485 61.3841 75.3751C61.4448 75.2017 61.5411 75.0429 61.6669 74.909C61.7927 74.7751 61.9451 74.669 62.1144 74.5976C62.2837 74.5261 62.4661 74.491 62.6498 74.4944C63.9862 74.3625 65.3207 74.2049 66.6572 74.0803C70.3628 73.6791 73.9772 72.6718 77.3562 71.0988C82.6923 68.7992 87.626 65.6607 91.9704 61.8022C93.7567 60.2922 95.3708 58.5895 96.7835 56.7253C98.0269 55.2203 98.9034 53.4468 99.3437 51.5449L99.345 51.5462ZM84.3043 85.1327C84.4173 83.1873 84.433 81.2374 84.3511 79.2904C84.3438 78.3574 84.2581 78.2908 83.2507 78.306C81.8212 78.3376 80.3918 78.4154 78.965 78.4939C78.1988 78.5321 78.2074 78.5598 78.3479 79.351C79.1301 83.1653 79.6026 87.0365 79.7608 90.927C79.7687 91.5599 79.8267 92.1922 79.8703 93.0513C80.2475 92.8168 80.6075 92.5557 80.9476 92.27C82.8764 90.362 84.0676 87.8329 84.3102 85.1307L84.3043 85.1327ZM82.1568 98.9194C82.5788 98.7632 82.6091 98.4355 82.3447 98.1032C81.5634 97.1029 80.7742 96.112 79.8604 94.9482C79.501 96.8135 79.201 98.353 78.876 100.103C80.0918 99.6625 81.1382 99.3117 82.1614 98.9194H82.1568ZM78.5865 95.1243C78.7804 92.8771 78.752 90.6163 78.5015 88.3747C78.3848 86.7356 78.1342 85.1017 77.8685 83.4857C77.4465 80.8378 76.9698 78.1899 76.5017 75.5493C76.3527 74.706 76.1516 73.87 75.9551 72.964C75.3921 73.152 74.9055 73.3234 74.4162 73.4711C73.2598 73.8212 72.1125 74.1963 70.9323 74.4864C68.4103 75.106 65.8322 75.4696 63.2372 75.5717C62.6985 75.5882 62.4876 75.8051 62.4407 76.3458C62.2302 79.0662 61.997 81.7818 61.7412 84.4925C61.6865 85.02 61.9825 85.7505 61.3344 86.0235C60.6091 86.3281 60.3118 85.5863 59.9214 85.1558C57.3118 82.2739 53.9142 82.6022 51.4542 84.9765C49.5165 86.8417 49.3444 89.1085 50.1646 91.5698C50.9624 93.9599 52.8369 95.1164 55.0311 95.8515C56.1141 96.1329 57.2118 96.3543 58.3192 96.5148C59.4994 96.7726 59.843 97.306 59.5377 98.4757C59.117 100.058 58.6548 101.64 58.163 103.201C57.4298 105.505 56.6672 107.798 55.8751 110.081C55.8102 110.319 55.697 110.542 55.5425 110.735C55.388 110.929 55.1954 111.088 54.9768 111.204C54.7581 111.319 54.518 111.389 54.2714 111.408C54.0248 111.427 53.7768 111.395 53.543 111.314C53.3017 111.267 53.0426 111.267 52.8085 111.244C52.7386 111.369 52.6602 111.447 52.6687 111.517C52.8006 113.244 52.9358 114.971 53.0742 116.696C53.1138 117.134 53.4698 117.235 53.8166 117.298C54.621 117.455 55.4254 117.618 56.2384 117.728C58.7287 118.087 61.2137 118.439 63.7007 118.767C65.2001 118.965 66.708 119.149 68.2152 119.282C69.0829 119.36 69.1211 119.299 69.1482 118.466C69.1752 117.633 69.1712 116.818 69.1482 115.997C69.1013 114.794 69.0235 113.591 68.9602 112.31C68.0273 112.544 67.246 112.802 66.4455 112.919C65.5883 113.029 64.7246 113.082 63.8603 113.075C63.6625 113.075 63.4779 112.818 63.2774 112.68C63.4502 112.461 63.5669 112.134 63.7858 112.048C64.1227 111.965 64.4714 111.942 64.8163 111.978C66.249 111.94 67.6563 111.591 68.9405 110.954C71.4289 109.7 73.5377 107.804 75.0492 105.463C77.041 102.352 78.2557 98.8076 78.5911 95.1289L78.5865 95.1243ZM43.9411 128.63C43.3723 129.275 42.8476 129.958 42.3706 130.674C39.8651 134.361 37.2779 137.992 34.8871 141.75C32.0448 146.195 29.3652 150.749 26.631 155.267C25.491 157.149 25.4989 157.305 27.0266 158.959C29.4555 161.607 31.9155 164.223 34.3722 166.848C34.5155 166.936 34.667 167.009 34.8245 167.067C37.3247 154.048 40.6972 141.357 43.9411 128.63ZM34.3254 169.645C34.4421 169.013 34.6682 168.287 33.7155 167.951C33.4425 167.857 33.2935 167.42 33.0839 167.147C31.3338 165.045 29.4501 163.059 27.4446 161.2C26.6164 163.705 25.851 166.05 25.071 168.386C24.731 169.234 24.6493 170.163 24.836 171.056C25.0228 171.95 25.4698 172.769 26.1206 173.409C27.9793 175.4 29.7529 177.478 31.5727 179.509C31.7596 179.692 31.9634 179.857 32.1812 180.001C32.2497 179.868 32.3074 179.729 32.354 179.587C33.0133 176.265 33.6865 172.954 34.328 169.642L34.3254 169.645Z" fill="#3C3372"/>
</g>
<defs>
<clipPath id="clip0_2669_355">
<rect width="180.81" height="199.981" fill="white" transform="translate(0.00976562 0.458008)"/>
</clipPath>
</defs>
</svg>
