<svg width="600" height="600" viewBox="0 0 600 600" fill="none" xmlns="http://www.w3.org/2000/svg">
<mask id="mask0_1937_29880" style="mask-type:luminance" maskUnits="userSpaceOnUse" x="0" y="0" width="600" height="600">
<path d="M600 0H0V600H600V0Z" fill="white"/>
</mask>
<g mask="url(#mask0_1937_29880)">
<path d="M600 0H0V577.5H600V0Z" fill="white"/>
<path opacity="0.4" d="M418.152 173.993C384.504 163.29 344.796 158.194 309.552 156.458C245.082 153.427 181.195 169.904 126.233 203.738C97.0307 221.805 70.1543 245.429 54.8891 276.19C16.5863 353.381 76.7999 424.125 152.334 439.16C190.427 446.741 229.718 443.58 268.481 441.125C318.853 437.934 369.423 435.989 419.779 439.428C438.985 440.74 458.515 442.812 477.306 438.629C521.306 428.834 552.125 384.801 556.386 339.927C558.062 321.186 555.943 302.299 550.158 284.395C544.372 266.49 535.037 249.936 522.711 235.719C511.918 223.633 499.364 213.243 485.473 204.899C464.366 191.911 441.76 181.533 418.152 173.993Z" fill="#AFAFAF"/>
<g style="mix-blend-mode:multiply">
<path d="M476.248 235.08L467.086 241.313L481.338 245.091V257.138L488.298 248.655L504.077 252.666L519.687 218.115L476.248 235.08Z" fill="#A7A9AC"/>
</g>
<path d="M479.799 241.31V252.662L489.541 242.35L479.799 241.31Z" fill="white"/>
<path d="M482.242 242.351L520.609 211.44L502.32 247.504L482.242 242.351Z" fill="white"/>
<path d="M520.609 211.44L466.44 235.62L482.238 242.351L520.609 211.44Z" fill="white"/>
<path d="M482.242 242.351L479.799 241.31L520.609 211.44L482.242 242.351Z" fill="#19365A"/>
<path d="M477.272 260.4C465.799 270.646 449.75 274.486 434.371 274.236C427.668 274.127 420.847 273.276 414.778 270.432C411.558 269.064 408.782 266.828 406.759 263.974C405.768 262.539 405.149 260.88 404.959 259.147C404.768 257.414 405.012 255.66 405.667 254.044C407.13 250.891 410.978 248.84 414.269 249.964C417.802 251.171 419.521 255.515 418.767 259.173C418.014 262.831 415.364 265.816 412.438 268.135C405.091 273.955 395.557 276.578 386.186 276.689C376.815 276.801 367.553 274.551 358.706 271.453" stroke="#244E80" stroke-width="0.85" stroke-linecap="round" stroke-linejoin="round" stroke-dasharray="2.84 2.84"/>
<path d="M213.461 247.56C214.784 247.608 216.104 247.404 217.351 246.96C218.251 246.544 219.055 245.945 219.71 245.201C224.39 240.149 222.652 230.742 216.481 227.691C210.311 224.639 201.781 228.967 200.603 235.75C200.349 234.682 199.77 233.72 198.946 232.994C198.123 232.269 197.095 231.817 196.004 231.7C194.913 231.583 193.812 231.807 192.853 232.341C191.894 232.875 191.125 233.692 190.65 234.682C189.217 229.234 186.773 223.817 182.418 220.243C178.063 216.67 171.474 215.413 166.706 218.413C160.663 222.217 159.866 230.628 160.339 237.754C160.027 233.037 150.672 238.141 149.746 240.461C145.906 237.645 138.625 240.667 142.115 245.346C145.052 249.285 155.195 248.532 159.338 248.518C177.379 248.457 195.427 248.029 213.461 247.56Z" fill="white"/>
<path d="M457.44 157.177C458.763 157.225 460.082 157.022 461.329 156.577C462.23 156.162 463.034 155.563 463.689 154.818C468.369 149.766 466.629 140.359 460.459 137.308C454.289 134.256 445.76 138.585 444.582 145.367C444.327 144.3 443.749 143.337 442.925 142.612C442.101 141.887 441.073 141.435 439.982 141.318C438.891 141.201 437.79 141.424 436.832 141.958C435.873 142.492 435.103 143.31 434.628 144.299C433.196 138.851 430.752 133.434 426.397 129.861C422.042 126.287 415.452 125.029 410.684 128.031C404.641 131.835 403.844 140.245 404.317 147.371C404.006 142.654 394.65 147.759 393.723 150.078C389.883 147.262 382.604 150.285 386.094 154.963C389.031 158.902 399.174 158.149 403.317 158.135C421.357 158.075 439.405 157.648 457.44 157.177Z" fill="#FED5D2"/>
<path d="M357.881 381.559L376.673 383.614C379.223 383.893 381.558 385.174 383.164 387.175C384.77 389.175 385.516 391.732 385.237 394.282L380.207 440.27L342.183 436.111L347.213 390.123C347.492 387.573 348.773 385.238 350.774 383.632C352.774 382.026 355.331 381.28 357.881 381.559Z" fill="#B0B0B0"/>
<path d="M338.011 380.502C334.341 379.4 331.019 377.365 328.37 374.595C322.043 368.169 319.082 358.375 319.572 345.483C319.572 345.469 319.572 345.456 319.572 345.442C315.1 344.949 310.597 344.788 306.101 344.962C305.282 366.493 312.845 378.562 319.438 384.896C323.808 389.224 329.257 392.304 335.219 393.818C335.669 393.91 336.127 393.956 336.587 393.957C338.272 393.965 339.9 393.348 341.155 392.224C342.41 391.1 343.204 389.55 343.381 387.874C343.558 386.198 343.107 384.517 342.115 383.155C341.123 381.793 339.66 380.847 338.011 380.502Z" fill="#A05E47"/>
<path d="M335.4 394.182C337.229 394.555 339.131 394.189 340.69 393.164C342.25 392.138 343.339 390.537 343.721 388.71C343.909 387.809 343.917 386.881 343.745 385.977C343.573 385.073 343.225 384.212 342.719 383.444C342.214 382.675 341.562 382.014 340.8 381.498C340.038 380.982 339.182 380.622 338.281 380.438C334.493 379.3 331.065 377.199 328.331 374.341C327.213 373.199 326.199 371.96 325.301 370.638L315.21 380.62C316.401 382.165 317.705 383.619 319.11 384.972C323.622 389.439 329.246 392.619 335.4 394.182Z" fill="#FF8A83"/>
<path d="M319.212 338.227C319.174 337.646 318.984 337.086 318.659 336.603C318.489 336.368 318.241 336.201 317.958 336.135C317.676 336.069 317.379 336.107 317.123 336.243C316.392 336.747 316.783 337.923 316.415 338.732C316.25 339.023 316.015 339.267 315.731 339.443C315.447 339.619 315.122 339.719 314.789 339.736C314.123 339.762 313.456 339.741 312.793 339.673C311.19 339.673 309.638 340.234 308.405 341.258C307.171 342.283 306.335 343.706 306.041 345.281C305.9 345.873 305.992 346.497 306.299 347.023C306.562 347.298 306.876 347.518 307.225 347.67C307.573 347.823 307.949 347.905 308.329 347.912C310.34 348.285 312.386 348.428 314.429 348.339C316.262 348.19 319.298 347.68 319.589 345.555C319.791 343.106 319.664 340.642 319.212 338.227Z" fill="#A05E47"/>
<path d="M309.031 346.836C308.941 346.735 308.861 346.626 308.791 346.51C308.76 346.457 308.75 346.393 308.764 346.333C308.779 346.273 308.816 346.22 308.868 346.186C308.894 346.17 308.923 346.158 308.954 346.153C308.985 346.148 309.016 346.149 309.046 346.156C309.077 346.163 309.105 346.177 309.13 346.195C309.155 346.213 309.176 346.237 309.192 346.263C309.257 346.404 309.357 346.525 309.481 346.617C309.605 346.71 309.75 346.769 309.904 346.791C310.422 346.82 310.996 346.237 311.173 346.01C311.194 345.985 311.219 345.965 311.247 345.95C311.275 345.934 311.306 345.925 311.338 345.922C311.37 345.92 311.403 345.923 311.433 345.933C311.464 345.943 311.492 345.959 311.516 345.98C311.644 346.133 311.807 346.252 311.991 346.328C312.175 346.404 312.375 346.435 312.574 346.417C313.031 346.305 313.258 345.71 313.26 345.704C313.276 345.663 313.303 345.627 313.338 345.6C313.373 345.573 313.414 345.556 313.458 345.552C313.502 345.548 313.546 345.556 313.586 345.576C313.626 345.596 313.659 345.626 313.682 345.663C313.746 345.8 313.837 345.922 313.95 346.021C314.064 346.119 314.197 346.193 314.341 346.237C314.42 346.25 314.501 346.248 314.579 346.23C314.657 346.212 314.73 346.178 314.795 346.131C316.715 344.752 314.375 340.262 314.351 340.218C314.329 340.19 314.313 340.158 314.304 340.124C314.296 340.089 314.296 340.053 314.303 340.019C314.31 339.984 314.324 339.952 314.346 339.923C314.367 339.895 314.394 339.872 314.425 339.855C314.457 339.839 314.491 339.829 314.526 339.827C314.562 339.826 314.597 339.832 314.63 339.845C314.662 339.859 314.692 339.88 314.715 339.906C314.739 339.932 314.757 339.963 314.767 339.997C314.873 340.197 317.322 344.896 315.078 346.507C314.962 346.592 314.831 346.652 314.691 346.686C314.552 346.719 314.407 346.724 314.266 346.701C313.967 346.639 313.699 346.473 313.512 346.232C313.328 346.542 313.033 346.771 312.688 346.873C312.455 346.914 312.216 346.9 311.99 346.833C311.764 346.765 311.556 346.646 311.384 346.484C311.199 346.708 310.97 346.893 310.711 347.027C310.453 347.16 310.17 347.24 309.88 347.262C309.717 347.251 309.558 347.208 309.412 347.135C309.266 347.062 309.137 346.96 309.031 346.836Z" fill="#632A1A"/>
<path d="M313.303 345.945C313.273 345.911 313.252 345.87 313.244 345.825C312.962 343.873 312.505 341.951 311.88 340.081C311.857 340.053 311.841 340.021 311.832 339.986C311.824 339.951 311.823 339.915 311.83 339.88C311.837 339.845 311.852 339.812 311.873 339.784C311.895 339.755 311.923 339.732 311.954 339.715C311.986 339.699 312.021 339.689 312.057 339.688C312.092 339.687 312.128 339.694 312.161 339.708C312.193 339.722 312.223 339.743 312.246 339.77C312.27 339.797 312.287 339.829 312.296 339.863C312.949 341.777 313.421 343.748 313.706 345.751C313.712 345.8 313.702 345.849 313.678 345.893C313.654 345.936 313.617 345.971 313.572 345.992C313.528 346.014 313.478 346.021 313.429 346.013C313.38 346.005 313.335 345.982 313.3 345.947L313.303 345.945Z" fill="#632A1A"/>
<path d="M311.182 346.313C311.151 346.28 311.131 346.238 311.124 346.193C310.811 344.295 310.33 342.428 309.684 340.616C309.661 340.589 309.644 340.557 309.635 340.523C309.626 340.489 309.624 340.453 309.63 340.418C309.637 340.383 309.65 340.35 309.671 340.321C309.691 340.293 309.718 340.269 309.749 340.251C309.78 340.234 309.814 340.223 309.849 340.221C309.884 340.218 309.92 340.224 309.953 340.236C309.986 340.249 310.016 340.269 310.04 340.294C310.065 340.32 310.083 340.351 310.094 340.384C310.773 342.242 311.274 344.159 311.592 346.111C311.597 346.16 311.588 346.209 311.564 346.252C311.541 346.296 311.504 346.331 311.46 346.353C311.416 346.375 311.366 346.382 311.317 346.375C311.268 346.367 311.223 346.345 311.188 346.311L311.182 346.313Z" fill="#632A1A"/>
<path d="M315.606 345.178C315.579 345.148 315.56 345.112 315.55 345.073C315.541 345.034 315.542 344.994 315.552 344.955C315.599 344.793 315.68 344.644 315.791 344.518C315.901 344.391 316.038 344.29 316.192 344.222C315.922 343.629 315.708 343.012 315.554 342.378C315.387 341.7 315.41 340.988 315.62 340.322C315.7 340.039 315.865 339.788 316.092 339.602C316.28 339.476 316.497 339.402 316.723 339.387C316.948 339.373 317.174 339.418 317.376 339.519C317.734 339.705 318.045 339.971 318.286 340.295C318.963 341.119 319.45 342.083 319.71 343.118C319.724 343.15 319.732 343.185 319.731 343.22C319.731 343.255 319.722 343.29 319.707 343.322C319.691 343.354 319.669 343.382 319.641 343.404C319.614 343.426 319.582 343.442 319.547 343.45C319.513 343.458 319.477 343.459 319.443 343.452C319.408 343.444 319.376 343.43 319.347 343.409C319.319 343.387 319.296 343.36 319.279 343.329C319.263 343.298 319.253 343.263 319.252 343.228C319.009 342.26 318.554 341.358 317.92 340.588C317.725 340.319 317.472 340.098 317.179 339.942C317.054 339.877 316.914 339.845 316.773 339.85C316.632 339.856 316.495 339.898 316.375 339.974C316.225 340.103 316.117 340.275 316.066 340.467C315.883 341.053 315.866 341.677 316.014 342.273C316.167 342.891 316.379 343.494 316.645 344.073C316.675 344.124 316.692 344.182 316.695 344.241C316.698 344.3 316.688 344.359 316.665 344.413C316.642 344.467 316.606 344.515 316.561 344.554C316.516 344.592 316.463 344.619 316.405 344.633C316.309 344.671 316.222 344.73 316.152 344.807C316.082 344.883 316.03 344.974 316.001 345.074C315.983 345.133 315.943 345.184 315.889 345.215C315.835 345.245 315.771 345.254 315.71 345.238C315.671 345.227 315.635 345.207 315.606 345.178Z" fill="#632A1A"/>
<path d="M326.664 390.361L329.95 432.877C337.165 436.263 345.195 437.53 353.102 436.529C366.654 434.954 369.622 428.969 369.622 428.969C369.622 428.969 367.28 387.253 366.887 386.839C366.493 386.425 364.89 372.718 345.287 375.518C325.684 378.317 326.664 390.361 326.664 390.361Z" fill="#FF8A83"/>
<path d="M354.97 392.025C354.97 392.025 365.843 410.364 358.849 430.727C358.849 430.727 370.037 414.615 369.622 409.302C369.206 403.99 354.97 392.025 354.97 392.025Z" fill="#EE3F36"/>
<path d="M380.186 406.528L364.186 381.129C363.217 379.617 361.691 378.548 359.938 378.157C358.186 377.766 356.349 378.083 354.83 379.041C353.311 379.998 352.231 381.517 351.828 383.266C351.424 385.016 351.728 386.854 352.674 388.381L366.714 410.662L356.852 432.113C356.852 432.113 361.696 437.96 369.212 437.797L380.612 412.996C381.085 411.968 381.294 410.838 381.219 409.708C381.145 408.579 380.79 407.486 380.186 406.528Z" fill="#A05E47"/>
<path d="M354.169 368.021L349.922 379.027L343.07 381.688L339.302 376.786L341.856 370.167L354.169 368.021Z" fill="#A05E47"/>
<path d="M350.653 373.041L340.933 372.571L339.574 376.094C344.628 377.308 350.653 373.041 350.653 373.041Z" fill="#774031"/>
<path d="M353.536 348.615L348.99 346.861C345.086 345.355 340.701 347.299 339.195 351.202L334.343 363.778C332.837 367.681 334.78 372.067 338.684 373.573L343.23 375.327C347.134 376.833 351.519 374.89 353.025 370.986L357.877 358.41C359.383 354.507 357.44 350.121 353.536 348.615Z" fill="#A05E47"/>
<path opacity="0.3" d="M353.537 348.615L348.99 346.86C347.364 346.24 345.575 346.195 343.92 346.734C342.265 347.273 340.845 348.364 339.898 349.823C340.54 350.899 341.458 351.782 342.557 352.383C344.699 353.371 347.092 353.682 349.416 353.274C350.311 353.087 351.232 353.066 352.134 353.213C352.583 353.298 352.992 353.527 353.299 353.866C353.606 354.205 353.793 354.635 353.832 355.09C353.783 355.465 353.647 355.824 353.434 356.136C353.221 356.449 352.937 356.707 352.606 356.89C352.194 357.113 351.817 357.396 351.488 357.73C351.15 358.231 350.96 358.818 350.941 359.422C350.535 360.887 350.596 362.441 351.115 363.87C351.634 365.298 352.585 366.53 353.836 367.392C353.98 367.512 354.126 367.632 354.276 367.738L357.876 358.406C358.592 356.531 358.537 354.45 357.724 352.616C356.912 350.782 355.406 349.343 353.537 348.615Z" fill="#171E26"/>
<path d="M357.698 367.928C357.524 368.381 357.219 368.772 356.822 369.051C356.425 369.331 355.954 369.486 355.469 369.498C354.984 369.51 354.506 369.378 354.096 369.118C353.686 368.858 353.362 368.483 353.165 368.039C352.969 367.596 352.908 367.103 352.991 366.625C353.074 366.147 353.297 365.704 353.632 365.353C353.966 365.001 354.398 364.757 354.871 364.65C355.345 364.544 355.839 364.581 356.292 364.755C356.593 364.871 356.868 365.045 357.101 365.267C357.335 365.489 357.522 365.756 357.653 366.05C357.783 366.345 357.855 366.662 357.862 366.985C357.87 367.307 357.815 367.627 357.698 367.928Z" fill="#A05E47"/>
<path d="M364.186 381.129C363.217 379.617 361.691 378.548 359.938 378.157C358.186 377.766 356.349 378.083 354.83 379.041C353.311 379.998 352.231 381.517 351.828 383.266C351.424 385.016 351.728 386.854 352.674 388.381L359.884 399.826C364.164 398.231 368.231 396.113 371.993 393.521L364.186 381.129Z" fill="#FF8A83"/>
<path d="M368.29 440.221C367.985 440.996 367.496 441.685 366.866 442.228C366.544 442.491 366.14 442.634 365.724 442.631C365.308 442.628 364.905 442.481 364.586 442.214C364.289 441.902 364.128 441.432 363.728 441.272C363.226 441.072 362.707 441.486 362.186 441.632C361.697 441.723 361.19 441.635 360.76 441.384C360.33 441.132 360.004 440.735 359.843 440.264C359.775 439.941 359.613 439.645 359.376 439.414C358.776 439.002 357.859 439.79 357.266 439.366C356.811 439.042 356.94 438.255 356.495 437.918C356.255 437.737 355.919 437.749 355.64 437.629C355.416 437.508 355.233 437.324 355.114 437.099C354.994 436.875 354.943 436.62 354.968 436.366C355.028 435.859 355.188 435.37 355.441 434.926C355.789 434.206 356.138 433.486 356.486 432.766C356.665 432.33 356.925 431.932 357.253 431.593C357.672 431.307 358.147 431.113 358.647 431.025C359.147 430.937 359.659 430.955 360.151 431.08C362.088 431.265 363.976 431.798 365.724 432.655C367.189 433.384 368.398 434.542 369.188 435.975C369.84 437.304 368.88 439.006 368.29 440.221Z" fill="#A05E47"/>
<path d="M98.3387 384.288H117.244C119.809 384.288 122.269 385.307 124.084 387.121C125.898 388.935 126.917 391.395 126.917 393.961V440.223H88.6655V393.961C88.6655 391.395 89.6847 388.935 91.4987 387.121C93.3128 385.307 95.7732 384.288 98.3387 384.288Z" fill="#B0B0B0"/>
<path d="M127.265 384.241C128.89 383.455 130.761 383.346 132.466 383.94C134.172 384.533 135.571 385.78 136.357 387.405L146.934 409.275L171.774 400.035C173.078 408.403 176.556 412.167 176.556 412.167L145.969 424.232C144.376 424.843 142.611 424.834 141.024 424.206C139.437 423.578 138.144 422.377 137.4 420.841L124.098 393.334C123.708 392.529 123.481 391.655 123.43 390.763C123.378 389.87 123.503 388.976 123.797 388.131C124.091 387.287 124.549 386.508 125.144 385.841C125.739 385.173 126.46 384.63 127.265 384.241Z" fill="#A05E47"/>
<path d="M141.23 424.282C142.766 424.835 144.449 424.817 145.972 424.231L157.301 419.762C153.567 416.732 150.425 413.038 148.032 408.867L146.934 409.275L142.84 400.809C138.827 399.419 131.68 399.218 126.965 399.255L137.405 420.838C138.179 422.443 139.553 423.68 141.23 424.282Z" fill="#7F4637"/>
<path d="M128.833 403.12L134.914 410.967L145.004 405.285L136.357 387.405C135.693 386.038 134.59 384.932 133.224 384.266C131.859 383.599 130.309 383.41 128.822 383.728L128.507 383.898L128.833 403.12Z" fill="#D3AFA5"/>
<path d="M178.68 397.46C179.21 397.275 179.779 397.233 180.33 397.34C180.602 397.403 180.843 397.562 181.007 397.788C181.171 398.014 181.248 398.291 181.224 398.57C181.049 399.41 179.858 399.501 179.278 400.13C179.081 400.385 178.951 400.685 178.902 401.004C178.852 401.322 178.884 401.648 178.994 401.95C179.219 402.551 179.487 403.136 179.796 403.699C180.395 405.123 180.478 406.712 180.03 408.19C179.581 409.669 178.629 410.944 177.34 411.795C176.866 412.142 176.277 412.293 175.696 412.217C175.353 412.087 175.04 411.889 174.774 411.637C174.508 411.384 174.295 411.082 174.146 410.746C173.063 409.1 172.171 407.336 171.486 405.488C170.933 403.808 170.25 400.916 172.027 399.859C174.128 398.766 176.365 397.959 178.68 397.46Z" fill="#A05E47"/>
<path d="M175.013 409.425C175.136 409.468 175.264 409.5 175.393 409.52C175.453 409.529 175.513 409.514 175.562 409.478C175.61 409.443 175.643 409.39 175.652 409.33C175.657 409.301 175.657 409.27 175.65 409.241C175.643 409.212 175.63 409.185 175.613 409.16C175.595 409.136 175.572 409.116 175.547 409.101C175.521 409.085 175.492 409.075 175.463 409.071C175.314 409.065 175.168 409.023 175.04 408.947C174.912 408.871 174.804 408.764 174.727 408.637C174.668 408.397 174.657 408.149 174.694 407.905C174.732 407.661 174.818 407.427 174.947 407.217C174.962 407.19 174.972 407.16 174.975 407.129C174.978 407.098 174.975 407.066 174.965 407.036C174.955 407.007 174.94 406.979 174.919 406.956C174.898 406.932 174.873 406.913 174.845 406.9C174.372 406.679 174.109 406.42 174.062 406.125C174.061 405.961 174.094 405.798 174.158 405.647C174.223 405.496 174.318 405.36 174.438 405.248C174.469 405.219 174.491 405.182 174.502 405.14C174.513 405.099 174.513 405.056 174.5 405.015C174.488 404.975 174.464 404.938 174.432 404.91C174.399 404.883 174.36 404.864 174.318 404.858C174.173 404.853 174.031 404.817 173.9 404.753C173.77 404.689 173.655 404.599 173.562 404.487C173.48 404.355 173.452 404.196 173.485 404.044C173.993 401.822 178.856 402.223 178.906 402.227C178.935 402.23 178.965 402.227 178.994 402.218C179.022 402.209 179.048 402.194 179.071 402.175C179.094 402.156 179.113 402.133 179.127 402.106C179.141 402.08 179.149 402.051 179.152 402.021C179.154 401.991 179.151 401.961 179.142 401.933C179.133 401.905 179.118 401.878 179.099 401.855C179.08 401.832 179.057 401.814 179.03 401.8C179.004 401.786 178.975 401.778 178.945 401.775C178.729 401.756 173.638 401.338 173.046 403.935C172.983 404.207 173.03 404.492 173.177 404.729C173.344 404.972 173.592 405.147 173.876 405.224C173.67 405.503 173.576 405.85 173.615 406.196C173.665 406.418 173.767 406.625 173.911 406.801C174.056 406.977 174.24 407.116 174.448 407.209C174.318 407.457 174.239 407.73 174.217 408.01C174.195 408.29 174.23 408.571 174.319 408.837C174.39 408.976 174.488 409.1 174.607 409.201C174.726 409.302 174.864 409.378 175.013 409.425Z" fill="#7F4637"/>
<path d="M174.206 405.296C174.248 405.311 174.294 405.314 174.337 405.303C176.176 404.824 178.054 404.509 179.948 404.365C180.008 404.37 180.068 404.351 180.114 404.312C180.16 404.273 180.189 404.217 180.194 404.158C180.199 404.098 180.18 404.038 180.141 403.992C180.102 403.946 180.047 403.917 179.987 403.912C178.041 404.049 176.113 404.367 174.227 404.863C174.198 404.87 174.171 404.882 174.147 404.9C174.123 404.917 174.103 404.94 174.087 404.965C174.072 404.99 174.062 405.019 174.057 405.048C174.053 405.077 174.054 405.107 174.061 405.136C174.07 405.173 174.088 405.207 174.113 405.235C174.139 405.263 174.171 405.284 174.206 405.296Z" fill="#7F4637"/>
<path d="M174.672 407.319C174.711 407.333 174.752 407.336 174.792 407.328C176.596 406.896 178.436 406.628 180.288 406.526C180.318 406.529 180.348 406.527 180.376 406.519C180.405 406.511 180.432 406.497 180.455 406.479C180.479 406.46 180.498 406.437 180.513 406.411C180.527 406.385 180.537 406.356 180.54 406.327C180.543 406.297 180.541 406.267 180.533 406.238C180.525 406.21 180.511 406.183 180.493 406.159C180.474 406.136 180.451 406.117 180.425 406.102C180.399 406.087 180.37 406.078 180.341 406.075C178.437 406.166 176.546 406.438 174.694 406.885C174.665 406.891 174.637 406.903 174.613 406.92C174.588 406.937 174.568 406.959 174.552 406.984C174.536 407.009 174.525 407.037 174.52 407.066C174.515 407.096 174.515 407.126 174.522 407.155C174.53 407.193 174.549 407.228 174.575 407.257C174.601 407.286 174.635 407.307 174.672 407.319Z" fill="#7F4637"/>
<path d="M175.351 409.509C175.403 409.528 175.459 409.528 175.511 409.509C176.925 408.978 178.418 408.687 179.928 408.649C179.988 408.65 180.047 408.627 180.091 408.586C180.134 408.544 180.16 408.487 180.162 408.427C180.162 408.367 180.139 408.309 180.098 408.265C180.057 408.222 180 408.196 179.94 408.194C178.369 408.228 176.815 408.53 175.345 409.085C175.289 409.108 175.244 409.151 175.22 409.206C175.196 409.262 175.195 409.324 175.217 409.381C175.229 409.41 175.247 409.437 175.27 409.459C175.293 409.481 175.321 409.498 175.351 409.509Z" fill="#7F4637"/>
<path d="M173.789 403.107C173.825 403.12 173.864 403.123 173.902 403.117C173.94 403.111 173.976 403.095 174.006 403.071C174.132 402.97 174.234 402.842 174.305 402.697C174.376 402.552 174.415 402.393 174.419 402.231C175.046 402.251 175.674 402.21 176.294 402.111C176.959 402.005 177.581 401.719 178.094 401.283C178.314 401.106 178.475 400.866 178.554 400.596C178.596 400.382 178.58 400.161 178.509 399.955C178.437 399.749 178.312 399.566 178.147 399.424C177.848 399.176 177.496 398.999 177.119 398.907C176.133 398.613 175.095 398.542 174.078 398.697C174.018 398.707 173.965 398.74 173.93 398.789C173.895 398.838 173.88 398.899 173.89 398.958C173.9 399.018 173.933 399.071 173.982 399.106C174.031 399.141 174.092 399.156 174.151 399.146C175.1 399 176.07 399.068 176.99 399.343C177.302 399.416 177.593 399.558 177.841 399.759C177.945 399.845 178.025 399.957 178.073 400.083C178.121 400.209 178.135 400.346 178.115 400.479C178.055 400.661 177.943 400.821 177.792 400.939C177.34 401.32 176.791 401.569 176.207 401.659C175.6 401.755 174.985 401.793 174.371 401.772C174.314 401.764 174.257 401.77 174.203 401.789C174.15 401.807 174.101 401.838 174.061 401.879C174.022 401.919 173.992 401.969 173.975 402.023C173.957 402.077 173.953 402.134 173.962 402.19C173.964 402.29 173.943 402.389 173.902 402.48C173.86 402.571 173.799 402.651 173.722 402.715C173.698 402.733 173.679 402.756 173.664 402.782C173.649 402.808 173.64 402.837 173.637 402.867C173.633 402.896 173.636 402.926 173.644 402.955C173.652 402.984 173.666 403.011 173.684 403.034C173.712 403.067 173.748 403.093 173.789 403.107Z" fill="#7F4637"/>
<path d="M138.745 394.2L135.427 437.124C128.142 440.543 120.037 441.821 112.054 440.812C98.3735 439.221 95.3735 433.175 95.3735 433.175C95.3735 433.175 97.7375 391.055 98.1335 390.641C98.5295 390.227 100.15 376.385 119.945 379.211C139.74 382.037 138.745 394.2 138.745 394.2Z" fill="#EACFC5"/>
<path d="M115.374 366.916V378.825L122.5 384.54L126.191 380.573V373.412L115.374 366.916Z" fill="#A05E47"/>
<path d="M116.861 373.164L126.191 376.255V380.067C120.985 379.372 116.861 373.164 116.861 373.164Z" fill="#7F4637"/>
<path d="M124.201 378.015H126.763C131.638 378.015 135.59 374.063 135.59 369.188V357.937C135.59 353.062 131.638 349.11 126.763 349.11H124.201C119.326 349.11 115.374 353.062 115.374 357.937V369.188C115.374 374.063 119.326 378.015 124.201 378.015Z" fill="#A05E47"/>
<path d="M115.74 365.161C116.068 365.967 117.146 366.613 117.78 366.019C117.992 365.783 118.133 365.492 118.184 365.179C118.602 363.486 118.675 361.727 118.398 360.007C118.072 357.992 117.318 355.741 118.468 354.055C118.858 353.509 119.411 353.102 120.048 352.891C120.685 352.681 121.372 352.678 122.01 352.883C122.666 353.111 123.233 353.555 123.894 353.768C125.214 354.189 126.617 353.626 127.991 353.45C130.511 353.123 133.271 354.093 135.534 352.935C136.164 352.606 136.706 352.132 137.117 351.553C137.528 350.973 137.796 350.305 137.898 349.601C137.963 349.308 137.963 349.004 137.897 348.711C137.831 348.418 137.701 348.143 137.517 347.906C137.332 347.669 137.098 347.476 136.83 347.34C136.562 347.204 136.267 347.129 135.967 347.12C134.209 346.796 132.367 347.635 130.633 347.192C129.553 346.916 128.626 346.162 127.524 345.992C125.987 345.752 124.536 346.678 123.02 347.029C121.475 347.389 119.84 347.138 118.291 347.477C115.051 348.187 112.84 351.377 112.241 354.634C111.642 357.891 112.332 361.234 113.02 364.474C113.267 365.636 113.514 366.796 113.76 367.954C113.844 368.951 114.319 369.874 115.08 370.523C115.21 370.618 115.368 370.667 115.529 370.663C115.962 370.619 116.081 370.049 116.075 369.614C116.012 367.475 115.728 365.349 115.226 363.269C115.48 363.878 115.49 364.552 115.74 365.161Z" fill="#171C27"/>
<path d="M113.017 365.787C113.017 366.277 113.162 366.756 113.435 367.164C113.707 367.571 114.094 367.889 114.547 368.076C115 368.264 115.498 368.313 115.979 368.217C116.459 368.122 116.901 367.886 117.247 367.539C117.594 367.193 117.83 366.751 117.925 366.271C118.021 365.79 117.972 365.292 117.784 364.839C117.597 364.386 117.279 363.999 116.872 363.727C116.464 363.454 115.985 363.309 115.495 363.309C114.838 363.309 114.208 363.571 113.743 364.035C113.279 364.5 113.017 365.13 113.017 365.787Z" fill="#A05E47"/>
<path d="M145.818 424.093C145.888 424.042 145.97 424.01 146.056 423.998C146.141 423.986 146.228 423.995 146.31 424.024C146.415 424.106 146.488 424.222 146.518 424.352C146.661 424.785 146.921 425.17 147.269 425.465C147.617 425.76 148.04 425.953 148.49 426.025C148.714 426.046 148.94 426.022 149.155 425.953C149.369 425.885 149.568 425.774 149.738 425.627C149.908 425.48 150.047 425.3 150.146 425.098C150.245 424.896 150.303 424.676 150.314 424.451C150.211 423.837 149.904 423.276 149.442 422.858C150.141 423.868 151.194 424.58 152.392 424.853C152.535 424.878 152.683 424.855 152.814 424.79C152.946 424.691 153.039 424.549 153.077 424.388C153.198 424.008 153.238 423.607 153.193 423.21C153.148 422.814 153.019 422.431 152.815 422.089C153.129 422.437 153.506 422.722 153.926 422.929C154.138 423.028 154.374 423.065 154.606 423.037C154.838 423.008 155.058 422.914 155.239 422.767C155.776 422.252 155.509 421.36 155.206 420.68C154.878 419.943 154.55 419.206 154.222 418.469C153.882 417.612 153.438 416.799 152.902 416.049C151.885 414.878 150.577 413.996 149.11 413.495C146.068 412.303 142.771 411.908 139.534 412.348C139.322 412.365 139.115 412.422 138.925 412.516C138.745 412.654 138.595 412.827 138.483 413.024C138.371 413.221 138.3 413.438 138.274 413.663C137.432 417.143 137.481 420.779 138.418 424.234C138.8 425.611 139.302 425.998 140.782 425.863C142.555 425.587 144.262 424.987 145.818 424.093Z" fill="#A05E47"/>
<path d="M106.32 381.954C107.21 381.872 108.108 381.967 108.961 382.233C109.815 382.498 110.608 382.929 111.295 383.501C111.982 384.074 112.55 384.775 112.965 385.567C113.381 386.358 113.637 387.224 113.718 388.114L115.926 412.308L142.429 412.116C141.435 416.64 140.829 421.241 140.615 425.869L109.764 425.968C108.057 425.98 106.408 425.35 105.144 424.204C103.879 423.058 103.091 421.478 102.936 419.779L100.159 389.35C100.078 388.46 100.173 387.563 100.438 386.709C100.704 385.856 101.135 385.063 101.707 384.376C102.279 383.689 102.981 383.122 103.773 382.706C104.564 382.29 105.43 382.035 106.32 381.954Z" fill="#A05E47"/>
<path d="M149.701 423.146C149.003 421.615 148.189 420.141 147.265 418.735C146.992 418.389 146.64 418.113 146.239 417.931C145.838 417.748 145.399 417.664 144.959 417.685" stroke="#7F4637" stroke-width="0.567" stroke-linecap="round" stroke-linejoin="round"/>
<path d="M152.815 422.089L150.69 417.402C150.396 416.891 150.002 416.446 149.531 416.093C149.06 415.74 148.522 415.486 147.95 415.347" stroke="#7F4637" stroke-width="0.567" stroke-linecap="round" stroke-linejoin="round"/>
<path d="M113.931 387.855C113.868 386.917 113.618 386.001 113.196 385.161C112.774 384.321 112.188 383.574 111.473 382.964C110.757 382.354 109.927 381.893 109.031 381.608C108.135 381.323 107.191 381.221 106.255 381.306C105.319 381.392 104.409 381.663 103.58 382.106C102.75 382.548 102.017 383.151 101.424 383.881C100.831 384.611 100.39 385.451 100.127 386.354C99.8637 387.257 99.7837 388.203 99.8915 389.137L101.729 409.276L115.725 407.483L113.931 387.855Z" fill="#EACFC5"/>
<path d="M100.132 391.809L101.725 409.276C101.725 409.276 112.438 407.908 115.722 407.484L113.99 388.5" stroke="#A5867C" stroke-width="0.283" stroke-linecap="round" stroke-linejoin="round"/>
<path d="M112.591 379.371L117.391 388.871L122.533 384.954L127.479 388.499C127.479 388.499 129.242 384.464 129.242 382.407" stroke="#A5867C" stroke-width="0.283" stroke-linecap="round" stroke-linejoin="round"/>
<path d="M121.816 385.5L121.526 400.918H124.886" stroke="#A5867C" stroke-width="0.283" stroke-linecap="round" stroke-linejoin="round"/>
<path d="M209.557 385.112L228.281 382.511C230.822 382.158 233.4 382.828 235.446 384.376C237.492 385.923 238.841 388.22 239.194 390.761L245.56 436.583L207.674 441.847L201.308 396.025C200.954 393.483 201.625 390.906 203.172 388.86C204.72 386.813 207.016 385.465 209.557 385.112Z" fill="#B0B0B0"/>
<path d="M244.691 349.249C242.924 348.53 241.041 348.14 239.133 348.101C237.285 347.899 235.417 347.997 233.6 348.391C232.357 348.849 231.221 349.559 230.266 350.477C229.311 351.396 228.556 352.502 228.05 353.727C227.302 355.453 226.778 357.267 226.49 359.127C226.176 360.882 225.77 362.591 225.557 364.367C225.093 368.195 225.059 372.065 224.439 375.875C223.304 382.864 220.256 389.376 218.199 396.155C216.143 402.934 215.125 410.469 218.003 416.938C218.207 417.504 218.558 418.007 219.019 418.395C219.488 418.686 220.017 418.867 220.566 418.925C223.951 419.523 227.383 419.813 230.821 419.793C232.062 419.854 233.303 419.667 234.471 419.243C235.465 418.777 236.343 418.095 237.041 417.247C239.778 414.127 240.914 409.965 241.968 405.954L244.999 394.421C247.819 383.691 250.656 372.845 250.973 361.753C251.081 357.973 250.709 353.759 247.928 351.193C246.973 350.358 245.877 349.7 244.691 349.249Z" fill="#503972"/>
<path d="M285.503 400.133C257.635 404.169 249.332 384.352 248.97 383.439C248.438 382.056 247.379 380.941 246.026 380.339C244.672 379.737 243.135 379.698 241.752 380.229C240.37 380.761 239.255 381.82 238.653 383.173C238.051 384.527 238.012 386.064 238.543 387.447C240.887 392.894 244.46 397.725 248.983 401.561C255.614 407.315 267.289 413.597 285.554 411.394C286.061 411.333 286.575 411.264 287.094 411.19C287.236 407.438 286.697 403.692 285.503 400.133Z" fill="#DBA38D"/>
<path d="M290.717 397.591C291.419 397.239 292.21 397.103 292.989 397.2C293.75 397.376 294.403 398.223 294.069 398.932C293.791 399.532 292.904 399.952 293.109 400.586C293.192 400.779 293.329 400.943 293.504 401.058C295.554 402.652 298.297 402.959 300.689 403.971C301.25 404.144 301.764 404.443 302.191 404.847C302.618 405.25 302.947 405.746 303.152 406.296C303.233 406.737 303.21 407.19 303.085 407.619C302.96 408.049 302.736 408.444 302.432 408.772C301.815 409.422 301.07 409.937 300.245 410.284C295.904 412.314 290.941 412.565 286.417 410.984C285.908 410.835 285.437 410.577 285.039 410.225C284.698 409.836 284.436 409.385 284.268 408.896C283.837 407.968 283.521 406.991 283.327 405.987C283.205 404.949 283.313 403.897 283.645 402.906C283.977 401.916 284.524 401.01 285.247 400.256C286.872 398.476 288.627 398.392 290.717 397.591Z" fill="#DBA38D"/>
<path d="M254.333 391.257C252.089 388.995 250.273 386.346 248.97 383.439C248.438 382.056 247.379 380.941 246.026 380.339C244.672 379.737 243.135 379.698 241.752 380.229C240.37 380.761 239.255 381.82 238.653 383.173C238.051 384.527 238.012 386.064 238.543 387.447C240.374 391.745 242.998 395.659 246.278 398.985C249.318 396.806 252.03 394.204 254.333 391.257Z" fill="#F75454"/>
<path d="M246.3 399.17C246.271 399.173 246.242 399.17 246.215 399.16C246.188 399.151 246.164 399.135 246.144 399.114C242.848 395.769 240.211 391.833 238.369 387.513C238.352 387.467 238.354 387.416 238.374 387.371C238.394 387.326 238.431 387.291 238.477 387.273C238.5 387.264 238.524 387.259 238.549 387.26C238.573 387.261 238.598 387.266 238.62 387.276C238.642 387.286 238.662 387.301 238.679 387.319C238.696 387.337 238.709 387.358 238.717 387.381C240.518 391.605 243.09 395.457 246.301 398.74C249.227 396.619 251.847 394.106 254.088 391.271C251.878 389.017 250.087 386.388 248.797 383.507C248.779 383.461 248.78 383.41 248.8 383.365C248.819 383.319 248.856 383.284 248.902 383.265C248.948 383.247 248.999 383.248 249.045 383.268C249.09 383.288 249.126 383.324 249.144 383.37C250.437 386.256 252.24 388.884 254.466 391.128C254.497 391.16 254.515 391.202 254.517 391.246C254.52 391.29 254.507 391.333 254.48 391.368C252.164 394.328 249.439 396.944 246.386 399.136C246.361 399.155 246.331 399.166 246.3 399.17Z" fill="#BF4040"/>
<path d="M251.551 390.15C251.941 393.935 251.999 397.745 251.726 401.54C251.527 409.932 251.802 418.523 254.582 426.488C255.524 429.187 256.398 431.602 254.269 433.97C250.034 438.676 240.026 439.766 234.201 439.938C230.481 440.049 218.079 439.835 216.497 434.636C215.983 432.95 217.854 429.123 218.177 427.316C218.869 423.445 218.484 418.995 218.487 415.032C218.669 409.755 218.237 404.474 217.2 399.296C215.953 394.697 216.337 389.807 218.287 385.46C219.246 383.081 220.951 381.077 223.147 379.751C226.243 378.263 229.65 377.54 233.083 377.643C236.991 377.628 242.127 377.832 245.643 379.718C248.958 381.494 250.767 385.88 251.42 389.361C251.467 389.627 251.51 389.89 251.551 390.15Z" fill="#F75454"/>
<path d="M239.568 373.351L239.77 380.535C239.77 380.535 239.818 383.985 234.516 383.943C233.13 384.021 231.767 383.559 230.715 382.653C229.663 381.747 229.004 380.469 228.876 379.086L228.54 367.143L239.568 373.351Z" fill="#EEB399"/>
<path d="M230.196 373.124L239.64 375.96L239.747 379.784C234.508 379.233 230.196 373.124 230.196 373.124Z" fill="#C18B76"/>
<path d="M236.415 377.816L241.544 377.672C245.726 377.554 249.021 374.069 248.903 369.886L248.514 356.044C248.396 351.862 244.91 348.567 240.728 348.684L235.599 348.829C231.417 348.946 228.122 352.432 228.239 356.614L228.629 370.457C228.747 374.639 232.232 377.934 236.415 377.816Z" fill="#EEB399"/>
<path d="M226.134 365.833C226.148 366.324 226.307 366.801 226.592 367.201C226.876 367.602 227.273 367.909 227.732 368.085C228.192 368.26 228.693 368.295 229.172 368.185C229.651 368.076 230.087 367.827 230.424 367.47C230.762 367.112 230.986 366.663 231.068 366.178C231.151 365.694 231.087 365.196 230.886 364.747C230.686 364.299 230.356 363.92 229.94 363.658C229.524 363.397 229.04 363.265 228.548 363.278C227.889 363.297 227.265 363.577 226.812 364.056C226.359 364.535 226.116 365.174 226.134 365.833Z" fill="#EEB399"/>
<path d="M249.08 352.486C249.08 352.486 240.522 364.097 227.697 363.303C227.697 363.303 224.859 347.977 237.337 347.521C239.544 347.397 241.749 347.78 243.785 348.64C245.821 349.501 247.632 350.816 249.08 352.486Z" fill="#503972"/>
<path d="M256.336 416.986C229.436 408.663 230.447 387.201 230.513 386.22C230.61 384.752 230.125 383.305 229.162 382.192C228.198 381.08 226.835 380.393 225.368 380.28C223.901 380.167 222.449 380.637 221.326 381.589C220.204 382.54 219.503 383.897 219.374 385.362C219.152 391.289 220.306 397.187 222.744 402.593C226.261 410.633 234.107 421.323 251.544 427.178C252.029 427.338 252.521 427.498 253.021 427.658C254.762 424.33 255.885 420.714 256.336 416.986Z" fill="#EEB399"/>
<path d="M231.998 395.584C230.943 392.579 230.44 389.408 230.513 386.224C230.61 384.756 230.125 383.308 229.162 382.196C228.198 381.083 226.835 380.396 225.368 380.283C223.901 380.17 222.449 380.641 221.326 381.592C220.204 382.544 219.503 383.9 219.374 385.366C219.182 390.034 219.872 394.696 221.406 399.108C225.087 398.444 228.654 397.258 231.998 395.584Z" fill="#F75454"/>
<path d="M221.346 399.281C221.318 399.272 221.293 399.256 221.272 399.235C221.251 399.214 221.235 399.189 221.226 399.161C219.685 394.724 218.993 390.038 219.186 385.345C219.19 385.296 219.213 385.251 219.251 385.219C219.288 385.187 219.337 385.171 219.386 385.175C219.435 385.179 219.481 385.202 219.513 385.24C219.545 385.277 219.561 385.326 219.557 385.375C219.369 389.963 220.038 394.546 221.528 398.89C225.081 398.231 228.526 397.087 231.767 395.489C230.741 392.504 230.253 389.361 230.327 386.206C230.33 386.157 230.353 386.111 230.39 386.078C230.427 386.046 230.475 386.029 230.525 386.032C230.549 386.033 230.573 386.04 230.595 386.05C230.617 386.061 230.637 386.076 230.653 386.095C230.669 386.114 230.682 386.135 230.69 386.158C230.697 386.182 230.7 386.206 230.699 386.231C230.628 389.391 231.128 392.538 232.173 395.521C232.188 395.563 232.187 395.609 232.17 395.65C232.154 395.691 232.123 395.725 232.083 395.746C228.721 397.424 225.136 398.615 221.438 399.285C221.408 399.291 221.376 399.29 221.346 399.281Z" fill="#BF4040"/>
<path d="M261.976 417.047C262.761 417.032 263.533 417.249 264.195 417.671C264.352 417.783 264.484 417.926 264.582 418.092C264.68 418.258 264.742 418.442 264.765 418.633C264.787 418.824 264.77 419.018 264.713 419.202C264.656 419.386 264.562 419.556 264.436 419.701C263.923 420.127 262.944 420.123 262.859 420.781C262.849 420.992 262.902 421.201 263.012 421.381C264.179 423.701 266.525 425.157 268.249 427.097C268.682 427.494 269.017 427.986 269.23 428.533C269.443 429.081 269.527 429.67 269.477 430.255C269.359 430.687 269.142 431.085 268.844 431.418C268.546 431.752 268.174 432.011 267.758 432.175C266.922 432.497 266.029 432.642 265.134 432.601C260.342 432.569 255.752 430.665 252.345 427.295C251.948 426.943 251.635 426.507 251.426 426.018C251.287 425.52 251.246 425 251.306 424.487C251.316 423.464 251.451 422.445 251.707 421.455C252.043 420.464 252.593 419.561 253.319 418.809C254.046 418.057 254.929 417.475 255.907 417.105C258.12 416.196 259.745 416.873 261.976 417.047Z" fill="#EEB399"/>
<path d="M484.285 382.421H503.189C505.754 382.421 508.215 383.44 510.029 385.254C511.843 387.068 512.862 389.529 512.862 392.094V438.356H474.612V392.094C474.612 389.529 475.631 387.068 477.445 385.254C479.259 383.44 481.72 382.421 484.285 382.421Z" fill="#B0B0B0"/>
<path d="M470.082 385.247C468.829 383.97 467.121 383.243 465.333 383.226C463.545 383.208 461.823 383.902 460.545 385.153L443.365 402L423.131 385.353C419.113 392.717 414.674 395.073 414.674 395.073L439.256 416.262C440.537 417.365 442.185 417.947 443.874 417.893C445.563 417.838 447.17 417.151 448.376 415.968L469.985 394.779C471.261 393.527 471.989 391.82 472.007 390.033C472.025 388.246 471.333 386.524 470.082 385.247Z" fill="#EEB399"/>
<path d="M470.082 385.247C468.829 383.97 467.121 383.243 465.333 383.226C463.545 383.208 461.823 383.902 460.546 385.153L444.307 401.077C445.588 404.307 448.105 409.692 451.627 412.783L469.987 394.783C470.62 394.164 471.124 393.425 471.471 392.611C471.818 391.796 472.002 390.921 472.01 390.035C472.019 389.149 471.853 388.271 471.523 387.449C471.192 386.628 470.702 385.879 470.082 385.247Z" fill="#638DCE"/>
<path d="M417.522 380.579C417.09 380.23 416.572 380.003 416.023 379.919C415.748 379.886 415.471 379.954 415.242 380.11C415.013 380.265 414.848 380.499 414.778 380.766C414.658 381.606 415.738 382.086 416.07 382.872C416.168 383.176 416.188 383.499 416.128 383.812C416.067 384.126 415.929 384.419 415.726 384.664C415.314 385.149 414.868 385.604 414.392 386.026C413.357 387.153 412.748 388.606 412.671 390.135C412.594 391.663 413.055 393.17 413.972 394.395C414.297 394.877 414.795 395.215 415.363 395.339C415.726 395.332 416.085 395.253 416.417 395.107C416.749 394.96 417.05 394.749 417.3 394.486C418.861 393.314 420.283 391.968 421.541 390.476C422.621 389.088 424.223 386.626 422.92 385.046C421.327 383.323 419.512 381.821 417.522 380.579Z" fill="#EEB399"/>
<path d="M417.138 392.741C417.009 392.74 416.88 392.727 416.753 392.701C416.724 392.696 416.696 392.685 416.671 392.669C416.647 392.652 416.625 392.632 416.609 392.607C416.592 392.583 416.581 392.555 416.575 392.526C416.569 392.497 416.568 392.468 416.574 392.439C416.579 392.409 416.59 392.382 416.607 392.357C416.623 392.332 416.644 392.311 416.669 392.294C416.693 392.278 416.721 392.266 416.75 392.26C416.779 392.255 416.809 392.255 416.838 392.261C416.979 392.306 417.128 392.314 417.273 392.287C417.418 392.259 417.554 392.195 417.668 392.101C417.804 391.898 417.897 391.67 417.944 391.43C417.991 391.19 417.989 390.944 417.94 390.705C417.934 390.674 417.935 390.643 417.943 390.613C417.95 390.583 417.964 390.555 417.983 390.531C418.002 390.506 418.025 390.486 418.052 390.471C418.08 390.456 418.109 390.447 418.14 390.444C418.318 390.482 418.503 390.466 418.671 390.397C418.839 390.328 418.983 390.211 419.084 390.059C419.184 389.908 419.237 389.73 419.235 389.548C419.233 389.366 419.176 389.189 419.072 389.04C419.053 389.003 419.045 388.961 419.049 388.919C419.052 388.878 419.067 388.838 419.092 388.804C419.117 388.771 419.151 388.745 419.19 388.73C419.229 388.714 419.271 388.71 419.312 388.717C419.449 388.761 419.594 388.775 419.737 388.759C419.88 388.743 420.018 388.697 420.142 388.624C420.263 388.529 420.342 388.39 420.361 388.237C420.632 385.996 415.963 384.742 415.921 384.729C415.893 384.721 415.866 384.707 415.843 384.689C415.819 384.671 415.8 384.648 415.785 384.623C415.771 384.597 415.761 384.569 415.758 384.539C415.754 384.51 415.756 384.48 415.764 384.451C415.772 384.423 415.785 384.396 415.803 384.373C415.822 384.35 415.844 384.33 415.87 384.315C415.896 384.301 415.924 384.291 415.954 384.288C415.983 384.284 416.013 384.286 416.041 384.294C416.25 384.348 421.136 385.663 420.818 388.281C420.803 388.416 420.76 388.548 420.694 388.667C420.627 388.787 420.538 388.892 420.431 388.977C420.194 389.147 419.904 389.228 419.614 389.203C419.712 389.534 419.683 389.889 419.532 390.198C419.41 390.388 419.246 390.547 419.053 390.662C418.859 390.778 418.641 390.846 418.416 390.863C418.454 391.138 418.435 391.418 418.362 391.686C418.289 391.954 418.163 392.205 417.991 392.423C417.878 392.531 417.744 392.614 417.597 392.669C417.45 392.723 417.294 392.748 417.138 392.741Z" fill="#B57359"/>
<path d="M419.272 389.16C419.229 389.159 419.187 389.147 419.152 389.123C417.597 388.06 415.95 387.138 414.232 386.369C414.174 386.353 414.125 386.315 414.096 386.263C414.067 386.211 414.059 386.15 414.075 386.092C414.091 386.035 414.129 385.986 414.181 385.957C414.233 385.928 414.294 385.92 414.352 385.936C416.119 386.713 417.809 387.655 419.401 388.747C419.441 388.774 419.471 388.813 419.487 388.858C419.504 388.903 419.505 388.952 419.492 388.998C419.479 389.044 419.451 389.084 419.413 389.113C419.375 389.143 419.329 389.159 419.281 389.16H419.272Z" fill="#B57359"/>
<path d="M418.16 390.892C418.118 390.892 418.076 390.88 418.04 390.857C416.502 389.852 414.878 388.986 413.185 388.27C413.156 388.263 413.129 388.251 413.105 388.234C413.081 388.217 413.061 388.195 413.045 388.17C413.03 388.145 413.019 388.117 413.014 388.088C413.009 388.059 413.01 388.029 413.017 388C413.024 387.971 413.036 387.944 413.053 387.92C413.07 387.896 413.092 387.876 413.117 387.86C413.142 387.845 413.17 387.834 413.199 387.829C413.229 387.824 413.258 387.825 413.287 387.832C415.031 388.555 416.703 389.441 418.28 390.478C418.321 390.504 418.353 390.543 418.37 390.588C418.387 390.634 418.389 390.683 418.376 390.73C418.362 390.777 418.334 390.818 418.295 390.847C418.256 390.876 418.209 390.892 418.16 390.892Z" fill="#B57359"/>
<path d="M416.795 392.706C416.74 392.707 416.688 392.687 416.647 392.651C415.506 391.683 414.212 390.913 412.817 390.371C412.76 390.352 412.713 390.312 412.687 390.259C412.66 390.205 412.655 390.144 412.674 390.087C412.693 390.031 412.734 389.984 412.787 389.957C412.84 389.93 412.901 389.925 412.958 389.943C414.411 390.501 415.759 391.302 416.942 392.313C416.977 392.343 417.001 392.383 417.012 392.427C417.023 392.472 417.02 392.518 417.004 392.561C416.988 392.604 416.96 392.641 416.922 392.667C416.885 392.693 416.84 392.707 416.795 392.708V392.706Z" fill="#B57359"/>
<path d="M420.395 387.261C420.357 387.261 420.319 387.251 420.286 387.232C420.252 387.214 420.224 387.187 420.204 387.155C420.121 387.018 420.068 386.864 420.051 386.704C420.033 386.545 420.051 386.383 420.102 386.231C419.511 386.038 418.939 385.789 418.394 385.488C417.809 385.168 417.323 384.692 416.99 384.113C416.844 383.875 416.775 383.597 416.791 383.319C416.823 383.105 416.912 382.903 417.047 382.734C417.183 382.566 417.361 382.436 417.563 382.359C417.925 382.227 418.312 382.18 418.696 382.221C419.713 382.276 420.704 382.558 421.6 383.044C421.626 383.058 421.648 383.077 421.667 383.1C421.685 383.123 421.699 383.149 421.707 383.178C421.716 383.206 421.718 383.236 421.714 383.265C421.711 383.295 421.702 383.323 421.687 383.349C421.658 383.401 421.61 383.439 421.552 383.456C421.495 383.472 421.433 383.465 421.381 383.436C420.545 382.983 419.619 382.721 418.669 382.671C418.355 382.633 418.036 382.669 417.737 382.774C417.61 382.819 417.497 382.896 417.409 382.999C417.322 383.102 417.263 383.225 417.239 383.358C417.232 383.548 417.283 383.735 417.385 383.895C417.68 384.4 418.107 384.815 418.621 385.095C419.157 385.387 419.72 385.628 420.301 385.815C420.356 385.826 420.408 385.851 420.452 385.886C420.496 385.921 420.531 385.966 420.554 386.017C420.577 386.069 420.588 386.125 420.586 386.181C420.584 386.237 420.568 386.292 420.541 386.341C420.506 386.434 420.492 386.533 420.501 386.632C420.509 386.731 420.54 386.826 420.592 386.911C420.623 386.962 420.633 387.023 420.619 387.081C420.605 387.139 420.569 387.189 420.518 387.221C420.482 387.245 420.439 387.259 420.395 387.261Z" fill="#B57359"/>
<path d="M455.342 394.656L458.628 437.172C465.844 440.558 473.873 441.825 481.781 440.825C495.332 439.249 498.301 433.265 498.301 433.265C498.301 433.265 495.96 391.547 495.565 391.134C495.17 390.721 493.568 377.013 473.965 379.812C454.362 382.612 455.342 394.656 455.342 394.656Z" fill="#7298E2"/>
<path d="M522.401 432.544H77.6003V443.085H522.401V432.544Z" fill="#FC746C"/>
<path d="M116.096 434.637H174.796C175.127 434.637 175.396 434.368 175.396 434.037V432.32C175.396 431.988 175.127 431.72 174.796 431.72H116.096C115.765 431.72 115.496 431.988 115.496 432.32V434.037C115.496 434.368 115.765 434.637 116.096 434.637Z" fill="#0D2638"/>
<path d="M147.148 434.592H196.028C197.035 434.558 197.999 434.18 198.762 433.522C199.524 432.864 200.039 431.965 200.22 430.974L204.438 404.342C204.529 403.896 204.517 403.436 204.405 402.995C204.293 402.554 204.082 402.144 203.789 401.796C203.497 401.448 203.129 401.171 202.714 400.985C202.299 400.799 201.847 400.709 201.392 400.722H152.513C151.506 400.757 150.541 401.135 149.779 401.793C149.016 402.452 148.502 403.351 148.32 404.342L144.102 430.974C144.012 431.42 144.023 431.88 144.135 432.321C144.248 432.761 144.458 433.171 144.751 433.519C145.044 433.867 145.412 434.144 145.827 434.33C146.241 434.516 146.693 434.605 147.148 434.592Z" fill="#626262"/>
<path d="M175.328 422.09C177.816 422.09 179.832 420.073 179.832 417.586C179.832 415.099 177.816 413.083 175.328 413.083C172.841 413.083 170.825 415.099 170.825 417.586C170.825 420.073 172.841 422.09 175.328 422.09Z" fill="white"/>
<path d="M493.405 397.531C493.405 397.531 496.405 433.433 487.607 434.137C478.808 434.842 463.967 434.137 463.967 434.137C463.967 434.137 481.874 430.709 483.838 420.745C485.801 410.782 493.405 397.531 493.405 397.531Z" fill="#3F649E"/>
<path d="M474.101 390.16C480.948 389.2 481.914 383.049 481.908 379.6C479.26 379.333 476.59 379.405 473.96 379.815C470.953 380.203 468.008 380.98 465.2 382.126C465.415 385.031 466.722 391.2 474.101 390.16Z" fill="#EEB399"/>
<path d="M478.492 367.871V379.667L473.057 384.617L467.777 381.4V374.305L478.492 367.871Z" fill="#EEB399"/>
<path d="M477.019 373.819L467.779 376.882V380.658C472.934 379.969 477.019 373.819 477.019 373.819Z" fill="#CC957F"/>
<path d="M470.916 349.994H466.043C461.859 349.994 458.467 353.385 458.467 357.569V371.05C458.467 375.234 461.859 378.626 466.043 378.626H470.916C475.1 378.626 478.492 375.234 478.492 371.05V357.569C478.492 353.385 475.1 349.994 470.916 349.994Z" fill="#EEB399"/>
<path d="M457.164 352.937C456.876 353.2 456.667 353.537 456.561 353.912C456.455 354.287 456.456 354.684 456.564 355.059C456.753 355.42 457.051 355.714 457.415 355.899C458.033 356.249 458.724 356.45 459.434 356.488C460.143 356.525 460.852 356.397 461.503 356.113C461.321 356.328 461.22 356.599 461.217 356.88C461.214 357.161 461.311 357.434 461.489 357.652C461.865 358.077 462.386 358.345 462.95 358.404C463.828 358.487 464.713 358.37 465.539 358.062C466.364 357.754 467.109 357.262 467.718 356.625C467.716 357.176 467.925 357.708 468.301 358.112C468.676 358.516 469.192 358.762 469.742 358.8C470.738 358.833 471.7 358.158 472.674 358.368C472.96 358.848 472.507 359.635 472.966 359.956C473.083 360.026 473.216 360.065 473.353 360.069C474.277 360.157 475.38 359.992 475.976 360.702C476.551 361.389 476.243 362.412 476.005 363.275C475.859 363.658 475.792 364.066 475.808 364.476C475.824 364.885 475.923 365.287 476.099 365.657C476.528 366.353 477.708 366.575 478.139 365.878C478.259 365.68 478.303 365.442 478.432 365.249C478.56 365.056 478.835 364.92 479.022 365.057C479.083 365.117 479.13 365.191 479.156 365.273C479.183 365.355 479.19 365.441 479.176 365.526C478.979 366.54 478.627 367.516 478.134 368.423C477.774 369.391 477.815 370.703 478.721 371.196C479 371.33 479.301 371.411 479.61 371.436C480.565 371.658 481.569 371.505 482.416 371.01C483.094 370.369 483.543 369.522 483.691 368.601C483.811 368.259 483.858 367.896 483.829 367.535C483.812 367.355 483.74 367.184 483.624 367.045C483.508 366.906 483.352 366.806 483.178 366.757C482.752 365.567 484.042 364.089 483.277 363.083C483.089 362.878 482.88 362.693 482.653 362.531C482.062 361.964 481.694 361.203 481.615 360.388C481.541 359.58 481.53 358.767 481.582 357.957C481.61 356.379 481.449 354.804 481.102 353.265C480.991 352.621 480.746 352.007 480.382 351.465C480.197 351.196 479.946 350.98 479.653 350.839C479.359 350.697 479.034 350.635 478.709 350.658C478.47 349.459 477.784 348.395 476.789 347.683C476.285 347.344 475.689 347.17 475.082 347.187C474.475 347.204 473.889 347.41 473.405 347.777C473.228 347.982 473 348.135 472.744 348.222C472.529 348.238 472.313 348.194 472.122 348.095C470.261 347.338 468.106 346.699 466.303 347.586C466.044 347.745 465.76 347.859 465.463 347.925C465.157 347.934 464.852 347.885 464.563 347.782C464.217 347.663 463.848 347.622 463.484 347.662C463.12 347.702 462.769 347.822 462.457 348.013C461.803 348.503 462.089 349.041 462.035 349.687C461.974 350.423 461.566 350.377 460.868 350.639C459.464 351.09 458.192 351.879 457.164 352.937Z" fill="#171E26"/>
<path d="M481.751 366.513C481.751 366.998 481.607 367.472 481.337 367.876C481.068 368.28 480.684 368.594 480.236 368.78C479.787 368.966 479.294 369.014 478.818 368.919C478.342 368.825 477.905 368.591 477.562 368.248C477.218 367.905 476.985 367.467 476.89 366.991C476.795 366.515 476.844 366.022 477.03 365.573C477.215 365.125 477.53 364.742 477.933 364.472C478.337 364.203 478.811 364.059 479.297 364.059C479.948 364.059 480.572 364.317 481.032 364.777C481.492 365.238 481.751 365.862 481.751 366.513Z" fill="#EEB399"/>
<path d="M487.531 383.16C485.734 383.006 483.95 383.569 482.567 384.727C481.185 385.886 480.318 387.544 480.156 389.34L477.578 418.547L450.186 420.308C449.698 424.85 449.993 429.443 451.057 433.886L484.278 431.751C485.9 431.647 487.432 430.965 488.595 429.829C489.758 428.693 490.476 427.178 490.619 425.559L493.71 390.536C493.868 388.738 493.307 386.952 492.148 385.569C490.989 384.186 489.329 383.319 487.531 383.16Z" fill="#EEB399"/>
<path d="M447.433 433.97C446.601 433.943 445.788 433.715 445.064 433.305C444.709 433.09 444.439 432.758 444.302 432.365C444.165 431.973 444.168 431.546 444.312 431.156C444.505 430.772 444.894 430.461 444.912 430.031C444.931 429.489 444.367 429.141 444.05 428.702C443.8 428.271 443.713 427.765 443.805 427.275C443.896 426.786 444.161 426.345 444.55 426.034C444.799 425.821 445.108 425.627 445.193 425.314C445.379 424.61 444.329 424.011 444.527 423.31C444.68 422.774 445.465 422.629 445.632 422.097C445.662 421.797 445.657 421.494 445.616 421.195C445.655 420.943 445.766 420.709 445.937 420.521C446.108 420.333 446.33 420.199 446.576 420.137C447.072 420.023 447.586 420.009 448.087 420.098L450.468 420.357C450.939 420.379 451.403 420.49 451.832 420.685C452.243 420.983 452.585 421.365 452.836 421.806C453.087 422.247 453.242 422.736 453.29 423.241C453.769 425.127 453.902 427.085 453.683 429.019C453.49 430.644 452.806 432.172 451.722 433.399C450.704 434.451 448.776 434.116 447.433 433.97Z" fill="#EEB399"/>
<path d="M487.56 382.8C485.726 382.643 483.905 383.218 482.494 384.4C481.083 385.583 480.198 387.276 480.032 389.109L477.872 413.624C482.18 415.592 486.779 416.843 491.49 417.328L493.873 390.328C493.953 389.419 493.854 388.503 493.58 387.633C493.306 386.763 492.863 385.955 492.277 385.256C491.69 384.557 490.972 383.98 490.163 383.559C489.353 383.138 488.469 382.88 487.56 382.8Z" fill="#7298E2"/>
<path d="M479.866 391.059L477.872 413.626C477.872 413.626 486.221 417.207 491.49 417.331L493.738 394.096" stroke="#3C62A0" stroke-width="0.283" stroke-linecap="round" stroke-linejoin="round"/>
<path d="M474.012 431.72H415.311C414.98 431.72 414.711 431.988 414.711 432.32V434.037C414.711 434.368 414.98 434.637 415.311 434.637H474.012C474.343 434.637 474.612 434.368 474.612 434.037V432.32C474.612 431.988 474.343 431.72 474.012 431.72Z" fill="#0D2638"/>
<path d="M442.959 434.592H394.08C393.073 434.558 392.109 434.18 391.347 433.522C390.584 432.864 390.07 431.965 389.888 430.974L385.669 404.342C385.579 403.896 385.59 403.435 385.703 402.995C385.815 402.554 386.026 402.144 386.319 401.796C386.612 401.448 386.979 401.171 387.394 400.985C387.81 400.799 388.261 400.709 388.716 400.722H437.595C438.602 400.757 439.567 401.135 440.329 401.793C441.092 402.452 441.607 403.351 441.788 404.342L446.006 430.974C446.096 431.42 446.085 431.88 445.972 432.321C445.86 432.762 445.649 433.171 445.356 433.519C445.063 433.867 444.696 434.144 444.281 434.33C443.866 434.516 443.414 434.605 442.959 434.592Z" fill="#626262"/>
<path d="M412.08 418.341C411.813 418.77 411.578 419.218 411.376 419.681C411.287 419.848 411.236 420.031 411.227 420.219C411.217 420.407 411.249 420.595 411.32 420.769C411.392 420.943 411.5 421.1 411.639 421.227C411.777 421.355 411.942 421.45 412.122 421.507C412.714 421.702 413.349 421.719 413.951 421.557C414.552 421.395 415.093 421.06 415.506 420.593C416.318 419.637 416.75 418.416 416.718 417.161C416.765 416.665 416.692 416.164 416.506 415.702C416.32 415.239 416.025 414.828 415.648 414.502C415.389 414.33 415.1 414.212 414.796 414.153C414.313 414.033 413.804 414.098 413.368 414.337C412.757 414.709 412.712 415.406 412.648 416.043C412.616 416.839 412.422 417.621 412.08 418.341Z" fill="white"/>
<path d="M414.164 413.03C414.123 412.776 414.137 412.517 414.206 412.27C414.243 412.147 414.308 412.035 414.397 411.942C414.485 411.849 414.595 411.779 414.716 411.737C414.804 411.715 414.894 411.704 414.984 411.706C415.188 411.687 415.392 411.746 415.554 411.872C415.612 411.932 415.657 412.003 415.685 412.081C415.714 412.16 415.725 412.243 415.72 412.326C415.706 412.493 415.656 412.654 415.573 412.799C415.402 413.138 415.12 413.407 414.774 413.562C414.282 413.76 414.22 413.48 414.164 413.03Z" fill="white"/>
<path d="M146.844 302.28C146.844 297.184 145.349 292.2 142.546 287.944C139.742 283.688 135.752 280.347 131.069 278.336C126.387 276.324 121.217 275.73 116.2 276.626C111.183 277.522 106.539 279.869 102.842 283.377C99.1454 286.886 96.5585 291.401 95.4013 296.364C94.2442 301.327 94.5677 306.521 96.3318 311.302C98.0959 316.084 101.223 320.243 105.327 323.265C109.43 326.288 114.33 328.041 119.419 328.307L123.204 337.593L127.705 327.406C133.205 325.89 138.056 322.611 141.513 318.072C144.97 313.533 146.843 307.986 146.844 302.28Z" fill="white" stroke="#1F74C2" stroke-linecap="round" stroke-linejoin="round"/>
<path d="M129.96 297.695V291.562H123.826C123.826 290.339 123.34 289.167 122.476 288.303C121.611 287.438 120.439 286.953 119.216 286.953C117.994 286.953 116.822 287.438 115.957 288.303C115.093 289.167 114.607 290.339 114.607 291.562H108.48V313.042H114.612C114.612 311.819 115.098 310.647 115.962 309.783C116.826 308.918 117.999 308.433 119.221 308.433C120.444 308.433 121.616 308.918 122.48 309.783C123.345 310.647 123.83 311.819 123.83 313.042H129.96V306.909C131.183 306.909 132.355 306.423 133.22 305.558C134.084 304.694 134.57 303.521 134.57 302.299C134.57 301.076 134.084 299.904 133.22 299.039C132.355 298.175 131.183 297.689 129.96 297.689V297.695Z" fill="#FC746C"/>
<path d="M521.942 317.152C524.087 312.529 524.829 307.378 524.077 302.338C523.324 297.297 521.111 292.588 517.709 288.792C514.308 284.997 509.869 282.282 504.941 280.984C500.012 279.685 494.812 279.86 489.982 281.487C485.152 283.114 480.905 286.121 477.767 290.136C474.628 294.152 472.736 298.999 472.324 304.079C471.912 309.159 472.999 314.248 475.449 318.716C477.9 323.185 481.607 326.837 486.112 329.221L485.64 339.241L494.01 331.893C499.637 332.831 505.417 331.898 510.463 329.235C515.508 326.572 519.541 322.327 521.942 317.152Z" fill="white" stroke="#1F74C2" stroke-linecap="round" stroke-linejoin="round"/>
<path d="M509.61 301.45C509.227 301.455 508.847 301.508 508.477 301.608V295.321H502.344C502.344 296.543 501.858 297.716 500.994 298.58C500.129 299.445 498.957 299.931 497.734 299.931C496.512 299.931 495.339 299.445 494.475 298.58C493.61 297.716 493.124 296.543 493.124 295.321H486.991V301.454C485.769 301.454 484.596 301.94 483.732 302.804C482.867 303.669 482.381 304.841 482.381 306.064C482.381 307.286 482.867 308.459 483.732 309.323C484.596 310.188 485.769 310.674 486.991 310.674V316.801H493.25C493.27 315.591 493.764 314.438 494.627 313.589C495.489 312.74 496.65 312.265 497.86 312.265C499.07 312.265 500.231 312.74 501.094 313.589C501.956 314.438 502.45 315.591 502.47 316.801H508.477V310.513C509.11 310.675 509.771 310.7 510.414 310.588C511.058 310.475 511.67 310.226 512.21 309.858C512.751 309.491 513.206 309.012 513.547 308.454C513.888 307.897 514.106 307.273 514.187 306.625C514.268 305.976 514.21 305.318 514.017 304.693C513.824 304.069 513.5 303.493 513.067 303.004C512.634 302.514 512.102 302.122 511.506 301.855C510.91 301.587 510.263 301.449 509.61 301.45Z" fill="#FC746C"/>
<path d="M195.628 318.987C193.483 314.363 192.741 309.213 193.493 304.172C194.246 299.132 196.459 294.422 199.86 290.627C203.262 286.832 207.701 284.117 212.629 282.818C217.557 281.52 222.758 281.695 227.588 283.321C232.418 284.948 236.665 287.955 239.803 291.971C242.942 295.986 244.834 300.834 245.246 305.913C245.657 310.993 244.571 316.082 242.12 320.551C239.67 325.019 235.963 328.671 231.458 331.055L231.932 341.071L223.56 333.72C217.933 334.659 212.154 333.726 207.109 331.065C202.063 328.403 198.03 324.16 195.628 318.987Z" fill="white" stroke="#1F74C2" stroke-linecap="round" stroke-linejoin="round"/>
<path d="M224.033 298.296C224.033 297.074 223.547 295.901 222.683 295.037C221.818 294.172 220.646 293.687 219.423 293.687C218.2 293.687 217.028 294.172 216.163 295.037C215.299 295.901 214.813 297.074 214.813 298.296H208.68V319.784H214.813C214.813 318.561 215.299 317.388 216.163 316.524C217.028 315.659 218.2 315.174 219.423 315.174C220.646 315.174 221.818 315.659 222.683 316.524C223.547 317.388 224.033 318.561 224.033 319.784H230.16V298.296H224.033Z" fill="#FC746C"/>
<path d="M413.089 332.971C416.985 329.684 419.831 325.328 421.276 320.441C422.721 315.553 422.702 310.35 421.22 305.473C419.738 300.597 416.859 296.262 412.939 293.005C409.019 289.749 404.23 287.712 399.165 287.149C394.1 286.586 388.981 287.52 384.441 289.836C379.901 292.152 376.14 295.748 373.623 300.179C371.106 304.611 369.943 309.683 370.279 314.768C370.615 319.854 372.434 324.729 375.512 328.791L370.856 337.671L381.545 334.541C386.25 337.768 391.884 339.361 397.582 339.077C403.28 338.794 408.728 336.648 413.089 332.971Z" fill="white" stroke="#1F74C2" stroke-linecap="round" stroke-linejoin="round"/>
<path d="M406.66 309.207V303.074H400.525C400.525 301.851 400.039 300.679 399.175 299.814C398.31 298.95 397.138 298.464 395.915 298.464C394.693 298.464 393.52 298.95 392.656 299.814C391.791 300.679 391.306 301.851 391.306 303.074H385.172V309.207C385.784 309.197 386.391 309.309 386.959 309.536C387.527 309.763 388.044 310.101 388.48 310.53C388.916 310.959 389.263 311.471 389.499 312.035C389.735 312.599 389.857 313.205 389.857 313.817C389.857 314.428 389.735 315.034 389.499 315.598C389.263 316.162 388.916 316.674 388.48 317.103C388.044 317.532 387.527 317.87 386.959 318.097C386.391 318.324 385.784 318.436 385.172 318.426V324.56H391.306C391.306 323.337 391.791 322.165 392.656 321.3C393.52 320.436 394.693 319.95 395.915 319.95C397.138 319.95 398.31 320.436 399.175 321.3C400.039 322.165 400.525 323.337 400.525 324.56H406.66V318.426C407.869 318.407 409.023 317.913 409.871 317.05C410.72 316.188 411.196 315.027 411.196 313.817C411.196 312.607 410.72 311.445 409.871 310.583C409.023 309.721 407.869 309.226 406.66 309.207Z" fill="#FC746C"/>
<path d="M276.864 319.032C276.864 319.032 276.59 329.619 300 329.619C323.409 329.619 322.32 319.032 322.32 319.032H276.864Z" fill="#FF8A83"/>
<path d="M323.517 291.479H276.288C273.167 291.479 270.637 294.009 270.637 297.13V316.339C270.637 319.46 273.167 321.99 276.288 321.99H323.517C326.638 321.99 329.168 319.46 329.168 316.339V297.13C329.168 294.009 326.638 291.479 323.517 291.479Z" fill="#EE3F36"/>
<path d="M373.399 178.653C371.777 155.76 357.642 111.106 302.64 108.425V108.295C301.752 108.295 300.872 108.307 300 108.329C299.131 108.307 298.251 108.296 297.36 108.295V108.425C242.352 111.106 228.217 155.76 226.595 178.653C224.922 202.26 237.191 220.662 247.413 239.065C257.636 257.469 261.355 282.097 262.935 291.025C263.204 293.401 264.338 295.595 266.121 297.188C267.904 298.782 270.21 299.663 272.601 299.665H327.386C327.386 299.665 335.472 299.944 337.052 291.025C338.633 282.107 342.35 257.473 352.574 239.065C362.798 220.657 375.072 202.26 373.399 178.653Z" fill="#FC746C"/>
<path d="M281.336 301.844C287.666 282.065 290.77 261.395 290.529 240.629C290.431 232.451 289.77 224.095 286.517 216.59C285.93 215.237 284.916 213.71 283.446 213.83C282.147 213.934 281.348 215.285 280.926 216.517C280.145 218.811 279.889 221.251 280.178 223.657C280.467 226.063 281.293 228.373 282.595 230.417C283.897 232.461 285.641 234.186 287.699 235.465C289.758 236.744 292.077 237.544 294.486 237.806C295.761 237.992 297.062 237.88 298.287 237.48C300.786 236.556 302.289 234.012 303.237 231.523C305.307 226.058 305.673 220.094 304.289 214.416C303.943 213.013 303.089 211.343 301.649 211.445C300.632 211.518 299.933 212.479 299.473 213.389C297.012 218.272 297.294 224.15 298.879 229.384C299.466 231.72 300.627 233.873 302.257 235.646C306.438 239.756 313.884 238.696 318.116 234.638C322.349 230.581 323.928 224.466 324.33 218.617C324.524 215.808 323.798 212.124 321.009 211.736C318.129 211.338 316.478 214.856 315.831 217.679C310.223 242.267 308.987 267.65 312.181 292.666C312.781 297.371 313.628 302.266 316.469 306.064" stroke="#19365A" stroke-miterlimit="10"/>
<path d="M247.65 138.412C245.465 140.733 243.747 143.453 242.591 146.423C242.029 147.915 241.849 149.524 242.066 151.103C242.284 152.682 242.892 154.182 243.836 155.467C246.716 158.902 252.251 158.846 256.196 156.708C260.142 154.57 262.949 150.882 265.916 147.52C270.588 142.225 276.128 137.395 282.846 135.223C285.393 134.399 288.067 133.972 290.559 132.989C291.833 132.568 293.01 131.897 294.02 131.013C295.03 130.13 295.853 129.053 296.439 127.847C297.787 124.508 296.144 120.462 293.226 118.354C286.173 113.257 277.02 118.09 270.109 121.028C261.068 124.871 253.969 130.96 247.65 138.412Z" fill="#FF8A83"/>
<path d="M247.009 180.806V174.673H240.876C240.876 173.451 240.39 172.278 239.526 171.414C238.661 170.549 237.489 170.063 236.266 170.063C235.043 170.063 233.871 170.549 233.006 171.414C232.142 172.278 231.656 173.451 231.656 174.673H225.523V196.153H231.656C231.656 194.931 232.142 193.758 233.006 192.894C233.871 192.029 235.043 191.543 236.266 191.543C237.489 191.543 238.661 192.029 239.526 192.894C240.39 193.758 240.876 194.931 240.876 196.153H247.009V190.02C248.232 190.02 249.404 189.534 250.269 188.67C251.133 187.805 251.619 186.633 251.619 185.41C251.619 184.188 251.133 183.015 250.269 182.151C249.404 181.286 248.232 180.8 247.009 180.8V180.806Z" fill="#FED5D2"/>
<path d="M370.841 172.957C370.458 172.962 370.077 173.015 369.708 173.115V166.824H363.573C363.573 168.047 363.088 169.219 362.223 170.084C361.359 170.948 360.186 171.434 358.964 171.434C357.741 171.434 356.569 170.948 355.704 170.084C354.839 169.219 354.354 168.047 354.354 166.824H348.221V172.957C346.998 172.957 345.826 173.443 344.961 174.308C344.097 175.172 343.611 176.345 343.611 177.567C343.611 178.79 344.097 179.962 344.961 180.827C345.826 181.691 346.998 182.177 348.221 182.177V188.31H354.48C354.499 187.101 354.994 185.947 355.856 185.098C356.718 184.25 357.88 183.774 359.09 183.774C360.299 183.774 361.461 184.25 362.323 185.098C363.186 185.947 363.68 187.101 363.699 188.31H369.708V182.02C370.341 182.182 371.001 182.207 371.645 182.095C372.289 181.982 372.901 181.733 373.441 181.365C373.981 180.998 374.437 180.519 374.778 179.961C375.119 179.404 375.337 178.78 375.418 178.132C375.499 177.483 375.441 176.825 375.248 176.2C375.055 175.576 374.731 175 374.298 174.511C373.865 174.021 373.333 173.629 372.737 173.362C372.14 173.094 371.494 172.956 370.841 172.957Z" fill="#FED5D2"/>
<path d="M268.637 253.622C268.637 252.399 268.151 251.226 267.287 250.362C266.422 249.497 265.25 249.012 264.027 249.012C262.804 249.012 261.632 249.497 260.767 250.362C259.903 251.226 259.417 252.399 259.417 253.622H253.284V275.102H259.417C259.417 273.879 259.903 272.706 260.767 271.842C261.632 270.977 262.804 270.492 264.027 270.492C265.25 270.492 266.422 270.977 267.287 271.842C268.151 272.706 268.637 273.879 268.637 275.102H274.77V253.622H268.637Z" fill="#FED5D2"/>
<path d="M344.308 250.778V244.645H338.174C338.184 244.034 338.072 243.426 337.845 242.858C337.618 242.29 337.28 241.773 336.851 241.337C336.422 240.901 335.91 240.555 335.346 240.319C334.782 240.082 334.176 239.96 333.565 239.96C332.953 239.96 332.347 240.082 331.783 240.319C331.219 240.555 330.707 240.901 330.278 241.337C329.849 241.773 329.511 242.29 329.284 242.858C329.057 243.426 328.945 244.034 328.955 244.645H322.822V250.778C324.044 250.778 325.217 251.264 326.081 252.129C326.946 252.993 327.431 254.166 327.431 255.388C327.431 256.611 326.946 257.783 326.081 258.648C325.217 259.512 324.044 259.998 322.822 259.998V266.131H328.955C328.945 265.52 329.057 264.912 329.284 264.344C329.511 263.776 329.849 263.259 330.278 262.823C330.707 262.387 331.219 262.041 331.783 261.805C332.347 261.568 332.953 261.446 333.565 261.446C334.176 261.446 334.782 261.568 335.346 261.805C335.91 262.041 336.422 262.387 336.851 262.823C337.28 263.259 337.618 263.776 337.845 264.344C338.072 264.912 338.184 265.52 338.174 266.131H344.308V259.998C345.53 259.998 346.703 259.512 347.567 258.648C348.432 257.783 348.917 256.611 348.917 255.388C348.917 254.166 348.432 252.993 347.567 252.129C346.703 251.264 345.53 250.778 344.308 250.778Z" fill="#FED5D2"/>
</g>
</svg>
