<svg width="551" height="550" viewBox="0 0 551 550" fill="none" xmlns="http://www.w3.org/2000/svg">
<mask id="mask0_1937_30037" style="mask-type:luminance" maskUnits="userSpaceOnUse" x="0" y="0" width="551" height="550">
<path d="M550.584 0H0.583984V550H550.584V0Z" fill="white"/>
</mask>
<g mask="url(#mask0_1937_30037)">
<path d="M550.584 0H0.583984V550H550.584V0Z" fill="white"/>
<path d="M547.584 420.189H-2.41602V420.464H547.584V420.189Z" fill="#E0E0E0"/>
<path d="M413.018 431.84H375.173V432.115H413.018V431.84Z" fill="#E0E0E0"/>
<path d="M119.728 431.977H98.4331V432.252H119.728V431.977Z" fill="#E0E0E0"/>
<path d="M273.684 431.333H230.521V431.608H273.684V431.333Z" fill="#E0E0E0"/>
<path d="M229.421 427.421H210.126V427.696H229.421V427.421Z" fill="#E0E0E0"/>
<path d="M464.595 427.559H406.311V427.834H464.595V427.559Z" fill="#E0E0E0"/>
<path d="M258.299 371.132H45.8905C44.2259 371.13 42.63 370.467 41.453 369.29C40.2759 368.113 39.6137 366.518 39.6117 364.853V66.2777C39.6137 64.6132 40.2759 63.0174 41.453 61.8406C42.6301 60.6637 44.226 60.0017 45.8905 60H258.3C259.965 60.002 261.56 60.6641 262.737 61.8409C263.914 63.0178 264.576 64.6134 264.578 66.2777V364.853C264.576 366.518 263.914 368.113 262.737 369.29C261.56 370.467 259.964 371.13 258.299 371.132ZM45.8905 60.2717C44.2988 60.2732 42.7727 60.906 41.6472 62.0314C40.5216 63.1568 39.8884 64.6827 39.8867 66.2744V364.853C39.8884 366.445 40.5215 367.971 41.6471 369.096C42.7726 370.222 44.2987 370.855 45.8905 370.857H258.3C259.892 370.855 261.418 370.221 262.543 369.096C263.669 367.97 264.301 366.444 264.303 364.853V66.2777C264.301 64.6863 263.668 63.1607 262.543 62.0354C261.418 60.9101 259.892 60.277 258.3 60.275L45.8905 60.2717Z" fill="#E0E0E0"/>
<path d="M496.225 371.132H283.815C282.151 371.13 280.555 370.467 279.378 369.29C278.201 368.113 277.539 366.517 277.537 364.853V66.2777C277.539 64.6133 278.201 63.0175 279.378 61.8406C280.555 60.6637 282.151 60.0017 283.815 60H496.225C497.89 60.0015 499.486 60.6633 500.663 61.8402C501.841 63.0171 502.503 64.613 502.505 66.2777V364.853C502.503 366.518 501.841 368.114 500.663 369.291C499.486 370.468 497.89 371.13 496.225 371.132ZM283.817 60.2717C282.226 60.2734 280.7 60.9064 279.575 62.0318C278.449 63.1571 277.816 64.6829 277.815 66.2744V364.853C277.816 366.445 278.449 367.971 279.574 369.096C280.7 370.222 282.226 370.855 283.817 370.857H496.227C497.819 370.855 499.346 370.222 500.471 369.097C501.597 367.971 502.23 366.445 502.232 364.853V66.2777C502.231 64.685 501.598 63.1578 500.471 62.0317C499.345 60.9056 497.818 60.2726 496.225 60.2717H283.817Z" fill="#E0E0E0"/>
<path d="M480.828 282.503C467.292 261.903 479.651 239.753 477.591 216.838C475.531 193.923 453.754 188.92 457.875 169.497C462.652 146.977 449.928 125.355 435.508 125.355C421.088 125.355 408.366 146.977 413.143 169.497C417.263 188.92 395.486 193.923 393.426 216.838C391.365 239.753 403.726 261.903 390.189 282.503C376.653 303.102 380.205 330.389 387.834 343.93C389.864 347.52 392.305 350.861 395.109 353.885C400.274 359.433 406.528 363.857 413.478 366.883C420.429 369.908 427.928 371.469 435.509 371.469C443.089 371.469 450.589 369.908 457.539 366.883C464.49 363.857 470.743 359.433 475.909 353.885C478.712 350.861 481.153 347.52 483.182 343.93C490.813 330.389 494.366 303.102 480.828 282.503Z" fill="#E0E0E0"/>
<path d="M435.509 298.14C437.324 298.14 439.064 298.861 440.347 300.144C441.631 301.427 442.351 303.168 442.351 304.982V420.19H428.667V304.982C428.667 303.168 429.388 301.427 430.671 300.144C431.955 298.861 433.695 298.14 435.509 298.14Z" fill="#F0F0F0"/>
<path d="M349.484 420.192H330.854V304.992C330.862 302.523 331.845 300.158 333.591 298.413C335.336 296.668 337.701 295.684 340.169 295.677C342.637 295.684 345.003 296.667 346.748 298.413C348.493 300.158 349.477 302.523 349.484 304.992V420.192Z" fill="#E0E0E0"/>
<path d="M340.169 389.114C371.862 389.114 397.554 363.422 397.554 331.729C397.554 300.036 371.862 274.344 340.169 274.344C308.476 274.344 282.784 300.036 282.784 331.729C282.784 363.422 308.476 389.114 340.169 389.114Z" fill="#F0F0F0"/>
<path d="M407.619 314.503C410.629 302.376 403.238 290.105 391.111 287.095C378.984 284.086 366.713 291.476 363.703 303.604C360.693 315.731 368.084 328.002 380.211 331.011C392.338 334.021 404.609 326.63 407.619 314.503Z" fill="#F0F0F0"/>
<path d="M306.977 297.829C308.166 290.531 303.214 283.65 295.915 282.461C288.617 281.272 281.736 286.225 280.547 293.523C279.358 300.822 284.311 307.702 291.609 308.891C298.908 310.08 305.788 305.128 306.977 297.829Z" fill="#F0F0F0"/>
<path d="M308.315 298.14C313.505 298.14 317.713 293.933 317.713 288.743C317.713 283.553 313.505 279.346 308.315 279.346C303.125 279.346 298.918 283.553 298.918 288.743C298.918 293.933 303.125 298.14 308.315 298.14Z" fill="#F0F0F0"/>
<path d="M221.951 351.433C213.029 352.761 204.502 356.014 196.963 360.968C196.895 352.261 195.301 343.99 191.209 337.312C184.98 343.383 179.934 351.235 175.858 359.68C174.332 343.802 170.163 328.421 160.933 318.7C147.105 327.398 139.977 341.898 136.586 357.253C130.992 346.893 122.871 338.114 112.976 331.733C104.515 340.643 101.815 352.963 102.038 365.588C92.426 354.397 81.7505 345.66 71.3478 344.634C68.7859 362.36 74.2419 379.073 81.1752 392.249C85.683 400.717 92.4161 407.794 100.649 412.717C108.882 417.641 118.302 420.224 127.894 420.189H173.088C192.35 420.189 210.409 409.913 219.446 392.903C225.174 382.132 227.891 368.256 221.951 351.433Z" fill="#E0E0E0"/>
<path d="M209.066 122.905C214.65 106.546 210.217 94.8999 196.565 94.8999C188.004 94.8999 177.388 99.4836 167.05 106.947C165.883 102.692 162.593 100.143 157.302 100.143C147.988 100.143 135.152 108.022 125.081 119.137C122.247 116.444 118.496 114.928 114.587 114.897C105.677 114.395 94.879 118.922 85.4949 126.285C85.0264 125.627 84.4065 125.09 83.6876 124.721C82.9686 124.352 82.1715 124.161 81.3633 124.164C76.2274 123.878 69.2754 128.448 65.8214 134.364C65.6069 134.736 65.4155 135.094 65.2241 135.452H211.777C212.215 130.296 211.303 125.984 209.066 122.905Z" fill="#F0F0F0"/>
<path d="M209.519 222.227C212.247 214.235 210.081 208.547 203.413 208.547C199.233 208.547 194.045 210.787 188.995 214.432C188.425 212.354 186.818 211.108 184.233 211.108C179.685 211.108 173.414 214.958 168.494 220.387C167.11 219.071 165.278 218.33 163.368 218.315C159.016 218.07 153.742 220.281 149.157 223.878C148.929 223.556 148.626 223.294 148.275 223.114C147.924 222.934 147.535 222.841 147.14 222.843C144.631 222.702 141.235 224.933 139.55 227.824C139.44 228.006 139.351 228.181 139.257 228.356H210.844C211.151 226.22 210.68 224.045 209.519 222.227Z" fill="#F0F0F0"/>
<path d="M374.628 161.794C374.065 161.712 373.498 161.672 372.929 161.672C373.456 153.69 370.405 148.594 363.887 148.594C359.186 148.594 353.415 151.255 347.534 155.757C349.217 140.264 343.828 130.194 331.625 130.194C321.783 130.194 309.321 136.744 297.012 147.427C295.934 141.349 292.307 137.706 286.213 137.706C275.508 137.706 260.297 148.963 248.101 164.844C248.101 164.844 248.101 164.864 248.086 164.844C246.699 163.012 244.919 161.515 242.876 160.463C240.834 159.411 238.581 158.831 236.284 158.766C226.09 158.049 213.435 164.517 202.214 175.057C201.804 174.168 201.152 173.412 200.333 172.876C199.514 172.34 198.56 172.046 197.582 172.027C192.008 171.639 184.327 177.45 179.865 185.227H383.6C388.382 173.44 384.572 163.122 374.628 161.794Z" fill="#F0F0F0"/>
<path d="M275.584 470.317C393.374 470.317 488.862 464.74 488.862 457.862C488.862 450.983 393.374 445.406 275.584 445.406C157.794 445.406 62.3062 450.983 62.3062 457.862C62.3062 464.74 157.794 470.317 275.584 470.317Z" fill="#F5F5F5"/>
<path d="M54.3256 165.618L305.094 201.715L338.747 235.677L54.3256 165.618Z" fill="#FC746C"/>
<path opacity="0.6" d="M54.3256 165.618L305.094 201.715L338.747 235.677L54.3256 165.618Z" fill="white"/>
<path d="M54.3256 165.618L305.094 201.715L293.457 250.824L54.3256 165.618Z" fill="#FC746C"/>
<path opacity="0.2" d="M54.3256 165.618L305.094 201.715L293.457 250.824L54.3256 165.618Z" fill="black"/>
<path d="M288.307 108.764L302.864 176.99C303.239 178.771 302.894 180.627 301.904 182.155C300.915 183.682 299.362 184.756 297.584 185.142L167.697 212.862C165.916 213.237 164.058 212.892 162.531 211.901C161.003 210.911 159.93 209.356 159.545 207.577L144.984 139.347C144.606 137.566 144.949 135.708 145.939 134.18C146.929 132.651 148.484 131.578 150.264 131.195L280.151 103.475C281.933 103.098 283.791 103.442 285.319 104.433C286.848 105.424 287.921 106.98 288.303 108.76L288.307 108.764Z" fill="#FC746C"/>
<path opacity="0.4" d="M288.307 108.764L302.864 176.99C303.239 178.771 302.894 180.627 301.904 182.155C300.915 183.682 299.362 184.756 297.584 185.142L167.697 212.862C165.916 213.237 164.058 212.892 162.531 211.901C161.003 210.911 159.93 209.356 159.545 207.577L144.984 139.347C144.606 137.566 144.949 135.708 145.939 134.18C146.929 132.651 148.484 131.578 150.264 131.195L280.151 103.475C281.933 103.098 283.791 103.442 285.319 104.433C286.848 105.424 287.921 106.98 288.303 108.76L288.307 108.764Z" fill="black"/>
<path d="M285.113 104.305L241.711 157.581C237.686 162.52 232.097 165.937 225.866 167.266C219.635 168.596 213.138 167.758 207.448 164.892L146.078 133.98C147.073 132.558 148.57 131.566 150.268 131.202L280.154 103.482C281.852 103.12 283.624 103.414 285.113 104.305Z" fill="#FC746C"/>
<path d="M54.3256 165.618L261.161 214.773L293.456 250.825L54.3256 165.618Z" fill="#FC746C"/>
<path opacity="0.6" d="M54.3256 165.618L261.161 214.773L293.456 250.825L54.3256 165.618Z" fill="white"/>
<path d="M129.774 213.003L129.218 213.954L152.236 227.423L152.792 226.473L129.774 213.003Z" fill="#FC746C"/>
<path d="M162.956 232.442L162.399 233.392L170.679 238.242L171.235 237.292L162.956 232.442Z" fill="#FC746C"/>
<path d="M54.3256 165.618L261.161 214.773L220.958 263.23L54.3256 165.618Z" fill="#FC746C"/>
<path d="M330.979 280.788C330.702 280.788 330.428 280.735 330.17 280.632L296.473 267.291C295.931 267.077 295.496 266.655 295.264 266.119C295.032 265.584 295.023 264.978 295.238 264.436C295.453 263.893 295.874 263.458 296.41 263.227C296.945 262.995 297.551 262.986 298.093 263.2L331.794 276.54C332.271 276.728 332.668 277.077 332.915 277.526C333.163 277.975 333.245 278.497 333.149 279C333.053 279.504 332.784 279.958 332.388 280.285C331.992 280.611 331.495 280.789 330.982 280.787L330.979 280.788Z" fill="#FC746C"/>
<path opacity="0.3" d="M330.979 280.788C330.702 280.788 330.428 280.735 330.17 280.632L296.473 267.291C295.931 267.077 295.496 266.655 295.264 266.119C295.032 265.584 295.023 264.978 295.238 264.436C295.453 263.893 295.874 263.458 296.41 263.227C296.945 262.995 297.551 262.986 298.093 263.2L331.794 276.54C332.271 276.728 332.668 277.077 332.915 277.526C333.163 277.975 333.245 278.497 333.149 279C333.053 279.504 332.784 279.958 332.388 280.285C331.992 280.611 331.495 280.789 330.982 280.787L330.979 280.788Z" fill="black"/>
<path d="M328.994 261.47C328.717 261.47 328.442 261.418 328.185 261.315L310.088 254.151C309.545 253.936 309.11 253.514 308.879 252.979C308.647 252.443 308.637 251.838 308.852 251.295C309.067 250.753 309.489 250.318 310.024 250.086C310.56 249.854 311.165 249.845 311.708 250.06L329.805 257.224C330.282 257.412 330.677 257.761 330.924 258.21C331.171 258.659 331.254 259.18 331.157 259.683C331.061 260.186 330.793 260.64 330.398 260.966C330.003 261.292 329.507 261.471 328.994 261.47Z" fill="#FC746C"/>
<path opacity="0.5" d="M328.994 261.47C328.717 261.47 328.442 261.418 328.185 261.315L310.088 254.151C309.545 253.936 309.11 253.514 308.879 252.979C308.647 252.443 308.637 251.838 308.852 251.295C309.067 250.753 309.489 250.318 310.024 250.086C310.56 249.854 311.165 249.845 311.708 250.06L329.805 257.224C330.282 257.412 330.677 257.761 330.924 258.21C331.171 258.659 331.254 259.18 331.157 259.683C331.061 260.186 330.793 260.64 330.398 260.966C330.003 261.292 329.507 261.471 328.994 261.47Z" fill="white"/>
<path d="M291.161 280.455C290.884 280.455 290.61 280.402 290.353 280.299L257.497 267.291C256.954 267.077 256.519 266.655 256.288 266.119C256.056 265.584 256.047 264.978 256.261 264.436C256.476 263.893 256.898 263.458 257.433 263.227C257.969 262.995 258.575 262.986 259.117 263.2L291.974 276.21C292.45 276.398 292.846 276.747 293.093 277.196C293.34 277.645 293.422 278.166 293.326 278.669C293.23 279.172 292.962 279.626 292.567 279.952C292.172 280.278 291.676 280.457 291.163 280.456L291.161 280.455Z" fill="#FC746C"/>
<path opacity="0.3" d="M291.161 280.455C290.884 280.455 290.61 280.402 290.353 280.299L257.497 267.291C256.954 267.077 256.519 266.655 256.288 266.119C256.056 265.584 256.047 264.978 256.261 264.436C256.476 263.893 256.898 263.458 257.433 263.227C257.969 262.995 258.575 262.986 259.117 263.2L291.974 276.21C292.45 276.398 292.846 276.747 293.093 277.196C293.34 277.645 293.422 278.166 293.326 278.669C293.23 279.172 292.962 279.626 292.567 279.952C292.172 280.278 291.676 280.457 291.163 280.456L291.161 280.455Z" fill="black"/>
<path d="M410.114 181.303C413.027 186.993 415.702 192.687 418.24 198.522C420.76 204.352 423.153 210.254 425.213 216.442L425.965 218.789C426.091 219.205 426.287 219.889 426.388 220.377C426.492 220.886 426.603 221.41 426.662 221.875C426.909 223.648 427.034 225.436 427.036 227.226C427.057 230.513 426.905 233.799 426.58 237.071C425.966 243.44 424.965 249.767 423.585 256.016L417.553 255.347C417.475 249.151 417.417 242.894 417.202 236.79C417.092 233.744 416.92 230.706 416.611 227.839C416.468 226.499 416.249 225.168 415.957 223.853C415.894 223.543 415.812 223.303 415.737 223.052C415.65 222.779 415.613 222.716 415.493 222.392L414.664 220.312C412.366 214.746 409.778 209.131 407.141 203.544L399.161 186.78L410.114 181.303Z" fill="#E4897B"/>
<path d="M417.641 253.462L414.825 258.729L423.82 261.239C423.82 261.239 425.533 257.001 423.49 253.661L417.641 253.462Z" fill="#E4897B"/>
<path d="M411.377 266.322L419.647 266.976L423.82 261.239L414.826 258.73L411.377 266.322Z" fill="#E4897B"/>
<path d="M372.244 143.291C372.114 143.929 371.671 144.378 371.254 144.293C370.837 144.209 370.604 143.622 370.734 142.983C370.864 142.344 371.307 141.895 371.724 141.981C372.141 142.067 372.374 142.652 372.244 143.291Z" fill="#263238"/>
<path d="M371.724 144.39C370.565 146.186 369.165 147.815 367.563 149.23C367.935 149.631 368.391 149.945 368.898 150.151C369.405 150.357 369.951 150.449 370.497 150.423L371.724 144.39Z" fill="#DE5753"/>
<path d="M375.303 140.219C375.25 140.219 375.198 140.208 375.15 140.187C375.101 140.166 375.058 140.135 375.022 140.096C374.706 139.733 374.309 139.45 373.863 139.271C373.417 139.092 372.934 139.021 372.455 139.065C372.355 139.082 372.252 139.058 372.17 138.999C372.087 138.94 372.031 138.851 372.014 138.751C371.998 138.65 372.021 138.548 372.08 138.465C372.139 138.382 372.229 138.326 372.329 138.31C372.933 138.245 373.545 138.326 374.111 138.547C374.678 138.767 375.183 139.121 375.585 139.577C375.635 139.632 375.669 139.7 375.681 139.773C375.693 139.847 375.684 139.922 375.654 139.99C375.624 140.058 375.575 140.116 375.513 140.157C375.451 140.198 375.378 140.219 375.303 140.219Z" fill="#263238"/>
<path d="M390.439 152.275C389.281 158.186 388.124 169.019 392.26 172.964C392.26 172.964 390.644 178.96 379.659 178.96C367.58 178.96 373.887 172.964 373.887 172.964C380.479 171.39 380.309 166.499 379.167 161.905L390.439 152.275Z" fill="#E4897B"/>
<path d="M393.919 176.697C394.791 173.8 395.751 170.484 393.765 169.446C391.579 168.303 379.616 167.136 375.491 169.283C371.366 171.43 372.536 177.303 372.536 177.303L393.919 176.697Z" fill="#263238"/>
<path d="M419.291 451.023C418.949 451.067 418.6 451.043 418.267 450.951C417.934 450.859 417.622 450.702 417.351 450.488C417.257 450.355 417.207 450.196 417.208 450.033C417.209 449.87 417.261 449.711 417.357 449.58C417.419 449.466 417.505 449.368 417.609 449.291C417.712 449.214 417.832 449.16 417.958 449.134C419.145 448.861 421.368 450.385 421.464 450.454C421.494 450.475 421.517 450.505 421.531 450.539C421.545 450.573 421.549 450.611 421.542 450.647C421.536 450.683 421.519 450.717 421.493 450.744C421.468 450.771 421.436 450.79 421.4 450.799C420.707 450.946 420 451.021 419.291 451.023ZM418.281 449.483C418.202 449.482 418.123 449.49 418.046 449.508C417.972 449.523 417.901 449.553 417.84 449.598C417.779 449.642 417.728 449.699 417.692 449.766C417.519 450.08 417.621 450.213 417.654 450.257C418.001 450.711 419.653 450.718 420.858 450.515C420.087 449.983 419.206 449.63 418.281 449.482V449.483Z" fill="#FC746C"/>
<path d="M421.355 450.799C421.323 450.798 421.292 450.791 421.264 450.777C420.429 450.324 418.81 448.554 418.981 447.652C419.01 447.511 419.086 447.384 419.197 447.292C419.308 447.201 419.447 447.15 419.59 447.149C419.736 447.132 419.883 447.145 420.024 447.187C420.164 447.23 420.294 447.3 420.406 447.395C421.345 448.165 421.537 450.494 421.546 450.593C421.549 450.627 421.542 450.662 421.527 450.693C421.512 450.723 421.488 450.749 421.459 450.768C421.429 450.789 421.392 450.8 421.355 450.799ZM419.724 447.524C419.695 447.524 419.666 447.526 419.638 447.53C419.388 447.559 419.367 447.675 419.357 447.723C419.257 448.257 420.287 449.593 421.117 450.223C421.059 449.303 420.726 448.422 420.161 447.693C420.04 447.586 419.885 447.526 419.724 447.524Z" fill="#FC746C"/>
<path d="M370.765 451.024C369.728 451.024 368.728 450.881 368.392 450.415C368.308 450.291 368.264 450.144 368.267 449.994C368.27 449.844 368.319 449.699 368.407 449.578C368.473 449.466 368.56 449.368 368.665 449.291C368.769 449.214 368.888 449.159 369.014 449.13C370.352 448.773 373.183 450.374 373.304 450.442C373.338 450.462 373.365 450.491 373.382 450.526C373.399 450.561 373.404 450.601 373.398 450.639C373.391 450.678 373.373 450.713 373.346 450.741C373.319 450.769 373.284 450.789 373.246 450.797C372.427 450.945 371.597 451.021 370.765 451.024ZM369.484 449.456C369.36 449.454 369.235 449.469 369.115 449.5C369.037 449.516 368.964 449.549 368.899 449.594C368.835 449.64 368.78 449.699 368.739 449.767C368.603 450.006 368.653 450.122 368.702 450.191C369.066 450.695 371.108 450.722 372.624 450.513C371.655 449.963 370.589 449.605 369.484 449.46V449.456Z" fill="#FC746C"/>
<path d="M373.208 450.799C373.181 450.799 373.154 450.794 373.13 450.783C372.155 450.343 370.222 448.599 370.37 447.683C370.405 447.469 370.557 447.203 371.083 447.149C371.273 447.129 371.465 447.148 371.647 447.205C371.83 447.261 371.999 447.355 372.144 447.479C373.173 448.324 373.389 450.499 373.398 450.592C373.401 450.625 373.396 450.659 373.382 450.689C373.368 450.719 373.347 450.746 373.32 450.766C373.287 450.788 373.248 450.8 373.208 450.799ZM371.237 447.524C371.199 447.524 371.161 447.524 371.121 447.529C370.777 447.565 370.755 447.7 370.748 447.749C370.66 448.299 371.972 449.671 372.967 450.268C372.876 449.348 372.504 448.477 371.9 447.776C371.716 447.615 371.481 447.525 371.237 447.524Z" fill="#FC746C"/>
<path d="M382.094 450.608H374.013L373.208 431.894H381.294L382.094 450.608Z" fill="#E4897B"/>
<path d="M430.613 450.608H422.533L418.474 431.895H426.554L430.613 450.608Z" fill="#E4897B"/>
<path d="M421.958 449.672H431.036C431.196 449.672 431.352 449.726 431.477 449.826C431.602 449.926 431.689 450.066 431.725 450.222L433.321 457.405C433.358 457.58 433.356 457.761 433.313 457.935C433.271 458.109 433.19 458.271 433.076 458.409C432.963 458.547 432.819 458.657 432.657 458.732C432.494 458.807 432.317 458.845 432.138 458.842C428.968 458.788 427.428 458.602 423.436 458.602C420.98 458.602 415.919 458.857 412.527 458.857C409.21 458.857 408.693 455.503 410.081 455.199C416.307 453.838 418.653 451.959 420.646 450.167C421.007 449.846 421.474 449.669 421.958 449.672Z" fill="#263238"/>
<path d="M374.066 449.672H382.891C383.051 449.672 383.206 449.727 383.331 449.827C383.456 449.927 383.543 450.066 383.579 450.222L385.176 457.405C385.215 457.579 385.215 457.759 385.175 457.933C385.135 458.106 385.056 458.268 384.944 458.407C384.832 458.545 384.69 458.656 384.529 458.732C384.367 458.808 384.191 458.846 384.013 458.843C380.83 458.789 376.229 458.602 372.228 458.602C367.549 458.602 363.509 458.857 358.022 458.857C354.705 458.857 353.784 455.503 355.173 455.2C361.495 453.817 366.656 453.669 372.12 450.3C372.698 449.914 373.371 449.697 374.066 449.672Z" fill="#263238"/>
<path d="M370.164 187.158C363.408 186.63 356.685 185.736 350.025 184.481C346.691 183.84 343.351 183.125 340.015 182.226C336.585 181.345 333.217 180.234 329.936 178.9C329.09 178.552 328.235 178.161 327.381 177.756C326.432 177.282 325.516 176.748 324.637 176.155C323.048 175.106 321.688 174.024 320.334 172.944C317.644 170.79 315.14 168.55 312.669 166.287C307.75 161.737 303.083 157.027 298.589 152.073L302.636 147.552L318.594 159.023C321.234 160.922 323.887 162.777 326.503 164.523C327.806 165.388 329.143 166.21 330.353 166.894C330.863 167.188 331.392 167.447 331.937 167.67C332.597 167.926 333.257 168.179 333.949 168.412C339.892 170.246 345.97 171.607 352.127 172.482C358.408 173.472 364.9 174.294 371.168 174.945L370.164 187.158Z" fill="#E4897B"/>
<path d="M406.729 174.79C414.303 176.526 421.961 198.671 421.961 198.671L406.374 209.854C406.374 209.854 402.019 199.541 397.735 190.521C393.241 181.07 398.985 173.015 406.729 174.79Z" fill="#D3D3D3"/>
<path d="M402.359 186.89L399.268 193.809C402.469 200.717 405.395 207.559 406.176 209.385C406.066 201.212 404.515 191.07 402.359 186.89Z" fill="#D3D3D3"/>
<path opacity="0.6" d="M402.359 186.89L399.268 193.809C402.469 200.717 405.395 207.559 406.176 209.385C406.066 201.212 404.515 191.07 402.359 186.89Z" fill="black"/>
<path d="M361.456 175.207C361.456 175.207 352.856 184.922 360.978 245.057H404.201C404.498 238.421 400.329 206.055 406.731 174.793C401.953 173.872 397.12 173.262 392.262 172.966C386.144 172.612 380.01 172.612 373.892 172.966C369.695 173.388 365.537 174.138 361.456 175.207Z" fill="#D3D3D3"/>
<path d="M358.26 186.89C357.974 189.167 357.754 191.862 357.611 195.041C361.879 193.76 365.934 191.854 369.645 189.387L358.26 186.89Z" fill="#D3D3D3"/>
<path opacity="0.6" d="M358.26 186.89C357.974 189.167 357.754 191.862 357.611 195.041C361.879 193.76 365.934 191.854 369.645 189.387L358.26 186.89Z" fill="black"/>
<path d="M376.749 188.069C370.966 193.193 348.876 192.68 348.876 192.68L348.148 171.325C355.606 172.386 363.13 172.931 370.663 172.957C383.008 172.707 383.095 182.446 376.749 188.069Z" fill="#D3D3D3"/>
<path d="M302.83 147.662L297.283 141.186L291.361 147.745C291.361 147.745 295.008 153.878 300.812 152.915L302.83 147.662Z" fill="#E4897B"/>
<path d="M289.452 133.633L287.318 142.084L291.362 147.745L297.284 141.187L289.452 133.633Z" fill="#E4897B"/>
<path d="M373.21 431.899L373.624 441.545H381.708L381.294 431.899H373.21Z" fill="#CE6F64"/>
<path d="M426.555 431.899H418.474L420.572 441.545H428.656L426.555 431.899Z" fill="#CE6F64"/>
<path d="M378.074 135.258C370.825 131.909 368.534 117.287 389.388 120.909C389.388 120.909 386.245 124.391 392.629 126.591C399.014 128.791 393.669 142.465 378.074 135.258Z" fill="#263238"/>
<path d="M393.824 146.267C391.748 154.014 390.927 158.653 386.146 161.875C378.955 166.715 370.002 161.159 369.722 152.948C369.47 145.557 372.912 134.13 381.221 132.57C383.053 132.216 384.944 132.337 386.715 132.921C388.487 133.504 390.08 134.531 391.342 135.904C392.605 137.276 393.496 138.949 393.93 140.763C394.365 142.576 394.328 144.471 393.824 146.267Z" fill="#E4897B"/>
<path d="M389.104 124.85C394.04 127.61 400.729 129.256 400.057 133.169C399.235 137.952 404.101 134.96 402.968 142.086C402.228 146.737 393.646 160.838 387.604 160.15C378.522 159.115 379.674 145.243 379.643 137.953C379.625 133.65 379.424 119.431 389.104 124.85Z" fill="#263238"/>
<path d="M378.555 131.022C376.355 131.541 373.44 144.222 381.965 145.384C391.769 146.72 378.555 131.022 378.555 131.022Z" fill="#263238"/>
<path d="M378.777 135.52C376.081 135.757 370 132.512 370.726 127.633C370.726 127.636 374.602 133.346 378.777 135.52Z" fill="#263238"/>
<path d="M382.775 146.397C381.948 148.21 380.547 149.701 378.788 150.638C376.464 151.848 375.158 150.079 375.683 147.753C376.157 145.663 377.937 142.507 380.328 142.253C382.684 141.995 383.739 144.197 382.775 146.397Z" fill="#E4897B"/>
<path d="M394.875 137.444C396.52 136.733 397.962 135.625 399.073 134.218C400.184 132.812 400.928 131.151 401.238 129.386C401.238 129.386 404.869 139.524 394.875 137.444Z" fill="#263238"/>
<path d="M404.056 137.337C403.29 136.821 402.408 136.503 401.489 136.413C400.571 136.322 399.643 136.461 398.792 136.818C398.792 136.818 402.179 132.423 404.056 137.337Z" fill="#263238"/>
<path d="M376.311 245.055C376.311 245.055 385.482 306.811 390.516 329.947C396.03 355.282 416.801 439.678 416.801 439.678H431.601C431.601 439.678 417.905 357.328 414.759 332.244C411.349 305.018 404.199 245.055 404.199 245.055H376.311Z" fill="#FC746C"/>
<path opacity="0.5" d="M376.311 245.055C376.311 245.055 385.482 306.811 390.516 329.947C396.03 355.282 416.801 439.678 416.801 439.678H431.601C431.601 439.678 417.905 357.328 414.759 332.244C411.349 305.018 404.199 245.055 404.199 245.055H376.311Z" fill="white"/>
<path d="M414.437 434.225C414.374 434.225 415.966 439.908 415.966 439.908H432.618L432.312 434.836L414.437 434.225Z" fill="#FC746C"/>
<path opacity="0.1" d="M414.437 434.225C414.374 434.225 415.966 439.908 415.966 439.908H432.618L432.312 434.836L414.437 434.225Z" fill="black"/>
<path d="M382.107 267.058C392.711 269.137 391.589 308.682 390.313 329.021C387.255 314.644 382.778 286.979 379.72 267.344C380.46 266.979 381.302 266.879 382.107 267.058Z" fill="#FC746C"/>
<path opacity="0.4" d="M382.107 267.058C392.711 269.137 391.589 308.682 390.313 329.021C387.255 314.644 382.778 286.979 379.72 267.344C380.46 266.979 381.302 266.879 382.107 267.058Z" fill="white"/>
<path d="M360.978 245.054C360.978 245.054 359.866 305.473 360.745 330.116C361.659 355.746 370.612 439.676 370.612 439.676H384.301C384.301 439.676 384.804 357.246 385.412 332.072C386.072 304.628 389.39 245.053 389.39 245.053L360.978 245.054Z" fill="#FC746C"/>
<path opacity="0.5" d="M360.978 245.054C360.978 245.054 359.866 305.473 360.745 330.116C361.659 355.746 370.612 439.676 370.612 439.676H384.301C384.301 439.676 384.804 357.246 385.412 332.072C386.072 304.628 389.39 245.053 389.39 245.053L360.978 245.054Z" fill="white"/>
<path d="M373.463 429.845C373.429 429.844 373.396 429.832 373.371 429.809C373.346 429.786 373.33 429.754 373.327 429.72C370.914 406.492 365.224 350.286 364.505 330.122C363.771 309.54 364.436 263.363 364.659 249.701C364.659 249.665 364.674 249.63 364.699 249.604C364.725 249.579 364.76 249.564 364.796 249.564C364.814 249.565 364.832 249.568 364.849 249.575C364.865 249.583 364.88 249.593 364.893 249.606C364.906 249.619 364.916 249.634 364.922 249.651C364.929 249.668 364.932 249.686 364.931 249.704C364.711 263.365 364.044 309.536 364.777 330.114C365.497 350.271 371.185 406.468 373.597 429.695C373.599 429.713 373.598 429.731 373.593 429.748C373.587 429.766 373.579 429.782 373.568 429.796C373.556 429.81 373.542 429.821 373.526 429.83C373.51 429.839 373.493 429.844 373.475 429.846L373.463 429.845Z" fill="#FC746C"/>
<path opacity="0.4" d="M373.463 429.845C373.429 429.844 373.396 429.832 373.371 429.809C373.346 429.786 373.33 429.754 373.327 429.72C370.914 406.492 365.224 350.286 364.505 330.122C363.771 309.54 364.436 263.363 364.659 249.701C364.659 249.665 364.674 249.63 364.699 249.604C364.725 249.579 364.76 249.564 364.796 249.564C364.814 249.565 364.832 249.568 364.849 249.575C364.865 249.583 364.88 249.593 364.893 249.606C364.906 249.619 364.916 249.634 364.922 249.651C364.929 249.668 364.932 249.686 364.931 249.704C364.711 263.365 364.044 309.536 364.777 330.114C365.497 350.271 371.185 406.468 373.597 429.695C373.599 429.713 373.598 429.731 373.593 429.748C373.587 429.766 373.579 429.782 373.568 429.796C373.556 429.81 373.542 429.821 373.526 429.83C373.51 429.839 373.493 429.844 373.475 429.846L373.463 429.845Z" fill="white"/>
<path d="M367.977 434.225C367.915 434.225 368.747 439.908 368.747 439.908H385.4L385.85 434.836L367.977 434.225Z" fill="#FC746C"/>
<path opacity="0.1" d="M367.977 434.225C367.915 434.225 368.747 439.908 368.747 439.908H385.4L385.85 434.836L367.977 434.225Z" fill="black"/>
</g>
</svg>
