<svg width="100" height="100" viewBox="0 0 100 100" fill="none" xmlns="http://www.w3.org/2000/svg">
<path d="M41.7732 73.4195L31.5036 97.6389L24.0516 90.3961L13.6621 90.0742L24.8154 63.7749L25.0739 64.3013C25.6828 65.5432 26.5841 66.6187 27.7003 67.4353C28.8166 68.2519 30.1145 68.7853 31.4824 68.9896L36.6666 69.7628L40.899 72.8578C41.1794 73.0616 41.4713 73.2491 41.7732 73.4195Z" fill="#4D1A2D"/>
<path d="M86.3451 90.0742L75.9555 90.3961L68.5036 97.6389L58.0342 72.9494L58.8872 73.0763C60.255 73.2804 61.6519 73.1492 62.9577 72.694C64.2636 72.2388 65.4393 71.4732 66.3839 70.4631L69.9677 66.6349L74.9192 64.91C75.1401 64.8324 75.354 64.7478 75.5655 64.6538L86.3451 90.0742Z" fill="#4D1A2D"/>
<path d="M62.0171 32.8917L53.8141 32.2969L50.7168 24.6658C50.6575 24.519 50.5551 24.3937 50.423 24.3064C50.2909 24.219 50.1354 24.1739 49.9771 24.1769C49.823 24.1757 49.6722 24.2215 49.5448 24.3082C49.4175 24.3949 49.3195 24.5183 49.264 24.6621L46.1651 32.2969L37.9591 32.8919C37.804 32.8996 37.655 32.9546 37.5321 33.0496C37.4093 33.1445 37.3184 33.2748 37.2718 33.4229C37.221 33.5717 37.2169 33.7325 37.2602 33.8837C37.3036 34.0349 37.3922 34.1691 37.5141 34.2684L43.8105 39.5804L41.8416 47.5796C41.8011 47.7331 41.8085 47.8953 41.8627 48.0446C41.917 48.1938 42.0156 48.3229 42.1453 48.4145C42.2699 48.5067 42.4196 48.5588 42.5746 48.5637C42.7295 48.5686 42.8823 48.5261 43.0125 48.4419L50.0099 44.0916L57.005 48.4611C57.1384 48.5399 57.292 48.5776 57.4468 48.5698C57.6015 48.5619 57.7505 48.5088 57.8752 48.4169C58 48.3251 58.095 48.1986 58.1485 48.0532C58.202 47.9078 58.2116 47.7499 58.1761 47.5991L56.207 39.5996L62.5039 34.2874C62.6228 34.1866 62.7086 34.0523 62.7499 33.902C62.7913 33.7517 62.7863 33.5924 62.7356 33.4449C62.6859 33.2908 62.5907 33.1554 62.4624 33.0566C62.3341 32.9578 62.1788 32.9003 62.0171 32.8917Z" fill="#4D1A2D"/>
<path d="M82.8636 27.2843L78.8436 22.4899L77.5122 16.3765C77.3596 15.6758 77.0392 15.0227 76.5784 14.4732C76.1177 13.9237 75.5304 13.4943 74.8671 13.2218L69.0796 10.8448L65.0597 6.0503C64.5989 5.50081 64.0117 5.07139 63.3483 4.79896C62.685 4.52652 61.9655 4.41921 61.2515 4.48624L55.0222 5.07102L49.2347 2.69395C48.5713 2.42151 47.8518 2.31418 47.1378 2.38121C46.4239 2.44823 45.7369 2.6876 45.1358 3.07874L39.8918 6.49147L33.6625 7.07631C32.9486 7.14334 32.2616 7.38271 31.6605 7.77385C31.0595 8.165 30.5624 8.69621 30.212 9.32187L27.1546 14.7807L21.9107 18.1933C21.3096 18.5845 20.8126 19.1157 20.4622 19.7414C20.1117 20.367 19.9185 21.0684 19.899 21.7852L19.7286 28.0396L16.6713 33.4984C16.3209 34.1241 16.1276 34.8254 16.1081 35.5423C16.0886 36.2591 16.2434 36.9699 16.5592 37.6137L19.315 43.2309L19.1447 49.4852C19.1252 50.2021 19.28 50.9129 19.5958 51.5567C19.9117 52.2005 20.3791 52.758 20.958 53.1813L26.0084 56.8743L28.7642 62.4915C29.08 63.1352 29.5474 63.6927 30.1263 64.116C30.7051 64.5392 31.3781 64.8157 32.0873 64.9214L38.2756 65.8444L43.3261 69.5374C43.9049 69.9607 44.5779 70.2371 45.2871 70.3429C45.9964 70.4487 46.7207 70.3807 47.3979 70.1447L53.3062 68.0862L59.4944 69.0091C60.2037 69.1149 60.928 69.0469 61.6052 68.811C62.2824 68.575 62.8921 68.1782 63.3821 67.6546L67.657 63.0861L73.5653 61.0275C74.2425 60.7916 74.8522 60.3947 75.3422 59.8711C75.8322 59.3475 76.1877 58.7128 76.3782 58.0214L78.0403 51.9896L82.3152 47.4211C82.8052 46.8974 83.1607 46.2627 83.3512 45.5714C83.5417 44.8801 83.5615 44.1528 83.4089 43.4521L82.0775 37.3387L83.7396 31.3069C83.9301 30.6155 83.9499 29.8883 83.7973 29.1876C83.6447 28.4869 83.3243 27.8338 82.8636 27.2843ZM50.0026 56.6513C45.9927 56.6513 42.0728 55.4622 38.7386 53.2344C35.4044 51.0066 32.8058 47.8401 31.2712 44.1354C29.7367 40.4307 29.3352 36.3541 30.1175 32.4212C30.8998 28.4883 32.8308 24.8757 35.6662 22.0402C38.5017 19.2047 42.1143 17.2738 46.0472 16.4915C49.9801 15.7092 54.0567 16.1107 57.7614 17.6452C61.4661 19.1798 64.6326 21.7784 66.8604 25.1126C69.0882 28.4467 70.2773 32.3667 70.2773 36.3766C70.2773 39.0391 69.7529 41.6756 68.734 44.1354C67.7151 46.5952 66.2217 48.8303 64.339 50.713C62.4563 52.5957 60.2213 54.0891 57.7614 55.108C55.3016 56.1269 52.6651 56.6513 50.0026 56.6513Z" fill="#4D1A2D"/>
</svg>
