<svg width="99" height="100" viewBox="0 0 99 100" fill="none" xmlns="http://www.w3.org/2000/svg">
<path d="M98.279 23.4284C96.1734 27.0923 94.0662 30.754 91.9571 34.4132C91.8344 34.7375 91.6359 35.0275 91.3783 35.2595C91.1207 35.4916 90.8115 35.6586 90.4762 35.7469C90.1409 35.8352 89.7894 35.8419 89.451 35.7669C89.1125 35.6918 88.7969 35.5374 88.5304 35.3157C85.1211 33.356 81.7189 31.3803 78.3113 29.4171C77.9057 29.2369 77.5669 28.9341 77.3431 28.5508C77.1193 28.1676 77.0216 27.7236 77.0639 27.2818C77.0725 26.8506 77.2332 26.4359 77.5175 26.1115C77.8018 25.7871 78.1913 25.5736 78.6178 25.5084C79.2518 25.4459 79.8903 25.5726 80.4524 25.8725C82.3965 26.9176 84.2848 28.0535 86.3753 29.2606C86.3037 28.9832 86.2153 28.7104 86.1105 28.4437C79.3164 14.6093 68.3412 6.44478 53.0299 4.49906C47.7225 3.78508 42.3253 4.15613 37.1655 5.58946C32.0056 7.02279 27.1906 9.48876 23.012 12.8378C21.5888 13.9318 20.1098 13.7786 19.4443 12.4895C19.2019 12.0029 19.1546 11.4419 19.312 10.9215C19.4694 10.4012 19.8195 9.9607 20.2909 9.68995C25.0396 5.91709 30.5087 3.15391 36.3633 1.56935C46.9627 -1.2779 58.2321 -0.227487 68.1223 4.5301C78.0124 9.28769 85.8665 17.4362 90.2567 27.494C90.356 27.7205 90.4641 27.9438 90.6436 28.334L93.2393 23.8465C93.5981 23.2281 93.9361 22.601 94.3211 21.9948C94.4887 21.6449 94.7513 21.3495 95.079 21.1417C95.4066 20.9339 95.786 20.8223 96.1739 20.8198C96.5619 20.8173 96.9428 20.9238 97.2732 21.1273C97.6035 21.3308 97.8699 21.6229 98.0421 21.9706C98.1101 22.0734 98.1937 22.1639 98.2703 22.2615L98.279 23.4284Z" fill="#4D1A2D"/>
<path d="M56.3998 99.9631C55.8772 99.5346 55.3179 99.1428 54.8319 98.6707C52.3814 96.246 49.9425 93.8074 47.5152 91.3547C47.2193 91.156 46.9764 90.8878 46.8083 90.5735C46.6402 90.2592 46.5518 89.9084 46.5508 89.552C46.5498 89.1956 46.6363 88.8445 46.8026 88.5292C46.9689 88.214 47.2098 87.9442 47.5046 87.7437C50.0741 85.1622 52.6282 82.5631 55.2553 80.0407C55.7726 79.5286 56.4697 79.2393 57.1977 79.2344C57.8961 79.4132 58.4953 79.8611 58.8647 80.4801C59.0604 80.8451 59.1231 81.2664 59.0421 81.6725C58.9611 82.0786 58.7415 82.444 58.4207 82.7059C57.1925 83.9619 55.9434 85.1952 54.7047 86.4424C54.487 86.6636 54.2848 86.8989 54.074 87.1288L54.1665 87.4039C56.1281 87.0712 58.1141 86.8447 60.046 86.3901C68.1499 84.5312 75.5116 80.2891 81.1829 74.2098C86.8543 68.1305 90.5754 60.4924 91.8671 52.2797C92.1911 50.2992 92.1805 48.2736 92.3721 46.2617C92.3952 45.6834 92.5484 45.1179 92.82 44.6069C93.0408 44.2379 93.3837 43.9575 93.7893 43.8146C94.1949 43.6718 94.6379 43.6752 95.0412 43.8244C95.4908 43.9358 95.8873 44.201 96.1621 44.5738C96.437 44.9466 96.5728 45.4038 96.5462 45.8662C96.5659 47.2323 96.5078 48.5982 96.372 49.9577C94.4209 66.5913 86.0572 78.8842 71.2633 86.7316C66.2626 89.338 60.793 90.9232 55.1734 91.3947C54.7274 91.4365 54.285 91.4995 53.5672 91.5848C54.879 92.8669 56.0322 93.9939 57.1837 95.1227C57.4851 95.4188 57.783 95.7182 58.0809 96.0196C59.5547 97.5141 59.3892 98.8067 57.5739 99.9563L56.3998 99.9631Z" fill="#4D1A2D"/>
<path d="M50.6994 70.8216C45.7556 70.815 40.9246 69.3426 36.818 66.5901C32.7114 63.8377 29.5136 59.9288 27.629 55.3587C25.7445 50.7885 25.2579 45.7622 26.231 40.9155C27.2041 36.0688 29.5931 31.6197 33.0956 28.1309C36.5982 24.6421 41.057 22.2707 45.9078 21.3163C50.7587 20.3619 55.7837 20.8676 60.3471 22.7695C64.9104 24.6713 68.807 27.8837 71.5439 32.0005C74.2809 36.1172 75.735 40.9534 75.7226 45.8967C75.6877 52.5131 73.0371 58.8471 68.3492 63.5167C63.6612 68.1862 57.3165 70.812 50.6994 70.8216ZM50.7307 66.6237C54.8496 66.6196 58.8748 65.3939 62.2967 63.1016C65.7187 60.8093 68.3835 57.5537 69.9543 53.7464C71.5251 49.9392 71.9311 45.7514 71.1209 41.7133C70.3108 37.6753 68.3211 33.9683 65.4032 31.0615C62.4854 28.1546 58.7707 26.1788 54.7293 25.3836C50.6879 24.5885 46.5015 25.0097 42.6997 26.5944C38.8979 28.1791 35.6515 30.8559 33.3716 34.2859C31.0918 37.7159 29.8807 41.7451 29.8917 45.8636C29.9138 51.376 32.1189 56.655 36.0243 60.5457C39.9298 64.4364 45.2177 66.6219 50.7307 66.6237Z" fill="#4D1A2D"/>
<path d="M11.4673 22.2471C8.72521 22.9839 6.1922 23.6741 3.65571 24.3377C3.22422 24.5018 2.7513 24.5223 2.30704 24.3968C1.86277 24.2714 1.47073 24.0063 1.18888 23.6407C0.910338 23.3354 0.745914 22.9434 0.723374 22.5307C0.700834 22.1181 0.821484 21.71 1.06512 21.3761C1.43324 20.8919 1.94083 20.5323 2.51969 20.3453C6.33313 19.2705 10.1658 18.2549 13.9966 17.2463C14.3062 17.1108 14.6434 17.0502 14.9808 17.0694C15.3182 17.0885 15.6462 17.1868 15.9384 17.3564C16.2306 17.5261 16.4786 17.7623 16.6625 18.0458C16.8463 18.3293 16.9609 18.6522 16.9966 18.9882C18.0418 22.8762 19.087 26.7693 20.1218 30.659C20.2467 31.0496 20.2467 31.4694 20.1218 31.86C19.9969 32.2506 19.7535 32.5924 19.4251 32.8381C19.143 33.1186 18.7725 33.293 18.3765 33.3314C17.9805 33.3698 17.5834 33.2701 17.2526 33.049C16.6991 32.6243 16.2824 32.0463 16.0541 31.3871C15.5001 29.6922 15.0995 27.9466 14.6361 26.2221C14.596 26.0741 14.542 25.9295 14.4375 25.6038C14.1901 25.9887 14.0089 26.2308 13.8677 26.4939C8.75334 36.2584 7.72413 47.6536 11.0062 58.1764C14.2883 68.6991 21.6133 77.4888 31.3722 82.6152C33.1614 83.5297 35.0482 84.2511 36.8931 85.0541C37.2955 85.1973 37.6419 85.465 37.8821 85.8183C38.1223 86.1716 38.2439 86.5919 38.2292 87.0189C38.2569 87.4318 38.1424 87.8419 37.9047 88.1807C37.667 88.5195 37.3204 88.7667 36.9226 88.8811C36.3329 89.0304 35.7124 89.005 35.1369 88.808C27.9459 86.2892 21.5308 81.9491 16.5175 76.2118C12.3549 71.5927 9.19153 66.164 7.2256 60.2653C5.25966 54.3666 4.53362 48.125 5.09285 41.9326C5.60185 35.296 7.61552 28.8628 10.9811 23.1202C11.1066 22.9024 11.2251 22.6773 11.4673 22.2471Z" fill="#4D1A2D"/>
<path d="M52.8281 58.28C52.8281 58.9924 52.8559 59.6406 52.8281 60.2868C52.8281 60.8412 52.6079 61.3727 52.2158 61.7647C51.8238 62.1567 51.2921 62.3771 50.7376 62.3771C50.1832 62.3771 49.6513 62.1567 49.2592 61.7647C48.8672 61.3727 48.647 60.8412 48.647 60.2868C48.6156 59.6789 48.647 59.0674 48.647 58.3306C47.2638 58.3306 45.973 58.3635 44.6856 58.3216C44.326 58.3511 43.9649 58.2872 43.6374 58.1358C43.3099 57.9844 43.0272 57.7509 42.8168 57.4579C42.6063 57.1649 42.4752 56.8223 42.4363 56.4636C42.3975 56.105 42.4521 55.7424 42.595 55.4111C42.7855 54.9922 43.1026 54.6437 43.5017 54.4147C43.9008 54.1856 44.3618 54.0876 44.8196 54.1344C47.1923 54.1344 49.5668 54.1602 51.9396 54.1114C52.6458 54.0952 53.3239 53.8315 53.8556 53.3664C54.3873 52.9012 54.7389 52.2644 54.8489 51.5666C54.9784 50.8727 54.8632 50.1556 54.5229 49.5372C54.1827 48.9187 53.6385 48.4372 52.9831 48.175C52.4276 48.0044 51.8514 47.9103 51.2705 47.8948C50.1694 47.8858 49.0703 47.8041 47.9799 47.6507C46.4089 47.2784 45.0073 46.3919 43.9981 45.1318C42.9888 43.8717 42.4298 42.3104 42.4097 40.6962C42.3897 39.0819 42.9098 37.5074 43.8875 36.2227C44.8652 34.938 46.2442 34.0167 47.8055 33.6056C48.4623 33.4314 48.7672 33.1875 48.6574 32.4994C48.6356 32.2398 48.6356 31.9787 48.6574 31.7191C48.6766 30.1513 49.4641 29.1793 50.7306 29.1619C52.0267 29.1427 52.8385 30.1391 52.8542 31.7748C52.8542 32.259 52.8542 32.7416 52.8542 33.3513C54.1695 33.3513 55.3959 33.3426 56.6223 33.3513C58.1292 33.3635 59.0612 34.1493 59.0838 35.3913C59.1012 36.6681 58.1309 37.4921 56.577 37.4956C54.3663 37.4956 52.1556 37.4956 49.9431 37.4956C49.5098 37.4565 49.0731 37.5081 48.6608 37.647C48.2485 37.7858 47.8696 38.0087 47.5482 38.3019C47.2268 38.5951 46.9699 38.9523 46.7939 39.3502C46.6179 39.748 46.5267 40.1778 46.5259 40.6128C46.5252 41.0479 46.615 41.4783 46.7896 41.8767C46.9643 42.2752 47.2199 42.6333 47.5403 42.9276C47.8607 43.2219 48.239 43.4461 48.6508 43.5863C49.0627 43.7266 49.4993 43.7796 49.9327 43.742C50.907 43.7064 51.8826 43.7383 52.8525 43.8377C54.5177 44.0765 56.0484 44.8857 57.1837 46.1269C58.319 47.3681 58.9884 48.9645 59.0781 50.6442C59.1677 52.3238 58.672 53.9825 57.6752 55.3375C56.6784 56.6925 55.2422 57.6599 53.6119 58.0746L52.8281 58.28Z" fill="#4D1A2D"/>
</svg>
