<svg width="163" height="11" viewBox="0 0 163 11" fill="none" xmlns="http://www.w3.org/2000/svg">
<path d="M84.7025 6.09897C109.083 3.71748 134.414 8.25076 158.103 9.95528C161.013 9.20578 161.522 9.2904 162.941 8.11779C163.897 5.83301 152.933 7.70677 154.939 5.70004C134.508 3.83837 112.964 0.538142 93.219 1.17885C113.577 -0.0421184 136.144 4.89009 155.37 5.11978C103.513 -5.6513 56.4615 5.59124 2.44766 1.2272C-5.19067 1.65031 7.16575 5.26484 10.7251 5.60333V6.24403C6.9735 6.32865 3.23228 3.9109 3.53885 7.53753C44.3233 14.5127 84.3232 4.16477 123.98 7.8881C105.368 6.07479 77.0538 7.34411 63.575 8.83103C62.2448 8.90356 62.1565 8.83102 62.2968 8.73431H62.1461C62.6189 8.68596 62.6657 8.40792 62.1461 8.40792C83.5438 6.37701 103.518 6.09897 124.853 7.30784V7.94855C134.549 8.45627 146.765 11.9016 155.962 10.4267C132.767 7.63424 107.685 4.26148 84.7025 6.09897Z" fill="#FC746C"/>
</svg>
